<?xml version="1.0" encoding="utf-8" ?>
<svg baseProfile="full" height="256" version="1.1" width="256" xmlns="http://www.w3.org/2000/svg" xmlns:ev="http://www.w3.org/2001/xml-events" xmlns:xlink="http://www.w3.org/1999/xlink"><defs /><image height="256" width="256" xlink:href="/home/nelson/Workspace/building_reconstruction/la_dataset_new/rgb/1525715342.42.jpg" /><line opacity="0.7" stroke="magenta" stroke-width="1" x1="133.0" x2="110.0" y1="156.0" y2="151.0" /><line opacity="0.7" stroke="magenta" stroke-width="1" x1="152.0" x2="122.5" y1="106.0" y2="106.0" /><line opacity="0.7" stroke="magenta" stroke-width="1" x1="109.0" x2="110.0" y1="63.0" y2="151.0" /><line opacity="0.7" stroke="magenta" stroke-width="1" x1="158.0" x2="158.5" y1="180.0" y2="188.5" /><line opacity="0.7" stroke="magenta" stroke-width="1" x1="193.0" x2="193.0" y1="81.0" y2="92.0" /><line opacity="0.7" stroke="magenta" stroke-width="1" x1="62.5" x2="64.5" y1="175.0" y2="162.0" /><line opacity="0.7" stroke="magenta" stroke-width="1" x1="150.5" x2="121.5" y1="194.0" y2="193.0" /><line opacity="0.7" stroke="magenta" stroke-width="1" x1="150.5" x2="159.0" y1="194.0" y2="195.0" /><line opacity="0.7" stroke="magenta" stroke-width="1" x1="176.0" x2="159.0" y1="194.0" y2="195.0" /><line opacity="0.7" stroke="magenta" stroke-width="1" x1="159.0" x2="158.5" y1="195.0" y2="188.5" /><circle cx="150.5" cy="194.0" fill="white" opacity="0.8" r="1.5" stroke="blue" stroke-width="0.8" /><circle cx="110.0" cy="151.0" fill="white" opacity="0.8" r="1.5" stroke="blue" stroke-width="0.8" /><circle cx="193.0" cy="81.0" fill="white" opacity="0.8" r="1.5" stroke="blue" stroke-width="0.8" /><circle cx="193.0" cy="92.0" fill="white" opacity="0.8" r="1.5" stroke="blue" stroke-width="0.8" /><circle cx="133.0" cy="156.0" fill="white" opacity="0.8" r="1.5" stroke="blue" stroke-width="0.8" /><circle cx="158.0" cy="180.0" fill="white" opacity="0.8" r="1.5" stroke="blue" stroke-width="0.8" /><circle cx="159.0" cy="195.0" fill="white" opacity="0.8" r="1.5" stroke="blue" stroke-width="0.8" /><circle cx="109.0" cy="63.0" fill="white" opacity="0.8" r="1.5" stroke="blue" stroke-width="0.8" /><circle cx="64.5" cy="162.0" fill="white" opacity="0.8" r="1.5" stroke="blue" stroke-width="0.8" /><circle cx="176.0" cy="194.0" fill="white" opacity="0.8" r="1.5" stroke="blue" stroke-width="0.8" /><circle cx="122.5" cy="106.0" fill="white" opacity="0.8" r="1.5" stroke="blue" stroke-width="0.8" /><circle cx="62.5" cy="175.0" fill="white" opacity="0.8" r="1.5" stroke="blue" stroke-width="0.8" /><circle cx="152.0" cy="106.0" fill="white" opacity="0.8" r="1.5" stroke="blue" stroke-width="0.8" /><circle cx="121.5" cy="193.0" fill="white" opacity="0.8" r="1.5" stroke="blue" stroke-width="0.8" /><circle cx="158.5" cy="188.5" fill="white" opacity="0.8" r="1.5" stroke="blue" stroke-width="0.8" /></svg>