<?xml version="1.0" encoding="utf-8" ?>
<svg baseProfile="full" height="256" version="1.1" width="256" xmlns="http://www.w3.org/2000/svg" xmlns:ev="http://www.w3.org/2001/xml-events" xmlns:xlink="http://www.w3.org/1999/xlink"><defs /><image height="256" width="256" xlink:href="/home/nelson/Workspace/building_reconstruction/la_dataset_new/rgb/1525713106.78.jpg" /><line opacity="0.7" stroke="magenta" stroke-width="1" x1="114.0" x2="53.0" y1="45.0" y2="163.5" /><line opacity="0.7" stroke="magenta" stroke-width="1" x1="114.0" x2="150.5" y1="45.0" y2="68.5" /><line opacity="0.7" stroke="magenta" stroke-width="1" x1="202.0" x2="139.0" y1="90.0" y2="212.5" /><line opacity="0.7" stroke="magenta" stroke-width="1" x1="202.0" x2="158.0" y1="90.0" y2="71.0" /><line opacity="0.7" stroke="magenta" stroke-width="1" x1="53.0" x2="112.5" y1="163.5" y2="163.0" /><line opacity="0.7" stroke="magenta" stroke-width="1" x1="139.0" x2="94.0" y1="212.5" y2="186.5" /><line opacity="0.7" stroke="magenta" stroke-width="1" x1="158.0" x2="152.5" y1="71.0" y2="83.0" /><line opacity="0.7" stroke="magenta" stroke-width="1" x1="158.0" x2="150.5" y1="71.0" y2="68.5" /><line opacity="0.7" stroke="magenta" stroke-width="1" x1="112.5" x2="152.5" y1="163.0" y2="83.0" /><line opacity="0.7" stroke="magenta" stroke-width="1" x1="112.5" x2="121.0" y1="163.0" y2="174.0" /><line opacity="0.7" stroke="magenta" stroke-width="1" x1="112.5" x2="104.5" y1="163.0" y2="159.5" /><line opacity="0.7" stroke="magenta" stroke-width="1" x1="152.5" x2="150.5" y1="83.0" y2="68.5" /><line opacity="0.7" stroke="magenta" stroke-width="1" x1="121.0" x2="124.5" y1="174.0" y2="161.0" /><line opacity="0.7" stroke="magenta" stroke-width="1" x1="121.0" x2="131.0" y1="174.0" y2="179.5" /><line opacity="0.7" stroke="magenta" stroke-width="1" x1="124.5" x2="104.5" y1="161.0" y2="159.5" /><circle cx="114.0" cy="45.0" fill="white" opacity="0.8" r="1.5" stroke="blue" stroke-width="0.8" /><circle cx="124.5" cy="161.0" fill="white" opacity="0.8" r="1.5" stroke="blue" stroke-width="0.8" /><circle cx="112.5" cy="163.0" fill="white" opacity="0.8" r="1.5" stroke="blue" stroke-width="0.8" /><circle cx="202.0" cy="90.0" fill="white" opacity="0.8" r="1.5" stroke="blue" stroke-width="0.8" /><circle cx="53.0" cy="163.5" fill="white" opacity="0.8" r="1.5" stroke="blue" stroke-width="0.8" /><circle cx="150.5" cy="68.5" fill="white" opacity="0.8" r="1.5" stroke="blue" stroke-width="0.8" /><circle cx="139.0" cy="212.5" fill="white" opacity="0.8" r="1.5" stroke="blue" stroke-width="0.8" /><circle cx="131.0" cy="179.5" fill="white" opacity="0.8" r="1.5" stroke="blue" stroke-width="0.8" /><circle cx="104.5" cy="159.5" fill="white" opacity="0.8" r="1.5" stroke="blue" stroke-width="0.8" /><circle cx="152.5" cy="83.0" fill="white" opacity="0.8" r="1.5" stroke="blue" stroke-width="0.8" /><circle cx="94.0" cy="186.5" fill="white" opacity="0.8" r="1.5" stroke="blue" stroke-width="0.8" /><circle cx="158.0" cy="71.0" fill="white" opacity="0.8" r="1.5" stroke="blue" stroke-width="0.8" /><circle cx="121.0" cy="174.0" fill="white" opacity="0.8" r="1.5" stroke="blue" stroke-width="0.8" /></svg>