<?xml version="1.0" encoding="utf-8" ?>
<svg baseProfile="full" height="256" version="1.1" width="256" xmlns="http://www.w3.org/2000/svg" xmlns:ev="http://www.w3.org/2001/xml-events" xmlns:xlink="http://www.w3.org/1999/xlink"><defs /><image height="256" width="256" xlink:href="/home/nelson/Workspace/building_reconstruction/la_dataset_new/rgb/1525714378.17.jpg" /><line opacity="0.7" stroke="magenta" stroke-width="1" x1="67.0" x2="68.0" y1="196.0" y2="61.0" /><line opacity="0.7" stroke="magenta" stroke-width="1" x1="67.0" x2="188.0" y1="196.0" y2="195.0" /><line opacity="0.7" stroke="magenta" stroke-width="1" x1="67.0" x2="96.0" y1="196.0" y2="161.0" /><line opacity="0.7" stroke="magenta" stroke-width="1" x1="67.0" x2="141.5" y1="196.0" y2="163.0" /><line opacity="0.7" stroke="magenta" stroke-width="1" x1="67.0" x2="161.0" y1="196.0" y2="80.0" /><line opacity="0.7" stroke="magenta" stroke-width="1" x1="67.0" x2="82.0" y1="196.0" y2="175.0" /><line opacity="0.7" stroke="magenta" stroke-width="1" x1="67.0" x2="162.0" y1="196.0" y2="181.0" /><line opacity="0.7" stroke="magenta" stroke-width="1" x1="67.0" x2="82.0" y1="196.0" y2="183.0" /><line opacity="0.7" stroke="magenta" stroke-width="1" x1="67.0" x2="92.0" y1="196.0" y2="197.0" /><line opacity="0.7" stroke="magenta" stroke-width="1" x1="67.0" x2="189.5" y1="196.0" y2="145.0" /><line opacity="0.7" stroke="magenta" stroke-width="1" x1="67.0" x2="159.0" y1="196.0" y2="91.0" /><line opacity="0.7" stroke="magenta" stroke-width="1" x1="67.0" x2="160.5" y1="196.0" y2="173.0" /><line opacity="0.7" stroke="magenta" stroke-width="1" x1="67.0" x2="91.5" y1="196.0" y2="183.0" /><line opacity="0.7" stroke="magenta" stroke-width="1" x1="67.0" x2="94.5" y1="196.0" y2="176.0" /><line opacity="0.7" stroke="magenta" stroke-width="1" x1="68.0" x2="187.5" y1="61.0" y2="61.0" /><line opacity="0.7" stroke="magenta" stroke-width="1" x1="68.0" x2="83.0" y1="61.0" y2="77.5" /><line opacity="0.7" stroke="magenta" stroke-width="1" x1="99.0" x2="140.0" y1="95.5" y2="95.5" /><line opacity="0.7" stroke="magenta" stroke-width="1" x1="99.0" x2="96.0" y1="95.5" y2="161.0" /><line opacity="0.7" stroke="magenta" stroke-width="1" x1="99.0" x2="141.5" y1="95.5" y2="163.0" /><line opacity="0.7" stroke="magenta" stroke-width="1" x1="99.0" x2="161.0" y1="95.5" y2="80.0" /><line opacity="0.7" stroke="magenta" stroke-width="1" x1="99.0" x2="82.0" y1="95.5" y2="175.0" /><line opacity="0.7" stroke="magenta" stroke-width="1" x1="99.0" x2="83.0" y1="95.5" y2="77.5" /><line opacity="0.7" stroke="magenta" stroke-width="1" x1="99.0" x2="162.0" y1="95.5" y2="181.0" /><line opacity="0.7" stroke="magenta" stroke-width="1" x1="99.0" x2="82.0" y1="95.5" y2="183.0" /><line opacity="0.7" stroke="magenta" stroke-width="1" x1="99.0" x2="92.0" y1="95.5" y2="197.0" /><line opacity="0.7" stroke="magenta" stroke-width="1" x1="99.0" x2="189.5" y1="95.5" y2="145.0" /><line opacity="0.7" stroke="magenta" stroke-width="1" x1="99.0" x2="159.0" y1="95.5" y2="91.0" /><line opacity="0.7" stroke="magenta" stroke-width="1" x1="99.0" x2="160.5" y1="95.5" y2="173.0" /><line opacity="0.7" stroke="magenta" stroke-width="1" x1="99.0" x2="91.5" y1="95.5" y2="183.0" /><line opacity="0.7" stroke="magenta" stroke-width="1" x1="99.0" x2="94.5" y1="95.5" y2="176.0" /><line opacity="0.7" stroke="magenta" stroke-width="1" x1="188.0" x2="187.5" y1="195.0" y2="61.0" /><line opacity="0.7" stroke="magenta" stroke-width="1" x1="188.0" x2="82.0" y1="195.0" y2="183.0" /><line opacity="0.7" stroke="magenta" stroke-width="1" x1="188.0" x2="92.0" y1="195.0" y2="197.0" /><line opacity="0.7" stroke="magenta" stroke-width="1" x1="188.0" x2="189.5" y1="195.0" y2="145.0" /><line opacity="0.7" stroke="magenta" stroke-width="1" x1="187.5" x2="161.0" y1="61.0" y2="80.0" /><line opacity="0.7" stroke="magenta" stroke-width="1" x1="187.5" x2="189.5" y1="61.0" y2="145.0" /><line opacity="0.7" stroke="magenta" stroke-width="1" x1="140.0" x2="96.0" y1="95.5" y2="161.0" /><line opacity="0.7" stroke="magenta" stroke-width="1" x1="140.0" x2="141.5" y1="95.5" y2="163.0" /><line opacity="0.7" stroke="magenta" stroke-width="1" x1="140.0" x2="161.0" y1="95.5" y2="80.0" /><line opacity="0.7" stroke="magenta" stroke-width="1" x1="140.0" x2="82.0" y1="95.5" y2="175.0" /><line opacity="0.7" stroke="magenta" stroke-width="1" x1="140.0" x2="83.0" y1="95.5" y2="77.5" /><line opacity="0.7" stroke="magenta" stroke-width="1" x1="140.0" x2="162.0" y1="95.5" y2="181.0" /><line opacity="0.7" stroke="magenta" stroke-width="1" x1="140.0" x2="92.0" y1="95.5" y2="197.0" /><line opacity="0.7" stroke="magenta" stroke-width="1" x1="140.0" x2="189.5" y1="95.5" y2="145.0" /><line opacity="0.7" stroke="magenta" stroke-width="1" x1="140.0" x2="159.0" y1="95.5" y2="91.0" /><line opacity="0.7" stroke="magenta" stroke-width="1" x1="140.0" x2="160.5" y1="95.5" y2="173.0" /><line opacity="0.7" stroke="magenta" stroke-width="1" x1="140.0" x2="91.5" y1="95.5" y2="183.0" /><line opacity="0.7" stroke="magenta" stroke-width="1" x1="140.0" x2="94.5" y1="95.5" y2="176.0" /><line opacity="0.7" stroke="magenta" stroke-width="1" x1="96.0" x2="141.5" y1="161.0" y2="163.0" /><line opacity="0.7" stroke="magenta" stroke-width="1" x1="96.0" x2="82.0" y1="161.0" y2="175.0" /><line opacity="0.7" stroke="magenta" stroke-width="1" x1="96.0" x2="162.0" y1="161.0" y2="181.0" /><line opacity="0.7" stroke="magenta" stroke-width="1" x1="96.0" x2="82.0" y1="161.0" y2="183.0" /><line opacity="0.7" stroke="magenta" stroke-width="1" x1="96.0" x2="92.0" y1="161.0" y2="197.0" /><line opacity="0.7" stroke="magenta" stroke-width="1" x1="96.0" x2="189.5" y1="161.0" y2="145.0" /><line opacity="0.7" stroke="magenta" stroke-width="1" x1="96.0" x2="159.0" y1="161.0" y2="91.0" /><line opacity="0.7" stroke="magenta" stroke-width="1" x1="96.0" x2="160.5" y1="161.0" y2="173.0" /><line opacity="0.7" stroke="magenta" stroke-width="1" x1="96.0" x2="91.5" y1="161.0" y2="183.0" /><line opacity="0.7" stroke="magenta" stroke-width="1" x1="96.0" x2="94.5" y1="161.0" y2="176.0" /><line opacity="0.7" stroke="magenta" stroke-width="1" x1="141.5" x2="161.0" y1="163.0" y2="80.0" /><line opacity="0.7" stroke="magenta" stroke-width="1" x1="141.5" x2="82.0" y1="163.0" y2="175.0" /><line opacity="0.7" stroke="magenta" stroke-width="1" x1="141.5" x2="162.0" y1="163.0" y2="181.0" /><line opacity="0.7" stroke="magenta" stroke-width="1" x1="141.5" x2="82.0" y1="163.0" y2="183.0" /><line opacity="0.7" stroke="magenta" stroke-width="1" x1="141.5" x2="92.0" y1="163.0" y2="197.0" /><line opacity="0.7" stroke="magenta" stroke-width="1" x1="141.5" x2="189.5" y1="163.0" y2="145.0" /><line opacity="0.7" stroke="magenta" stroke-width="1" x1="141.5" x2="159.0" y1="163.0" y2="91.0" /><line opacity="0.7" stroke="magenta" stroke-width="1" x1="141.5" x2="160.5" y1="163.0" y2="173.0" /><line opacity="0.7" stroke="magenta" stroke-width="1" x1="141.5" x2="91.5" y1="163.0" y2="183.0" /><line opacity="0.7" stroke="magenta" stroke-width="1" x1="141.5" x2="94.5" y1="163.0" y2="176.0" /><line opacity="0.7" stroke="magenta" stroke-width="1" x1="161.0" x2="82.0" y1="80.0" y2="175.0" /><line opacity="0.7" stroke="magenta" stroke-width="1" x1="161.0" x2="83.0" y1="80.0" y2="77.5" /><line opacity="0.7" stroke="magenta" stroke-width="1" x1="161.0" x2="162.0" y1="80.0" y2="181.0" /><line opacity="0.7" stroke="magenta" stroke-width="1" x1="161.0" x2="82.0" y1="80.0" y2="183.0" /><line opacity="0.7" stroke="magenta" stroke-width="1" x1="161.0" x2="92.0" y1="80.0" y2="197.0" /><line opacity="0.7" stroke="magenta" stroke-width="1" x1="161.0" x2="189.5" y1="80.0" y2="145.0" /><line opacity="0.7" stroke="magenta" stroke-width="1" x1="161.0" x2="159.0" y1="80.0" y2="91.0" /><line opacity="0.7" stroke="magenta" stroke-width="1" x1="161.0" x2="160.5" y1="80.0" y2="173.0" /><line opacity="0.7" stroke="magenta" stroke-width="1" x1="82.0" x2="83.0" y1="175.0" y2="77.5" /><line opacity="0.7" stroke="magenta" stroke-width="1" x1="82.0" x2="162.0" y1="175.0" y2="181.0" /><line opacity="0.7" stroke="magenta" stroke-width="1" x1="82.0" x2="82.0" y1="175.0" y2="183.0" /><line opacity="0.7" stroke="magenta" stroke-width="1" x1="82.0" x2="92.0" y1="175.0" y2="197.0" /><line opacity="0.7" stroke="magenta" stroke-width="1" x1="82.0" x2="189.5" y1="175.0" y2="145.0" /><line opacity="0.7" stroke="magenta" stroke-width="1" x1="82.0" x2="160.5" y1="175.0" y2="173.0" /><line opacity="0.7" stroke="magenta" stroke-width="1" x1="82.0" x2="91.5" y1="175.0" y2="183.0" /><line opacity="0.7" stroke="magenta" stroke-width="1" x1="82.0" x2="94.5" y1="175.0" y2="176.0" /><line opacity="0.7" stroke="magenta" stroke-width="1" x1="83.0" x2="82.0" y1="77.5" y2="183.0" /><line opacity="0.7" stroke="magenta" stroke-width="1" x1="83.0" x2="92.0" y1="77.5" y2="197.0" /><line opacity="0.7" stroke="magenta" stroke-width="1" x1="83.0" x2="189.5" y1="77.5" y2="145.0" /><line opacity="0.7" stroke="magenta" stroke-width="1" x1="83.0" x2="91.5" y1="77.5" y2="183.0" /><line opacity="0.7" stroke="magenta" stroke-width="1" x1="83.0" x2="94.5" y1="77.5" y2="176.0" /><line opacity="0.7" stroke="magenta" stroke-width="1" x1="162.0" x2="82.0" y1="181.0" y2="183.0" /><line opacity="0.7" stroke="magenta" stroke-width="1" x1="162.0" x2="189.5" y1="181.0" y2="145.0" /><line opacity="0.7" stroke="magenta" stroke-width="1" x1="162.0" x2="159.0" y1="181.0" y2="91.0" /><line opacity="0.7" stroke="magenta" stroke-width="1" x1="162.0" x2="160.5" y1="181.0" y2="173.0" /><line opacity="0.7" stroke="magenta" stroke-width="1" x1="162.0" x2="91.5" y1="181.0" y2="183.0" /><line opacity="0.7" stroke="magenta" stroke-width="1" x1="162.0" x2="94.5" y1="181.0" y2="176.0" /><line opacity="0.7" stroke="magenta" stroke-width="1" x1="82.0" x2="92.0" y1="183.0" y2="197.0" /><line opacity="0.7" stroke="magenta" stroke-width="1" x1="82.0" x2="189.5" y1="183.0" y2="145.0" /><line opacity="0.7" stroke="magenta" stroke-width="1" x1="82.0" x2="159.0" y1="183.0" y2="91.0" /><line opacity="0.7" stroke="magenta" stroke-width="1" x1="82.0" x2="160.5" y1="183.0" y2="173.0" /><line opacity="0.7" stroke="magenta" stroke-width="1" x1="82.0" x2="91.5" y1="183.0" y2="183.0" /><line opacity="0.7" stroke="magenta" stroke-width="1" x1="82.0" x2="94.5" y1="183.0" y2="176.0" /><line opacity="0.7" stroke="magenta" stroke-width="1" x1="92.0" x2="189.5" y1="197.0" y2="145.0" /><line opacity="0.7" stroke="magenta" stroke-width="1" x1="92.0" x2="159.0" y1="197.0" y2="91.0" /><line opacity="0.7" stroke="magenta" stroke-width="1" x1="92.0" x2="160.5" y1="197.0" y2="173.0" /><line opacity="0.7" stroke="magenta" stroke-width="1" x1="92.0" x2="91.5" y1="197.0" y2="183.0" /><line opacity="0.7" stroke="magenta" stroke-width="1" x1="92.0" x2="94.5" y1="197.0" y2="176.0" /><line opacity="0.7" stroke="magenta" stroke-width="1" x1="189.5" x2="159.0" y1="145.0" y2="91.0" /><line opacity="0.7" stroke="magenta" stroke-width="1" x1="189.5" x2="160.5" y1="145.0" y2="173.0" /><line opacity="0.7" stroke="magenta" stroke-width="1" x1="189.5" x2="91.5" y1="145.0" y2="183.0" /><line opacity="0.7" stroke="magenta" stroke-width="1" x1="189.5" x2="94.5" y1="145.0" y2="176.0" /><line opacity="0.7" stroke="magenta" stroke-width="1" x1="159.0" x2="160.5" y1="91.0" y2="173.0" /><line opacity="0.7" stroke="magenta" stroke-width="1" x1="159.0" x2="91.5" y1="91.0" y2="183.0" /><line opacity="0.7" stroke="magenta" stroke-width="1" x1="159.0" x2="94.5" y1="91.0" y2="176.0" /><line opacity="0.7" stroke="magenta" stroke-width="1" x1="160.5" x2="91.5" y1="173.0" y2="183.0" /><line opacity="0.7" stroke="magenta" stroke-width="1" x1="160.5" x2="94.5" y1="173.0" y2="176.0" /><line opacity="0.7" stroke="magenta" stroke-width="1" x1="91.5" x2="94.5" y1="183.0" y2="176.0" /><circle cx="161.0" cy="80.0" fill="white" opacity="0.8" r="1.5" stroke="blue" stroke-width="0.8" /><circle cx="68.0" cy="61.0" fill="white" opacity="0.8" r="1.5" stroke="blue" stroke-width="0.8" /><circle cx="187.5" cy="61.0" fill="white" opacity="0.8" r="1.5" stroke="blue" stroke-width="0.8" /><circle cx="96.0" cy="161.0" fill="white" opacity="0.8" r="1.5" stroke="blue" stroke-width="0.8" /><circle cx="92.0" cy="197.0" fill="white" opacity="0.8" r="1.5" stroke="blue" stroke-width="0.8" /><circle cx="141.5" cy="163.0" fill="white" opacity="0.8" r="1.5" stroke="blue" stroke-width="0.8" /><circle cx="189.5" cy="145.0" fill="white" opacity="0.8" r="1.5" stroke="blue" stroke-width="0.8" /><circle cx="94.5" cy="176.0" fill="white" opacity="0.8" r="1.5" stroke="blue" stroke-width="0.8" /><circle cx="83.0" cy="77.5" fill="white" opacity="0.8" r="1.5" stroke="blue" stroke-width="0.8" /><circle cx="99.0" cy="95.5" fill="white" opacity="0.8" r="1.5" stroke="blue" stroke-width="0.8" /><circle cx="67.0" cy="196.0" fill="white" opacity="0.8" r="1.5" stroke="blue" stroke-width="0.8" /><circle cx="160.5" cy="173.0" fill="white" opacity="0.8" r="1.5" stroke="blue" stroke-width="0.8" /><circle cx="159.0" cy="91.0" fill="white" opacity="0.8" r="1.5" stroke="blue" stroke-width="0.8" /><circle cx="82.0" cy="175.0" fill="white" opacity="0.8" r="1.5" stroke="blue" stroke-width="0.8" /><circle cx="140.0" cy="95.5" fill="white" opacity="0.8" r="1.5" stroke="blue" stroke-width="0.8" /><circle cx="91.5" cy="183.0" fill="white" opacity="0.8" r="1.5" stroke="blue" stroke-width="0.8" /><circle cx="162.0" cy="181.0" fill="white" opacity="0.8" r="1.5" stroke="blue" stroke-width="0.8" /><circle cx="188.0" cy="195.0" fill="white" opacity="0.8" r="1.5" stroke="blue" stroke-width="0.8" /><circle cx="82.0" cy="183.0" fill="white" opacity="0.8" r="1.5" stroke="blue" stroke-width="0.8" /></svg>