<?xml version="1.0" encoding="utf-8" ?>
<svg baseProfile="full" height="256" version="1.1" width="256" xmlns="http://www.w3.org/2000/svg" xmlns:ev="http://www.w3.org/2001/xml-events" xmlns:xlink="http://www.w3.org/1999/xlink"><defs /><image height="256" width="256" xlink:href="/home/nelson/Workspace/building_reconstruction/la_dataset_new/rgb/1525714464.36.jpg" /><line opacity="0.7" stroke="magenta" stroke-width="1" x1="68.0" x2="190.0" y1="167.0" y2="166.5" /><line opacity="0.7" stroke="magenta" stroke-width="1" x1="68.0" x2="67.0" y1="167.0" y2="92.0" /><line opacity="0.7" stroke="magenta" stroke-width="1" x1="190.0" x2="189.0" y1="166.5" y2="109.0" /><line opacity="0.7" stroke="magenta" stroke-width="1" x1="189.0" x2="189.5" y1="109.0" y2="92.0" /><line opacity="0.7" stroke="magenta" stroke-width="1" x1="67.0" x2="97.0" y1="92.0" y2="92.0" /><line opacity="0.7" stroke="magenta" stroke-width="1" x1="97.0" x2="148.5" y1="112.5" y2="111.0" /><line opacity="0.7" stroke="magenta" stroke-width="1" x1="97.0" x2="89.5" y1="112.5" y2="103.0" /><line opacity="0.7" stroke="magenta" stroke-width="1" x1="97.0" x2="96.0" y1="112.5" y2="121.0" /><line opacity="0.7" stroke="magenta" stroke-width="1" x1="97.0" x2="99.0" y1="112.5" y2="101.5" /><line opacity="0.7" stroke="magenta" stroke-width="1" x1="148.5" x2="148.5" y1="99.0" y2="111.0" /><line opacity="0.7" stroke="magenta" stroke-width="1" x1="148.5" x2="142.5" y1="99.0" y2="91.0" /><line opacity="0.7" stroke="magenta" stroke-width="1" x1="97.0" x2="142.5" y1="92.0" y2="91.0" /><line opacity="0.7" stroke="magenta" stroke-width="1" x1="97.0" x2="89.5" y1="92.0" y2="103.0" /><line opacity="0.7" stroke="magenta" stroke-width="1" x1="97.0" x2="99.0" y1="92.0" y2="101.5" /><line opacity="0.7" stroke="magenta" stroke-width="1" x1="154.0" x2="148.5" y1="117.0" y2="111.0" /><line opacity="0.7" stroke="magenta" stroke-width="1" x1="89.5" x2="99.0" y1="103.0" y2="101.5" /><circle cx="68.0" cy="167.0" fill="white" opacity="0.8" r="1.5" stroke="blue" stroke-width="0.8" /><circle cx="190.0" cy="166.5" fill="white" opacity="0.8" r="1.5" stroke="blue" stroke-width="0.8" /><circle cx="142.5" cy="91.0" fill="white" opacity="0.8" r="1.5" stroke="blue" stroke-width="0.8" /><circle cx="148.5" cy="111.0" fill="white" opacity="0.8" r="1.5" stroke="blue" stroke-width="0.8" /><circle cx="96.0" cy="121.0" fill="white" opacity="0.8" r="1.5" stroke="blue" stroke-width="0.8" /><circle cx="67.0" cy="92.0" fill="white" opacity="0.8" r="1.5" stroke="blue" stroke-width="0.8" /><circle cx="97.0" cy="92.0" fill="white" opacity="0.8" r="1.5" stroke="blue" stroke-width="0.8" /><circle cx="148.5" cy="99.0" fill="white" opacity="0.8" r="1.5" stroke="blue" stroke-width="0.8" /><circle cx="97.0" cy="112.5" fill="white" opacity="0.8" r="1.5" stroke="blue" stroke-width="0.8" /><circle cx="189.5" cy="92.0" fill="white" opacity="0.8" r="1.5" stroke="blue" stroke-width="0.8" /><circle cx="99.0" cy="101.5" fill="white" opacity="0.8" r="1.5" stroke="blue" stroke-width="0.8" /><circle cx="189.0" cy="109.0" fill="white" opacity="0.8" r="1.5" stroke="blue" stroke-width="0.8" /><circle cx="154.0" cy="117.0" fill="white" opacity="0.8" r="1.5" stroke="blue" stroke-width="0.8" /><circle cx="89.5" cy="103.0" fill="white" opacity="0.8" r="1.5" stroke="blue" stroke-width="0.8" /></svg>