<?xml version="1.0" encoding="utf-8" ?>
<svg baseProfile="full" height="256" version="1.1" width="256" xmlns="http://www.w3.org/2000/svg" xmlns:ev="http://www.w3.org/2001/xml-events" xmlns:xlink="http://www.w3.org/1999/xlink"><defs /><image height="256" width="256" xlink:href="/home/nelson/Workspace/building_reconstruction/la_dataset_new/rgb/1525711143.02.jpg" /><line opacity="0.7" stroke="magenta" stroke-width="1" x1="41.5" x2="32.5" y1="63.0" y2="98.0" /><line opacity="0.7" stroke="magenta" stroke-width="1" x1="41.5" x2="25.0" y1="63.0" y2="96.0" /><line opacity="0.7" stroke="magenta" stroke-width="1" x1="59.5" x2="74.5" y1="133.5" y2="107.5" /><line opacity="0.7" stroke="magenta" stroke-width="1" x1="59.5" x2="76.0" y1="133.5" y2="144.0" /><line opacity="0.7" stroke="magenta" stroke-width="1" x1="59.5" x2="32.5" y1="133.5" y2="98.0" /><line opacity="0.7" stroke="magenta" stroke-width="1" x1="131.5" x2="133.0" y1="111.0" y2="142.0" /><line opacity="0.7" stroke="magenta" stroke-width="1" x1="74.5" x2="90.0" y1="107.5" y2="115.0" /><line opacity="0.7" stroke="magenta" stroke-width="1" x1="32.5" x2="25.0" y1="98.0" y2="96.0" /><line opacity="0.7" stroke="magenta" stroke-width="1" x1="90.0" x2="90.5" y1="115.0" y2="123.0" /><circle cx="25.0" cy="96.0" fill="white" opacity="0.8" r="1.5" stroke="blue" stroke-width="0.8" /><circle cx="32.5" cy="98.0" fill="white" opacity="0.8" r="1.5" stroke="blue" stroke-width="0.8" /><circle cx="59.5" cy="133.5" fill="white" opacity="0.8" r="1.5" stroke="blue" stroke-width="0.8" /><circle cx="74.5" cy="107.5" fill="white" opacity="0.8" r="1.5" stroke="blue" stroke-width="0.8" /><circle cx="41.5" cy="63.0" fill="white" opacity="0.8" r="1.5" stroke="blue" stroke-width="0.8" /><circle cx="133.0" cy="142.0" fill="white" opacity="0.8" r="1.5" stroke="blue" stroke-width="0.8" /><circle cx="90.5" cy="123.0" fill="white" opacity="0.8" r="1.5" stroke="blue" stroke-width="0.8" /><circle cx="90.0" cy="115.0" fill="white" opacity="0.8" r="1.5" stroke="blue" stroke-width="0.8" /><circle cx="76.0" cy="144.0" fill="white" opacity="0.8" r="1.5" stroke="blue" stroke-width="0.8" /><circle cx="131.5" cy="111.0" fill="white" opacity="0.8" r="1.5" stroke="blue" stroke-width="0.8" /><circle cx="119.0" cy="195.0" fill="white" opacity="0.8" r="1.5" stroke="red" stroke-width="0.8" /><circle cx="204.0" cy="89.0" fill="white" opacity="0.8" r="1.5" stroke="red" stroke-width="0.8" /><circle cx="184.5" cy="128.0" fill="white" opacity="0.8" r="1.5" stroke="red" stroke-width="0.8" /></svg>