<?xml version="1.0" encoding="utf-8" ?>
<svg baseProfile="full" height="256" version="1.1" width="256" xmlns="http://www.w3.org/2000/svg" xmlns:ev="http://www.w3.org/2001/xml-events" xmlns:xlink="http://www.w3.org/1999/xlink"><defs /><image height="256" width="256" xlink:href="/home/nelson/Workspace/building_reconstruction/la_dataset_new/rgb/1525714708.87.jpg" /><line opacity="0.7" stroke="magenta" stroke-width="1" x1="68.0" x2="67.0" y1="104.0" y2="150.0" /><line opacity="0.7" stroke="magenta" stroke-width="1" x1="68.0" x2="116.5" y1="104.0" y2="104.5" /><line opacity="0.7" stroke="magenta" stroke-width="1" x1="190.0" x2="189.0" y1="105.0" y2="152.5" /><line opacity="0.7" stroke="magenta" stroke-width="1" x1="190.0" x2="173.0" y1="105.0" y2="104.0" /><line opacity="0.7" stroke="magenta" stroke-width="1" x1="67.0" x2="175.0" y1="150.0" y2="147.0" /><line opacity="0.7" stroke="magenta" stroke-width="1" x1="189.0" x2="175.0" y1="152.5" y2="147.0" /><line opacity="0.7" stroke="magenta" stroke-width="1" x1="134.5" x2="116.5" y1="104.0" y2="104.5" /><line opacity="0.7" stroke="magenta" stroke-width="1" x1="134.5" x2="173.0" y1="104.0" y2="104.0" /><line opacity="0.7" stroke="magenta" stroke-width="1" x1="173.0" x2="175.0" y1="104.0" y2="147.0" /><circle cx="175.0" cy="147.0" fill="white" opacity="0.8" r="1.5" stroke="blue" stroke-width="0.8" /><circle cx="116.5" cy="104.5" fill="white" opacity="0.8" r="1.5" stroke="blue" stroke-width="0.8" /><circle cx="173.0" cy="104.0" fill="white" opacity="0.8" r="1.5" stroke="blue" stroke-width="0.8" /><circle cx="189.0" cy="152.5" fill="white" opacity="0.8" r="1.5" stroke="blue" stroke-width="0.8" /><circle cx="134.5" cy="104.0" fill="white" opacity="0.8" r="1.5" stroke="blue" stroke-width="0.8" /><circle cx="68.0" cy="104.0" fill="white" opacity="0.8" r="1.5" stroke="blue" stroke-width="0.8" /><circle cx="67.0" cy="150.0" fill="white" opacity="0.8" r="1.5" stroke="blue" stroke-width="0.8" /><circle cx="190.0" cy="105.0" fill="white" opacity="0.8" r="1.5" stroke="blue" stroke-width="0.8" /></svg>