<?xml version="1.0" encoding="utf-8" ?>
<svg baseProfile="full" height="256" version="1.1" width="256" xmlns="http://www.w3.org/2000/svg" xmlns:ev="http://www.w3.org/2001/xml-events" xmlns:xlink="http://www.w3.org/1999/xlink"><defs /><image height="256" width="256" xlink:href="/home/nelson/Workspace/building_reconstruction/la_dataset_new/rgb/1525712461.03.jpg" /><line opacity="0.7" stroke="magenta" stroke-width="1" x1="87.0" x2="87.5" y1="85.0" y2="160.0" /><line opacity="0.7" stroke="magenta" stroke-width="1" x1="87.0" x2="113.0" y1="85.0" y2="86.0" /><line opacity="0.7" stroke="magenta" stroke-width="1" x1="169.5" x2="121.5" y1="91.0" y2="172.5" /><line opacity="0.7" stroke="magenta" stroke-width="1" x1="169.5" x2="125.5" y1="91.0" y2="86.0" /><line opacity="0.7" stroke="magenta" stroke-width="1" x1="121.5" x2="126.0" y1="172.5" y2="111.0" /><line opacity="0.7" stroke="magenta" stroke-width="1" x1="121.5" x2="89.0" y1="172.5" y2="170.0" /><line opacity="0.7" stroke="magenta" stroke-width="1" x1="87.5" x2="89.0" y1="160.0" y2="170.0" /><line opacity="0.7" stroke="magenta" stroke-width="1" x1="87.5" x2="110.0" y1="160.0" y2="134.5" /><line opacity="0.7" stroke="magenta" stroke-width="1" x1="125.5" x2="113.0" y1="86.0" y2="86.0" /><line opacity="0.7" stroke="magenta" stroke-width="1" x1="125.5" x2="126.0" y1="86.0" y2="111.0" /><line opacity="0.7" stroke="magenta" stroke-width="1" x1="113.0" x2="112.5" y1="86.0" y2="93.0" /><line opacity="0.7" stroke="magenta" stroke-width="1" x1="126.0" x2="108.0" y1="111.0" y2="127.0" /><line opacity="0.7" stroke="magenta" stroke-width="1" x1="126.0" x2="112.0" y1="111.0" y2="116.0" /><line opacity="0.7" stroke="magenta" stroke-width="1" x1="108.0" x2="112.0" y1="127.0" y2="116.0" /><line opacity="0.7" stroke="magenta" stroke-width="1" x1="108.0" x2="108.0" y1="127.0" y2="112.5" /><line opacity="0.7" stroke="magenta" stroke-width="1" x1="108.0" x2="110.0" y1="127.0" y2="134.5" /><line opacity="0.7" stroke="magenta" stroke-width="1" x1="105.0" x2="112.5" y1="106.0" y2="93.0" /><line opacity="0.7" stroke="magenta" stroke-width="1" x1="105.0" x2="108.0" y1="106.0" y2="112.5" /><line opacity="0.7" stroke="magenta" stroke-width="1" x1="112.5" x2="112.0" y1="93.0" y2="116.0" /><line opacity="0.7" stroke="magenta" stroke-width="1" x1="112.0" x2="108.0" y1="116.0" y2="112.5" /><line opacity="0.7" stroke="magenta" stroke-width="1" x1="112.0" x2="110.0" y1="116.0" y2="134.5" /><circle cx="113.0" cy="86.0" fill="white" opacity="0.8" r="1.5" stroke="blue" stroke-width="0.8" /><circle cx="87.0" cy="85.0" fill="white" opacity="0.8" r="1.5" stroke="blue" stroke-width="0.8" /><circle cx="110.0" cy="134.5" fill="white" opacity="0.8" r="1.5" stroke="blue" stroke-width="0.8" /><circle cx="108.0" cy="127.0" fill="white" opacity="0.8" r="1.5" stroke="blue" stroke-width="0.8" /><circle cx="125.5" cy="86.0" fill="white" opacity="0.8" r="1.5" stroke="blue" stroke-width="0.8" /><circle cx="112.0" cy="116.0" fill="white" opacity="0.8" r="1.5" stroke="blue" stroke-width="0.8" /><circle cx="87.5" cy="160.0" fill="white" opacity="0.8" r="1.5" stroke="blue" stroke-width="0.8" /><circle cx="169.5" cy="91.0" fill="white" opacity="0.8" r="1.5" stroke="blue" stroke-width="0.8" /><circle cx="105.0" cy="106.0" fill="white" opacity="0.8" r="1.5" stroke="blue" stroke-width="0.8" /><circle cx="108.0" cy="112.5" fill="white" opacity="0.8" r="1.5" stroke="blue" stroke-width="0.8" /><circle cx="121.5" cy="172.5" fill="white" opacity="0.8" r="1.5" stroke="blue" stroke-width="0.8" /><circle cx="89.0" cy="170.0" fill="white" opacity="0.8" r="1.5" stroke="blue" stroke-width="0.8" /><circle cx="126.0" cy="111.0" fill="white" opacity="0.8" r="1.5" stroke="blue" stroke-width="0.8" /><circle cx="112.5" cy="93.0" fill="white" opacity="0.8" r="1.5" stroke="blue" stroke-width="0.8" /></svg>