<?xml version="1.0" encoding="utf-8" ?>
<svg baseProfile="full" height="256" version="1.1" width="256" xmlns="http://www.w3.org/2000/svg" xmlns:ev="http://www.w3.org/2001/xml-events" xmlns:xlink="http://www.w3.org/1999/xlink"><defs /><image height="256" width="256" xlink:href="/home/nelson/Workspace/building_reconstruction/la_dataset_new/rgb/1525715107.05.jpg" /><line opacity="0.7" stroke="magenta" stroke-width="1" x1="84.0" x2="68.0" y1="87.0" y2="124.0" /><line opacity="0.7" stroke="magenta" stroke-width="1" x1="84.0" x2="191.0" y1="87.0" y2="132.0" /><line opacity="0.7" stroke="magenta" stroke-width="1" x1="84.0" x2="190.0" y1="87.0" y2="86.0" /><line opacity="0.7" stroke="magenta" stroke-width="1" x1="68.0" x2="174.5" y1="124.0" y2="171.0" /><line opacity="0.7" stroke="magenta" stroke-width="1" x1="174.5" x2="191.0" y1="171.0" y2="132.0" /><line opacity="0.7" stroke="magenta" stroke-width="1" x1="174.5" x2="174.5" y1="171.0" y2="120.0" /><line opacity="0.7" stroke="magenta" stroke-width="1" x1="191.0" x2="190.0" y1="132.0" y2="86.0" /><line opacity="0.7" stroke="magenta" stroke-width="1" x1="112.5" x2="115.5" y1="142.0" y2="130.0" /><line opacity="0.7" stroke="magenta" stroke-width="1" x1="124.5" x2="115.5" y1="106.0" y2="130.0" /><circle cx="84.0" cy="87.0" fill="white" opacity="0.8" r="1.5" stroke="blue" stroke-width="0.8" /><circle cx="124.5" cy="106.0" fill="white" opacity="0.8" r="1.5" stroke="blue" stroke-width="0.8" /><circle cx="190.0" cy="86.0" fill="white" opacity="0.8" r="1.5" stroke="blue" stroke-width="0.8" /><circle cx="191.0" cy="132.0" fill="white" opacity="0.8" r="1.5" stroke="blue" stroke-width="0.8" /><circle cx="174.5" cy="171.0" fill="white" opacity="0.8" r="1.5" stroke="blue" stroke-width="0.8" /><circle cx="115.5" cy="130.0" fill="white" opacity="0.8" r="1.5" stroke="blue" stroke-width="0.8" /><circle cx="68.0" cy="124.0" fill="white" opacity="0.8" r="1.5" stroke="blue" stroke-width="0.8" /><circle cx="174.5" cy="120.0" fill="white" opacity="0.8" r="1.5" stroke="blue" stroke-width="0.8" /><circle cx="112.5" cy="142.0" fill="white" opacity="0.8" r="1.5" stroke="blue" stroke-width="0.8" /></svg>