<?xml version="1.0" encoding="utf-8" ?>
<svg baseProfile="full" height="256" version="1.1" width="256" xmlns="http://www.w3.org/2000/svg" xmlns:ev="http://www.w3.org/2001/xml-events" xmlns:xlink="http://www.w3.org/1999/xlink"><defs /><image height="256" width="256" xlink:href="/home/nelson/Workspace/building_reconstruction/la_dataset_new/rgb/1525714628.2.jpg" /><line opacity="0.7" stroke="magenta" stroke-width="1" x1="84.0" x2="83.0" y1="148.0" y2="108.0" /><line opacity="0.7" stroke="magenta" stroke-width="1" x1="84.0" x2="103.0" y1="148.0" y2="148.0" /><line opacity="0.7" stroke="magenta" stroke-width="1" x1="83.0" x2="162.0" y1="108.0" y2="107.0" /><line opacity="0.7" stroke="magenta" stroke-width="1" x1="171.0" x2="103.0" y1="150.0" y2="148.0" /><line opacity="0.7" stroke="magenta" stroke-width="1" x1="171.0" x2="172.5" y1="150.0" y2="125.5" /><line opacity="0.7" stroke="magenta" stroke-width="1" x1="171.0" x2="172.5" y1="106.5" y2="125.5" /><line opacity="0.7" stroke="magenta" stroke-width="1" x1="171.0" x2="162.0" y1="106.5" y2="107.0" /><line opacity="0.7" stroke="magenta" stroke-width="1" x1="172.5" x2="160.0" y1="125.5" y2="129.5" /><line opacity="0.7" stroke="magenta" stroke-width="1" x1="172.5" x2="164.0" y1="125.5" y2="123.5" /><line opacity="0.7" stroke="magenta" stroke-width="1" x1="172.5" x2="167.5" y1="125.5" y2="133.0" /><line opacity="0.7" stroke="magenta" stroke-width="1" x1="160.0" x2="164.0" y1="129.5" y2="123.5" /><line opacity="0.7" stroke="magenta" stroke-width="1" x1="160.0" x2="161.5" y1="129.5" y2="117.5" /><line opacity="0.7" stroke="magenta" stroke-width="1" x1="160.0" x2="167.5" y1="129.5" y2="133.0" /><line opacity="0.7" stroke="magenta" stroke-width="1" x1="162.0" x2="161.5" y1="107.0" y2="117.5" /><line opacity="0.7" stroke="magenta" stroke-width="1" x1="164.0" x2="161.5" y1="123.5" y2="117.5" /><line opacity="0.7" stroke="magenta" stroke-width="1" x1="164.0" x2="167.5" y1="123.5" y2="133.0" /><circle cx="160.0" cy="129.5" fill="white" opacity="0.8" r="1.5" stroke="blue" stroke-width="0.8" /><circle cx="172.5" cy="125.5" fill="white" opacity="0.8" r="1.5" stroke="blue" stroke-width="0.8" /><circle cx="162.0" cy="107.0" fill="white" opacity="0.8" r="1.5" stroke="blue" stroke-width="0.8" /><circle cx="84.0" cy="148.0" fill="white" opacity="0.8" r="1.5" stroke="blue" stroke-width="0.8" /><circle cx="164.0" cy="123.5" fill="white" opacity="0.8" r="1.5" stroke="blue" stroke-width="0.8" /><circle cx="167.5" cy="133.0" fill="white" opacity="0.8" r="1.5" stroke="blue" stroke-width="0.8" /><circle cx="161.5" cy="117.5" fill="white" opacity="0.8" r="1.5" stroke="blue" stroke-width="0.8" /><circle cx="171.0" cy="150.0" fill="white" opacity="0.8" r="1.5" stroke="blue" stroke-width="0.8" /><circle cx="103.0" cy="148.0" fill="white" opacity="0.8" r="1.5" stroke="blue" stroke-width="0.8" /><circle cx="171.0" cy="106.5" fill="white" opacity="0.8" r="1.5" stroke="blue" stroke-width="0.8" /><circle cx="83.0" cy="108.0" fill="white" opacity="0.8" r="1.5" stroke="blue" stroke-width="0.8" /></svg>