<?xml version="1.0" encoding="utf-8" ?>
<svg baseProfile="full" height="256" version="1.1" width="256" xmlns="http://www.w3.org/2000/svg" xmlns:ev="http://www.w3.org/2001/xml-events" xmlns:xlink="http://www.w3.org/1999/xlink"><defs /><image height="256" width="256" xlink:href="/home/nelson/Workspace/building_reconstruction/la_dataset_new/rgb/1525714297.21.jpg" /><line opacity="0.7" stroke="magenta" stroke-width="1" x1="198.5" x2="196.0" y1="109.0" y2="148.0" /><line opacity="0.7" stroke="magenta" stroke-width="1" x1="198.5" x2="91.5" y1="109.0" y2="110.5" /><line opacity="0.7" stroke="magenta" stroke-width="1" x1="62.0" x2="61.0" y1="148.5" y2="110.0" /><line opacity="0.7" stroke="magenta" stroke-width="1" x1="62.0" x2="178.0" y1="148.5" y2="146.0" /><line opacity="0.7" stroke="magenta" stroke-width="1" x1="61.0" x2="91.5" y1="110.0" y2="110.5" /><line opacity="0.7" stroke="magenta" stroke-width="1" x1="196.0" x2="178.0" y1="148.0" y2="146.0" /><line opacity="0.7" stroke="magenta" stroke-width="1" x1="178.0" x2="177.0" y1="146.0" y2="137.5" /><line opacity="0.7" stroke="magenta" stroke-width="1" x1="177.0" x2="179.0" y1="137.5" y2="112.0" /><circle cx="177.0" cy="137.5" fill="white" opacity="0.8" r="1.5" stroke="blue" stroke-width="0.8" /><circle cx="179.0" cy="112.0" fill="white" opacity="0.8" r="1.5" stroke="blue" stroke-width="0.8" /><circle cx="196.0" cy="148.0" fill="white" opacity="0.8" r="1.5" stroke="blue" stroke-width="0.8" /><circle cx="178.0" cy="146.0" fill="white" opacity="0.8" r="1.5" stroke="blue" stroke-width="0.8" /><circle cx="61.0" cy="110.0" fill="white" opacity="0.8" r="1.5" stroke="blue" stroke-width="0.8" /><circle cx="91.5" cy="110.5" fill="white" opacity="0.8" r="1.5" stroke="blue" stroke-width="0.8" /><circle cx="198.5" cy="109.0" fill="white" opacity="0.8" r="1.5" stroke="blue" stroke-width="0.8" /><circle cx="62.0" cy="148.5" fill="white" opacity="0.8" r="1.5" stroke="blue" stroke-width="0.8" /></svg>