<?xml version="1.0" encoding="utf-8" ?>
<svg baseProfile="full" height="256" version="1.1" width="256" xmlns="http://www.w3.org/2000/svg" xmlns:ev="http://www.w3.org/2001/xml-events" xmlns:xlink="http://www.w3.org/1999/xlink"><defs /><image height="256" width="256" xlink:href="/home/nelson/Workspace/building_reconstruction/la_dataset_new/rgb/1525713430.83.jpg" /><line opacity="0.7" stroke="magenta" stroke-width="1" x1="92.0" x2="46.0" y1="146.0" y2="148.0" /><line opacity="0.7" stroke="magenta" stroke-width="1" x1="92.0" x2="93.0" y1="146.0" y2="162.0" /><line opacity="0.7" stroke="magenta" stroke-width="1" x1="227.5" x2="230.0" y1="161.0" y2="130.0" /><line opacity="0.7" stroke="magenta" stroke-width="1" x1="227.5" x2="213.0" y1="161.0" y2="161.0" /><line opacity="0.7" stroke="magenta" stroke-width="1" x1="46.0" x2="45.5" y1="148.0" y2="115.0" /><line opacity="0.7" stroke="magenta" stroke-width="1" x1="20.5" x2="25.0" y1="93.5" y2="163.0" /><line opacity="0.7" stroke="magenta" stroke-width="1" x1="93.0" x2="213.0" y1="162.0" y2="161.0" /><line opacity="0.7" stroke="magenta" stroke-width="1" x1="45.5" x2="88.0" y1="115.0" y2="115.0" /><circle cx="227.5" cy="161.0" fill="white" opacity="0.8" r="1.5" stroke="blue" stroke-width="0.8" /><circle cx="20.5" cy="93.5" fill="white" opacity="0.8" r="1.5" stroke="blue" stroke-width="0.8" /><circle cx="93.0" cy="162.0" fill="white" opacity="0.8" r="1.5" stroke="blue" stroke-width="0.8" /><circle cx="213.0" cy="161.0" fill="white" opacity="0.8" r="1.5" stroke="blue" stroke-width="0.8" /><circle cx="92.0" cy="146.0" fill="white" opacity="0.8" r="1.5" stroke="blue" stroke-width="0.8" /><circle cx="230.0" cy="130.0" fill="white" opacity="0.8" r="1.5" stroke="blue" stroke-width="0.8" /><circle cx="88.0" cy="115.0" fill="white" opacity="0.8" r="1.5" stroke="blue" stroke-width="0.8" /><circle cx="45.5" cy="115.0" fill="white" opacity="0.8" r="1.5" stroke="blue" stroke-width="0.8" /><circle cx="25.0" cy="163.0" fill="white" opacity="0.8" r="1.5" stroke="blue" stroke-width="0.8" /><circle cx="46.0" cy="148.0" fill="white" opacity="0.8" r="1.5" stroke="blue" stroke-width="0.8" /><circle cx="218.0" cy="96.5" fill="white" opacity="0.8" r="1.5" stroke="red" stroke-width="0.8" /></svg>