<?xml version="1.0" encoding="utf-8" ?>
<svg baseProfile="full" height="256" version="1.1" width="256" xmlns="http://www.w3.org/2000/svg" xmlns:ev="http://www.w3.org/2001/xml-events" xmlns:xlink="http://www.w3.org/1999/xlink"><defs /><image height="256" width="256" xlink:href="/home/nelson/Workspace/building_reconstruction/la_dataset_new/rgb/1526404551.51.jpg" /><line opacity="0.7" stroke="magenta" stroke-width="1" x1="122.0" x2="34.0" y1="22.0" y2="181.0" /><line opacity="0.7" stroke="magenta" stroke-width="1" x1="122.0" x2="223.5" y1="22.0" y2="77.5" /><line opacity="0.7" stroke="magenta" stroke-width="1" x1="34.0" x2="142.0" y1="181.0" y2="239.5" /><line opacity="0.7" stroke="magenta" stroke-width="1" x1="223.5" x2="209.5" y1="77.5" y2="102.0" /><line opacity="0.7" stroke="magenta" stroke-width="1" x1="142.0" x2="209.5" y1="239.5" y2="102.0" /><line opacity="0.7" stroke="magenta" stroke-width="1" x1="147.5" x2="164.5" y1="112.5" y2="124.5" /><line opacity="0.7" stroke="magenta" stroke-width="1" x1="147.5" x2="156.5" y1="112.5" y2="92.5" /><line opacity="0.7" stroke="magenta" stroke-width="1" x1="144.5" x2="164.5" y1="163.5" y2="124.5" /><line opacity="0.7" stroke="magenta" stroke-width="1" x1="144.5" x2="126.5" y1="163.5" y2="156.5" /><line opacity="0.7" stroke="magenta" stroke-width="1" x1="144.5" x2="148.5" y1="163.5" y2="179.0" /><line opacity="0.7" stroke="magenta" stroke-width="1" x1="114.5" x2="126.5" y1="173.5" y2="156.5" /><line opacity="0.7" stroke="magenta" stroke-width="1" x1="114.5" x2="100.0" y1="173.5" y2="165.5" /><circle cx="164.5" cy="124.5" fill="white" opacity="0.8" r="1.5" stroke="blue" stroke-width="0.8" /><circle cx="156.5" cy="92.5" fill="white" opacity="0.8" r="1.5" stroke="blue" stroke-width="0.8" /><circle cx="126.5" cy="156.5" fill="white" opacity="0.8" r="1.5" stroke="blue" stroke-width="0.8" /><circle cx="142.0" cy="239.5" fill="white" opacity="0.8" r="1.5" stroke="blue" stroke-width="0.8" /><circle cx="122.0" cy="22.0" fill="white" opacity="0.8" r="1.5" stroke="blue" stroke-width="0.8" /><circle cx="148.5" cy="179.0" fill="white" opacity="0.8" r="1.5" stroke="blue" stroke-width="0.8" /><circle cx="147.5" cy="112.5" fill="white" opacity="0.8" r="1.5" stroke="blue" stroke-width="0.8" /><circle cx="114.5" cy="173.5" fill="white" opacity="0.8" r="1.5" stroke="blue" stroke-width="0.8" /><circle cx="100.0" cy="165.5" fill="white" opacity="0.8" r="1.5" stroke="blue" stroke-width="0.8" /><circle cx="209.5" cy="102.0" fill="white" opacity="0.8" r="1.5" stroke="blue" stroke-width="0.8" /><circle cx="223.5" cy="77.5" fill="white" opacity="0.8" r="1.5" stroke="blue" stroke-width="0.8" /><circle cx="144.5" cy="163.5" fill="white" opacity="0.8" r="1.5" stroke="blue" stroke-width="0.8" /><circle cx="34.0" cy="181.0" fill="white" opacity="0.8" r="1.5" stroke="blue" stroke-width="0.8" /></svg>