<?xml version="1.0" encoding="utf-8" ?>
<svg baseProfile="full" height="256" version="1.1" width="256" xmlns="http://www.w3.org/2000/svg" xmlns:ev="http://www.w3.org/2001/xml-events" xmlns:xlink="http://www.w3.org/1999/xlink"><defs /><image height="256" width="256" xlink:href="/home/nelson/Workspace/building_reconstruction/la_dataset_new/rgb/1526320109.66.jpg" /><line opacity="0.7" stroke="magenta" stroke-width="1" x1="182.0" x2="73.0" y1="70.0" y2="72.0" /><line opacity="0.7" stroke="magenta" stroke-width="1" x1="182.0" x2="184.0" y1="70.0" y2="185.0" /><line opacity="0.7" stroke="magenta" stroke-width="1" x1="73.0" x2="72.0" y1="72.0" y2="113.0" /><line opacity="0.7" stroke="magenta" stroke-width="1" x1="72.0" x2="184.0" y1="186.0" y2="185.0" /><line opacity="0.7" stroke="magenta" stroke-width="1" x1="72.0" x2="71.0" y1="186.0" y2="140.0" /><line opacity="0.7" stroke="magenta" stroke-width="1" x1="72.0" x2="158.0" y1="113.0" y2="112.0" /><line opacity="0.7" stroke="magenta" stroke-width="1" x1="71.0" x2="137.0" y1="140.0" y2="141.0" /><line opacity="0.7" stroke="magenta" stroke-width="1" x1="137.0" x2="135.0" y1="141.0" y2="109.5" /><line opacity="0.7" stroke="magenta" stroke-width="1" x1="135.0" x2="137.5" y1="109.5" y2="93.5" /><line opacity="0.7" stroke="magenta" stroke-width="1" x1="137.5" x2="152.5" y1="93.5" y2="98.5" /><line opacity="0.7" stroke="magenta" stroke-width="1" x1="160.5" x2="158.0" y1="100.5" y2="112.0" /><line opacity="0.7" stroke="magenta" stroke-width="1" x1="160.5" x2="152.5" y1="100.5" y2="98.5" /><circle cx="137.5" cy="93.5" fill="white" opacity="0.8" r="1.5" stroke="blue" stroke-width="0.8" /><circle cx="152.5" cy="98.5" fill="white" opacity="0.8" r="1.5" stroke="blue" stroke-width="0.8" /><circle cx="72.0" cy="186.0" fill="white" opacity="0.8" r="1.5" stroke="blue" stroke-width="0.8" /><circle cx="184.0" cy="185.0" fill="white" opacity="0.8" r="1.5" stroke="blue" stroke-width="0.8" /><circle cx="182.0" cy="70.0" fill="white" opacity="0.8" r="1.5" stroke="blue" stroke-width="0.8" /><circle cx="158.0" cy="112.0" fill="white" opacity="0.8" r="1.5" stroke="blue" stroke-width="0.8" /><circle cx="137.0" cy="141.0" fill="white" opacity="0.8" r="1.5" stroke="blue" stroke-width="0.8" /><circle cx="160.5" cy="100.5" fill="white" opacity="0.8" r="1.5" stroke="blue" stroke-width="0.8" /><circle cx="71.0" cy="140.0" fill="white" opacity="0.8" r="1.5" stroke="blue" stroke-width="0.8" /><circle cx="135.0" cy="109.5" fill="white" opacity="0.8" r="1.5" stroke="blue" stroke-width="0.8" /><circle cx="72.0" cy="113.0" fill="white" opacity="0.8" r="1.5" stroke="blue" stroke-width="0.8" /><circle cx="73.0" cy="72.0" fill="white" opacity="0.8" r="1.5" stroke="blue" stroke-width="0.8" /></svg>