<?xml version="1.0" encoding="utf-8" ?>
<svg baseProfile="full" height="256" version="1.1" width="256" xmlns="http://www.w3.org/2000/svg" xmlns:ev="http://www.w3.org/2001/xml-events" xmlns:xlink="http://www.w3.org/1999/xlink"><defs /><image height="256" width="256" xlink:href="/home/nelson/Workspace/building_reconstruction/la_dataset_new/rgb/1526403729.47.jpg" /><line opacity="0.7" stroke="magenta" stroke-width="1" x1="88.5" x2="125.0" y1="241.0" y2="240.0" /><line opacity="0.7" stroke="magenta" stroke-width="1" x1="88.5" x2="88.5" y1="241.0" y2="159.0" /><line opacity="0.7" stroke="magenta" stroke-width="1" x1="88.0" x2="123.5" y1="18.0" y2="17.5" /><line opacity="0.7" stroke="magenta" stroke-width="1" x1="88.0" x2="88.0" y1="18.0" y2="40.0" /><line opacity="0.7" stroke="magenta" stroke-width="1" x1="166.0" x2="166.5" y1="240.0" y2="17.5" /><line opacity="0.7" stroke="magenta" stroke-width="1" x1="166.0" x2="125.0" y1="240.0" y2="240.0" /><line opacity="0.7" stroke="magenta" stroke-width="1" x1="147.0" x2="112.0" y1="187.0" y2="185.5" /><line opacity="0.7" stroke="magenta" stroke-width="1" x1="147.0" x2="147.5" y1="187.0" y2="166.0" /><line opacity="0.7" stroke="magenta" stroke-width="1" x1="166.5" x2="123.5" y1="17.5" y2="17.5" /><line opacity="0.7" stroke="magenta" stroke-width="1" x1="166.5" x2="134.0" y1="17.5" y2="18.5" /><line opacity="0.7" stroke="magenta" stroke-width="1" x1="112.0" x2="148.0" y1="87.0" y2="87.0" /><line opacity="0.7" stroke="magenta" stroke-width="1" x1="112.0" x2="111.0" y1="87.0" y2="70.0" /><line opacity="0.7" stroke="magenta" stroke-width="1" x1="112.0" x2="110.0" y1="87.0" y2="123.0" /><line opacity="0.7" stroke="magenta" stroke-width="1" x1="148.0" x2="147.0" y1="87.0" y2="68.0" /><line opacity="0.7" stroke="magenta" stroke-width="1" x1="148.0" x2="149.0" y1="87.0" y2="121.0" /><line opacity="0.7" stroke="magenta" stroke-width="1" x1="112.0" x2="110.0" y1="185.5" y2="172.5" /><line opacity="0.7" stroke="magenta" stroke-width="1" x1="111.0" x2="147.0" y1="70.0" y2="68.0" /><line opacity="0.7" stroke="magenta" stroke-width="1" x1="107.0" x2="110.0" y1="158.0" y2="123.0" /><line opacity="0.7" stroke="magenta" stroke-width="1" x1="107.0" x2="88.5" y1="158.0" y2="159.0" /><line opacity="0.7" stroke="magenta" stroke-width="1" x1="107.0" x2="110.0" y1="158.0" y2="172.5" /><line opacity="0.7" stroke="magenta" stroke-width="1" x1="147.5" x2="148.0" y1="166.0" y2="141.0" /><line opacity="0.7" stroke="magenta" stroke-width="1" x1="110.0" x2="149.0" y1="123.0" y2="121.0" /><line opacity="0.7" stroke="magenta" stroke-width="1" x1="110.0" x2="92.0" y1="123.0" y2="124.0" /><line opacity="0.7" stroke="magenta" stroke-width="1" x1="136.0" x2="121.5" y1="32.0" y2="32.0" /><line opacity="0.7" stroke="magenta" stroke-width="1" x1="136.0" x2="134.0" y1="32.0" y2="18.5" /><line opacity="0.7" stroke="magenta" stroke-width="1" x1="149.0" x2="148.0" y1="121.0" y2="141.0" /><line opacity="0.7" stroke="magenta" stroke-width="1" x1="148.0" x2="158.0" y1="141.0" y2="138.0" /><line opacity="0.7" stroke="magenta" stroke-width="1" x1="123.5" x2="121.5" y1="17.5" y2="32.0" /><line opacity="0.7" stroke="magenta" stroke-width="1" x1="123.5" x2="134.0" y1="17.5" y2="18.5" /><line opacity="0.7" stroke="magenta" stroke-width="1" x1="92.0" x2="88.5" y1="124.0" y2="159.0" /><line opacity="0.7" stroke="magenta" stroke-width="1" x1="92.0" x2="88.0" y1="124.0" y2="40.0" /><circle cx="148.0" cy="141.0" fill="white" opacity="0.8" r="1.5" stroke="blue" stroke-width="0.8" /><circle cx="110.0" cy="123.0" fill="white" opacity="0.8" r="1.5" stroke="blue" stroke-width="0.8" /><circle cx="88.5" cy="241.0" fill="white" opacity="0.8" r="1.5" stroke="blue" stroke-width="0.8" /><circle cx="110.0" cy="172.5" fill="white" opacity="0.8" r="1.5" stroke="blue" stroke-width="0.8" /><circle cx="147.5" cy="166.0" fill="white" opacity="0.8" r="1.5" stroke="blue" stroke-width="0.8" /><circle cx="134.0" cy="18.5" fill="white" opacity="0.8" r="1.5" stroke="blue" stroke-width="0.8" /><circle cx="166.0" cy="240.0" fill="white" opacity="0.8" r="1.5" stroke="blue" stroke-width="0.8" /><circle cx="136.0" cy="32.0" fill="white" opacity="0.8" r="1.5" stroke="blue" stroke-width="0.8" /><circle cx="125.0" cy="240.0" fill="white" opacity="0.8" r="1.5" stroke="blue" stroke-width="0.8" /><circle cx="112.0" cy="185.5" fill="white" opacity="0.8" r="1.5" stroke="blue" stroke-width="0.8" /><circle cx="88.0" cy="40.0" fill="white" opacity="0.8" r="1.5" stroke="blue" stroke-width="0.8" /><circle cx="166.5" cy="17.5" fill="white" opacity="0.8" r="1.5" stroke="blue" stroke-width="0.8" /><circle cx="147.0" cy="68.0" fill="white" opacity="0.8" r="1.5" stroke="blue" stroke-width="0.8" /><circle cx="92.0" cy="124.0" fill="white" opacity="0.8" r="1.5" stroke="blue" stroke-width="0.8" /><circle cx="88.5" cy="159.0" fill="white" opacity="0.8" r="1.5" stroke="blue" stroke-width="0.8" /><circle cx="158.0" cy="138.0" fill="white" opacity="0.8" r="1.5" stroke="blue" stroke-width="0.8" /><circle cx="88.0" cy="18.0" fill="white" opacity="0.8" r="1.5" stroke="blue" stroke-width="0.8" /><circle cx="147.0" cy="187.0" fill="white" opacity="0.8" r="1.5" stroke="blue" stroke-width="0.8" /><circle cx="149.0" cy="121.0" fill="white" opacity="0.8" r="1.5" stroke="blue" stroke-width="0.8" /><circle cx="111.0" cy="70.0" fill="white" opacity="0.8" r="1.5" stroke="blue" stroke-width="0.8" /><circle cx="107.0" cy="158.0" fill="white" opacity="0.8" r="1.5" stroke="blue" stroke-width="0.8" /><circle cx="123.5" cy="17.5" fill="white" opacity="0.8" r="1.5" stroke="blue" stroke-width="0.8" /><circle cx="148.0" cy="87.0" fill="white" opacity="0.8" r="1.5" stroke="blue" stroke-width="0.8" /><circle cx="112.0" cy="87.0" fill="white" opacity="0.8" r="1.5" stroke="blue" stroke-width="0.8" /><circle cx="121.5" cy="32.0" fill="white" opacity="0.8" r="1.5" stroke="blue" stroke-width="0.8" /></svg>