<?xml version="1.0" encoding="utf-8" ?>
<svg baseProfile="full" height="256" version="1.1" width="256" xmlns="http://www.w3.org/2000/svg" xmlns:ev="http://www.w3.org/2001/xml-events" xmlns:xlink="http://www.w3.org/1999/xlink"><defs /><image height="256" width="256" xlink:href="/home/nelson/Workspace/building_reconstruction/la_dataset_new/rgb/1526321097.84.jpg" /><line opacity="0.7" stroke="magenta" stroke-width="1" x1="76.5" x2="48.5" y1="70.0" y2="117.0" /><line opacity="0.7" stroke="magenta" stroke-width="1" x1="76.5" x2="147.5" y1="70.0" y2="105.0" /><line opacity="0.7" stroke="magenta" stroke-width="1" x1="48.5" x2="183.0" y1="117.0" y2="188.0" /><line opacity="0.7" stroke="magenta" stroke-width="1" x1="183.0" x2="205.0" y1="188.0" y2="143.0" /><line opacity="0.7" stroke="magenta" stroke-width="1" x1="183.0" x2="180.5" y1="188.0" y2="147.0" /><line opacity="0.7" stroke="magenta" stroke-width="1" x1="147.5" x2="142.5" y1="105.0" y2="118.5" /><line opacity="0.7" stroke="magenta" stroke-width="1" x1="205.0" x2="171.5" y1="143.0" y2="131.0" /><line opacity="0.7" stroke="magenta" stroke-width="1" x1="205.0" x2="180.5" y1="143.0" y2="147.0" /><line opacity="0.7" stroke="magenta" stroke-width="1" x1="142.5" x2="123.0" y1="118.5" y2="115.0" /><line opacity="0.7" stroke="magenta" stroke-width="1" x1="142.5" x2="171.5" y1="118.5" y2="131.0" /><line opacity="0.7" stroke="magenta" stroke-width="1" x1="116.0" x2="123.0" y1="129.0" y2="115.0" /><line opacity="0.7" stroke="magenta" stroke-width="1" x1="116.0" x2="86.5" y1="129.0" y2="113.0" /><line opacity="0.7" stroke="magenta" stroke-width="1" x1="170.5" x2="171.5" y1="142.5" y2="131.0" /><line opacity="0.7" stroke="magenta" stroke-width="1" x1="170.5" x2="180.5" y1="142.5" y2="147.0" /><line opacity="0.7" stroke="magenta" stroke-width="1" x1="87.0" x2="86.5" y1="105.0" y2="113.0" /><line opacity="0.7" stroke="magenta" stroke-width="1" x1="123.0" x2="124.5" y1="115.0" y2="123.0" /><line opacity="0.7" stroke="magenta" stroke-width="1" x1="123.0" x2="86.5" y1="115.0" y2="113.0" /><circle cx="183.0" cy="188.0" fill="white" opacity="0.8" r="1.5" stroke="blue" stroke-width="0.8" /><circle cx="86.5" cy="113.0" fill="white" opacity="0.8" r="1.5" stroke="blue" stroke-width="0.8" /><circle cx="171.5" cy="131.0" fill="white" opacity="0.8" r="1.5" stroke="blue" stroke-width="0.8" /><circle cx="124.5" cy="123.0" fill="white" opacity="0.8" r="1.5" stroke="blue" stroke-width="0.8" /><circle cx="205.0" cy="143.0" fill="white" opacity="0.8" r="1.5" stroke="blue" stroke-width="0.8" /><circle cx="116.0" cy="129.0" fill="white" opacity="0.8" r="1.5" stroke="blue" stroke-width="0.8" /><circle cx="76.5" cy="70.0" fill="white" opacity="0.8" r="1.5" stroke="blue" stroke-width="0.8" /><circle cx="123.0" cy="115.0" fill="white" opacity="0.8" r="1.5" stroke="blue" stroke-width="0.8" /><circle cx="170.5" cy="142.5" fill="white" opacity="0.8" r="1.5" stroke="blue" stroke-width="0.8" /><circle cx="87.0" cy="105.0" fill="white" opacity="0.8" r="1.5" stroke="blue" stroke-width="0.8" /><circle cx="142.5" cy="118.5" fill="white" opacity="0.8" r="1.5" stroke="blue" stroke-width="0.8" /><circle cx="48.5" cy="117.0" fill="white" opacity="0.8" r="1.5" stroke="blue" stroke-width="0.8" /><circle cx="147.5" cy="105.0" fill="white" opacity="0.8" r="1.5" stroke="blue" stroke-width="0.8" /><circle cx="180.5" cy="147.0" fill="white" opacity="0.8" r="1.5" stroke="blue" stroke-width="0.8" /></svg>