<?xml version="1.0" encoding="utf-8" ?>
<svg baseProfile="full" height="256" version="1.1" width="256" xmlns="http://www.w3.org/2000/svg" xmlns:ev="http://www.w3.org/2001/xml-events" xmlns:xlink="http://www.w3.org/1999/xlink"><defs /><image height="256" width="256" xlink:href="/home/nelson/Workspace/building_reconstruction/la_dataset_new/rgb/1526404922.88.jpg" /><line opacity="0.7" stroke="magenta" stroke-width="1" x1="52.0" x2="50.0" y1="228.0" y2="50.0" /><line opacity="0.7" stroke="magenta" stroke-width="1" x1="52.0" x2="67.5" y1="228.0" y2="227.0" /><line opacity="0.7" stroke="magenta" stroke-width="1" x1="81.5" x2="83.0" y1="25.0" y2="67.0" /><line opacity="0.7" stroke="magenta" stroke-width="1" x1="81.5" x2="82.0" y1="25.0" y2="56.0" /><line opacity="0.7" stroke="magenta" stroke-width="1" x1="81.5" x2="168.0" y1="25.0" y2="28.0" /><line opacity="0.7" stroke="magenta" stroke-width="1" x1="110.0" x2="109.5" y1="229.5" y2="208.0" /><line opacity="0.7" stroke="magenta" stroke-width="1" x1="110.0" x2="67.5" y1="229.5" y2="227.0" /><line opacity="0.7" stroke="magenta" stroke-width="1" x1="110.0" x2="170.0" y1="229.5" y2="225.5" /><line opacity="0.7" stroke="magenta" stroke-width="1" x1="50.0" x2="66.0" y1="50.0" y2="54.0" /><line opacity="0.7" stroke="magenta" stroke-width="1" x1="204.0" x2="202.5" y1="224.0" y2="39.5" /><line opacity="0.7" stroke="magenta" stroke-width="1" x1="204.0" x2="146.0" y1="224.0" y2="219.5" /><line opacity="0.7" stroke="magenta" stroke-width="1" x1="204.0" x2="170.0" y1="224.0" y2="225.5" /><line opacity="0.7" stroke="magenta" stroke-width="1" x1="202.5" x2="201.5" y1="39.5" y2="26.0" /><line opacity="0.7" stroke="magenta" stroke-width="1" x1="202.5" x2="168.5" y1="39.5" y2="39.0" /><line opacity="0.7" stroke="magenta" stroke-width="1" x1="67.0" x2="97.0" y1="209.0" y2="210.0" /><line opacity="0.7" stroke="magenta" stroke-width="1" x1="67.0" x2="65.0" y1="209.0" y2="65.0" /><line opacity="0.7" stroke="magenta" stroke-width="1" x1="67.0" x2="66.0" y1="209.0" y2="216.0" /><line opacity="0.7" stroke="magenta" stroke-width="1" x1="83.0" x2="66.0" y1="67.0" y2="54.0" /><line opacity="0.7" stroke="magenta" stroke-width="1" x1="83.0" x2="82.0" y1="67.0" y2="56.0" /><line opacity="0.7" stroke="magenta" stroke-width="1" x1="83.0" x2="65.0" y1="67.0" y2="65.0" /><line opacity="0.7" stroke="magenta" stroke-width="1" x1="201.5" x2="168.0" y1="26.0" y2="28.0" /><line opacity="0.7" stroke="magenta" stroke-width="1" x1="109.5" x2="108.5" y1="208.0" y2="185.0" /><line opacity="0.7" stroke="magenta" stroke-width="1" x1="109.5" x2="149.0" y1="208.0" y2="211.0" /><line opacity="0.7" stroke="magenta" stroke-width="1" x1="109.5" x2="112.0" y1="208.0" y2="169.5" /><line opacity="0.7" stroke="magenta" stroke-width="1" x1="109.5" x2="97.0" y1="208.0" y2="210.0" /><line opacity="0.7" stroke="magenta" stroke-width="1" x1="109.5" x2="145.0" y1="208.0" y2="187.0" /><line opacity="0.7" stroke="magenta" stroke-width="1" x1="170.0" x2="169.0" y1="173.5" y2="123.0" /><line opacity="0.7" stroke="magenta" stroke-width="1" x1="170.0" x2="157.0" y1="173.5" y2="174.5" /><line opacity="0.7" stroke="magenta" stroke-width="1" x1="170.0" x2="170.0" y1="173.5" y2="214.0" /><line opacity="0.7" stroke="magenta" stroke-width="1" x1="170.0" x2="170.0" y1="173.5" y2="225.5" /><line opacity="0.7" stroke="magenta" stroke-width="1" x1="170.0" x2="144.0" y1="173.5" y2="170.0" /><line opacity="0.7" stroke="magenta" stroke-width="1" x1="170.0" x2="145.0" y1="173.5" y2="187.0" /><line opacity="0.7" stroke="magenta" stroke-width="1" x1="108.5" x2="108.5" y1="185.0" y2="117.0" /><line opacity="0.7" stroke="magenta" stroke-width="1" x1="108.5" x2="112.0" y1="185.0" y2="169.5" /><line opacity="0.7" stroke="magenta" stroke-width="1" x1="108.5" x2="97.0" y1="185.0" y2="210.0" /><line opacity="0.7" stroke="magenta" stroke-width="1" x1="108.5" x2="145.0" y1="185.0" y2="187.0" /><line opacity="0.7" stroke="magenta" stroke-width="1" x1="169.0" x2="168.5" y1="123.0" y2="39.0" /><line opacity="0.7" stroke="magenta" stroke-width="1" x1="169.0" x2="147.5" y1="123.0" y2="123.0" /><line opacity="0.7" stroke="magenta" stroke-width="1" x1="66.0" x2="82.0" y1="54.0" y2="56.0" /><line opacity="0.7" stroke="magenta" stroke-width="1" x1="66.0" x2="65.0" y1="54.0" y2="65.0" /><line opacity="0.7" stroke="magenta" stroke-width="1" x1="108.5" x2="110.5" y1="117.0" y2="150.0" /><line opacity="0.7" stroke="magenta" stroke-width="1" x1="108.5" x2="147.5" y1="117.0" y2="123.0" /><line opacity="0.7" stroke="magenta" stroke-width="1" x1="157.0" x2="149.0" y1="174.5" y2="211.0" /><line opacity="0.7" stroke="magenta" stroke-width="1" x1="157.0" x2="144.0" y1="174.5" y2="170.0" /><line opacity="0.7" stroke="magenta" stroke-width="1" x1="157.0" x2="145.0" y1="174.5" y2="187.0" /><line opacity="0.7" stroke="magenta" stroke-width="1" x1="149.0" x2="97.0" y1="211.0" y2="210.0" /><line opacity="0.7" stroke="magenta" stroke-width="1" x1="149.0" x2="170.0" y1="211.0" y2="214.0" /><line opacity="0.7" stroke="magenta" stroke-width="1" x1="149.0" x2="146.0" y1="211.0" y2="219.5" /><line opacity="0.7" stroke="magenta" stroke-width="1" x1="149.0" x2="145.0" y1="211.0" y2="187.0" /><line opacity="0.7" stroke="magenta" stroke-width="1" x1="112.0" x2="110.5" y1="169.5" y2="150.0" /><line opacity="0.7" stroke="magenta" stroke-width="1" x1="112.0" x2="144.0" y1="169.5" y2="170.0" /><line opacity="0.7" stroke="magenta" stroke-width="1" x1="168.0" x2="168.5" y1="28.0" y2="39.0" /><line opacity="0.7" stroke="magenta" stroke-width="1" x1="146.0" x2="147.5" y1="133.5" y2="123.0" /><line opacity="0.7" stroke="magenta" stroke-width="1" x1="146.0" x2="144.0" y1="133.5" y2="170.0" /><line opacity="0.7" stroke="magenta" stroke-width="1" x1="146.0" x2="145.0" y1="133.5" y2="187.0" /><line opacity="0.7" stroke="magenta" stroke-width="1" x1="110.5" x2="144.0" y1="150.0" y2="170.0" /><line opacity="0.7" stroke="magenta" stroke-width="1" x1="67.5" x2="66.0" y1="227.0" y2="216.0" /><line opacity="0.7" stroke="magenta" stroke-width="1" x1="170.0" x2="146.0" y1="214.0" y2="219.5" /><line opacity="0.7" stroke="magenta" stroke-width="1" x1="170.0" x2="170.0" y1="214.0" y2="225.5" /><line opacity="0.7" stroke="magenta" stroke-width="1" x1="146.0" x2="170.0" y1="219.5" y2="225.5" /><line opacity="0.7" stroke="magenta" stroke-width="1" x1="146.0" x2="145.0" y1="219.5" y2="187.0" /><line opacity="0.7" stroke="magenta" stroke-width="1" x1="144.0" x2="145.0" y1="170.0" y2="187.0" /><circle cx="67.5" cy="227.0" fill="white" opacity="0.8" r="1.5" stroke="blue" stroke-width="0.8" /><circle cx="108.5" cy="185.0" fill="white" opacity="0.8" r="1.5" stroke="blue" stroke-width="0.8" /><circle cx="108.5" cy="117.0" fill="white" opacity="0.8" r="1.5" stroke="blue" stroke-width="0.8" /><circle cx="82.0" cy="56.0" fill="white" opacity="0.8" r="1.5" stroke="blue" stroke-width="0.8" /><circle cx="169.0" cy="123.0" fill="white" opacity="0.8" r="1.5" stroke="blue" stroke-width="0.8" /><circle cx="112.0" cy="169.5" fill="white" opacity="0.8" r="1.5" stroke="blue" stroke-width="0.8" /><circle cx="170.0" cy="173.5" fill="white" opacity="0.8" r="1.5" stroke="blue" stroke-width="0.8" /><circle cx="202.5" cy="39.5" fill="white" opacity="0.8" r="1.5" stroke="blue" stroke-width="0.8" /><circle cx="66.0" cy="216.0" fill="white" opacity="0.8" r="1.5" stroke="blue" stroke-width="0.8" /><circle cx="65.0" cy="65.0" fill="white" opacity="0.8" r="1.5" stroke="blue" stroke-width="0.8" /><circle cx="81.5" cy="25.0" fill="white" opacity="0.8" r="1.5" stroke="blue" stroke-width="0.8" /><circle cx="168.5" cy="39.0" fill="white" opacity="0.8" r="1.5" stroke="blue" stroke-width="0.8" /><circle cx="146.0" cy="133.5" fill="white" opacity="0.8" r="1.5" stroke="blue" stroke-width="0.8" /><circle cx="170.0" cy="214.0" fill="white" opacity="0.8" r="1.5" stroke="blue" stroke-width="0.8" /><circle cx="52.0" cy="228.0" fill="white" opacity="0.8" r="1.5" stroke="blue" stroke-width="0.8" /><circle cx="144.0" cy="170.0" fill="white" opacity="0.8" r="1.5" stroke="blue" stroke-width="0.8" /><circle cx="170.0" cy="225.5" fill="white" opacity="0.8" r="1.5" stroke="blue" stroke-width="0.8" /><circle cx="67.0" cy="209.0" fill="white" opacity="0.8" r="1.5" stroke="blue" stroke-width="0.8" /><circle cx="66.0" cy="54.0" fill="white" opacity="0.8" r="1.5" stroke="blue" stroke-width="0.8" /><circle cx="168.0" cy="28.0" fill="white" opacity="0.8" r="1.5" stroke="blue" stroke-width="0.8" /><circle cx="97.0" cy="210.0" fill="white" opacity="0.8" r="1.5" stroke="blue" stroke-width="0.8" /><circle cx="157.0" cy="174.5" fill="white" opacity="0.8" r="1.5" stroke="blue" stroke-width="0.8" /><circle cx="149.0" cy="211.0" fill="white" opacity="0.8" r="1.5" stroke="blue" stroke-width="0.8" /><circle cx="50.0" cy="50.0" fill="white" opacity="0.8" r="1.5" stroke="blue" stroke-width="0.8" /><circle cx="110.0" cy="229.5" fill="white" opacity="0.8" r="1.5" stroke="blue" stroke-width="0.8" /><circle cx="201.5" cy="26.0" fill="white" opacity="0.8" r="1.5" stroke="blue" stroke-width="0.8" /><circle cx="145.0" cy="187.0" fill="white" opacity="0.8" r="1.5" stroke="blue" stroke-width="0.8" /><circle cx="147.5" cy="123.0" fill="white" opacity="0.8" r="1.5" stroke="blue" stroke-width="0.8" /><circle cx="146.0" cy="219.5" fill="white" opacity="0.8" r="1.5" stroke="blue" stroke-width="0.8" /><circle cx="83.0" cy="67.0" fill="white" opacity="0.8" r="1.5" stroke="blue" stroke-width="0.8" /><circle cx="110.5" cy="150.0" fill="white" opacity="0.8" r="1.5" stroke="blue" stroke-width="0.8" /><circle cx="109.5" cy="208.0" fill="white" opacity="0.8" r="1.5" stroke="blue" stroke-width="0.8" /><circle cx="204.0" cy="224.0" fill="white" opacity="0.8" r="1.5" stroke="blue" stroke-width="0.8" /></svg>