<?xml version="1.0" encoding="utf-8" ?>
<svg baseProfile="full" height="256" version="1.1" width="256" xmlns="http://www.w3.org/2000/svg" xmlns:ev="http://www.w3.org/2001/xml-events" xmlns:xlink="http://www.w3.org/1999/xlink"><defs /><image height="256" width="256" xlink:href="/home/nelson/Workspace/building_reconstruction/la_dataset_new/rgb/1526320805.6.jpg" /><line opacity="0.7" stroke="magenta" stroke-width="1" x1="175.5" x2="59.0" y1="178.0" y2="124.0" /><line opacity="0.7" stroke="magenta" stroke-width="1" x1="175.5" x2="194.5" y1="178.0" y2="142.5" /><line opacity="0.7" stroke="magenta" stroke-width="1" x1="59.0" x2="86.0" y1="124.0" y2="79.5" /><line opacity="0.7" stroke="magenta" stroke-width="1" x1="59.0" x2="77.0" y1="124.0" y2="131.0" /><line opacity="0.7" stroke="magenta" stroke-width="1" x1="59.0" x2="75.0" y1="124.0" y2="107.0" /><line opacity="0.7" stroke="magenta" stroke-width="1" x1="86.0" x2="97.5" y1="79.5" y2="96.0" /><line opacity="0.7" stroke="magenta" stroke-width="1" x1="86.0" x2="75.0" y1="79.5" y2="107.0" /><line opacity="0.7" stroke="magenta" stroke-width="1" x1="197.5" x2="194.5" y1="132.0" y2="142.5" /><line opacity="0.7" stroke="magenta" stroke-width="1" x1="194.5" x2="97.5" y1="142.5" y2="96.0" /><line opacity="0.7" stroke="magenta" stroke-width="1" x1="77.0" x2="75.0" y1="131.0" y2="107.0" /><line opacity="0.7" stroke="magenta" stroke-width="1" x1="97.5" x2="75.0" y1="96.0" y2="107.0" /><circle cx="86.0" cy="79.5" fill="white" opacity="0.8" r="1.5" stroke="blue" stroke-width="0.8" /><circle cx="77.0" cy="131.0" fill="white" opacity="0.8" r="1.5" stroke="blue" stroke-width="0.8" /><circle cx="59.0" cy="124.0" fill="white" opacity="0.8" r="1.5" stroke="blue" stroke-width="0.8" /><circle cx="97.5" cy="96.0" fill="white" opacity="0.8" r="1.5" stroke="blue" stroke-width="0.8" /><circle cx="197.5" cy="132.0" fill="white" opacity="0.8" r="1.5" stroke="blue" stroke-width="0.8" /><circle cx="75.0" cy="107.0" fill="white" opacity="0.8" r="1.5" stroke="blue" stroke-width="0.8" /><circle cx="175.5" cy="178.0" fill="white" opacity="0.8" r="1.5" stroke="blue" stroke-width="0.8" /><circle cx="194.5" cy="142.5" fill="white" opacity="0.8" r="1.5" stroke="blue" stroke-width="0.8" /></svg>