<?xml version="1.0" encoding="utf-8" ?>
<svg baseProfile="full" height="256" version="1.1" width="256" xmlns="http://www.w3.org/2000/svg" xmlns:ev="http://www.w3.org/2001/xml-events" xmlns:xlink="http://www.w3.org/1999/xlink"><defs /><image height="256" width="256" xlink:href="/home/nelson/Workspace/building_reconstruction/la_dataset_new/rgb/1526358440.58.jpg" /><line opacity="0.7" stroke="magenta" stroke-width="1" x1="193.0" x2="62.0" y1="75.5" y2="77.0" /><line opacity="0.7" stroke="magenta" stroke-width="1" x1="193.0" x2="192.0" y1="75.5" y2="181.0" /><line opacity="0.7" stroke="magenta" stroke-width="1" x1="193.0" x2="97.0" y1="75.5" y2="78.0" /><line opacity="0.7" stroke="magenta" stroke-width="1" x1="62.0" x2="64.0" y1="77.0" y2="182.0" /><line opacity="0.7" stroke="magenta" stroke-width="1" x1="62.0" x2="97.0" y1="77.0" y2="78.0" /><line opacity="0.7" stroke="magenta" stroke-width="1" x1="64.0" x2="192.0" y1="182.0" y2="181.0" /><line opacity="0.7" stroke="magenta" stroke-width="1" x1="158.0" x2="97.5" y1="144.5" y2="145.0" /><line opacity="0.7" stroke="magenta" stroke-width="1" x1="158.0" x2="155.5" y1="144.5" y2="129.0" /><line opacity="0.7" stroke="magenta" stroke-width="1" x1="97.5" x2="97.0" y1="145.0" y2="128.5" /><line opacity="0.7" stroke="magenta" stroke-width="1" x1="97.0" x2="97.0" y1="128.5" y2="78.0" /><line opacity="0.7" stroke="magenta" stroke-width="1" x1="155.5" x2="110.5" y1="129.0" y2="132.5" /><line opacity="0.7" stroke="magenta" stroke-width="1" x1="155.5" x2="155.0" y1="129.0" y2="107.0" /><line opacity="0.7" stroke="magenta" stroke-width="1" x1="155.0" x2="166.5" y1="107.0" y2="108.5" /><circle cx="155.5" cy="129.0" fill="white" opacity="0.8" r="1.5" stroke="blue" stroke-width="0.8" /><circle cx="97.0" cy="78.0" fill="white" opacity="0.8" r="1.5" stroke="blue" stroke-width="0.8" /><circle cx="158.0" cy="144.5" fill="white" opacity="0.8" r="1.5" stroke="blue" stroke-width="0.8" /><circle cx="97.5" cy="145.0" fill="white" opacity="0.8" r="1.5" stroke="blue" stroke-width="0.8" /><circle cx="192.0" cy="181.0" fill="white" opacity="0.8" r="1.5" stroke="blue" stroke-width="0.8" /><circle cx="166.5" cy="108.5" fill="white" opacity="0.8" r="1.5" stroke="blue" stroke-width="0.8" /><circle cx="193.0" cy="75.5" fill="white" opacity="0.8" r="1.5" stroke="blue" stroke-width="0.8" /><circle cx="97.0" cy="128.5" fill="white" opacity="0.8" r="1.5" stroke="blue" stroke-width="0.8" /><circle cx="155.0" cy="107.0" fill="white" opacity="0.8" r="1.5" stroke="blue" stroke-width="0.8" /><circle cx="62.0" cy="77.0" fill="white" opacity="0.8" r="1.5" stroke="blue" stroke-width="0.8" /><circle cx="64.0" cy="182.0" fill="white" opacity="0.8" r="1.5" stroke="blue" stroke-width="0.8" /><circle cx="110.5" cy="132.5" fill="white" opacity="0.8" r="1.5" stroke="blue" stroke-width="0.8" /></svg>