<?xml version="1.0" encoding="utf-8" ?>
<svg baseProfile="full" height="256" version="1.1" width="256" xmlns="http://www.w3.org/2000/svg" xmlns:ev="http://www.w3.org/2001/xml-events" xmlns:xlink="http://www.w3.org/1999/xlink"><defs /><image height="256" width="256" xlink:href="/home/nelson/Workspace/building_reconstruction/la_dataset_new/rgb/1526320349.98.jpg" /><line opacity="0.7" stroke="magenta" stroke-width="1" x1="177.0" x2="177.0" y1="204.0" y2="52.5" /><line opacity="0.7" stroke="magenta" stroke-width="1" x1="177.0" x2="127.0" y1="204.0" y2="202.0" /><line opacity="0.7" stroke="magenta" stroke-width="1" x1="177.0" x2="77.0" y1="52.5" y2="53.0" /><line opacity="0.7" stroke="magenta" stroke-width="1" x1="77.0" x2="79.0" y1="53.0" y2="204.0" /><line opacity="0.7" stroke="magenta" stroke-width="1" x1="79.0" x2="127.0" y1="204.0" y2="202.0" /><line opacity="0.7" stroke="magenta" stroke-width="1" x1="139.0" x2="117.0" y1="127.5" y2="127.5" /><line opacity="0.7" stroke="magenta" stroke-width="1" x1="139.0" x2="141.0" y1="127.5" y2="155.0" /><line opacity="0.7" stroke="magenta" stroke-width="1" x1="116.0" x2="144.0" y1="89.0" y2="92.5" /><line opacity="0.7" stroke="magenta" stroke-width="1" x1="116.0" x2="126.0" y1="89.0" y2="78.5" /><line opacity="0.7" stroke="magenta" stroke-width="1" x1="116.0" x2="117.0" y1="89.0" y2="127.5" /><line opacity="0.7" stroke="magenta" stroke-width="1" x1="127.0" x2="126.0" y1="202.0" y2="170.0" /><line opacity="0.7" stroke="magenta" stroke-width="1" x1="144.0" x2="141.0" y1="92.5" y2="155.0" /><line opacity="0.7" stroke="magenta" stroke-width="1" x1="118.5" x2="117.0" y1="168.0" y2="127.5" /><line opacity="0.7" stroke="magenta" stroke-width="1" x1="118.5" x2="126.0" y1="168.0" y2="170.0" /><line opacity="0.7" stroke="magenta" stroke-width="1" x1="126.0" x2="125.0" y1="78.5" y2="57.0" /><line opacity="0.7" stroke="magenta" stroke-width="1" x1="141.0" x2="141.0" y1="155.0" y2="171.0" /><line opacity="0.7" stroke="magenta" stroke-width="1" x1="141.0" x2="126.0" y1="171.0" y2="170.0" /><circle cx="126.0" cy="78.5" fill="white" opacity="0.8" r="1.5" stroke="blue" stroke-width="0.8" /><circle cx="118.5" cy="168.0" fill="white" opacity="0.8" r="1.5" stroke="blue" stroke-width="0.8" /><circle cx="139.0" cy="127.5" fill="white" opacity="0.8" r="1.5" stroke="blue" stroke-width="0.8" /><circle cx="127.0" cy="202.0" fill="white" opacity="0.8" r="1.5" stroke="blue" stroke-width="0.8" /><circle cx="177.0" cy="52.5" fill="white" opacity="0.8" r="1.5" stroke="blue" stroke-width="0.8" /><circle cx="141.0" cy="155.0" fill="white" opacity="0.8" r="1.5" stroke="blue" stroke-width="0.8" /><circle cx="117.0" cy="127.5" fill="white" opacity="0.8" r="1.5" stroke="blue" stroke-width="0.8" /><circle cx="79.0" cy="204.0" fill="white" opacity="0.8" r="1.5" stroke="blue" stroke-width="0.8" /><circle cx="77.0" cy="53.0" fill="white" opacity="0.8" r="1.5" stroke="blue" stroke-width="0.8" /><circle cx="116.0" cy="89.0" fill="white" opacity="0.8" r="1.5" stroke="blue" stroke-width="0.8" /><circle cx="126.0" cy="170.0" fill="white" opacity="0.8" r="1.5" stroke="blue" stroke-width="0.8" /><circle cx="125.0" cy="57.0" fill="white" opacity="0.8" r="1.5" stroke="blue" stroke-width="0.8" /><circle cx="141.0" cy="171.0" fill="white" opacity="0.8" r="1.5" stroke="blue" stroke-width="0.8" /><circle cx="177.0" cy="204.0" fill="white" opacity="0.8" r="1.5" stroke="blue" stroke-width="0.8" /><circle cx="144.0" cy="92.5" fill="white" opacity="0.8" r="1.5" stroke="blue" stroke-width="0.8" /></svg>