<?xml version="1.0" encoding="utf-8" ?>
<svg baseProfile="full" height="256" version="1.1" width="256" xmlns="http://www.w3.org/2000/svg" xmlns:ev="http://www.w3.org/2001/xml-events" xmlns:xlink="http://www.w3.org/1999/xlink"><defs /><image height="256" width="256" xlink:href="/home/nelson/Workspace/building_reconstruction/la_dataset_new/rgb/1526359897.88.jpg" /><line opacity="0.7" stroke="magenta" stroke-width="1" x1="165.5" x2="131.5" y1="22.0" y2="20.5" /><line opacity="0.7" stroke="magenta" stroke-width="1" x1="100.0" x2="100.0" y1="240.5" y2="207.5" /><line opacity="0.7" stroke="magenta" stroke-width="1" x1="147.0" x2="118.0" y1="154.5" y2="155.5" /><line opacity="0.7" stroke="magenta" stroke-width="1" x1="121.0" x2="100.0" y1="207.0" y2="207.5" /><line opacity="0.7" stroke="magenta" stroke-width="1" x1="121.0" x2="118.0" y1="207.0" y2="155.5" /><line opacity="0.7" stroke="magenta" stroke-width="1" x1="131.5" x2="134.5" y1="20.5" y2="40.0" /><line opacity="0.7" stroke="magenta" stroke-width="1" x1="131.5" x2="108.0" y1="20.5" y2="20.0" /><line opacity="0.7" stroke="magenta" stroke-width="1" x1="163.0" x2="161.5" y1="215.5" y2="124.0" /><line opacity="0.7" stroke="magenta" stroke-width="1" x1="119.0" x2="134.5" y1="41.0" y2="40.0" /><line opacity="0.7" stroke="magenta" stroke-width="1" x1="119.0" x2="121.0" y1="41.0" y2="56.5" /><line opacity="0.7" stroke="magenta" stroke-width="1" x1="119.0" x2="108.0" y1="41.0" y2="20.0" /><line opacity="0.7" stroke="magenta" stroke-width="1" x1="154.0" x2="126.0" y1="123.0" y2="123.5" /><line opacity="0.7" stroke="magenta" stroke-width="1" x1="154.0" x2="161.5" y1="123.0" y2="124.0" /><line opacity="0.7" stroke="magenta" stroke-width="1" x1="118.0" x2="121.0" y1="155.5" y2="56.5" /><line opacity="0.7" stroke="magenta" stroke-width="1" x1="92.5" x2="108.0" y1="20.0" y2="20.0" /><circle cx="108.0" cy="20.0" fill="white" opacity="0.8" r="1.5" stroke="blue" stroke-width="0.8" /><circle cx="165.5" cy="22.0" fill="white" opacity="0.8" r="1.5" stroke="blue" stroke-width="0.8" /><circle cx="131.5" cy="20.5" fill="white" opacity="0.8" r="1.5" stroke="blue" stroke-width="0.8" /><circle cx="163.0" cy="215.5" fill="white" opacity="0.8" r="1.5" stroke="blue" stroke-width="0.8" /><circle cx="119.0" cy="41.0" fill="white" opacity="0.8" r="1.5" stroke="blue" stroke-width="0.8" /><circle cx="121.0" cy="56.5" fill="white" opacity="0.8" r="1.5" stroke="blue" stroke-width="0.8" /><circle cx="100.0" cy="207.5" fill="white" opacity="0.8" r="1.5" stroke="blue" stroke-width="0.8" /><circle cx="147.0" cy="154.5" fill="white" opacity="0.8" r="1.5" stroke="blue" stroke-width="0.8" /><circle cx="154.0" cy="123.0" fill="white" opacity="0.8" r="1.5" stroke="blue" stroke-width="0.8" /><circle cx="100.0" cy="240.5" fill="white" opacity="0.8" r="1.5" stroke="blue" stroke-width="0.8" /><circle cx="161.5" cy="124.0" fill="white" opacity="0.8" r="1.5" stroke="blue" stroke-width="0.8" /><circle cx="126.0" cy="123.5" fill="white" opacity="0.8" r="1.5" stroke="blue" stroke-width="0.8" /><circle cx="121.0" cy="207.0" fill="white" opacity="0.8" r="1.5" stroke="blue" stroke-width="0.8" /><circle cx="134.5" cy="40.0" fill="white" opacity="0.8" r="1.5" stroke="blue" stroke-width="0.8" /><circle cx="92.5" cy="20.0" fill="white" opacity="0.8" r="1.5" stroke="blue" stroke-width="0.8" /><circle cx="118.0" cy="155.5" fill="white" opacity="0.8" r="1.5" stroke="blue" stroke-width="0.8" /></svg>