<?xml version="1.0" encoding="utf-8" ?>
<svg baseProfile="full" height="256" version="1.1" width="256" xmlns="http://www.w3.org/2000/svg" xmlns:ev="http://www.w3.org/2001/xml-events" xmlns:xlink="http://www.w3.org/1999/xlink"><defs /><image height="256" width="256" xlink:href="/home/nelson/Workspace/building_reconstruction/la_dataset_new/rgb/1526320455.46.jpg" /><line opacity="0.7" stroke="magenta" stroke-width="1" x1="98.0" x2="159.0" y1="63.0" y2="62.0" /><line opacity="0.7" stroke="magenta" stroke-width="1" x1="98.0" x2="97.0" y1="63.0" y2="85.5" /><line opacity="0.7" stroke="magenta" stroke-width="1" x1="97.5" x2="159.0" y1="196.0" y2="195.0" /><line opacity="0.7" stroke="magenta" stroke-width="1" x1="97.5" x2="98.0" y1="196.0" y2="170.0" /><line opacity="0.7" stroke="magenta" stroke-width="1" x1="159.0" x2="158.0" y1="62.0" y2="85.5" /><line opacity="0.7" stroke="magenta" stroke-width="1" x1="159.0" x2="158.0" y1="195.0" y2="171.0" /><line opacity="0.7" stroke="magenta" stroke-width="1" x1="148.0" x2="158.0" y1="87.0" y2="85.5" /><line opacity="0.7" stroke="magenta" stroke-width="1" x1="148.0" x2="149.0" y1="87.0" y2="171.0" /><line opacity="0.7" stroke="magenta" stroke-width="1" x1="97.0" x2="105.0" y1="85.5" y2="86.0" /><line opacity="0.7" stroke="magenta" stroke-width="1" x1="105.0" x2="106.0" y1="86.0" y2="168.5" /><line opacity="0.7" stroke="magenta" stroke-width="1" x1="158.0" x2="158.0" y1="85.5" y2="171.0" /><line opacity="0.7" stroke="magenta" stroke-width="1" x1="132.5" x2="120.0" y1="149.0" y2="149.5" /><line opacity="0.7" stroke="magenta" stroke-width="1" x1="132.5" x2="130.0" y1="149.0" y2="140.0" /><line opacity="0.7" stroke="magenta" stroke-width="1" x1="132.5" x2="130.5" y1="149.0" y2="161.0" /><line opacity="0.7" stroke="magenta" stroke-width="1" x1="158.0" x2="149.0" y1="171.0" y2="171.0" /><line opacity="0.7" stroke="magenta" stroke-width="1" x1="98.0" x2="106.0" y1="170.0" y2="168.5" /><line opacity="0.7" stroke="magenta" stroke-width="1" x1="120.0" x2="121.0" y1="149.5" y2="162.0" /><line opacity="0.7" stroke="magenta" stroke-width="1" x1="120.0" x2="130.0" y1="149.5" y2="140.0" /><line opacity="0.7" stroke="magenta" stroke-width="1" x1="120.0" x2="112.5" y1="149.5" y2="163.0" /><line opacity="0.7" stroke="magenta" stroke-width="1" x1="121.0" x2="121.0" y1="170.0" y2="162.0" /><line opacity="0.7" stroke="magenta" stroke-width="1" x1="121.0" x2="113.0" y1="170.0" y2="171.0" /><line opacity="0.7" stroke="magenta" stroke-width="1" x1="121.0" x2="130.5" y1="162.0" y2="161.0" /><line opacity="0.7" stroke="magenta" stroke-width="1" x1="106.0" x2="113.0" y1="168.5" y2="171.0" /><line opacity="0.7" stroke="magenta" stroke-width="1" x1="106.0" x2="112.5" y1="168.5" y2="163.0" /><line opacity="0.7" stroke="magenta" stroke-width="1" x1="113.0" x2="112.5" y1="171.0" y2="163.0" /><circle cx="106.0" cy="168.5" fill="white" opacity="0.8" r="1.5" stroke="blue" stroke-width="0.8" /><circle cx="98.0" cy="170.0" fill="white" opacity="0.8" r="1.5" stroke="blue" stroke-width="0.8" /><circle cx="149.0" cy="171.0" fill="white" opacity="0.8" r="1.5" stroke="blue" stroke-width="0.8" /><circle cx="112.5" cy="163.0" fill="white" opacity="0.8" r="1.5" stroke="blue" stroke-width="0.8" /><circle cx="121.0" cy="162.0" fill="white" opacity="0.8" r="1.5" stroke="blue" stroke-width="0.8" /><circle cx="121.0" cy="170.0" fill="white" opacity="0.8" r="1.5" stroke="blue" stroke-width="0.8" /><circle cx="158.0" cy="85.5" fill="white" opacity="0.8" r="1.5" stroke="blue" stroke-width="0.8" /><circle cx="97.0" cy="85.5" fill="white" opacity="0.8" r="1.5" stroke="blue" stroke-width="0.8" /><circle cx="97.5" cy="196.0" fill="white" opacity="0.8" r="1.5" stroke="blue" stroke-width="0.8" /><circle cx="120.0" cy="149.5" fill="white" opacity="0.8" r="1.5" stroke="blue" stroke-width="0.8" /><circle cx="130.0" cy="140.0" fill="white" opacity="0.8" r="1.5" stroke="blue" stroke-width="0.8" /><circle cx="132.5" cy="149.0" fill="white" opacity="0.8" r="1.5" stroke="blue" stroke-width="0.8" /><circle cx="113.0" cy="171.0" fill="white" opacity="0.8" r="1.5" stroke="blue" stroke-width="0.8" /><circle cx="105.0" cy="86.0" fill="white" opacity="0.8" r="1.5" stroke="blue" stroke-width="0.8" /><circle cx="98.0" cy="63.0" fill="white" opacity="0.8" r="1.5" stroke="blue" stroke-width="0.8" /><circle cx="148.0" cy="87.0" fill="white" opacity="0.8" r="1.5" stroke="blue" stroke-width="0.8" /><circle cx="158.0" cy="171.0" fill="white" opacity="0.8" r="1.5" stroke="blue" stroke-width="0.8" /><circle cx="159.0" cy="62.0" fill="white" opacity="0.8" r="1.5" stroke="blue" stroke-width="0.8" /><circle cx="130.5" cy="161.0" fill="white" opacity="0.8" r="1.5" stroke="blue" stroke-width="0.8" /><circle cx="159.0" cy="195.0" fill="white" opacity="0.8" r="1.5" stroke="blue" stroke-width="0.8" /></svg>