<?xml version="1.0" encoding="utf-8" ?>
<svg baseProfile="full" height="256" version="1.1" width="256" xmlns="http://www.w3.org/2000/svg" xmlns:ev="http://www.w3.org/2001/xml-events" xmlns:xlink="http://www.w3.org/1999/xlink"><defs /><image height="256" width="256" xlink:href="/home/nelson/Workspace/building_reconstruction/la_dataset_new/rgb/1526400074.29.jpg" /><line opacity="0.7" stroke="magenta" stroke-width="1" x1="71.0" x2="71.0" y1="187.0" y2="72.0" /><line opacity="0.7" stroke="magenta" stroke-width="1" x1="71.0" x2="151.5" y1="187.0" y2="187.5" /><line opacity="0.7" stroke="magenta" stroke-width="1" x1="71.0" x2="186.0" y1="72.0" y2="69.0" /><line opacity="0.7" stroke="magenta" stroke-width="1" x1="185.0" x2="186.0" y1="187.0" y2="143.0" /><line opacity="0.7" stroke="magenta" stroke-width="1" x1="185.0" x2="151.5" y1="187.0" y2="187.5" /><line opacity="0.7" stroke="magenta" stroke-width="1" x1="186.0" x2="182.0" y1="69.0" y2="117.5" /><line opacity="0.7" stroke="magenta" stroke-width="1" x1="186.0" x2="125.0" y1="143.0" y2="144.5" /><line opacity="0.7" stroke="magenta" stroke-width="1" x1="182.0" x2="121.0" y1="117.5" y2="120.0" /><line opacity="0.7" stroke="magenta" stroke-width="1" x1="125.0" x2="119.0" y1="144.5" y2="154.5" /><line opacity="0.7" stroke="magenta" stroke-width="1" x1="88.0" x2="119.0" y1="158.0" y2="154.5" /><circle cx="151.5" cy="187.5" fill="white" opacity="0.8" r="1.5" stroke="blue" stroke-width="0.8" /><circle cx="71.0" cy="187.0" fill="white" opacity="0.8" r="1.5" stroke="blue" stroke-width="0.8" /><circle cx="119.0" cy="154.5" fill="white" opacity="0.8" r="1.5" stroke="blue" stroke-width="0.8" /><circle cx="121.0" cy="120.0" fill="white" opacity="0.8" r="1.5" stroke="blue" stroke-width="0.8" /><circle cx="186.0" cy="69.0" fill="white" opacity="0.8" r="1.5" stroke="blue" stroke-width="0.8" /><circle cx="125.0" cy="144.5" fill="white" opacity="0.8" r="1.5" stroke="blue" stroke-width="0.8" /><circle cx="185.0" cy="187.0" fill="white" opacity="0.8" r="1.5" stroke="blue" stroke-width="0.8" /><circle cx="186.0" cy="143.0" fill="white" opacity="0.8" r="1.5" stroke="blue" stroke-width="0.8" /><circle cx="71.0" cy="72.0" fill="white" opacity="0.8" r="1.5" stroke="blue" stroke-width="0.8" /><circle cx="88.0" cy="158.0" fill="white" opacity="0.8" r="1.5" stroke="blue" stroke-width="0.8" /><circle cx="182.0" cy="117.5" fill="white" opacity="0.8" r="1.5" stroke="blue" stroke-width="0.8" /></svg>