<?xml version="1.0" encoding="utf-8" ?>
<svg baseProfile="full" height="256" version="1.1" width="256" xmlns="http://www.w3.org/2000/svg" xmlns:ev="http://www.w3.org/2001/xml-events" xmlns:xlink="http://www.w3.org/1999/xlink"><defs /><image height="256" width="256" xlink:href="/home/nelson/Workspace/building_reconstruction/la_dataset_new/rgb/1526320883.92.jpg" /><line opacity="0.7" stroke="magenta" stroke-width="1" x1="165.0" x2="182.0" y1="168.0" y2="134.5" /><line opacity="0.7" stroke="magenta" stroke-width="1" x1="165.0" x2="69.0" y1="168.0" y2="120.0" /><line opacity="0.7" stroke="magenta" stroke-width="1" x1="165.0" x2="85.0" y1="168.0" y2="126.0" /><line opacity="0.7" stroke="magenta" stroke-width="1" x1="187.0" x2="84.5" y1="89.5" y2="88.0" /><line opacity="0.7" stroke="magenta" stroke-width="1" x1="187.0" x2="180.0" y1="89.5" y2="115.5" /><line opacity="0.7" stroke="magenta" stroke-width="1" x1="84.5" x2="69.0" y1="88.0" y2="120.0" /><line opacity="0.7" stroke="magenta" stroke-width="1" x1="84.5" x2="85.0" y1="88.0" y2="126.0" /><line opacity="0.7" stroke="magenta" stroke-width="1" x1="84.5" x2="98.0" y1="88.0" y2="96.0" /><line opacity="0.7" stroke="magenta" stroke-width="1" x1="182.0" x2="180.0" y1="134.5" y2="115.5" /><line opacity="0.7" stroke="magenta" stroke-width="1" x1="182.0" x2="98.0" y1="134.5" y2="96.0" /><line opacity="0.7" stroke="magenta" stroke-width="1" x1="69.0" x2="85.0" y1="120.0" y2="126.0" /><circle cx="187.0" cy="89.5" fill="white" opacity="0.8" r="1.5" stroke="blue" stroke-width="0.8" /><circle cx="180.0" cy="115.5" fill="white" opacity="0.8" r="1.5" stroke="blue" stroke-width="0.8" /><circle cx="69.0" cy="120.0" fill="white" opacity="0.8" r="1.5" stroke="blue" stroke-width="0.8" /><circle cx="98.0" cy="96.0" fill="white" opacity="0.8" r="1.5" stroke="blue" stroke-width="0.8" /><circle cx="84.5" cy="88.0" fill="white" opacity="0.8" r="1.5" stroke="blue" stroke-width="0.8" /><circle cx="85.0" cy="126.0" fill="white" opacity="0.8" r="1.5" stroke="blue" stroke-width="0.8" /><circle cx="165.0" cy="168.0" fill="white" opacity="0.8" r="1.5" stroke="blue" stroke-width="0.8" /><circle cx="182.0" cy="134.5" fill="white" opacity="0.8" r="1.5" stroke="blue" stroke-width="0.8" /></svg>