<?xml version="1.0" encoding="utf-8" ?>
<svg baseProfile="full" height="256" version="1.1" width="256" xmlns="http://www.w3.org/2000/svg" xmlns:ev="http://www.w3.org/2001/xml-events" xmlns:xlink="http://www.w3.org/1999/xlink"><defs /><image height="256" width="256" xlink:href="/home/nelson/Workspace/building_reconstruction/la_dataset_new/rgb/1526402372.66.jpg" /><line opacity="0.7" stroke="magenta" stroke-width="1" x1="74.0" x2="182.5" y1="82.0" y2="80.0" /><line opacity="0.7" stroke="magenta" stroke-width="1" x1="74.0" x2="74.0" y1="82.0" y2="177.0" /><line opacity="0.7" stroke="magenta" stroke-width="1" x1="182.5" x2="182.0" y1="80.0" y2="114.0" /><line opacity="0.7" stroke="magenta" stroke-width="1" x1="183.0" x2="74.0" y1="175.0" y2="177.0" /><line opacity="0.7" stroke="magenta" stroke-width="1" x1="183.0" x2="182.0" y1="175.0" y2="114.0" /><line opacity="0.7" stroke="magenta" stroke-width="1" x1="158.5" x2="113.5" y1="142.0" y2="140.0" /><line opacity="0.7" stroke="magenta" stroke-width="1" x1="158.5" x2="159.0" y1="142.0" y2="118.0" /><line opacity="0.7" stroke="magenta" stroke-width="1" x1="113.5" x2="113.0" y1="140.0" y2="119.0" /><line opacity="0.7" stroke="magenta" stroke-width="1" x1="159.0" x2="182.0" y1="118.0" y2="114.0" /><line opacity="0.7" stroke="magenta" stroke-width="1" x1="159.0" x2="113.0" y1="118.0" y2="119.0" /><circle cx="74.0" cy="177.0" fill="white" opacity="0.8" r="1.5" stroke="blue" stroke-width="0.8" /><circle cx="74.0" cy="82.0" fill="white" opacity="0.8" r="1.5" stroke="blue" stroke-width="0.8" /><circle cx="113.5" cy="140.0" fill="white" opacity="0.8" r="1.5" stroke="blue" stroke-width="0.8" /><circle cx="182.5" cy="80.0" fill="white" opacity="0.8" r="1.5" stroke="blue" stroke-width="0.8" /><circle cx="113.0" cy="119.0" fill="white" opacity="0.8" r="1.5" stroke="blue" stroke-width="0.8" /><circle cx="182.0" cy="114.0" fill="white" opacity="0.8" r="1.5" stroke="blue" stroke-width="0.8" /><circle cx="183.0" cy="175.0" fill="white" opacity="0.8" r="1.5" stroke="blue" stroke-width="0.8" /><circle cx="158.5" cy="142.0" fill="white" opacity="0.8" r="1.5" stroke="blue" stroke-width="0.8" /><circle cx="159.0" cy="118.0" fill="white" opacity="0.8" r="1.5" stroke="blue" stroke-width="0.8" /></svg>