<?xml version="1.0" encoding="utf-8" ?>
<svg baseProfile="full" height="256" version="1.1" width="256" xmlns="http://www.w3.org/2000/svg" xmlns:ev="http://www.w3.org/2001/xml-events" xmlns:xlink="http://www.w3.org/1999/xlink"><defs /><image height="256" width="256" xlink:href="/home/nelson/Workspace/building_reconstruction/la_dataset_new/rgb/1526320282.25.jpg" /><line opacity="0.7" stroke="magenta" stroke-width="1" x1="79.0" x2="79.0" y1="204.0" y2="54.0" /><line opacity="0.7" stroke="magenta" stroke-width="1" x1="79.0" x2="179.0" y1="204.0" y2="203.0" /><line opacity="0.7" stroke="magenta" stroke-width="1" x1="79.0" x2="177.0" y1="54.0" y2="53.0" /><line opacity="0.7" stroke="magenta" stroke-width="1" x1="179.0" x2="176.5" y1="203.0" y2="182.0" /><line opacity="0.7" stroke="magenta" stroke-width="1" x1="141.5" x2="116.5" y1="168.0" y2="167.0" /><line opacity="0.7" stroke="magenta" stroke-width="1" x1="141.5" x2="142.0" y1="168.0" y2="92.0" /><line opacity="0.7" stroke="magenta" stroke-width="1" x1="177.0" x2="176.5" y1="53.0" y2="182.0" /><line opacity="0.7" stroke="magenta" stroke-width="1" x1="117.0" x2="116.5" y1="89.5" y2="167.0" /><line opacity="0.7" stroke="magenta" stroke-width="1" x1="117.0" x2="142.0" y1="89.5" y2="92.0" /><line opacity="0.7" stroke="magenta" stroke-width="1" x1="117.0" x2="112.0" y1="89.5" y2="84.0" /><line opacity="0.7" stroke="magenta" stroke-width="1" x1="97.5" x2="112.0" y1="85.5" y2="84.0" /><circle cx="177.0" cy="53.0" fill="white" opacity="0.8" r="1.5" stroke="blue" stroke-width="0.8" /><circle cx="79.0" cy="54.0" fill="white" opacity="0.8" r="1.5" stroke="blue" stroke-width="0.8" /><circle cx="176.5" cy="182.0" fill="white" opacity="0.8" r="1.5" stroke="blue" stroke-width="0.8" /><circle cx="112.0" cy="84.0" fill="white" opacity="0.8" r="1.5" stroke="blue" stroke-width="0.8" /><circle cx="117.0" cy="89.5" fill="white" opacity="0.8" r="1.5" stroke="blue" stroke-width="0.8" /><circle cx="142.0" cy="92.0" fill="white" opacity="0.8" r="1.5" stroke="blue" stroke-width="0.8" /><circle cx="179.0" cy="203.0" fill="white" opacity="0.8" r="1.5" stroke="blue" stroke-width="0.8" /><circle cx="141.5" cy="168.0" fill="white" opacity="0.8" r="1.5" stroke="blue" stroke-width="0.8" /><circle cx="97.5" cy="85.5" fill="white" opacity="0.8" r="1.5" stroke="blue" stroke-width="0.8" /><circle cx="79.0" cy="204.0" fill="white" opacity="0.8" r="1.5" stroke="blue" stroke-width="0.8" /><circle cx="116.5" cy="167.0" fill="white" opacity="0.8" r="1.5" stroke="blue" stroke-width="0.8" /></svg>