<?xml version="1.0" encoding="utf-8" ?>
<svg baseProfile="full" height="256" version="1.1" width="256" xmlns="http://www.w3.org/2000/svg" xmlns:ev="http://www.w3.org/2001/xml-events" xmlns:xlink="http://www.w3.org/1999/xlink"><defs /><image height="256" width="256" xlink:href="/home/nelson/Workspace/building_reconstruction/la_dataset_new/rgb/1526357853.71.jpg" /><line opacity="0.7" stroke="magenta" stroke-width="1" x1="170.0" x2="46.0" y1="159.5" y2="123.0" /><line opacity="0.7" stroke="magenta" stroke-width="1" x1="170.0" x2="177.5" y1="159.5" y2="192.0" /><line opacity="0.7" stroke="magenta" stroke-width="1" x1="170.0" x2="175.5" y1="159.5" y2="146.0" /><line opacity="0.7" stroke="magenta" stroke-width="1" x1="170.0" x2="208.5" y1="159.5" y2="137.0" /><line opacity="0.7" stroke="magenta" stroke-width="1" x1="170.0" x2="56.5" y1="159.5" y2="101.0" /><line opacity="0.7" stroke="magenta" stroke-width="1" x1="170.0" x2="80.0" y1="159.5" y2="110.0" /><line opacity="0.7" stroke="magenta" stroke-width="1" x1="170.0" x2="136.0" y1="159.5" y2="98.5" /><line opacity="0.7" stroke="magenta" stroke-width="1" x1="170.0" x2="185.5" y1="159.5" y2="126.5" /><line opacity="0.7" stroke="magenta" stroke-width="1" x1="170.0" x2="190.5" y1="159.5" y2="160.0" /><line opacity="0.7" stroke="magenta" stroke-width="1" x1="170.0" x2="139.5" y1="159.5" y2="89.5" /><line opacity="0.7" stroke="magenta" stroke-width="1" x1="170.0" x2="130.5" y1="159.5" y2="107.0" /><line opacity="0.7" stroke="magenta" stroke-width="1" x1="170.0" x2="201.0" y1="159.5" y2="118.0" /><line opacity="0.7" stroke="magenta" stroke-width="1" x1="170.0" x2="119.5" y1="159.5" y2="130.0" /><line opacity="0.7" stroke="magenta" stroke-width="1" x1="78.5" x2="46.0" y1="65.5" y2="123.0" /><line opacity="0.7" stroke="magenta" stroke-width="1" x1="78.5" x2="209.5" y1="65.5" y2="81.0" /><line opacity="0.7" stroke="magenta" stroke-width="1" x1="78.5" x2="208.5" y1="65.5" y2="137.0" /><line opacity="0.7" stroke="magenta" stroke-width="1" x1="78.5" x2="56.5" y1="65.5" y2="101.0" /><line opacity="0.7" stroke="magenta" stroke-width="1" x1="78.5" x2="80.0" y1="65.5" y2="110.0" /><line opacity="0.7" stroke="magenta" stroke-width="1" x1="78.5" x2="66.5" y1="65.5" y2="88.5" /><line opacity="0.7" stroke="magenta" stroke-width="1" x1="78.5" x2="105.5" y1="65.5" y2="80.0" /><line opacity="0.7" stroke="magenta" stroke-width="1" x1="78.5" x2="213.5" y1="65.5" y2="63.5" /><line opacity="0.7" stroke="magenta" stroke-width="1" x1="46.0" x2="209.5" y1="123.0" y2="81.0" /><line opacity="0.7" stroke="magenta" stroke-width="1" x1="46.0" x2="177.5" y1="123.0" y2="192.0" /><line opacity="0.7" stroke="magenta" stroke-width="1" x1="46.0" x2="175.5" y1="123.0" y2="146.0" /><line opacity="0.7" stroke="magenta" stroke-width="1" x1="46.0" x2="205.5" y1="123.0" y2="97.0" /><line opacity="0.7" stroke="magenta" stroke-width="1" x1="46.0" x2="208.5" y1="123.0" y2="137.0" /><line opacity="0.7" stroke="magenta" stroke-width="1" x1="46.0" x2="56.5" y1="123.0" y2="101.0" /><line opacity="0.7" stroke="magenta" stroke-width="1" x1="46.0" x2="66.5" y1="123.0" y2="88.5" /><line opacity="0.7" stroke="magenta" stroke-width="1" x1="46.0" x2="185.5" y1="123.0" y2="126.5" /><line opacity="0.7" stroke="magenta" stroke-width="1" x1="46.0" x2="190.5" y1="123.0" y2="160.0" /><line opacity="0.7" stroke="magenta" stroke-width="1" x1="46.0" x2="119.5" y1="123.0" y2="130.0" /><line opacity="0.7" stroke="magenta" stroke-width="1" x1="209.5" x2="205.5" y1="81.0" y2="97.0" /><line opacity="0.7" stroke="magenta" stroke-width="1" x1="209.5" x2="208.5" y1="81.0" y2="137.0" /><line opacity="0.7" stroke="magenta" stroke-width="1" x1="209.5" x2="66.5" y1="81.0" y2="88.5" /><line opacity="0.7" stroke="magenta" stroke-width="1" x1="209.5" x2="136.0" y1="81.0" y2="98.5" /><line opacity="0.7" stroke="magenta" stroke-width="1" x1="209.5" x2="139.5" y1="81.0" y2="89.5" /><line opacity="0.7" stroke="magenta" stroke-width="1" x1="209.5" x2="105.5" y1="81.0" y2="80.0" /><line opacity="0.7" stroke="magenta" stroke-width="1" x1="209.5" x2="213.5" y1="81.0" y2="63.5" /><line opacity="0.7" stroke="magenta" stroke-width="1" x1="177.5" x2="175.5" y1="192.0" y2="146.0" /><line opacity="0.7" stroke="magenta" stroke-width="1" x1="177.5" x2="208.5" y1="192.0" y2="137.0" /><line opacity="0.7" stroke="magenta" stroke-width="1" x1="177.5" x2="56.5" y1="192.0" y2="101.0" /><line opacity="0.7" stroke="magenta" stroke-width="1" x1="177.5" x2="80.0" y1="192.0" y2="110.0" /><line opacity="0.7" stroke="magenta" stroke-width="1" x1="177.5" x2="66.5" y1="192.0" y2="88.5" /><line opacity="0.7" stroke="magenta" stroke-width="1" x1="177.5" x2="185.5" y1="192.0" y2="126.5" /><line opacity="0.7" stroke="magenta" stroke-width="1" x1="177.5" x2="190.5" y1="192.0" y2="160.0" /><line opacity="0.7" stroke="magenta" stroke-width="1" x1="177.5" x2="105.5" y1="192.0" y2="80.0" /><line opacity="0.7" stroke="magenta" stroke-width="1" x1="177.5" x2="119.5" y1="192.0" y2="130.0" /><line opacity="0.7" stroke="magenta" stroke-width="1" x1="175.5" x2="208.5" y1="146.0" y2="137.0" /><line opacity="0.7" stroke="magenta" stroke-width="1" x1="175.5" x2="185.5" y1="146.0" y2="126.5" /><line opacity="0.7" stroke="magenta" stroke-width="1" x1="175.5" x2="190.5" y1="146.0" y2="160.0" /><line opacity="0.7" stroke="magenta" stroke-width="1" x1="175.5" x2="139.5" y1="146.0" y2="89.5" /><line opacity="0.7" stroke="magenta" stroke-width="1" x1="175.5" x2="201.0" y1="146.0" y2="118.0" /><line opacity="0.7" stroke="magenta" stroke-width="1" x1="175.5" x2="119.5" y1="146.0" y2="130.0" /><line opacity="0.7" stroke="magenta" stroke-width="1" x1="205.5" x2="208.5" y1="97.0" y2="137.0" /><line opacity="0.7" stroke="magenta" stroke-width="1" x1="205.5" x2="56.5" y1="97.0" y2="101.0" /><line opacity="0.7" stroke="magenta" stroke-width="1" x1="205.5" x2="80.0" y1="97.0" y2="110.0" /><line opacity="0.7" stroke="magenta" stroke-width="1" x1="205.5" x2="118.5" y1="97.0" y2="115.5" /><line opacity="0.7" stroke="magenta" stroke-width="1" x1="205.5" x2="66.5" y1="97.0" y2="88.5" /><line opacity="0.7" stroke="magenta" stroke-width="1" x1="205.5" x2="136.0" y1="97.0" y2="98.5" /><line opacity="0.7" stroke="magenta" stroke-width="1" x1="205.5" x2="185.5" y1="97.0" y2="126.5" /><line opacity="0.7" stroke="magenta" stroke-width="1" x1="205.5" x2="91.5" y1="97.0" y2="100.0" /><line opacity="0.7" stroke="magenta" stroke-width="1" x1="205.5" x2="190.5" y1="97.0" y2="160.0" /><line opacity="0.7" stroke="magenta" stroke-width="1" x1="205.5" x2="128.5" y1="97.0" y2="94.0" /><line opacity="0.7" stroke="magenta" stroke-width="1" x1="205.5" x2="139.5" y1="97.0" y2="89.5" /><line opacity="0.7" stroke="magenta" stroke-width="1" x1="205.5" x2="130.5" y1="97.0" y2="107.0" /><line opacity="0.7" stroke="magenta" stroke-width="1" x1="205.5" x2="105.5" y1="97.0" y2="80.0" /><line opacity="0.7" stroke="magenta" stroke-width="1" x1="205.5" x2="201.0" y1="97.0" y2="118.0" /><line opacity="0.7" stroke="magenta" stroke-width="1" x1="208.5" x2="56.5" y1="137.0" y2="101.0" /><line opacity="0.7" stroke="magenta" stroke-width="1" x1="208.5" x2="80.0" y1="137.0" y2="110.0" /><line opacity="0.7" stroke="magenta" stroke-width="1" x1="208.5" x2="118.5" y1="137.0" y2="115.5" /><line opacity="0.7" stroke="magenta" stroke-width="1" x1="208.5" x2="66.5" y1="137.0" y2="88.5" /><line opacity="0.7" stroke="magenta" stroke-width="1" x1="208.5" x2="136.0" y1="137.0" y2="98.5" /><line opacity="0.7" stroke="magenta" stroke-width="1" x1="208.5" x2="185.5" y1="137.0" y2="126.5" /><line opacity="0.7" stroke="magenta" stroke-width="1" x1="208.5" x2="91.5" y1="137.0" y2="100.0" /><line opacity="0.7" stroke="magenta" stroke-width="1" x1="208.5" x2="190.5" y1="137.0" y2="160.0" /><line opacity="0.7" stroke="magenta" stroke-width="1" x1="208.5" x2="128.5" y1="137.0" y2="94.0" /><line opacity="0.7" stroke="magenta" stroke-width="1" x1="208.5" x2="130.5" y1="137.0" y2="107.0" /><line opacity="0.7" stroke="magenta" stroke-width="1" x1="208.5" x2="105.5" y1="137.0" y2="80.0" /><line opacity="0.7" stroke="magenta" stroke-width="1" x1="208.5" x2="201.0" y1="137.0" y2="118.0" /><line opacity="0.7" stroke="magenta" stroke-width="1" x1="208.5" x2="119.5" y1="137.0" y2="130.0" /><line opacity="0.7" stroke="magenta" stroke-width="1" x1="56.5" x2="80.0" y1="101.0" y2="110.0" /><line opacity="0.7" stroke="magenta" stroke-width="1" x1="56.5" x2="66.5" y1="101.0" y2="88.5" /><line opacity="0.7" stroke="magenta" stroke-width="1" x1="56.5" x2="91.5" y1="101.0" y2="100.0" /><line opacity="0.7" stroke="magenta" stroke-width="1" x1="56.5" x2="128.5" y1="101.0" y2="94.0" /><line opacity="0.7" stroke="magenta" stroke-width="1" x1="56.5" x2="130.5" y1="101.0" y2="107.0" /><line opacity="0.7" stroke="magenta" stroke-width="1" x1="56.5" x2="105.5" y1="101.0" y2="80.0" /><line opacity="0.7" stroke="magenta" stroke-width="1" x1="56.5" x2="201.0" y1="101.0" y2="118.0" /><line opacity="0.7" stroke="magenta" stroke-width="1" x1="56.5" x2="119.5" y1="101.0" y2="130.0" /><line opacity="0.7" stroke="magenta" stroke-width="1" x1="80.0" x2="118.5" y1="110.0" y2="115.5" /><line opacity="0.7" stroke="magenta" stroke-width="1" x1="80.0" x2="66.5" y1="110.0" y2="88.5" /><line opacity="0.7" stroke="magenta" stroke-width="1" x1="80.0" x2="91.5" y1="110.0" y2="100.0" /><line opacity="0.7" stroke="magenta" stroke-width="1" x1="80.0" x2="130.5" y1="110.0" y2="107.0" /><line opacity="0.7" stroke="magenta" stroke-width="1" x1="80.0" x2="119.5" y1="110.0" y2="130.0" /><line opacity="0.7" stroke="magenta" stroke-width="1" x1="118.5" x2="91.5" y1="115.5" y2="100.0" /><line opacity="0.7" stroke="magenta" stroke-width="1" x1="118.5" x2="128.5" y1="115.5" y2="94.0" /><line opacity="0.7" stroke="magenta" stroke-width="1" x1="118.5" x2="130.5" y1="115.5" y2="107.0" /><line opacity="0.7" stroke="magenta" stroke-width="1" x1="118.5" x2="105.5" y1="115.5" y2="80.0" /><line opacity="0.7" stroke="magenta" stroke-width="1" x1="118.5" x2="201.0" y1="115.5" y2="118.0" /><line opacity="0.7" stroke="magenta" stroke-width="1" x1="118.5" x2="119.5" y1="115.5" y2="130.0" /><line opacity="0.7" stroke="magenta" stroke-width="1" x1="66.5" x2="136.0" y1="88.5" y2="98.5" /><line opacity="0.7" stroke="magenta" stroke-width="1" x1="66.5" x2="91.5" y1="88.5" y2="100.0" /><line opacity="0.7" stroke="magenta" stroke-width="1" x1="66.5" x2="128.5" y1="88.5" y2="94.0" /><line opacity="0.7" stroke="magenta" stroke-width="1" x1="66.5" x2="139.5" y1="88.5" y2="89.5" /><line opacity="0.7" stroke="magenta" stroke-width="1" x1="66.5" x2="105.5" y1="88.5" y2="80.0" /><line opacity="0.7" stroke="magenta" stroke-width="1" x1="66.5" x2="201.0" y1="88.5" y2="118.0" /><line opacity="0.7" stroke="magenta" stroke-width="1" x1="136.0" x2="185.5" y1="98.5" y2="126.5" /><line opacity="0.7" stroke="magenta" stroke-width="1" x1="136.0" x2="91.5" y1="98.5" y2="100.0" /><line opacity="0.7" stroke="magenta" stroke-width="1" x1="136.0" x2="190.5" y1="98.5" y2="160.0" /><line opacity="0.7" stroke="magenta" stroke-width="1" x1="136.0" x2="128.5" y1="98.5" y2="94.0" /><line opacity="0.7" stroke="magenta" stroke-width="1" x1="136.0" x2="139.5" y1="98.5" y2="89.5" /><line opacity="0.7" stroke="magenta" stroke-width="1" x1="136.0" x2="130.5" y1="98.5" y2="107.0" /><line opacity="0.7" stroke="magenta" stroke-width="1" x1="136.0" x2="105.5" y1="98.5" y2="80.0" /><line opacity="0.7" stroke="magenta" stroke-width="1" x1="185.5" x2="190.5" y1="126.5" y2="160.0" /><line opacity="0.7" stroke="magenta" stroke-width="1" x1="185.5" x2="128.5" y1="126.5" y2="94.0" /><line opacity="0.7" stroke="magenta" stroke-width="1" x1="185.5" x2="139.5" y1="126.5" y2="89.5" /><line opacity="0.7" stroke="magenta" stroke-width="1" x1="185.5" x2="201.0" y1="126.5" y2="118.0" /><line opacity="0.7" stroke="magenta" stroke-width="1" x1="185.5" x2="119.5" y1="126.5" y2="130.0" /><line opacity="0.7" stroke="magenta" stroke-width="1" x1="91.5" x2="128.5" y1="100.0" y2="94.0" /><line opacity="0.7" stroke="magenta" stroke-width="1" x1="91.5" x2="139.5" y1="100.0" y2="89.5" /><line opacity="0.7" stroke="magenta" stroke-width="1" x1="91.5" x2="130.5" y1="100.0" y2="107.0" /><line opacity="0.7" stroke="magenta" stroke-width="1" x1="91.5" x2="105.5" y1="100.0" y2="80.0" /><line opacity="0.7" stroke="magenta" stroke-width="1" x1="190.5" x2="128.5" y1="160.0" y2="94.0" /><line opacity="0.7" stroke="magenta" stroke-width="1" x1="190.5" x2="201.0" y1="160.0" y2="118.0" /><line opacity="0.7" stroke="magenta" stroke-width="1" x1="190.5" x2="119.5" y1="160.0" y2="130.0" /><line opacity="0.7" stroke="magenta" stroke-width="1" x1="128.5" x2="139.5" y1="94.0" y2="89.5" /><line opacity="0.7" stroke="magenta" stroke-width="1" x1="128.5" x2="130.5" y1="94.0" y2="107.0" /><line opacity="0.7" stroke="magenta" stroke-width="1" x1="128.5" x2="105.5" y1="94.0" y2="80.0" /><line opacity="0.7" stroke="magenta" stroke-width="1" x1="139.5" x2="130.5" y1="89.5" y2="107.0" /><line opacity="0.7" stroke="magenta" stroke-width="1" x1="139.5" x2="105.5" y1="89.5" y2="80.0" /><line opacity="0.7" stroke="magenta" stroke-width="1" x1="139.5" x2="201.0" y1="89.5" y2="118.0" /><line opacity="0.7" stroke="magenta" stroke-width="1" x1="130.5" x2="201.0" y1="107.0" y2="118.0" /><line opacity="0.7" stroke="magenta" stroke-width="1" x1="130.5" x2="119.5" y1="107.0" y2="130.0" /><line opacity="0.7" stroke="magenta" stroke-width="1" x1="105.5" x2="201.0" y1="80.0" y2="118.0" /><line opacity="0.7" stroke="magenta" stroke-width="1" x1="201.0" x2="119.5" y1="118.0" y2="130.0" /><circle cx="80.0" cy="110.0" fill="white" opacity="0.8" r="1.5" stroke="blue" stroke-width="0.8" /><circle cx="78.5" cy="65.5" fill="white" opacity="0.8" r="1.5" stroke="blue" stroke-width="0.8" /><circle cx="175.5" cy="146.0" fill="white" opacity="0.8" r="1.5" stroke="blue" stroke-width="0.8" /><circle cx="209.5" cy="81.0" fill="white" opacity="0.8" r="1.5" stroke="blue" stroke-width="0.8" /><circle cx="119.5" cy="130.0" fill="white" opacity="0.8" r="1.5" stroke="blue" stroke-width="0.8" /><circle cx="190.5" cy="160.0" fill="white" opacity="0.8" r="1.5" stroke="blue" stroke-width="0.8" /><circle cx="66.5" cy="88.5" fill="white" opacity="0.8" r="1.5" stroke="blue" stroke-width="0.8" /><circle cx="213.5" cy="63.5" fill="white" opacity="0.8" r="1.5" stroke="blue" stroke-width="0.8" /><circle cx="185.5" cy="126.5" fill="white" opacity="0.8" r="1.5" stroke="blue" stroke-width="0.8" /><circle cx="105.5" cy="80.0" fill="white" opacity="0.8" r="1.5" stroke="blue" stroke-width="0.8" /><circle cx="130.5" cy="107.0" fill="white" opacity="0.8" r="1.5" stroke="blue" stroke-width="0.8" /><circle cx="139.5" cy="89.5" fill="white" opacity="0.8" r="1.5" stroke="blue" stroke-width="0.8" /><circle cx="128.5" cy="94.0" fill="white" opacity="0.8" r="1.5" stroke="blue" stroke-width="0.8" /><circle cx="56.5" cy="101.0" fill="white" opacity="0.8" r="1.5" stroke="blue" stroke-width="0.8" /><circle cx="205.5" cy="97.0" fill="white" opacity="0.8" r="1.5" stroke="blue" stroke-width="0.8" /><circle cx="118.5" cy="115.5" fill="white" opacity="0.8" r="1.5" stroke="blue" stroke-width="0.8" /><circle cx="208.5" cy="137.0" fill="white" opacity="0.8" r="1.5" stroke="blue" stroke-width="0.8" /><circle cx="136.0" cy="98.5" fill="white" opacity="0.8" r="1.5" stroke="blue" stroke-width="0.8" /><circle cx="91.5" cy="100.0" fill="white" opacity="0.8" r="1.5" stroke="blue" stroke-width="0.8" /><circle cx="177.5" cy="192.0" fill="white" opacity="0.8" r="1.5" stroke="blue" stroke-width="0.8" /><circle cx="46.0" cy="123.0" fill="white" opacity="0.8" r="1.5" stroke="blue" stroke-width="0.8" /><circle cx="201.0" cy="118.0" fill="white" opacity="0.8" r="1.5" stroke="blue" stroke-width="0.8" /><circle cx="170.0" cy="159.5" fill="white" opacity="0.8" r="1.5" stroke="blue" stroke-width="0.8" /></svg>