<?xml version="1.0" encoding="utf-8" ?>
<svg baseProfile="full" height="256" version="1.1" width="256" xmlns="http://www.w3.org/2000/svg" xmlns:ev="http://www.w3.org/2001/xml-events" xmlns:xlink="http://www.w3.org/1999/xlink"><defs /><image height="256" width="256" xlink:href="/home/nelson/Workspace/building_reconstruction/la_dataset_new/rgb/1526320637.87.jpg" /><line opacity="0.7" stroke="magenta" stroke-width="1" x1="61.5" x2="36.0" y1="62.5" y2="110.0" /><line opacity="0.7" stroke="magenta" stroke-width="1" x1="36.0" x2="84.0" y1="110.0" y2="195.5" /><line opacity="0.7" stroke="magenta" stroke-width="1" x1="36.0" x2="54.5" y1="110.0" y2="117.0" /><line opacity="0.7" stroke="magenta" stroke-width="1" x1="223.0" x2="194.0" y1="149.5" y2="196.0" /><line opacity="0.7" stroke="magenta" stroke-width="1" x1="194.0" x2="84.0" y1="196.0" y2="195.5" /><line opacity="0.7" stroke="magenta" stroke-width="1" x1="194.0" x2="54.5" y1="196.0" y2="117.0" /><line opacity="0.7" stroke="magenta" stroke-width="1" x1="84.0" x2="87.0" y1="195.5" y2="189.0" /><line opacity="0.7" stroke="magenta" stroke-width="1" x1="109.5" x2="68.5" y1="162.5" y2="140.5" /><line opacity="0.7" stroke="magenta" stroke-width="1" x1="54.5" x2="68.5" y1="117.0" y2="140.5" /><circle cx="194.0" cy="196.0" fill="white" opacity="0.8" r="1.5" stroke="blue" stroke-width="0.8" /><circle cx="54.5" cy="117.0" fill="white" opacity="0.8" r="1.5" stroke="blue" stroke-width="0.8" /><circle cx="36.0" cy="110.0" fill="white" opacity="0.8" r="1.5" stroke="blue" stroke-width="0.8" /><circle cx="223.0" cy="149.5" fill="white" opacity="0.8" r="1.5" stroke="blue" stroke-width="0.8" /><circle cx="84.0" cy="195.5" fill="white" opacity="0.8" r="1.5" stroke="blue" stroke-width="0.8" /><circle cx="109.5" cy="162.5" fill="white" opacity="0.8" r="1.5" stroke="blue" stroke-width="0.8" /><circle cx="61.5" cy="62.5" fill="white" opacity="0.8" r="1.5" stroke="blue" stroke-width="0.8" /><circle cx="87.0" cy="189.0" fill="white" opacity="0.8" r="1.5" stroke="blue" stroke-width="0.8" /><circle cx="68.5" cy="140.5" fill="white" opacity="0.8" r="1.5" stroke="blue" stroke-width="0.8" /></svg>