<?xml version="1.0" encoding="utf-8" ?>
<svg baseProfile="full" height="256" version="1.1" width="256" xmlns="http://www.w3.org/2000/svg" xmlns:ev="http://www.w3.org/2001/xml-events" xmlns:xlink="http://www.w3.org/1999/xlink"><defs /><image height="256" width="256" xlink:href="/home/nelson/Workspace/building_reconstruction/la_dataset_new/rgb/1526400328.56.jpg" /><line opacity="0.7" stroke="magenta" stroke-width="1" x1="175.5" x2="81.0" y1="75.5" y2="76.0" /><line opacity="0.7" stroke="magenta" stroke-width="1" x1="175.5" x2="175.0" y1="75.5" y2="182.5" /><line opacity="0.7" stroke="magenta" stroke-width="1" x1="175.5" x2="147.0" y1="75.5" y2="75.5" /><line opacity="0.7" stroke="magenta" stroke-width="1" x1="81.0" x2="80.0" y1="76.0" y2="181.0" /><line opacity="0.7" stroke="magenta" stroke-width="1" x1="81.0" x2="105.5" y1="76.0" y2="76.5" /><line opacity="0.7" stroke="magenta" stroke-width="1" x1="106.0" x2="106.0" y1="120.0" y2="104.0" /><line opacity="0.7" stroke="magenta" stroke-width="1" x1="106.0" x2="148.0" y1="120.0" y2="121.0" /><line opacity="0.7" stroke="magenta" stroke-width="1" x1="106.0" x2="122.0" y1="120.0" y2="149.0" /><line opacity="0.7" stroke="magenta" stroke-width="1" x1="106.0" x2="102.5" y1="120.0" y2="148.0" /><line opacity="0.7" stroke="magenta" stroke-width="1" x1="106.0" x2="109.5" y1="120.0" y2="177.5" /><line opacity="0.7" stroke="magenta" stroke-width="1" x1="80.0" x2="93.0" y1="181.0" y2="180.0" /><line opacity="0.7" stroke="magenta" stroke-width="1" x1="175.0" x2="152.5" y1="182.5" y2="182.0" /><line opacity="0.7" stroke="magenta" stroke-width="1" x1="175.0" x2="127.5" y1="182.5" y2="183.0" /><line opacity="0.7" stroke="magenta" stroke-width="1" x1="106.0" x2="105.5" y1="104.0" y2="76.5" /><line opacity="0.7" stroke="magenta" stroke-width="1" x1="106.0" x2="147.5" y1="104.0" y2="103.0" /><line opacity="0.7" stroke="magenta" stroke-width="1" x1="105.5" x2="147.0" y1="76.5" y2="75.5" /><line opacity="0.7" stroke="magenta" stroke-width="1" x1="148.0" x2="154.5" y1="121.0" y2="146.5" /><line opacity="0.7" stroke="magenta" stroke-width="1" x1="148.0" x2="147.5" y1="121.0" y2="103.0" /><line opacity="0.7" stroke="magenta" stroke-width="1" x1="148.0" x2="138.5" y1="121.0" y2="146.0" /><line opacity="0.7" stroke="magenta" stroke-width="1" x1="154.5" x2="122.0" y1="146.5" y2="149.0" /><line opacity="0.7" stroke="magenta" stroke-width="1" x1="154.5" x2="152.5" y1="146.5" y2="182.0" /><line opacity="0.7" stroke="magenta" stroke-width="1" x1="154.5" x2="138.5" y1="146.5" y2="146.0" /><line opacity="0.7" stroke="magenta" stroke-width="1" x1="147.5" x2="147.0" y1="103.0" y2="75.5" /><line opacity="0.7" stroke="magenta" stroke-width="1" x1="122.0" x2="152.5" y1="149.0" y2="182.0" /><line opacity="0.7" stroke="magenta" stroke-width="1" x1="122.0" x2="138.5" y1="149.0" y2="146.0" /><line opacity="0.7" stroke="magenta" stroke-width="1" x1="122.0" x2="102.5" y1="149.0" y2="148.0" /><line opacity="0.7" stroke="magenta" stroke-width="1" x1="122.0" x2="127.5" y1="149.0" y2="183.0" /><line opacity="0.7" stroke="magenta" stroke-width="1" x1="122.0" x2="117.5" y1="149.0" y2="175.0" /><line opacity="0.7" stroke="magenta" stroke-width="1" x1="152.5" x2="127.5" y1="182.0" y2="183.0" /><line opacity="0.7" stroke="magenta" stroke-width="1" x1="138.5" x2="102.5" y1="146.0" y2="148.0" /><line opacity="0.7" stroke="magenta" stroke-width="1" x1="100.0" x2="102.5" y1="180.0" y2="148.0" /><line opacity="0.7" stroke="magenta" stroke-width="1" x1="100.0" x2="127.5" y1="180.0" y2="183.0" /><line opacity="0.7" stroke="magenta" stroke-width="1" x1="100.0" x2="109.5" y1="180.0" y2="177.5" /><line opacity="0.7" stroke="magenta" stroke-width="1" x1="100.0" x2="93.0" y1="180.0" y2="180.0" /><line opacity="0.7" stroke="magenta" stroke-width="1" x1="127.5" x2="117.5" y1="183.0" y2="175.0" /><line opacity="0.7" stroke="magenta" stroke-width="1" x1="127.5" x2="109.5" y1="183.0" y2="177.5" /><line opacity="0.7" stroke="magenta" stroke-width="1" x1="117.5" x2="109.5" y1="175.0" y2="177.5" /><line opacity="0.7" stroke="magenta" stroke-width="1" x1="109.5" x2="93.0" y1="177.5" y2="180.0" /><circle cx="93.0" cy="180.0" fill="white" opacity="0.8" r="1.5" stroke="blue" stroke-width="0.8" /><circle cx="81.0" cy="76.0" fill="white" opacity="0.8" r="1.5" stroke="blue" stroke-width="0.8" /><circle cx="138.5" cy="146.0" fill="white" opacity="0.8" r="1.5" stroke="blue" stroke-width="0.8" /><circle cx="147.0" cy="75.5" fill="white" opacity="0.8" r="1.5" stroke="blue" stroke-width="0.8" /><circle cx="100.0" cy="180.0" fill="white" opacity="0.8" r="1.5" stroke="blue" stroke-width="0.8" /><circle cx="154.5" cy="146.5" fill="white" opacity="0.8" r="1.5" stroke="blue" stroke-width="0.8" /><circle cx="105.5" cy="76.5" fill="white" opacity="0.8" r="1.5" stroke="blue" stroke-width="0.8" /><circle cx="80.0" cy="181.0" fill="white" opacity="0.8" r="1.5" stroke="blue" stroke-width="0.8" /><circle cx="106.0" cy="120.0" fill="white" opacity="0.8" r="1.5" stroke="blue" stroke-width="0.8" /><circle cx="106.0" cy="104.0" fill="white" opacity="0.8" r="1.5" stroke="blue" stroke-width="0.8" /><circle cx="122.0" cy="149.0" fill="white" opacity="0.8" r="1.5" stroke="blue" stroke-width="0.8" /><circle cx="117.5" cy="175.0" fill="white" opacity="0.8" r="1.5" stroke="blue" stroke-width="0.8" /><circle cx="102.5" cy="148.0" fill="white" opacity="0.8" r="1.5" stroke="blue" stroke-width="0.8" /><circle cx="152.5" cy="182.0" fill="white" opacity="0.8" r="1.5" stroke="blue" stroke-width="0.8" /><circle cx="147.5" cy="103.0" fill="white" opacity="0.8" r="1.5" stroke="blue" stroke-width="0.8" /><circle cx="127.5" cy="183.0" fill="white" opacity="0.8" r="1.5" stroke="blue" stroke-width="0.8" /><circle cx="109.5" cy="177.5" fill="white" opacity="0.8" r="1.5" stroke="blue" stroke-width="0.8" /><circle cx="175.0" cy="182.5" fill="white" opacity="0.8" r="1.5" stroke="blue" stroke-width="0.8" /><circle cx="175.5" cy="75.5" fill="white" opacity="0.8" r="1.5" stroke="blue" stroke-width="0.8" /><circle cx="148.0" cy="121.0" fill="white" opacity="0.8" r="1.5" stroke="blue" stroke-width="0.8" /></svg>