<?xml version="1.0" encoding="utf-8" ?>
<svg baseProfile="full" height="256" version="1.1" width="256" xmlns="http://www.w3.org/2000/svg" xmlns:ev="http://www.w3.org/2001/xml-events" xmlns:xlink="http://www.w3.org/1999/xlink"><defs /><image height="256" width="256" xlink:href="/home/nelson/Workspace/building_reconstruction/la_dataset_new/rgb/1526359268.31.jpg" /><line opacity="0.7" stroke="magenta" stroke-width="1" x1="65.0" x2="65.0" y1="169.0" y2="126.5" /><line opacity="0.7" stroke="magenta" stroke-width="1" x1="65.0" x2="92.0" y1="169.0" y2="169.0" /><line opacity="0.7" stroke="magenta" stroke-width="1" x1="193.0" x2="192.0" y1="89.0" y2="168.0" /><line opacity="0.7" stroke="magenta" stroke-width="1" x1="193.0" x2="168.0" y1="89.0" y2="89.5" /><line opacity="0.7" stroke="magenta" stroke-width="1" x1="146.5" x2="146.0" y1="121.0" y2="101.0" /><line opacity="0.7" stroke="magenta" stroke-width="1" x1="146.5" x2="115.0" y1="121.0" y2="122.0" /><line opacity="0.7" stroke="magenta" stroke-width="1" x1="192.0" x2="92.0" y1="168.0" y2="169.0" /><line opacity="0.7" stroke="magenta" stroke-width="1" x1="146.0" x2="169.0" y1="101.0" y2="102.5" /><line opacity="0.7" stroke="magenta" stroke-width="1" x1="169.0" x2="168.0" y1="102.5" y2="89.5" /><line opacity="0.7" stroke="magenta" stroke-width="1" x1="82.0" x2="107.5" y1="133.5" y2="137.0" /><circle cx="169.0" cy="102.5" fill="white" opacity="0.8" r="1.5" stroke="blue" stroke-width="0.8" /><circle cx="82.0" cy="133.5" fill="white" opacity="0.8" r="1.5" stroke="blue" stroke-width="0.8" /><circle cx="146.5" cy="121.0" fill="white" opacity="0.8" r="1.5" stroke="blue" stroke-width="0.8" /><circle cx="193.0" cy="89.0" fill="white" opacity="0.8" r="1.5" stroke="blue" stroke-width="0.8" /><circle cx="65.0" cy="169.0" fill="white" opacity="0.8" r="1.5" stroke="blue" stroke-width="0.8" /><circle cx="168.0" cy="89.5" fill="white" opacity="0.8" r="1.5" stroke="blue" stroke-width="0.8" /><circle cx="115.0" cy="122.0" fill="white" opacity="0.8" r="1.5" stroke="blue" stroke-width="0.8" /><circle cx="65.0" cy="126.5" fill="white" opacity="0.8" r="1.5" stroke="blue" stroke-width="0.8" /><circle cx="92.0" cy="169.0" fill="white" opacity="0.8" r="1.5" stroke="blue" stroke-width="0.8" /><circle cx="146.0" cy="101.0" fill="white" opacity="0.8" r="1.5" stroke="blue" stroke-width="0.8" /><circle cx="107.5" cy="137.0" fill="white" opacity="0.8" r="1.5" stroke="blue" stroke-width="0.8" /><circle cx="192.0" cy="168.0" fill="white" opacity="0.8" r="1.5" stroke="blue" stroke-width="0.8" /></svg>