<?xml version="1.0" encoding="utf-8" ?>
<svg baseProfile="full" height="256" version="1.1" width="256" xmlns="http://www.w3.org/2000/svg" xmlns:ev="http://www.w3.org/2001/xml-events" xmlns:xlink="http://www.w3.org/1999/xlink"><defs /><image height="256" width="256" xlink:href="/home/nelson/Workspace/building_reconstruction/la_dataset_new/rgb/1526400893.49.jpg" /><line opacity="0.7" stroke="magenta" stroke-width="1" x1="40.0" x2="40.0" y1="173.0" y2="86.5" /><line opacity="0.7" stroke="magenta" stroke-width="1" x1="40.0" x2="55.0" y1="173.0" y2="174.0" /><line opacity="0.7" stroke="magenta" stroke-width="1" x1="40.0" x2="151.0" y1="86.5" y2="85.0" /><line opacity="0.7" stroke="magenta" stroke-width="1" x1="40.0" x2="94.0" y1="86.5" y2="87.0" /><line opacity="0.7" stroke="magenta" stroke-width="1" x1="215.0" x2="152.0" y1="172.0" y2="170.0" /><line opacity="0.7" stroke="magenta" stroke-width="1" x1="214.5" x2="151.0" y1="85.0" y2="85.0" /><line opacity="0.7" stroke="magenta" stroke-width="1" x1="93.0" x2="94.0" y1="112.5" y2="87.0" /><line opacity="0.7" stroke="magenta" stroke-width="1" x1="93.0" x2="119.0" y1="112.5" y2="113.0" /><line opacity="0.7" stroke="magenta" stroke-width="1" x1="147.5" x2="119.0" y1="110.5" y2="113.0" /><line opacity="0.7" stroke="magenta" stroke-width="1" x1="152.0" x2="154.5" y1="170.0" y2="143.0" /><line opacity="0.7" stroke="magenta" stroke-width="1" x1="152.0" x2="199.0" y1="170.0" y2="141.0" /><line opacity="0.7" stroke="magenta" stroke-width="1" x1="151.0" x2="94.0" y1="85.0" y2="87.0" /><line opacity="0.7" stroke="magenta" stroke-width="1" x1="154.5" x2="108.0" y1="143.0" y2="144.0" /><line opacity="0.7" stroke="magenta" stroke-width="1" x1="186.5" x2="186.5" y1="124.0" y2="116.0" /><line opacity="0.7" stroke="magenta" stroke-width="1" x1="203.0" x2="206.5" y1="117.0" y2="138.0" /><line opacity="0.7" stroke="magenta" stroke-width="1" x1="203.0" x2="186.5" y1="117.0" y2="116.0" /><line opacity="0.7" stroke="magenta" stroke-width="1" x1="98.0" x2="108.0" y1="145.0" y2="144.0" /><line opacity="0.7" stroke="magenta" stroke-width="1" x1="199.0" x2="206.5" y1="141.0" y2="138.0" /><circle cx="98.0" cy="145.0" fill="white" opacity="0.8" r="1.5" stroke="blue" stroke-width="0.8" /><circle cx="154.5" cy="143.0" fill="white" opacity="0.8" r="1.5" stroke="blue" stroke-width="0.8" /><circle cx="206.5" cy="138.0" fill="white" opacity="0.8" r="1.5" stroke="blue" stroke-width="0.8" /><circle cx="108.0" cy="144.0" fill="white" opacity="0.8" r="1.5" stroke="blue" stroke-width="0.8" /><circle cx="40.0" cy="173.0" fill="white" opacity="0.8" r="1.5" stroke="blue" stroke-width="0.8" /><circle cx="199.0" cy="141.0" fill="white" opacity="0.8" r="1.5" stroke="blue" stroke-width="0.8" /><circle cx="203.0" cy="117.0" fill="white" opacity="0.8" r="1.5" stroke="blue" stroke-width="0.8" /><circle cx="94.0" cy="87.0" fill="white" opacity="0.8" r="1.5" stroke="blue" stroke-width="0.8" /><circle cx="152.0" cy="170.0" fill="white" opacity="0.8" r="1.5" stroke="blue" stroke-width="0.8" /><circle cx="214.5" cy="85.0" fill="white" opacity="0.8" r="1.5" stroke="blue" stroke-width="0.8" /><circle cx="147.5" cy="110.5" fill="white" opacity="0.8" r="1.5" stroke="blue" stroke-width="0.8" /><circle cx="215.0" cy="172.0" fill="white" opacity="0.8" r="1.5" stroke="blue" stroke-width="0.8" /><circle cx="151.0" cy="85.0" fill="white" opacity="0.8" r="1.5" stroke="blue" stroke-width="0.8" /><circle cx="186.5" cy="124.0" fill="white" opacity="0.8" r="1.5" stroke="blue" stroke-width="0.8" /><circle cx="186.5" cy="116.0" fill="white" opacity="0.8" r="1.5" stroke="blue" stroke-width="0.8" /><circle cx="93.0" cy="112.5" fill="white" opacity="0.8" r="1.5" stroke="blue" stroke-width="0.8" /><circle cx="119.0" cy="113.0" fill="white" opacity="0.8" r="1.5" stroke="blue" stroke-width="0.8" /><circle cx="55.0" cy="174.0" fill="white" opacity="0.8" r="1.5" stroke="blue" stroke-width="0.8" /><circle cx="40.0" cy="86.5" fill="white" opacity="0.8" r="1.5" stroke="blue" stroke-width="0.8" /></svg>