<?xml version="1.0" encoding="utf-8" ?>
<svg baseProfile="full" height="256" version="1.1" width="256" xmlns="http://www.w3.org/2000/svg" xmlns:ev="http://www.w3.org/2001/xml-events" xmlns:xlink="http://www.w3.org/1999/xlink"><defs /><image height="256" width="256" xlink:href="/home/nelson/Workspace/building_reconstruction/la_dataset_new/rgb/1526357175.15.jpg" /><line opacity="0.7" stroke="magenta" stroke-width="1" x1="106.0" x2="105.0" y1="83.0" y2="173.5" /><line opacity="0.7" stroke="magenta" stroke-width="1" x1="106.0" x2="149.0" y1="83.0" y2="84.0" /><line opacity="0.7" stroke="magenta" stroke-width="1" x1="105.0" x2="148.5" y1="173.5" y2="174.0" /><line opacity="0.7" stroke="magenta" stroke-width="1" x1="148.5" x2="148.5" y1="174.0" y2="155.0" /><line opacity="0.7" stroke="magenta" stroke-width="1" x1="149.0" x2="145.0" y1="84.0" y2="95.5" /><line opacity="0.7" stroke="magenta" stroke-width="1" x1="137.0" x2="148.5" y1="155.0" y2="155.0" /><line opacity="0.7" stroke="magenta" stroke-width="1" x1="137.0" x2="138.5" y1="155.0" y2="99.0" /><line opacity="0.7" stroke="magenta" stroke-width="1" x1="137.0" x2="143.0" y1="155.0" y2="160.0" /><line opacity="0.7" stroke="magenta" stroke-width="1" x1="148.5" x2="145.0" y1="155.0" y2="95.5" /><line opacity="0.7" stroke="magenta" stroke-width="1" x1="148.5" x2="143.0" y1="155.0" y2="160.0" /><line opacity="0.7" stroke="magenta" stroke-width="1" x1="138.5" x2="145.0" y1="99.0" y2="95.5" /><circle cx="138.5" cy="99.0" fill="white" opacity="0.8" r="1.5" stroke="blue" stroke-width="0.8" /><circle cx="105.0" cy="173.5" fill="white" opacity="0.8" r="1.5" stroke="blue" stroke-width="0.8" /><circle cx="148.5" cy="174.0" fill="white" opacity="0.8" r="1.5" stroke="blue" stroke-width="0.8" /><circle cx="106.0" cy="83.0" fill="white" opacity="0.8" r="1.5" stroke="blue" stroke-width="0.8" /><circle cx="143.0" cy="160.0" fill="white" opacity="0.8" r="1.5" stroke="blue" stroke-width="0.8" /><circle cx="137.0" cy="155.0" fill="white" opacity="0.8" r="1.5" stroke="blue" stroke-width="0.8" /><circle cx="149.0" cy="84.0" fill="white" opacity="0.8" r="1.5" stroke="blue" stroke-width="0.8" /><circle cx="145.0" cy="95.5" fill="white" opacity="0.8" r="1.5" stroke="blue" stroke-width="0.8" /><circle cx="148.5" cy="155.0" fill="white" opacity="0.8" r="1.5" stroke="blue" stroke-width="0.8" /></svg>