<?xml version="1.0" encoding="utf-8" ?>
<svg baseProfile="full" height="256" version="1.1" width="256" xmlns="http://www.w3.org/2000/svg" xmlns:ev="http://www.w3.org/2001/xml-events" xmlns:xlink="http://www.w3.org/1999/xlink"><defs /><image height="256" width="256" xlink:href="/home/nelson/Workspace/building_reconstruction/la_dataset_new/rgb/1526403140.7.jpg" /><line opacity="0.7" stroke="magenta" stroke-width="1" x1="81.0" x2="171.0" y1="20.0" y2="21.0" /><line opacity="0.7" stroke="magenta" stroke-width="1" x1="81.0" x2="81.0" y1="20.0" y2="78.0" /><line opacity="0.7" stroke="magenta" stroke-width="1" x1="81.0" x2="191.5" y1="20.0" y2="89.0" /><line opacity="0.7" stroke="magenta" stroke-width="1" x1="81.0" x2="82.0" y1="237.0" y2="185.0" /><line opacity="0.7" stroke="magenta" stroke-width="1" x1="81.0" x2="174.0" y1="237.0" y2="236.5" /><line opacity="0.7" stroke="magenta" stroke-width="1" x1="81.0" x2="85.0" y1="237.0" y2="87.5" /><line opacity="0.7" stroke="magenta" stroke-width="1" x1="81.0" x2="81.0" y1="237.0" y2="78.0" /><line opacity="0.7" stroke="magenta" stroke-width="1" x1="81.0" x2="121.0" y1="237.0" y2="219.0" /><line opacity="0.7" stroke="magenta" stroke-width="1" x1="82.0" x2="118.5" y1="185.0" y2="77.0" /><line opacity="0.7" stroke="magenta" stroke-width="1" x1="82.0" x2="178.0" y1="185.0" y2="91.0" /><line opacity="0.7" stroke="magenta" stroke-width="1" x1="82.0" x2="118.5" y1="185.0" y2="207.5" /><line opacity="0.7" stroke="magenta" stroke-width="1" x1="82.0" x2="150.5" y1="185.0" y2="185.5" /><line opacity="0.7" stroke="magenta" stroke-width="1" x1="82.0" x2="85.0" y1="185.0" y2="87.5" /><line opacity="0.7" stroke="magenta" stroke-width="1" x1="82.0" x2="102.0" y1="185.0" y2="86.0" /><line opacity="0.7" stroke="magenta" stroke-width="1" x1="82.0" x2="174.0" y1="185.0" y2="165.5" /><line opacity="0.7" stroke="magenta" stroke-width="1" x1="82.0" x2="133.0" y1="185.0" y2="168.5" /><line opacity="0.7" stroke="magenta" stroke-width="1" x1="82.0" x2="153.0" y1="185.0" y2="167.0" /><line opacity="0.7" stroke="magenta" stroke-width="1" x1="82.0" x2="177.0" y1="185.0" y2="125.0" /><line opacity="0.7" stroke="magenta" stroke-width="1" x1="82.0" x2="151.5" y1="185.0" y2="103.5" /><line opacity="0.7" stroke="magenta" stroke-width="1" x1="82.0" x2="81.0" y1="185.0" y2="78.0" /><line opacity="0.7" stroke="magenta" stroke-width="1" x1="82.0" x2="170.5" y1="185.0" y2="81.0" /><line opacity="0.7" stroke="magenta" stroke-width="1" x1="82.0" x2="191.5" y1="185.0" y2="89.0" /><line opacity="0.7" stroke="magenta" stroke-width="1" x1="82.0" x2="132.5" y1="185.0" y2="134.5" /><line opacity="0.7" stroke="magenta" stroke-width="1" x1="82.0" x2="159.0" y1="185.0" y2="198.5" /><line opacity="0.7" stroke="magenta" stroke-width="1" x1="82.0" x2="158.0" y1="185.0" y2="215.0" /><line opacity="0.7" stroke="magenta" stroke-width="1" x1="82.0" x2="126.5" y1="185.0" y2="90.0" /><line opacity="0.7" stroke="magenta" stroke-width="1" x1="174.0" x2="173.0" y1="236.5" y2="198.0" /><line opacity="0.7" stroke="magenta" stroke-width="1" x1="174.0" x2="177.0" y1="236.5" y2="125.0" /><line opacity="0.7" stroke="magenta" stroke-width="1" x1="174.0" x2="158.0" y1="236.5" y2="215.0" /><line opacity="0.7" stroke="magenta" stroke-width="1" x1="173.0" x2="150.5" y1="198.0" y2="185.5" /><line opacity="0.7" stroke="magenta" stroke-width="1" x1="173.0" x2="174.0" y1="198.0" y2="165.5" /><line opacity="0.7" stroke="magenta" stroke-width="1" x1="173.0" x2="177.0" y1="198.0" y2="125.0" /><line opacity="0.7" stroke="magenta" stroke-width="1" x1="173.0" x2="159.0" y1="198.0" y2="198.5" /><line opacity="0.7" stroke="magenta" stroke-width="1" x1="173.0" x2="158.0" y1="198.0" y2="215.0" /><line opacity="0.7" stroke="magenta" stroke-width="1" x1="173.0" x2="174.5" y1="198.0" y2="173.5" /><line opacity="0.7" stroke="magenta" stroke-width="1" x1="173.0" x2="152.5" y1="198.0" y2="206.5" /><line opacity="0.7" stroke="magenta" stroke-width="1" x1="171.0" x2="175.0" y1="21.0" y2="54.5" /><line opacity="0.7" stroke="magenta" stroke-width="1" x1="171.0" x2="81.0" y1="21.0" y2="78.0" /><line opacity="0.7" stroke="magenta" stroke-width="1" x1="171.0" x2="170.5" y1="21.0" y2="81.0" /><line opacity="0.7" stroke="magenta" stroke-width="1" x1="118.5" x2="154.0" y1="77.0" y2="78.0" /><line opacity="0.7" stroke="magenta" stroke-width="1" x1="118.5" x2="178.0" y1="77.0" y2="91.0" /><line opacity="0.7" stroke="magenta" stroke-width="1" x1="118.5" x2="118.5" y1="77.0" y2="207.5" /><line opacity="0.7" stroke="magenta" stroke-width="1" x1="118.5" x2="102.0" y1="77.0" y2="86.0" /><line opacity="0.7" stroke="magenta" stroke-width="1" x1="118.5" x2="174.0" y1="77.0" y2="165.5" /><line opacity="0.7" stroke="magenta" stroke-width="1" x1="118.5" x2="175.0" y1="77.0" y2="54.5" /><line opacity="0.7" stroke="magenta" stroke-width="1" x1="118.5" x2="151.5" y1="77.0" y2="103.5" /><line opacity="0.7" stroke="magenta" stroke-width="1" x1="118.5" x2="81.0" y1="77.0" y2="78.0" /><line opacity="0.7" stroke="magenta" stroke-width="1" x1="118.5" x2="170.5" y1="77.0" y2="81.0" /><line opacity="0.7" stroke="magenta" stroke-width="1" x1="118.5" x2="191.5" y1="77.0" y2="89.0" /><line opacity="0.7" stroke="magenta" stroke-width="1" x1="118.5" x2="159.0" y1="77.0" y2="198.5" /><line opacity="0.7" stroke="magenta" stroke-width="1" x1="118.5" x2="93.0" y1="77.0" y2="88.5" /><line opacity="0.7" stroke="magenta" stroke-width="1" x1="118.5" x2="121.0" y1="77.0" y2="219.0" /><line opacity="0.7" stroke="magenta" stroke-width="1" x1="118.5" x2="126.5" y1="77.0" y2="90.0" /><line opacity="0.7" stroke="magenta" stroke-width="1" x1="118.5" x2="161.0" y1="77.0" y2="119.5" /><line opacity="0.7" stroke="magenta" stroke-width="1" x1="118.5" x2="161.5" y1="77.0" y2="135.0" /><line opacity="0.7" stroke="magenta" stroke-width="1" x1="118.5" x2="160.5" y1="77.0" y2="108.5" /><line opacity="0.7" stroke="magenta" stroke-width="1" x1="154.0" x2="178.0" y1="78.0" y2="91.0" /><line opacity="0.7" stroke="magenta" stroke-width="1" x1="154.0" x2="118.5" y1="78.0" y2="207.5" /><line opacity="0.7" stroke="magenta" stroke-width="1" x1="154.0" x2="150.5" y1="78.0" y2="185.5" /><line opacity="0.7" stroke="magenta" stroke-width="1" x1="154.0" x2="133.0" y1="78.0" y2="168.5" /><line opacity="0.7" stroke="magenta" stroke-width="1" x1="154.0" x2="175.0" y1="78.0" y2="54.5" /><line opacity="0.7" stroke="magenta" stroke-width="1" x1="154.0" x2="151.5" y1="78.0" y2="103.5" /><line opacity="0.7" stroke="magenta" stroke-width="1" x1="154.0" x2="81.0" y1="78.0" y2="78.0" /><line opacity="0.7" stroke="magenta" stroke-width="1" x1="154.0" x2="170.5" y1="78.0" y2="81.0" /><line opacity="0.7" stroke="magenta" stroke-width="1" x1="154.0" x2="93.0" y1="78.0" y2="88.5" /><line opacity="0.7" stroke="magenta" stroke-width="1" x1="154.0" x2="126.5" y1="78.0" y2="90.0" /><line opacity="0.7" stroke="magenta" stroke-width="1" x1="154.0" x2="156.5" y1="78.0" y2="93.5" /><line opacity="0.7" stroke="magenta" stroke-width="1" x1="178.0" x2="118.5" y1="91.0" y2="207.5" /><line opacity="0.7" stroke="magenta" stroke-width="1" x1="178.0" x2="174.0" y1="91.0" y2="165.5" /><line opacity="0.7" stroke="magenta" stroke-width="1" x1="178.0" x2="175.0" y1="91.0" y2="54.5" /><line opacity="0.7" stroke="magenta" stroke-width="1" x1="178.0" x2="177.0" y1="91.0" y2="125.0" /><line opacity="0.7" stroke="magenta" stroke-width="1" x1="178.0" x2="151.5" y1="91.0" y2="103.5" /><line opacity="0.7" stroke="magenta" stroke-width="1" x1="178.0" x2="170.5" y1="91.0" y2="81.0" /><line opacity="0.7" stroke="magenta" stroke-width="1" x1="178.0" x2="191.5" y1="91.0" y2="89.0" /><line opacity="0.7" stroke="magenta" stroke-width="1" x1="178.0" x2="93.0" y1="91.0" y2="88.5" /><line opacity="0.7" stroke="magenta" stroke-width="1" x1="178.0" x2="121.0" y1="91.0" y2="219.0" /><line opacity="0.7" stroke="magenta" stroke-width="1" x1="178.0" x2="126.5" y1="91.0" y2="90.0" /><line opacity="0.7" stroke="magenta" stroke-width="1" x1="178.0" x2="156.5" y1="91.0" y2="93.5" /><line opacity="0.7" stroke="magenta" stroke-width="1" x1="178.0" x2="161.0" y1="91.0" y2="119.5" /><line opacity="0.7" stroke="magenta" stroke-width="1" x1="178.0" x2="160.5" y1="91.0" y2="108.5" /><line opacity="0.7" stroke="magenta" stroke-width="1" x1="118.5" x2="85.0" y1="207.5" y2="87.5" /><line opacity="0.7" stroke="magenta" stroke-width="1" x1="118.5" x2="175.0" y1="207.5" y2="54.5" /><line opacity="0.7" stroke="magenta" stroke-width="1" x1="118.5" x2="177.0" y1="207.5" y2="125.0" /><line opacity="0.7" stroke="magenta" stroke-width="1" x1="118.5" x2="151.5" y1="207.5" y2="103.5" /><line opacity="0.7" stroke="magenta" stroke-width="1" x1="118.5" x2="93.0" y1="207.5" y2="88.5" /><line opacity="0.7" stroke="magenta" stroke-width="1" x1="118.5" x2="121.0" y1="207.5" y2="219.0" /><line opacity="0.7" stroke="magenta" stroke-width="1" x1="118.5" x2="126.5" y1="207.5" y2="90.0" /><line opacity="0.7" stroke="magenta" stroke-width="1" x1="118.5" x2="152.5" y1="207.5" y2="206.5" /><line opacity="0.7" stroke="magenta" stroke-width="1" x1="150.5" x2="174.0" y1="185.5" y2="165.5" /><line opacity="0.7" stroke="magenta" stroke-width="1" x1="150.5" x2="133.0" y1="185.5" y2="168.5" /><line opacity="0.7" stroke="magenta" stroke-width="1" x1="150.5" x2="153.0" y1="185.5" y2="167.0" /><line opacity="0.7" stroke="magenta" stroke-width="1" x1="150.5" x2="151.5" y1="185.5" y2="103.5" /><line opacity="0.7" stroke="magenta" stroke-width="1" x1="150.5" x2="132.5" y1="185.5" y2="134.5" /><line opacity="0.7" stroke="magenta" stroke-width="1" x1="150.5" x2="159.0" y1="185.5" y2="198.5" /><line opacity="0.7" stroke="magenta" stroke-width="1" x1="150.5" x2="126.5" y1="185.5" y2="90.0" /><line opacity="0.7" stroke="magenta" stroke-width="1" x1="150.5" x2="174.5" y1="185.5" y2="173.5" /><line opacity="0.7" stroke="magenta" stroke-width="1" x1="150.5" x2="156.5" y1="185.5" y2="93.5" /><line opacity="0.7" stroke="magenta" stroke-width="1" x1="150.5" x2="161.0" y1="185.5" y2="119.5" /><line opacity="0.7" stroke="magenta" stroke-width="1" x1="150.5" x2="161.5" y1="185.5" y2="135.0" /><line opacity="0.7" stroke="magenta" stroke-width="1" x1="150.5" x2="160.5" y1="185.5" y2="108.5" /><line opacity="0.7" stroke="magenta" stroke-width="1" x1="150.5" x2="152.5" y1="185.5" y2="206.5" /><line opacity="0.7" stroke="magenta" stroke-width="1" x1="85.0" x2="102.0" y1="87.5" y2="86.0" /><line opacity="0.7" stroke="magenta" stroke-width="1" x1="85.0" x2="133.0" y1="87.5" y2="168.5" /><line opacity="0.7" stroke="magenta" stroke-width="1" x1="85.0" x2="177.0" y1="87.5" y2="125.0" /><line opacity="0.7" stroke="magenta" stroke-width="1" x1="85.0" x2="81.0" y1="87.5" y2="78.0" /><line opacity="0.7" stroke="magenta" stroke-width="1" x1="85.0" x2="191.5" y1="87.5" y2="89.0" /><line opacity="0.7" stroke="magenta" stroke-width="1" x1="85.0" x2="93.0" y1="87.5" y2="88.5" /><line opacity="0.7" stroke="magenta" stroke-width="1" x1="85.0" x2="158.0" y1="87.5" y2="215.0" /><line opacity="0.7" stroke="magenta" stroke-width="1" x1="85.0" x2="121.0" y1="87.5" y2="219.0" /><line opacity="0.7" stroke="magenta" stroke-width="1" x1="85.0" x2="152.5" y1="87.5" y2="206.5" /><line opacity="0.7" stroke="magenta" stroke-width="1" x1="102.0" x2="81.0" y1="86.0" y2="78.0" /><line opacity="0.7" stroke="magenta" stroke-width="1" x1="102.0" x2="132.5" y1="86.0" y2="134.5" /><line opacity="0.7" stroke="magenta" stroke-width="1" x1="102.0" x2="93.0" y1="86.0" y2="88.5" /><line opacity="0.7" stroke="magenta" stroke-width="1" x1="102.0" x2="126.5" y1="86.0" y2="90.0" /><line opacity="0.7" stroke="magenta" stroke-width="1" x1="102.0" x2="160.5" y1="86.0" y2="108.5" /><line opacity="0.7" stroke="magenta" stroke-width="1" x1="102.0" x2="152.5" y1="86.0" y2="206.5" /><line opacity="0.7" stroke="magenta" stroke-width="1" x1="174.0" x2="133.0" y1="165.5" y2="168.5" /><line opacity="0.7" stroke="magenta" stroke-width="1" x1="174.0" x2="153.0" y1="165.5" y2="167.0" /><line opacity="0.7" stroke="magenta" stroke-width="1" x1="174.0" x2="177.0" y1="165.5" y2="125.0" /><line opacity="0.7" stroke="magenta" stroke-width="1" x1="174.0" x2="132.5" y1="165.5" y2="134.5" /><line opacity="0.7" stroke="magenta" stroke-width="1" x1="174.0" x2="174.5" y1="165.5" y2="173.5" /><line opacity="0.7" stroke="magenta" stroke-width="1" x1="174.0" x2="161.5" y1="165.5" y2="135.0" /><line opacity="0.7" stroke="magenta" stroke-width="1" x1="133.0" x2="153.0" y1="168.5" y2="167.0" /><line opacity="0.7" stroke="magenta" stroke-width="1" x1="133.0" x2="177.0" y1="168.5" y2="125.0" /><line opacity="0.7" stroke="magenta" stroke-width="1" x1="133.0" x2="132.5" y1="168.5" y2="134.5" /><line opacity="0.7" stroke="magenta" stroke-width="1" x1="133.0" x2="126.5" y1="168.5" y2="90.0" /><line opacity="0.7" stroke="magenta" stroke-width="1" x1="133.0" x2="174.5" y1="168.5" y2="173.5" /><line opacity="0.7" stroke="magenta" stroke-width="1" x1="133.0" x2="161.0" y1="168.5" y2="119.5" /><line opacity="0.7" stroke="magenta" stroke-width="1" x1="133.0" x2="161.5" y1="168.5" y2="135.0" /><line opacity="0.7" stroke="magenta" stroke-width="1" x1="175.0" x2="177.0" y1="54.5" y2="125.0" /><line opacity="0.7" stroke="magenta" stroke-width="1" x1="175.0" x2="170.5" y1="54.5" y2="81.0" /><line opacity="0.7" stroke="magenta" stroke-width="1" x1="175.0" x2="191.5" y1="54.5" y2="89.0" /><line opacity="0.7" stroke="magenta" stroke-width="1" x1="175.0" x2="121.0" y1="54.5" y2="219.0" /><line opacity="0.7" stroke="magenta" stroke-width="1" x1="153.0" x2="177.0" y1="167.0" y2="125.0" /><line opacity="0.7" stroke="magenta" stroke-width="1" x1="153.0" x2="151.5" y1="167.0" y2="103.5" /><line opacity="0.7" stroke="magenta" stroke-width="1" x1="153.0" x2="132.5" y1="167.0" y2="134.5" /><line opacity="0.7" stroke="magenta" stroke-width="1" x1="153.0" x2="174.5" y1="167.0" y2="173.5" /><line opacity="0.7" stroke="magenta" stroke-width="1" x1="153.0" x2="161.5" y1="167.0" y2="135.0" /><line opacity="0.7" stroke="magenta" stroke-width="1" x1="177.0" x2="170.5" y1="125.0" y2="81.0" /><line opacity="0.7" stroke="magenta" stroke-width="1" x1="177.0" x2="191.5" y1="125.0" y2="89.0" /><line opacity="0.7" stroke="magenta" stroke-width="1" x1="177.0" x2="132.5" y1="125.0" y2="134.5" /><line opacity="0.7" stroke="magenta" stroke-width="1" x1="177.0" x2="159.0" y1="125.0" y2="198.5" /><line opacity="0.7" stroke="magenta" stroke-width="1" x1="177.0" x2="121.0" y1="125.0" y2="219.0" /><line opacity="0.7" stroke="magenta" stroke-width="1" x1="177.0" x2="174.5" y1="125.0" y2="173.5" /><line opacity="0.7" stroke="magenta" stroke-width="1" x1="177.0" x2="156.5" y1="125.0" y2="93.5" /><line opacity="0.7" stroke="magenta" stroke-width="1" x1="177.0" x2="161.0" y1="125.0" y2="119.5" /><line opacity="0.7" stroke="magenta" stroke-width="1" x1="177.0" x2="161.5" y1="125.0" y2="135.0" /><line opacity="0.7" stroke="magenta" stroke-width="1" x1="177.0" x2="160.5" y1="125.0" y2="108.5" /><line opacity="0.7" stroke="magenta" stroke-width="1" x1="151.5" x2="170.5" y1="103.5" y2="81.0" /><line opacity="0.7" stroke="magenta" stroke-width="1" x1="151.5" x2="191.5" y1="103.5" y2="89.0" /><line opacity="0.7" stroke="magenta" stroke-width="1" x1="151.5" x2="132.5" y1="103.5" y2="134.5" /><line opacity="0.7" stroke="magenta" stroke-width="1" x1="151.5" x2="159.0" y1="103.5" y2="198.5" /><line opacity="0.7" stroke="magenta" stroke-width="1" x1="151.5" x2="93.0" y1="103.5" y2="88.5" /><line opacity="0.7" stroke="magenta" stroke-width="1" x1="151.5" x2="126.5" y1="103.5" y2="90.0" /><line opacity="0.7" stroke="magenta" stroke-width="1" x1="151.5" x2="156.5" y1="103.5" y2="93.5" /><line opacity="0.7" stroke="magenta" stroke-width="1" x1="151.5" x2="161.0" y1="103.5" y2="119.5" /><line opacity="0.7" stroke="magenta" stroke-width="1" x1="151.5" x2="161.5" y1="103.5" y2="135.0" /><line opacity="0.7" stroke="magenta" stroke-width="1" x1="151.5" x2="160.5" y1="103.5" y2="108.5" /><line opacity="0.7" stroke="magenta" stroke-width="1" x1="151.5" x2="152.5" y1="103.5" y2="206.5" /><line opacity="0.7" stroke="magenta" stroke-width="1" x1="81.0" x2="170.5" y1="78.0" y2="81.0" /><line opacity="0.7" stroke="magenta" stroke-width="1" x1="81.0" x2="93.0" y1="78.0" y2="88.5" /><line opacity="0.7" stroke="magenta" stroke-width="1" x1="170.5" x2="191.5" y1="81.0" y2="89.0" /><line opacity="0.7" stroke="magenta" stroke-width="1" x1="170.5" x2="126.5" y1="81.0" y2="90.0" /><line opacity="0.7" stroke="magenta" stroke-width="1" x1="170.5" x2="156.5" y1="81.0" y2="93.5" /><line opacity="0.7" stroke="magenta" stroke-width="1" x1="170.5" x2="161.0" y1="81.0" y2="119.5" /><line opacity="0.7" stroke="magenta" stroke-width="1" x1="170.5" x2="160.5" y1="81.0" y2="108.5" /><line opacity="0.7" stroke="magenta" stroke-width="1" x1="191.5" x2="126.5" y1="89.0" y2="90.0" /><line opacity="0.7" stroke="magenta" stroke-width="1" x1="191.5" x2="156.5" y1="89.0" y2="93.5" /><line opacity="0.7" stroke="magenta" stroke-width="1" x1="191.5" x2="160.5" y1="89.0" y2="108.5" /><line opacity="0.7" stroke="magenta" stroke-width="1" x1="132.5" x2="93.0" y1="134.5" y2="88.5" /><line opacity="0.7" stroke="magenta" stroke-width="1" x1="132.5" x2="126.5" y1="134.5" y2="90.0" /><line opacity="0.7" stroke="magenta" stroke-width="1" x1="132.5" x2="156.5" y1="134.5" y2="93.5" /><line opacity="0.7" stroke="magenta" stroke-width="1" x1="132.5" x2="161.0" y1="134.5" y2="119.5" /><line opacity="0.7" stroke="magenta" stroke-width="1" x1="132.5" x2="161.5" y1="134.5" y2="135.0" /><line opacity="0.7" stroke="magenta" stroke-width="1" x1="159.0" x2="158.0" y1="198.5" y2="215.0" /><line opacity="0.7" stroke="magenta" stroke-width="1" x1="159.0" x2="126.5" y1="198.5" y2="90.0" /><line opacity="0.7" stroke="magenta" stroke-width="1" x1="159.0" x2="174.5" y1="198.5" y2="173.5" /><line opacity="0.7" stroke="magenta" stroke-width="1" x1="159.0" x2="156.5" y1="198.5" y2="93.5" /><line opacity="0.7" stroke="magenta" stroke-width="1" x1="159.0" x2="161.0" y1="198.5" y2="119.5" /><line opacity="0.7" stroke="magenta" stroke-width="1" x1="159.0" x2="161.5" y1="198.5" y2="135.0" /><line opacity="0.7" stroke="magenta" stroke-width="1" x1="159.0" x2="152.5" y1="198.5" y2="206.5" /><line opacity="0.7" stroke="magenta" stroke-width="1" x1="93.0" x2="126.5" y1="88.5" y2="90.0" /><line opacity="0.7" stroke="magenta" stroke-width="1" x1="93.0" x2="161.0" y1="88.5" y2="119.5" /><line opacity="0.7" stroke="magenta" stroke-width="1" x1="93.0" x2="160.5" y1="88.5" y2="108.5" /><line opacity="0.7" stroke="magenta" stroke-width="1" x1="93.0" x2="152.5" y1="88.5" y2="206.5" /><line opacity="0.7" stroke="magenta" stroke-width="1" x1="158.0" x2="121.0" y1="215.0" y2="219.0" /><line opacity="0.7" stroke="magenta" stroke-width="1" x1="158.0" x2="152.5" y1="215.0" y2="206.5" /><line opacity="0.7" stroke="magenta" stroke-width="1" x1="121.0" x2="126.5" y1="219.0" y2="90.0" /><line opacity="0.7" stroke="magenta" stroke-width="1" x1="126.5" x2="156.5" y1="90.0" y2="93.5" /><line opacity="0.7" stroke="magenta" stroke-width="1" x1="126.5" x2="161.0" y1="90.0" y2="119.5" /><line opacity="0.7" stroke="magenta" stroke-width="1" x1="126.5" x2="161.5" y1="90.0" y2="135.0" /><line opacity="0.7" stroke="magenta" stroke-width="1" x1="126.5" x2="160.5" y1="90.0" y2="108.5" /><line opacity="0.7" stroke="magenta" stroke-width="1" x1="156.5" x2="161.0" y1="93.5" y2="119.5" /><line opacity="0.7" stroke="magenta" stroke-width="1" x1="156.5" x2="161.5" y1="93.5" y2="135.0" /><line opacity="0.7" stroke="magenta" stroke-width="1" x1="156.5" x2="160.5" y1="93.5" y2="108.5" /><line opacity="0.7" stroke="magenta" stroke-width="1" x1="161.0" x2="161.5" y1="119.5" y2="135.0" /><line opacity="0.7" stroke="magenta" stroke-width="1" x1="161.0" x2="160.5" y1="119.5" y2="108.5" /><line opacity="0.7" stroke="magenta" stroke-width="1" x1="161.5" x2="160.5" y1="135.0" y2="108.5" /><circle cx="118.5" cy="77.0" fill="white" opacity="0.8" r="1.5" stroke="blue" stroke-width="0.8" /><circle cx="161.0" cy="119.5" fill="white" opacity="0.8" r="1.5" stroke="blue" stroke-width="0.8" /><circle cx="126.5" cy="90.0" fill="white" opacity="0.8" r="1.5" stroke="blue" stroke-width="0.8" /><circle cx="173.0" cy="198.0" fill="white" opacity="0.8" r="1.5" stroke="blue" stroke-width="0.8" /><circle cx="158.0" cy="215.0" fill="white" opacity="0.8" r="1.5" stroke="blue" stroke-width="0.8" /><circle cx="81.0" cy="237.0" fill="white" opacity="0.8" r="1.5" stroke="blue" stroke-width="0.8" /><circle cx="174.0" cy="165.5" fill="white" opacity="0.8" r="1.5" stroke="blue" stroke-width="0.8" /><circle cx="132.5" cy="134.5" fill="white" opacity="0.8" r="1.5" stroke="blue" stroke-width="0.8" /><circle cx="191.5" cy="89.0" fill="white" opacity="0.8" r="1.5" stroke="blue" stroke-width="0.8" /><circle cx="118.5" cy="207.5" fill="white" opacity="0.8" r="1.5" stroke="blue" stroke-width="0.8" /><circle cx="85.0" cy="87.5" fill="white" opacity="0.8" r="1.5" stroke="blue" stroke-width="0.8" /><circle cx="151.5" cy="103.5" fill="white" opacity="0.8" r="1.5" stroke="blue" stroke-width="0.8" /><circle cx="156.5" cy="93.5" fill="white" opacity="0.8" r="1.5" stroke="blue" stroke-width="0.8" /><circle cx="154.0" cy="78.0" fill="white" opacity="0.8" r="1.5" stroke="blue" stroke-width="0.8" /><circle cx="81.0" cy="20.0" fill="white" opacity="0.8" r="1.5" stroke="blue" stroke-width="0.8" /><circle cx="150.5" cy="185.5" fill="white" opacity="0.8" r="1.5" stroke="blue" stroke-width="0.8" /><circle cx="102.0" cy="86.0" fill="white" opacity="0.8" r="1.5" stroke="blue" stroke-width="0.8" /><circle cx="82.0" cy="185.0" fill="white" opacity="0.8" r="1.5" stroke="blue" stroke-width="0.8" /><circle cx="170.5" cy="81.0" fill="white" opacity="0.8" r="1.5" stroke="blue" stroke-width="0.8" /><circle cx="174.5" cy="173.5" fill="white" opacity="0.8" r="1.5" stroke="blue" stroke-width="0.8" /><circle cx="171.0" cy="21.0" fill="white" opacity="0.8" r="1.5" stroke="blue" stroke-width="0.8" /><circle cx="174.0" cy="236.5" fill="white" opacity="0.8" r="1.5" stroke="blue" stroke-width="0.8" /><circle cx="153.0" cy="167.0" fill="white" opacity="0.8" r="1.5" stroke="blue" stroke-width="0.8" /><circle cx="175.0" cy="54.5" fill="white" opacity="0.8" r="1.5" stroke="blue" stroke-width="0.8" /><circle cx="161.5" cy="135.0" fill="white" opacity="0.8" r="1.5" stroke="blue" stroke-width="0.8" /><circle cx="133.0" cy="168.5" fill="white" opacity="0.8" r="1.5" stroke="blue" stroke-width="0.8" /><circle cx="152.5" cy="206.5" fill="white" opacity="0.8" r="1.5" stroke="blue" stroke-width="0.8" /><circle cx="160.5" cy="108.5" fill="white" opacity="0.8" r="1.5" stroke="blue" stroke-width="0.8" /><circle cx="121.0" cy="219.0" fill="white" opacity="0.8" r="1.5" stroke="blue" stroke-width="0.8" /><circle cx="93.0" cy="88.5" fill="white" opacity="0.8" r="1.5" stroke="blue" stroke-width="0.8" /><circle cx="159.0" cy="198.5" fill="white" opacity="0.8" r="1.5" stroke="blue" stroke-width="0.8" /><circle cx="177.0" cy="125.0" fill="white" opacity="0.8" r="1.5" stroke="blue" stroke-width="0.8" /><circle cx="81.0" cy="78.0" fill="white" opacity="0.8" r="1.5" stroke="blue" stroke-width="0.8" /><circle cx="178.0" cy="91.0" fill="white" opacity="0.8" r="1.5" stroke="blue" stroke-width="0.8" /></svg>