<?xml version="1.0" encoding="utf-8" ?>
<svg baseProfile="full" height="256" version="1.1" width="256" xmlns="http://www.w3.org/2000/svg" xmlns:ev="http://www.w3.org/2001/xml-events" xmlns:xlink="http://www.w3.org/1999/xlink"><defs /><image height="256" width="256" xlink:href="/home/nelson/Workspace/building_reconstruction/la_dataset_new/rgb/1526403373.22.jpg" /><line opacity="0.7" stroke="magenta" stroke-width="1" x1="188.0" x2="69.0" y1="76.0" y2="76.0" /><line opacity="0.7" stroke="magenta" stroke-width="1" x1="188.0" x2="187.0" y1="76.0" y2="182.5" /><line opacity="0.7" stroke="magenta" stroke-width="1" x1="69.0" x2="67.0" y1="76.0" y2="130.5" /><line opacity="0.7" stroke="magenta" stroke-width="1" x1="187.0" x2="107.5" y1="182.5" y2="182.0" /><line opacity="0.7" stroke="magenta" stroke-width="1" x1="129.0" x2="107.5" y1="156.0" y2="168.5" /><line opacity="0.7" stroke="magenta" stroke-width="1" x1="129.0" x2="135.5" y1="156.0" y2="145.0" /><line opacity="0.7" stroke="magenta" stroke-width="1" x1="67.0" x2="68.0" y1="130.5" y2="182.0" /><line opacity="0.7" stroke="magenta" stroke-width="1" x1="67.0" x2="135.5" y1="130.5" y2="129.0" /><line opacity="0.7" stroke="magenta" stroke-width="1" x1="68.0" x2="107.5" y1="182.0" y2="182.0" /><line opacity="0.7" stroke="magenta" stroke-width="1" x1="107.5" x2="107.5" y1="168.5" y2="182.0" /><line opacity="0.7" stroke="magenta" stroke-width="1" x1="135.5" x2="135.5" y1="129.0" y2="145.0" /><circle cx="107.5" cy="182.0" fill="white" opacity="0.8" r="1.5" stroke="blue" stroke-width="0.8" /><circle cx="187.0" cy="182.5" fill="white" opacity="0.8" r="1.5" stroke="blue" stroke-width="0.8" /><circle cx="135.5" cy="129.0" fill="white" opacity="0.8" r="1.5" stroke="blue" stroke-width="0.8" /><circle cx="107.5" cy="168.5" fill="white" opacity="0.8" r="1.5" stroke="blue" stroke-width="0.8" /><circle cx="135.5" cy="145.0" fill="white" opacity="0.8" r="1.5" stroke="blue" stroke-width="0.8" /><circle cx="129.0" cy="156.0" fill="white" opacity="0.8" r="1.5" stroke="blue" stroke-width="0.8" /><circle cx="188.0" cy="76.0" fill="white" opacity="0.8" r="1.5" stroke="blue" stroke-width="0.8" /><circle cx="67.0" cy="130.5" fill="white" opacity="0.8" r="1.5" stroke="blue" stroke-width="0.8" /><circle cx="68.0" cy="182.0" fill="white" opacity="0.8" r="1.5" stroke="blue" stroke-width="0.8" /><circle cx="69.0" cy="76.0" fill="white" opacity="0.8" r="1.5" stroke="blue" stroke-width="0.8" /></svg>