<?xml version="1.0" encoding="utf-8" ?>
<svg baseProfile="full" height="256" version="1.1" width="256" xmlns="http://www.w3.org/2000/svg" xmlns:ev="http://www.w3.org/2001/xml-events" xmlns:xlink="http://www.w3.org/1999/xlink"><defs /><image height="256" width="256" xlink:href="/home/nelson/Workspace/building_reconstruction/la_dataset_new/rgb/1526402031.44.jpg" /><line opacity="0.7" stroke="magenta" stroke-width="1" x1="20.5" x2="23.0" y1="153.0" y2="104.0" /><line opacity="0.7" stroke="magenta" stroke-width="1" x1="20.5" x2="120.0" y1="153.0" y2="152.0" /><line opacity="0.7" stroke="magenta" stroke-width="1" x1="236.5" x2="237.5" y1="101.0" y2="152.0" /><line opacity="0.7" stroke="magenta" stroke-width="1" x1="237.5" x2="216.0" y1="152.0" y2="152.5" /><line opacity="0.7" stroke="magenta" stroke-width="1" x1="120.0" x2="216.0" y1="152.0" y2="152.5" /><line opacity="0.7" stroke="magenta" stroke-width="1" x1="101.5" x2="97.0" y1="137.5" y2="128.0" /><line opacity="0.7" stroke="magenta" stroke-width="1" x1="97.0" x2="99.0" y1="128.0" y2="115.0" /><line opacity="0.7" stroke="magenta" stroke-width="1" x1="98.5" x2="99.0" y1="105.5" y2="115.0" /><circle cx="98.5" cy="105.5" fill="white" opacity="0.8" r="1.5" stroke="blue" stroke-width="0.8" /><circle cx="237.5" cy="152.0" fill="white" opacity="0.8" r="1.5" stroke="blue" stroke-width="0.8" /><circle cx="23.0" cy="104.0" fill="white" opacity="0.8" r="1.5" stroke="blue" stroke-width="0.8" /><circle cx="20.5" cy="153.0" fill="white" opacity="0.8" r="1.5" stroke="blue" stroke-width="0.8" /><circle cx="120.0" cy="152.0" fill="white" opacity="0.8" r="1.5" stroke="blue" stroke-width="0.8" /><circle cx="101.5" cy="137.5" fill="white" opacity="0.8" r="1.5" stroke="blue" stroke-width="0.8" /><circle cx="216.0" cy="152.5" fill="white" opacity="0.8" r="1.5" stroke="blue" stroke-width="0.8" /><circle cx="236.5" cy="101.0" fill="white" opacity="0.8" r="1.5" stroke="blue" stroke-width="0.8" /><circle cx="99.0" cy="115.0" fill="white" opacity="0.8" r="1.5" stroke="blue" stroke-width="0.8" /><circle cx="97.0" cy="128.0" fill="white" opacity="0.8" r="1.5" stroke="blue" stroke-width="0.8" /><circle cx="160.0" cy="120.5" fill="white" opacity="0.8" r="1.5" stroke="red" stroke-width="0.8" /></svg>