<?xml version="1.0" encoding="utf-8" ?>
<svg baseProfile="full" height="256" version="1.1" width="256" xmlns="http://www.w3.org/2000/svg" xmlns:ev="http://www.w3.org/2001/xml-events" xmlns:xlink="http://www.w3.org/1999/xlink"><defs /><image height="256" width="256" xlink:href="/home/nelson/Workspace/building_reconstruction/la_dataset_new/rgb/1525714733.19.jpg" /><line opacity="0.7" stroke="magenta" stroke-width="1" x1="67.0" x2="67.0" y1="109.5" y2="148.0" /><line opacity="0.7" stroke="magenta" stroke-width="1" x1="67.0" x2="152.0" y1="109.5" y2="109.0" /><line opacity="0.7" stroke="magenta" stroke-width="1" x1="67.0" x2="189.0" y1="148.0" y2="146.0" /><line opacity="0.7" stroke="magenta" stroke-width="1" x1="189.5" x2="189.0" y1="110.0" y2="146.0" /><line opacity="0.7" stroke="magenta" stroke-width="1" x1="189.5" x2="152.0" y1="110.0" y2="109.0" /><line opacity="0.7" stroke="magenta" stroke-width="1" x1="189.5" x2="183.5" y1="110.0" y2="123.0" /><line opacity="0.7" stroke="magenta" stroke-width="1" x1="189.0" x2="177.0" y1="146.0" y2="128.5" /><line opacity="0.7" stroke="magenta" stroke-width="1" x1="152.0" x2="150.5" y1="109.0" y2="126.0" /><line opacity="0.7" stroke="magenta" stroke-width="1" x1="150.5" x2="151.0" y1="126.0" y2="147.0" /><line opacity="0.7" stroke="magenta" stroke-width="1" x1="150.5" x2="177.0" y1="126.0" y2="128.5" /><line opacity="0.7" stroke="magenta" stroke-width="1" x1="150.5" x2="183.5" y1="126.0" y2="123.0" /><line opacity="0.7" stroke="magenta" stroke-width="1" x1="151.0" x2="177.0" y1="147.0" y2="128.5" /><line opacity="0.7" stroke="magenta" stroke-width="1" x1="188.0" x2="177.0" y1="129.0" y2="128.5" /><line opacity="0.7" stroke="magenta" stroke-width="1" x1="188.0" x2="183.5" y1="129.0" y2="123.0" /><line opacity="0.7" stroke="magenta" stroke-width="1" x1="177.0" x2="183.5" y1="128.5" y2="123.0" /><circle cx="177.0" cy="128.5" fill="white" opacity="0.8" r="1.5" stroke="blue" stroke-width="0.8" /><circle cx="67.0" cy="148.0" fill="white" opacity="0.8" r="1.5" stroke="blue" stroke-width="0.8" /><circle cx="183.5" cy="123.0" fill="white" opacity="0.8" r="1.5" stroke="blue" stroke-width="0.8" /><circle cx="151.0" cy="147.0" fill="white" opacity="0.8" r="1.5" stroke="blue" stroke-width="0.8" /><circle cx="188.0" cy="129.0" fill="white" opacity="0.8" r="1.5" stroke="blue" stroke-width="0.8" /><circle cx="189.5" cy="110.0" fill="white" opacity="0.8" r="1.5" stroke="blue" stroke-width="0.8" /><circle cx="152.0" cy="109.0" fill="white" opacity="0.8" r="1.5" stroke="blue" stroke-width="0.8" /><circle cx="189.0" cy="146.0" fill="white" opacity="0.8" r="1.5" stroke="blue" stroke-width="0.8" /><circle cx="150.5" cy="126.0" fill="white" opacity="0.8" r="1.5" stroke="blue" stroke-width="0.8" /><circle cx="67.0" cy="109.5" fill="white" opacity="0.8" r="1.5" stroke="blue" stroke-width="0.8" /></svg>