<?xml version="1.0" encoding="utf-8" ?>
<svg baseProfile="full" height="256" version="1.1" width="256" xmlns="http://www.w3.org/2000/svg" xmlns:ev="http://www.w3.org/2001/xml-events" xmlns:xlink="http://www.w3.org/1999/xlink"><defs /><image height="256" width="256" xlink:href="/home/nelson/Workspace/building_reconstruction/la_dataset_new/rgb/1525715037.32.jpg" /><line opacity="0.7" stroke="magenta" stroke-width="1" x1="163.5" x2="91.0" y1="158.0" y2="157.5" /><line opacity="0.7" stroke="magenta" stroke-width="1" x1="163.5" x2="163.0" y1="158.0" y2="99.0" /><line opacity="0.7" stroke="magenta" stroke-width="1" x1="163.5" x2="134.0" y1="158.0" y2="138.0" /><line opacity="0.7" stroke="magenta" stroke-width="1" x1="163.5" x2="147.5" y1="158.0" y2="137.0" /><line opacity="0.7" stroke="magenta" stroke-width="1" x1="87.5" x2="163.0" y1="98.0" y2="99.0" /><line opacity="0.7" stroke="magenta" stroke-width="1" x1="87.5" x2="90.5" y1="98.0" y2="117.0" /><line opacity="0.7" stroke="magenta" stroke-width="1" x1="87.5" x2="115.0" y1="98.0" y2="96.0" /><line opacity="0.7" stroke="magenta" stroke-width="1" x1="91.0" x2="113.0" y1="157.5" y2="133.0" /><line opacity="0.7" stroke="magenta" stroke-width="1" x1="91.0" x2="91.0" y1="157.5" y2="130.5" /><line opacity="0.7" stroke="magenta" stroke-width="1" x1="163.0" x2="144.0" y1="99.0" y2="116.0" /><line opacity="0.7" stroke="magenta" stroke-width="1" x1="134.0" x2="90.5" y1="117.0" y2="117.0" /><line opacity="0.7" stroke="magenta" stroke-width="1" x1="134.0" x2="134.0" y1="117.0" y2="138.0" /><line opacity="0.7" stroke="magenta" stroke-width="1" x1="134.0" x2="144.0" y1="117.0" y2="116.0" /><line opacity="0.7" stroke="magenta" stroke-width="1" x1="90.5" x2="91.0" y1="117.0" y2="130.5" /><line opacity="0.7" stroke="magenta" stroke-width="1" x1="115.0" x2="113.0" y1="96.0" y2="133.0" /><line opacity="0.7" stroke="magenta" stroke-width="1" x1="134.0" x2="113.0" y1="138.0" y2="133.0" /><line opacity="0.7" stroke="magenta" stroke-width="1" x1="134.0" x2="147.5" y1="138.0" y2="137.0" /><line opacity="0.7" stroke="magenta" stroke-width="1" x1="144.0" x2="147.5" y1="116.0" y2="137.0" /><line opacity="0.7" stroke="magenta" stroke-width="1" x1="113.0" x2="91.0" y1="133.0" y2="130.5" /><circle cx="163.0" cy="99.0" fill="white" opacity="0.8" r="1.5" stroke="blue" stroke-width="0.8" /><circle cx="90.5" cy="117.0" fill="white" opacity="0.8" r="1.5" stroke="blue" stroke-width="0.8" /><circle cx="163.5" cy="158.0" fill="white" opacity="0.8" r="1.5" stroke="blue" stroke-width="0.8" /><circle cx="134.0" cy="117.0" fill="white" opacity="0.8" r="1.5" stroke="blue" stroke-width="0.8" /><circle cx="91.0" cy="130.5" fill="white" opacity="0.8" r="1.5" stroke="blue" stroke-width="0.8" /><circle cx="87.5" cy="98.0" fill="white" opacity="0.8" r="1.5" stroke="blue" stroke-width="0.8" /><circle cx="115.0" cy="96.0" fill="white" opacity="0.8" r="1.5" stroke="blue" stroke-width="0.8" /><circle cx="113.0" cy="133.0" fill="white" opacity="0.8" r="1.5" stroke="blue" stroke-width="0.8" /><circle cx="144.0" cy="116.0" fill="white" opacity="0.8" r="1.5" stroke="blue" stroke-width="0.8" /><circle cx="91.0" cy="157.5" fill="white" opacity="0.8" r="1.5" stroke="blue" stroke-width="0.8" /><circle cx="134.0" cy="138.0" fill="white" opacity="0.8" r="1.5" stroke="blue" stroke-width="0.8" /><circle cx="147.5" cy="137.0" fill="white" opacity="0.8" r="1.5" stroke="blue" stroke-width="0.8" /></svg>