<?xml version="1.0" encoding="utf-8" ?>
<svg baseProfile="full" height="256" version="1.1" width="256" xmlns="http://www.w3.org/2000/svg" xmlns:ev="http://www.w3.org/2001/xml-events" xmlns:xlink="http://www.w3.org/1999/xlink"><defs /><image height="256" width="256" xlink:href="/home/nelson/Workspace/building_reconstruction/la_dataset_new/rgb/1525714144.72.jpg" /><line opacity="0.7" stroke="magenta" stroke-width="1" x1="73.0" x2="73.0" y1="102.0" y2="153.5" /><line opacity="0.7" stroke="magenta" stroke-width="1" x1="73.0" x2="184.0" y1="102.0" y2="103.0" /><line opacity="0.7" stroke="magenta" stroke-width="1" x1="73.0" x2="173.0" y1="102.0" y2="103.0" /><line opacity="0.7" stroke="magenta" stroke-width="1" x1="73.0" x2="152.0" y1="102.0" y2="128.0" /><line opacity="0.7" stroke="magenta" stroke-width="1" x1="73.0" x2="164.5" y1="102.0" y2="112.0" /><line opacity="0.7" stroke="magenta" stroke-width="1" x1="73.0" x2="172.0" y1="102.0" y2="153.0" /><line opacity="0.7" stroke="magenta" stroke-width="1" x1="73.0" x2="186.0" y1="153.5" y2="152.0" /><line opacity="0.7" stroke="magenta" stroke-width="1" x1="73.0" x2="161.5" y1="153.5" y2="126.5" /><line opacity="0.7" stroke="magenta" stroke-width="1" x1="73.0" x2="164.5" y1="153.5" y2="112.0" /><line opacity="0.7" stroke="magenta" stroke-width="1" x1="73.0" x2="172.0" y1="153.5" y2="153.0" /><line opacity="0.7" stroke="magenta" stroke-width="1" x1="184.0" x2="186.0" y1="103.0" y2="152.0" /><line opacity="0.7" stroke="magenta" stroke-width="1" x1="184.0" x2="185.0" y1="103.0" y2="143.5" /><line opacity="0.7" stroke="magenta" stroke-width="1" x1="184.0" x2="168.0" y1="103.0" y2="131.0" /><line opacity="0.7" stroke="magenta" stroke-width="1" x1="184.0" x2="172.5" y1="103.0" y2="116.0" /><line opacity="0.7" stroke="magenta" stroke-width="1" x1="184.0" x2="161.5" y1="103.0" y2="126.5" /><line opacity="0.7" stroke="magenta" stroke-width="1" x1="184.0" x2="173.0" y1="103.0" y2="103.0" /><line opacity="0.7" stroke="magenta" stroke-width="1" x1="184.0" x2="152.0" y1="103.0" y2="128.0" /><line opacity="0.7" stroke="magenta" stroke-width="1" x1="184.0" x2="164.5" y1="103.0" y2="112.0" /><line opacity="0.7" stroke="magenta" stroke-width="1" x1="184.0" x2="172.0" y1="103.0" y2="153.0" /><line opacity="0.7" stroke="magenta" stroke-width="1" x1="186.0" x2="185.0" y1="152.0" y2="143.5" /><line opacity="0.7" stroke="magenta" stroke-width="1" x1="186.0" x2="161.5" y1="152.0" y2="126.5" /><line opacity="0.7" stroke="magenta" stroke-width="1" x1="186.0" x2="173.5" y1="152.0" y2="144.5" /><line opacity="0.7" stroke="magenta" stroke-width="1" x1="186.0" x2="172.0" y1="152.0" y2="153.0" /><line opacity="0.7" stroke="magenta" stroke-width="1" x1="185.0" x2="168.0" y1="143.5" y2="131.0" /><line opacity="0.7" stroke="magenta" stroke-width="1" x1="185.0" x2="172.5" y1="143.5" y2="116.0" /><line opacity="0.7" stroke="magenta" stroke-width="1" x1="185.0" x2="161.5" y1="143.5" y2="126.5" /><line opacity="0.7" stroke="magenta" stroke-width="1" x1="185.0" x2="173.5" y1="143.5" y2="144.5" /><line opacity="0.7" stroke="magenta" stroke-width="1" x1="185.0" x2="152.0" y1="143.5" y2="128.0" /><line opacity="0.7" stroke="magenta" stroke-width="1" x1="185.0" x2="164.5" y1="143.5" y2="112.0" /><line opacity="0.7" stroke="magenta" stroke-width="1" x1="185.0" x2="172.0" y1="143.5" y2="153.0" /><line opacity="0.7" stroke="magenta" stroke-width="1" x1="168.0" x2="172.5" y1="131.0" y2="116.0" /><line opacity="0.7" stroke="magenta" stroke-width="1" x1="168.0" x2="173.0" y1="131.0" y2="103.0" /><line opacity="0.7" stroke="magenta" stroke-width="1" x1="168.0" x2="173.5" y1="131.0" y2="144.5" /><line opacity="0.7" stroke="magenta" stroke-width="1" x1="168.0" x2="152.0" y1="131.0" y2="128.0" /><line opacity="0.7" stroke="magenta" stroke-width="1" x1="168.0" x2="164.5" y1="131.0" y2="112.0" /><line opacity="0.7" stroke="magenta" stroke-width="1" x1="168.0" x2="172.0" y1="131.0" y2="153.0" /><line opacity="0.7" stroke="magenta" stroke-width="1" x1="172.5" x2="161.5" y1="116.0" y2="126.5" /><line opacity="0.7" stroke="magenta" stroke-width="1" x1="172.5" x2="173.0" y1="116.0" y2="103.0" /><line opacity="0.7" stroke="magenta" stroke-width="1" x1="172.5" x2="173.5" y1="116.0" y2="144.5" /><line opacity="0.7" stroke="magenta" stroke-width="1" x1="172.5" x2="152.0" y1="116.0" y2="128.0" /><line opacity="0.7" stroke="magenta" stroke-width="1" x1="172.5" x2="164.5" y1="116.0" y2="112.0" /><line opacity="0.7" stroke="magenta" stroke-width="1" x1="161.5" x2="173.0" y1="126.5" y2="103.0" /><line opacity="0.7" stroke="magenta" stroke-width="1" x1="161.5" x2="173.5" y1="126.5" y2="144.5" /><line opacity="0.7" stroke="magenta" stroke-width="1" x1="161.5" x2="164.5" y1="126.5" y2="112.0" /><line opacity="0.7" stroke="magenta" stroke-width="1" x1="161.5" x2="172.0" y1="126.5" y2="153.0" /><line opacity="0.7" stroke="magenta" stroke-width="1" x1="173.0" x2="173.5" y1="103.0" y2="144.5" /><line opacity="0.7" stroke="magenta" stroke-width="1" x1="173.0" x2="152.0" y1="103.0" y2="128.0" /><line opacity="0.7" stroke="magenta" stroke-width="1" x1="173.0" x2="164.5" y1="103.0" y2="112.0" /><line opacity="0.7" stroke="magenta" stroke-width="1" x1="173.0" x2="172.0" y1="103.0" y2="153.0" /><line opacity="0.7" stroke="magenta" stroke-width="1" x1="173.5" x2="152.0" y1="144.5" y2="128.0" /><line opacity="0.7" stroke="magenta" stroke-width="1" x1="173.5" x2="164.5" y1="144.5" y2="112.0" /><line opacity="0.7" stroke="magenta" stroke-width="1" x1="173.5" x2="172.0" y1="144.5" y2="153.0" /><line opacity="0.7" stroke="magenta" stroke-width="1" x1="152.0" x2="164.5" y1="128.0" y2="112.0" /><line opacity="0.7" stroke="magenta" stroke-width="1" x1="152.0" x2="172.0" y1="128.0" y2="153.0" /><line opacity="0.7" stroke="magenta" stroke-width="1" x1="164.5" x2="172.0" y1="112.0" y2="153.0" /><circle cx="164.5" cy="112.0" fill="white" opacity="0.8" r="1.5" stroke="blue" stroke-width="0.8" /><circle cx="168.0" cy="131.0" fill="white" opacity="0.8" r="1.5" stroke="blue" stroke-width="0.8" /><circle cx="161.5" cy="126.5" fill="white" opacity="0.8" r="1.5" stroke="blue" stroke-width="0.8" /><circle cx="172.5" cy="116.0" fill="white" opacity="0.8" r="1.5" stroke="blue" stroke-width="0.8" /><circle cx="185.0" cy="143.5" fill="white" opacity="0.8" r="1.5" stroke="blue" stroke-width="0.8" /><circle cx="73.0" cy="102.0" fill="white" opacity="0.8" r="1.5" stroke="blue" stroke-width="0.8" /><circle cx="172.0" cy="153.0" fill="white" opacity="0.8" r="1.5" stroke="blue" stroke-width="0.8" /><circle cx="173.5" cy="144.5" fill="white" opacity="0.8" r="1.5" stroke="blue" stroke-width="0.8" /><circle cx="186.0" cy="152.0" fill="white" opacity="0.8" r="1.5" stroke="blue" stroke-width="0.8" /><circle cx="152.0" cy="128.0" fill="white" opacity="0.8" r="1.5" stroke="blue" stroke-width="0.8" /><circle cx="73.0" cy="153.5" fill="white" opacity="0.8" r="1.5" stroke="blue" stroke-width="0.8" /><circle cx="173.0" cy="103.0" fill="white" opacity="0.8" r="1.5" stroke="blue" stroke-width="0.8" /><circle cx="184.0" cy="103.0" fill="white" opacity="0.8" r="1.5" stroke="blue" stroke-width="0.8" /></svg>