<?xml version="1.0" encoding="utf-8" ?>
<svg baseProfile="full" height="256" version="1.1" width="256" xmlns="http://www.w3.org/2000/svg" xmlns:ev="http://www.w3.org/2001/xml-events" xmlns:xlink="http://www.w3.org/1999/xlink"><defs /><image height="256" width="256" xlink:href="/home/nelson/Workspace/building_reconstruction/la_dataset_new/rgb/1525715224.35.jpg" /><line opacity="0.7" stroke="magenta" stroke-width="1" x1="48.0" x2="61.0" y1="114.0" y2="76.0" /><line opacity="0.7" stroke="magenta" stroke-width="1" x1="48.0" x2="169.0" y1="114.0" y2="116.5" /><line opacity="0.7" stroke="magenta" stroke-width="1" x1="48.0" x2="47.0" y1="114.0" y2="121.0" /><line opacity="0.7" stroke="magenta" stroke-width="1" x1="61.0" x2="172.5" y1="76.0" y2="75.0" /><line opacity="0.7" stroke="magenta" stroke-width="1" x1="191.0" x2="169.0" y1="125.5" y2="116.5" /><line opacity="0.7" stroke="magenta" stroke-width="1" x1="191.0" x2="170.0" y1="125.5" y2="176.0" /><line opacity="0.7" stroke="magenta" stroke-width="1" x1="191.0" x2="189.0" y1="125.5" y2="178.0" /><line opacity="0.7" stroke="magenta" stroke-width="1" x1="167.0" x2="149.5" y1="168.0" y2="162.0" /><line opacity="0.7" stroke="magenta" stroke-width="1" x1="167.0" x2="169.0" y1="168.0" y2="116.5" /><line opacity="0.7" stroke="magenta" stroke-width="1" x1="167.0" x2="170.0" y1="168.0" y2="176.0" /><line opacity="0.7" stroke="magenta" stroke-width="1" x1="167.0" x2="153.0" y1="168.0" y2="172.5" /><line opacity="0.7" stroke="magenta" stroke-width="1" x1="167.0" x2="189.0" y1="168.0" y2="178.0" /><line opacity="0.7" stroke="magenta" stroke-width="1" x1="149.5" x2="144.5" y1="162.0" y2="180.0" /><line opacity="0.7" stroke="magenta" stroke-width="1" x1="149.5" x2="153.0" y1="162.0" y2="172.5" /><line opacity="0.7" stroke="magenta" stroke-width="1" x1="169.0" x2="172.5" y1="116.5" y2="75.0" /><line opacity="0.7" stroke="magenta" stroke-width="1" x1="144.5" x2="153.0" y1="180.0" y2="172.5" /><line opacity="0.7" stroke="magenta" stroke-width="1" x1="144.5" x2="189.0" y1="180.0" y2="178.0" /><line opacity="0.7" stroke="magenta" stroke-width="1" x1="172.5" x2="208.5" y1="75.0" y2="77.0" /><line opacity="0.7" stroke="magenta" stroke-width="1" x1="170.0" x2="153.0" y1="176.0" y2="172.5" /><circle cx="48.0" cy="114.0" fill="white" opacity="0.8" r="1.5" stroke="blue" stroke-width="0.8" /><circle cx="149.5" cy="162.0" fill="white" opacity="0.8" r="1.5" stroke="blue" stroke-width="0.8" /><circle cx="167.0" cy="168.0" fill="white" opacity="0.8" r="1.5" stroke="blue" stroke-width="0.8" /><circle cx="191.0" cy="125.5" fill="white" opacity="0.8" r="1.5" stroke="blue" stroke-width="0.8" /><circle cx="153.0" cy="172.5" fill="white" opacity="0.8" r="1.5" stroke="blue" stroke-width="0.8" /><circle cx="47.0" cy="121.0" fill="white" opacity="0.8" r="1.5" stroke="blue" stroke-width="0.8" /><circle cx="61.0" cy="76.0" fill="white" opacity="0.8" r="1.5" stroke="blue" stroke-width="0.8" /><circle cx="189.0" cy="178.0" fill="white" opacity="0.8" r="1.5" stroke="blue" stroke-width="0.8" /><circle cx="208.5" cy="77.0" fill="white" opacity="0.8" r="1.5" stroke="blue" stroke-width="0.8" /><circle cx="170.0" cy="176.0" fill="white" opacity="0.8" r="1.5" stroke="blue" stroke-width="0.8" /><circle cx="169.0" cy="116.5" fill="white" opacity="0.8" r="1.5" stroke="blue" stroke-width="0.8" /><circle cx="172.5" cy="75.0" fill="white" opacity="0.8" r="1.5" stroke="blue" stroke-width="0.8" /><circle cx="144.5" cy="180.0" fill="white" opacity="0.8" r="1.5" stroke="blue" stroke-width="0.8" /></svg>