<?xml version="1.0" encoding="utf-8" ?>
<svg baseProfile="full" height="256" version="1.1" width="256" xmlns="http://www.w3.org/2000/svg" xmlns:ev="http://www.w3.org/2001/xml-events" xmlns:xlink="http://www.w3.org/1999/xlink"><defs /><image height="256" width="256" xlink:href="/home/nelson/Workspace/building_reconstruction/la_dataset_new/rgb/1525712938.28.jpg" /><line opacity="0.7" stroke="magenta" stroke-width="1" x1="130.0" x2="175.0" y1="70.0" y2="95.0" /><line opacity="0.7" stroke="magenta" stroke-width="1" x1="130.0" x2="127.5" y1="70.0" y2="187.5" /><line opacity="0.7" stroke="magenta" stroke-width="1" x1="130.0" x2="93.0" y1="70.0" y2="156.5" /><line opacity="0.7" stroke="magenta" stroke-width="1" x1="175.0" x2="127.5" y1="95.0" y2="187.5" /><line opacity="0.7" stroke="magenta" stroke-width="1" x1="80.0" x2="93.0" y1="163.0" y2="156.5" /><line opacity="0.7" stroke="magenta" stroke-width="1" x1="80.0" x2="93.0" y1="163.0" y2="148.0" /><line opacity="0.7" stroke="magenta" stroke-width="1" x1="80.0" x2="116.0" y1="163.0" y2="188.0" /><line opacity="0.7" stroke="magenta" stroke-width="1" x1="127.5" x2="116.0" y1="187.5" y2="188.0" /><line opacity="0.7" stroke="magenta" stroke-width="1" x1="127.5" x2="115.0" y1="187.5" y2="174.0" /><line opacity="0.7" stroke="magenta" stroke-width="1" x1="93.0" x2="93.0" y1="156.5" y2="148.0" /><line opacity="0.7" stroke="magenta" stroke-width="1" x1="93.0" x2="116.0" y1="156.5" y2="188.0" /><line opacity="0.7" stroke="magenta" stroke-width="1" x1="93.0" x2="115.0" y1="156.5" y2="174.0" /><line opacity="0.7" stroke="magenta" stroke-width="1" x1="116.0" x2="115.0" y1="188.0" y2="174.0" /><circle cx="115.0" cy="174.0" fill="white" opacity="0.8" r="1.5" stroke="blue" stroke-width="0.8" /><circle cx="127.5" cy="187.5" fill="white" opacity="0.8" r="1.5" stroke="blue" stroke-width="0.8" /><circle cx="80.0" cy="163.0" fill="white" opacity="0.8" r="1.5" stroke="blue" stroke-width="0.8" /><circle cx="175.0" cy="95.0" fill="white" opacity="0.8" r="1.5" stroke="blue" stroke-width="0.8" /><circle cx="130.0" cy="70.0" fill="white" opacity="0.8" r="1.5" stroke="blue" stroke-width="0.8" /><circle cx="116.0" cy="188.0" fill="white" opacity="0.8" r="1.5" stroke="blue" stroke-width="0.8" /><circle cx="93.0" cy="148.0" fill="white" opacity="0.8" r="1.5" stroke="blue" stroke-width="0.8" /><circle cx="93.0" cy="156.5" fill="white" opacity="0.8" r="1.5" stroke="blue" stroke-width="0.8" /></svg>