<?xml version="1.0" encoding="utf-8" ?>
<svg baseProfile="full" height="256" version="1.1" width="256" xmlns="http://www.w3.org/2000/svg" xmlns:ev="http://www.w3.org/2001/xml-events" xmlns:xlink="http://www.w3.org/1999/xlink"><defs /><image height="256" width="256" xlink:href="/home/nelson/Workspace/building_reconstruction/la_dataset_new/rgb/1525712557.0.jpg" /><line opacity="0.7" stroke="magenta" stroke-width="1" x1="198.0" x2="176.0" y1="139.5" y2="182.0" /><line opacity="0.7" stroke="magenta" stroke-width="1" x1="198.0" x2="81.0" y1="139.5" y2="75.5" /><line opacity="0.7" stroke="magenta" stroke-width="1" x1="58.0" x2="81.0" y1="115.0" y2="75.5" /><line opacity="0.7" stroke="magenta" stroke-width="1" x1="58.0" x2="160.0" y1="115.0" y2="170.0" /><line opacity="0.7" stroke="magenta" stroke-width="1" x1="58.0" x2="67.5" y1="115.0" y2="135.5" /><line opacity="0.7" stroke="magenta" stroke-width="1" x1="176.0" x2="83.0" y1="182.0" y2="182.0" /><line opacity="0.7" stroke="magenta" stroke-width="1" x1="176.0" x2="160.0" y1="182.0" y2="170.0" /><line opacity="0.7" stroke="magenta" stroke-width="1" x1="176.0" x2="160.0" y1="182.0" y2="178.0" /><line opacity="0.7" stroke="magenta" stroke-width="1" x1="83.0" x2="97.0" y1="182.0" y2="152.0" /><line opacity="0.7" stroke="magenta" stroke-width="1" x1="97.0" x2="67.5" y1="152.0" y2="135.5" /><line opacity="0.7" stroke="magenta" stroke-width="1" x1="160.0" x2="160.0" y1="170.0" y2="178.0" /><circle cx="83.0" cy="182.0" fill="white" opacity="0.8" r="1.5" stroke="blue" stroke-width="0.8" /><circle cx="97.0" cy="152.0" fill="white" opacity="0.8" r="1.5" stroke="blue" stroke-width="0.8" /><circle cx="176.0" cy="182.0" fill="white" opacity="0.8" r="1.5" stroke="blue" stroke-width="0.8" /><circle cx="67.5" cy="135.5" fill="white" opacity="0.8" r="1.5" stroke="blue" stroke-width="0.8" /><circle cx="198.0" cy="139.5" fill="white" opacity="0.8" r="1.5" stroke="blue" stroke-width="0.8" /><circle cx="160.0" cy="170.0" fill="white" opacity="0.8" r="1.5" stroke="blue" stroke-width="0.8" /><circle cx="160.0" cy="178.0" fill="white" opacity="0.8" r="1.5" stroke="blue" stroke-width="0.8" /><circle cx="58.0" cy="115.0" fill="white" opacity="0.8" r="1.5" stroke="blue" stroke-width="0.8" /><circle cx="81.0" cy="75.5" fill="white" opacity="0.8" r="1.5" stroke="blue" stroke-width="0.8" /></svg>