<?xml version="1.0" encoding="utf-8" ?>
<svg baseProfile="full" height="256" version="1.1" width="256" xmlns="http://www.w3.org/2000/svg" xmlns:ev="http://www.w3.org/2001/xml-events" xmlns:xlink="http://www.w3.org/1999/xlink"><defs /><image height="256" width="256" xlink:href="/home/nelson/Workspace/building_reconstruction/la_dataset_new/rgb/1525714922.48.jpg" /><line opacity="0.7" stroke="magenta" stroke-width="1" x1="64.0" x2="63.0" y1="148.0" y2="111.0" /><line opacity="0.7" stroke="magenta" stroke-width="1" x1="64.0" x2="193.0" y1="148.0" y2="147.0" /><line opacity="0.7" stroke="magenta" stroke-width="1" x1="63.0" x2="193.0" y1="111.0" y2="109.0" /><line opacity="0.7" stroke="magenta" stroke-width="1" x1="193.0" x2="193.0" y1="109.0" y2="147.0" /><line opacity="0.7" stroke="magenta" stroke-width="1" x1="193.0" x2="182.0" y1="147.0" y2="147.5" /><line opacity="0.7" stroke="magenta" stroke-width="1" x1="182.0" x2="179.5" y1="147.5" y2="130.5" /><line opacity="0.7" stroke="magenta" stroke-width="1" x1="176.0" x2="179.5" y1="122.0" y2="130.5" /><line opacity="0.7" stroke="magenta" stroke-width="1" x1="193.0" x2="179.5" y1="128.5" y2="130.5" /><line opacity="0.7" stroke="magenta" stroke-width="1" x1="169.0" x2="179.5" y1="132.0" y2="130.5" /><circle cx="182.0" cy="147.5" fill="white" opacity="0.8" r="1.5" stroke="blue" stroke-width="0.8" /><circle cx="179.5" cy="130.5" fill="white" opacity="0.8" r="1.5" stroke="blue" stroke-width="0.8" /><circle cx="63.0" cy="111.0" fill="white" opacity="0.8" r="1.5" stroke="blue" stroke-width="0.8" /><circle cx="193.0" cy="147.0" fill="white" opacity="0.8" r="1.5" stroke="blue" stroke-width="0.8" /><circle cx="193.0" cy="109.0" fill="white" opacity="0.8" r="1.5" stroke="blue" stroke-width="0.8" /><circle cx="193.0" cy="128.5" fill="white" opacity="0.8" r="1.5" stroke="blue" stroke-width="0.8" /><circle cx="169.0" cy="132.0" fill="white" opacity="0.8" r="1.5" stroke="blue" stroke-width="0.8" /><circle cx="176.0" cy="122.0" fill="white" opacity="0.8" r="1.5" stroke="blue" stroke-width="0.8" /><circle cx="64.0" cy="148.0" fill="white" opacity="0.8" r="1.5" stroke="blue" stroke-width="0.8" /></svg>