<?xml version="1.0" encoding="utf-8" ?>
<svg baseProfile="full" height="256" version="1.1" width="256" xmlns="http://www.w3.org/2000/svg" xmlns:ev="http://www.w3.org/2001/xml-events" xmlns:xlink="http://www.w3.org/1999/xlink"><defs /><image height="256" width="256" xlink:href="/home/nelson/Workspace/building_reconstruction/la_dataset_new/rgb/1526359472.89.jpg" /><line opacity="0.7" stroke="magenta" stroke-width="1" x1="191.0" x2="66.0" y1="76.0" y2="76.0" /><line opacity="0.7" stroke="magenta" stroke-width="1" x1="191.0" x2="190.0" y1="76.0" y2="182.0" /><line opacity="0.7" stroke="magenta" stroke-width="1" x1="66.0" x2="65.0" y1="76.0" y2="118.0" /><line opacity="0.7" stroke="magenta" stroke-width="1" x1="66.0" x2="114.0" y1="181.5" y2="183.0" /><line opacity="0.7" stroke="magenta" stroke-width="1" x1="66.0" x2="65.0" y1="181.5" y2="140.0" /><line opacity="0.7" stroke="magenta" stroke-width="1" x1="145.0" x2="144.0" y1="123.0" y2="182.0" /><line opacity="0.7" stroke="magenta" stroke-width="1" x1="145.0" x2="111.0" y1="123.0" y2="123.0" /><line opacity="0.7" stroke="magenta" stroke-width="1" x1="190.0" x2="144.0" y1="182.0" y2="182.0" /><line opacity="0.7" stroke="magenta" stroke-width="1" x1="144.0" x2="114.0" y1="182.0" y2="183.0" /><line opacity="0.7" stroke="magenta" stroke-width="1" x1="114.0" x2="111.0" y1="183.0" y2="123.0" /><line opacity="0.7" stroke="magenta" stroke-width="1" x1="83.0" x2="83.0" y1="108.0" y2="118.5" /><line opacity="0.7" stroke="magenta" stroke-width="1" x1="83.0" x2="101.5" y1="108.0" y2="108.5" /><line opacity="0.7" stroke="magenta" stroke-width="1" x1="83.0" x2="78.5" y1="108.0" y2="101.0" /><line opacity="0.7" stroke="magenta" stroke-width="1" x1="83.0" x2="73.0" y1="118.5" y2="120.0" /><line opacity="0.7" stroke="magenta" stroke-width="1" x1="65.0" x2="65.0" y1="140.0" y2="118.0" /><line opacity="0.7" stroke="magenta" stroke-width="1" x1="73.0" x2="78.5" y1="120.0" y2="101.0" /><line opacity="0.7" stroke="magenta" stroke-width="1" x1="73.0" x2="65.0" y1="120.0" y2="118.0" /><circle cx="65.0" cy="118.0" fill="white" opacity="0.8" r="1.5" stroke="blue" stroke-width="0.8" /><circle cx="66.0" cy="76.0" fill="white" opacity="0.8" r="1.5" stroke="blue" stroke-width="0.8" /><circle cx="114.0" cy="183.0" fill="white" opacity="0.8" r="1.5" stroke="blue" stroke-width="0.8" /><circle cx="145.0" cy="123.0" fill="white" opacity="0.8" r="1.5" stroke="blue" stroke-width="0.8" /><circle cx="66.0" cy="181.5" fill="white" opacity="0.8" r="1.5" stroke="blue" stroke-width="0.8" /><circle cx="191.0" cy="76.0" fill="white" opacity="0.8" r="1.5" stroke="blue" stroke-width="0.8" /><circle cx="73.0" cy="120.0" fill="white" opacity="0.8" r="1.5" stroke="blue" stroke-width="0.8" /><circle cx="78.5" cy="101.0" fill="white" opacity="0.8" r="1.5" stroke="blue" stroke-width="0.8" /><circle cx="101.5" cy="108.5" fill="white" opacity="0.8" r="1.5" stroke="blue" stroke-width="0.8" /><circle cx="190.0" cy="182.0" fill="white" opacity="0.8" r="1.5" stroke="blue" stroke-width="0.8" /><circle cx="111.0" cy="123.0" fill="white" opacity="0.8" r="1.5" stroke="blue" stroke-width="0.8" /><circle cx="144.0" cy="182.0" fill="white" opacity="0.8" r="1.5" stroke="blue" stroke-width="0.8" /><circle cx="83.0" cy="118.5" fill="white" opacity="0.8" r="1.5" stroke="blue" stroke-width="0.8" /><circle cx="65.0" cy="140.0" fill="white" opacity="0.8" r="1.5" stroke="blue" stroke-width="0.8" /><circle cx="83.0" cy="108.0" fill="white" opacity="0.8" r="1.5" stroke="blue" stroke-width="0.8" /></svg>