<?xml version="1.0" encoding="utf-8" ?>
<svg baseProfile="full" height="256" version="1.1" width="256" xmlns="http://www.w3.org/2000/svg" xmlns:ev="http://www.w3.org/2001/xml-events" xmlns:xlink="http://www.w3.org/1999/xlink"><defs /><image height="256" width="256" xlink:href="/home/nelson/Workspace/building_reconstruction/la_dataset_new/rgb/1526359742.12.jpg" /><line opacity="0.7" stroke="magenta" stroke-width="1" x1="18.5" x2="14.5" y1="183.0" y2="72.5" /><line opacity="0.7" stroke="magenta" stroke-width="1" x1="18.5" x2="60.0" y1="183.0" y2="183.0" /><line opacity="0.7" stroke="magenta" stroke-width="1" x1="243.0" x2="240.0" y1="76.0" y2="150.0" /><line opacity="0.7" stroke="magenta" stroke-width="1" x1="243.0" x2="232.0" y1="76.0" y2="77.5" /><line opacity="0.7" stroke="magenta" stroke-width="1" x1="53.0" x2="125.5" y1="155.0" y2="156.0" /><line opacity="0.7" stroke="magenta" stroke-width="1" x1="14.5" x2="218.0" y1="72.5" y2="77.0" /><line opacity="0.7" stroke="magenta" stroke-width="1" x1="214.5" x2="121.5" y1="129.5" y2="132.5" /><line opacity="0.7" stroke="magenta" stroke-width="1" x1="214.5" x2="218.0" y1="129.5" y2="77.0" /><line opacity="0.7" stroke="magenta" stroke-width="1" x1="129.0" x2="60.0" y1="182.0" y2="183.0" /><line opacity="0.7" stroke="magenta" stroke-width="1" x1="232.0" x2="240.0" y1="172.5" y2="150.0" /><line opacity="0.7" stroke="magenta" stroke-width="1" x1="232.0" x2="232.0" y1="172.5" y2="77.5" /><line opacity="0.7" stroke="magenta" stroke-width="1" x1="218.0" x2="232.0" y1="77.0" y2="77.5" /><circle cx="214.5" cy="129.5" fill="white" opacity="0.8" r="1.5" stroke="blue" stroke-width="0.8" /><circle cx="232.0" cy="172.5" fill="white" opacity="0.8" r="1.5" stroke="blue" stroke-width="0.8" /><circle cx="60.0" cy="183.0" fill="white" opacity="0.8" r="1.5" stroke="blue" stroke-width="0.8" /><circle cx="14.5" cy="72.5" fill="white" opacity="0.8" r="1.5" stroke="blue" stroke-width="0.8" /><circle cx="218.0" cy="77.0" fill="white" opacity="0.8" r="1.5" stroke="blue" stroke-width="0.8" /><circle cx="53.0" cy="155.0" fill="white" opacity="0.8" r="1.5" stroke="blue" stroke-width="0.8" /><circle cx="232.0" cy="77.5" fill="white" opacity="0.8" r="1.5" stroke="blue" stroke-width="0.8" /><circle cx="240.0" cy="150.0" fill="white" opacity="0.8" r="1.5" stroke="blue" stroke-width="0.8" /><circle cx="121.5" cy="132.5" fill="white" opacity="0.8" r="1.5" stroke="blue" stroke-width="0.8" /><circle cx="125.5" cy="156.0" fill="white" opacity="0.8" r="1.5" stroke="blue" stroke-width="0.8" /><circle cx="18.5" cy="183.0" fill="white" opacity="0.8" r="1.5" stroke="blue" stroke-width="0.8" /><circle cx="129.0" cy="182.0" fill="white" opacity="0.8" r="1.5" stroke="blue" stroke-width="0.8" /><circle cx="243.0" cy="76.0" fill="white" opacity="0.8" r="1.5" stroke="blue" stroke-width="0.8" /></svg>