<?xml version="1.0" encoding="utf-8" ?>
<svg baseProfile="full" height="256" version="1.1" width="256" xmlns="http://www.w3.org/2000/svg" xmlns:ev="http://www.w3.org/2001/xml-events" xmlns:xlink="http://www.w3.org/1999/xlink"><defs /><image height="256" width="256" xlink:href="/home/nelson/Workspace/building_reconstruction/la_dataset_new/rgb/1526358996.39.jpg" /><line opacity="0.7" stroke="magenta" stroke-width="1" x1="23.0" x2="112.0" y1="76.0" y2="76.0" /><line opacity="0.7" stroke="magenta" stroke-width="1" x1="23.0" x2="17.5" y1="76.0" y2="155.0" /><line opacity="0.7" stroke="magenta" stroke-width="1" x1="23.0" x2="24.0" y1="76.0" y2="150.0" /><line opacity="0.7" stroke="magenta" stroke-width="1" x1="20.5" x2="17.5" y1="182.0" y2="155.0" /><line opacity="0.7" stroke="magenta" stroke-width="1" x1="20.5" x2="237.0" y1="182.0" y2="182.0" /><line opacity="0.7" stroke="magenta" stroke-width="1" x1="20.5" x2="24.0" y1="182.0" y2="150.0" /><line opacity="0.7" stroke="magenta" stroke-width="1" x1="112.0" x2="243.0" y1="76.0" y2="74.5" /><line opacity="0.7" stroke="magenta" stroke-width="1" x1="53.5" x2="212.5" y1="134.0" y2="134.0" /><line opacity="0.7" stroke="magenta" stroke-width="1" x1="53.5" x2="48.0" y1="134.0" y2="99.0" /><line opacity="0.7" stroke="magenta" stroke-width="1" x1="243.0" x2="240.5" y1="74.5" y2="98.5" /><line opacity="0.7" stroke="magenta" stroke-width="1" x1="17.5" x2="34.0" y1="155.0" y2="156.0" /><line opacity="0.7" stroke="magenta" stroke-width="1" x1="158.0" x2="114.0" y1="100.0" y2="97.0" /><line opacity="0.7" stroke="magenta" stroke-width="1" x1="158.0" x2="240.5" y1="100.0" y2="98.5" /><line opacity="0.7" stroke="magenta" stroke-width="1" x1="212.5" x2="213.0" y1="134.0" y2="126.0" /><line opacity="0.7" stroke="magenta" stroke-width="1" x1="235.0" x2="237.0" y1="126.0" y2="182.0" /><line opacity="0.7" stroke="magenta" stroke-width="1" x1="235.0" x2="213.0" y1="126.0" y2="126.0" /><line opacity="0.7" stroke="magenta" stroke-width="1" x1="235.0" x2="240.5" y1="126.0" y2="98.5" /><line opacity="0.7" stroke="magenta" stroke-width="1" x1="48.0" x2="91.0" y1="99.0" y2="101.5" /><line opacity="0.7" stroke="magenta" stroke-width="1" x1="237.0" x2="240.5" y1="182.0" y2="98.5" /><line opacity="0.7" stroke="magenta" stroke-width="1" x1="114.0" x2="115.5" y1="97.0" y2="106.5" /><circle cx="34.0" cy="156.0" fill="white" opacity="0.8" r="1.5" stroke="blue" stroke-width="0.8" /><circle cx="114.0" cy="97.0" fill="white" opacity="0.8" r="1.5" stroke="blue" stroke-width="0.8" /><circle cx="23.0" cy="76.0" fill="white" opacity="0.8" r="1.5" stroke="blue" stroke-width="0.8" /><circle cx="243.0" cy="74.5" fill="white" opacity="0.8" r="1.5" stroke="blue" stroke-width="0.8" /><circle cx="235.0" cy="126.0" fill="white" opacity="0.8" r="1.5" stroke="blue" stroke-width="0.8" /><circle cx="24.0" cy="150.0" fill="white" opacity="0.8" r="1.5" stroke="blue" stroke-width="0.8" /><circle cx="48.0" cy="99.0" fill="white" opacity="0.8" r="1.5" stroke="blue" stroke-width="0.8" /><circle cx="158.0" cy="100.0" fill="white" opacity="0.8" r="1.5" stroke="blue" stroke-width="0.8" /><circle cx="115.5" cy="106.5" fill="white" opacity="0.8" r="1.5" stroke="blue" stroke-width="0.8" /><circle cx="212.5" cy="134.0" fill="white" opacity="0.8" r="1.5" stroke="blue" stroke-width="0.8" /><circle cx="91.0" cy="101.5" fill="white" opacity="0.8" r="1.5" stroke="blue" stroke-width="0.8" /><circle cx="237.0" cy="182.0" fill="white" opacity="0.8" r="1.5" stroke="blue" stroke-width="0.8" /><circle cx="20.5" cy="182.0" fill="white" opacity="0.8" r="1.5" stroke="blue" stroke-width="0.8" /><circle cx="53.5" cy="134.0" fill="white" opacity="0.8" r="1.5" stroke="blue" stroke-width="0.8" /><circle cx="17.5" cy="155.0" fill="white" opacity="0.8" r="1.5" stroke="blue" stroke-width="0.8" /><circle cx="112.0" cy="76.0" fill="white" opacity="0.8" r="1.5" stroke="blue" stroke-width="0.8" /><circle cx="240.5" cy="98.5" fill="white" opacity="0.8" r="1.5" stroke="blue" stroke-width="0.8" /><circle cx="213.0" cy="126.0" fill="white" opacity="0.8" r="1.5" stroke="blue" stroke-width="0.8" /></svg>