<?xml version="1.0" encoding="utf-8" ?>
<svg baseProfile="full" height="256" version="1.1" width="256" xmlns="http://www.w3.org/2000/svg" xmlns:ev="http://www.w3.org/2001/xml-events" xmlns:xlink="http://www.w3.org/1999/xlink"><defs /><image height="256" width="256" xlink:href="/home/nelson/Workspace/building_reconstruction/la_dataset_new/rgb/1526320173.68.jpg" /><line opacity="0.7" stroke="magenta" stroke-width="1" x1="188.0" x2="188.0" y1="96.0" y2="158.0" /><line opacity="0.7" stroke="magenta" stroke-width="1" x1="188.0" x2="99.5" y1="96.0" y2="98.0" /><line opacity="0.7" stroke="magenta" stroke-width="1" x1="68.0" x2="188.0" y1="159.0" y2="158.0" /><line opacity="0.7" stroke="magenta" stroke-width="1" x1="68.0" x2="68.0" y1="159.0" y2="98.0" /><line opacity="0.7" stroke="magenta" stroke-width="1" x1="159.0" x2="93.0" y1="143.0" y2="145.0" /><line opacity="0.7" stroke="magenta" stroke-width="1" x1="159.0" x2="162.0" y1="143.0" y2="159.5" /><line opacity="0.7" stroke="magenta" stroke-width="1" x1="159.0" x2="160.0" y1="143.0" y2="115.0" /><line opacity="0.7" stroke="magenta" stroke-width="1" x1="93.0" x2="92.5" y1="160.0" y2="152.5" /><line opacity="0.7" stroke="magenta" stroke-width="1" x1="68.0" x2="99.5" y1="98.0" y2="98.0" /><line opacity="0.7" stroke="magenta" stroke-width="1" x1="93.0" x2="92.5" y1="145.0" y2="152.5" /><line opacity="0.7" stroke="magenta" stroke-width="1" x1="100.0" x2="99.5" y1="109.0" y2="98.0" /><line opacity="0.7" stroke="magenta" stroke-width="1" x1="100.0" x2="150.5" y1="109.0" y2="112.0" /><line opacity="0.7" stroke="magenta" stroke-width="1" x1="149.5" x2="156.5" y1="128.0" y2="122.0" /><line opacity="0.7" stroke="magenta" stroke-width="1" x1="149.5" x2="150.0" y1="128.0" y2="121.0" /><line opacity="0.7" stroke="magenta" stroke-width="1" x1="160.5" x2="160.0" y1="102.0" y2="115.0" /><line opacity="0.7" stroke="magenta" stroke-width="1" x1="160.5" x2="150.5" y1="102.0" y2="112.0" /><line opacity="0.7" stroke="magenta" stroke-width="1" x1="160.0" x2="150.5" y1="115.0" y2="112.0" /><line opacity="0.7" stroke="magenta" stroke-width="1" x1="160.0" x2="156.5" y1="115.0" y2="122.0" /><line opacity="0.7" stroke="magenta" stroke-width="1" x1="150.5" x2="156.5" y1="112.0" y2="122.0" /><line opacity="0.7" stroke="magenta" stroke-width="1" x1="150.5" x2="150.0" y1="112.0" y2="121.0" /><line opacity="0.7" stroke="magenta" stroke-width="1" x1="156.5" x2="150.0" y1="122.0" y2="121.0" /><circle cx="92.5" cy="152.5" fill="white" opacity="0.8" r="1.5" stroke="blue" stroke-width="0.8" /><circle cx="188.0" cy="158.0" fill="white" opacity="0.8" r="1.5" stroke="blue" stroke-width="0.8" /><circle cx="93.0" cy="160.0" fill="white" opacity="0.8" r="1.5" stroke="blue" stroke-width="0.8" /><circle cx="156.5" cy="122.0" fill="white" opacity="0.8" r="1.5" stroke="blue" stroke-width="0.8" /><circle cx="162.0" cy="159.5" fill="white" opacity="0.8" r="1.5" stroke="blue" stroke-width="0.8" /><circle cx="149.5" cy="128.0" fill="white" opacity="0.8" r="1.5" stroke="blue" stroke-width="0.8" /><circle cx="150.5" cy="112.0" fill="white" opacity="0.8" r="1.5" stroke="blue" stroke-width="0.8" /><circle cx="68.0" cy="159.0" fill="white" opacity="0.8" r="1.5" stroke="blue" stroke-width="0.8" /><circle cx="188.0" cy="96.0" fill="white" opacity="0.8" r="1.5" stroke="blue" stroke-width="0.8" /><circle cx="150.0" cy="121.0" fill="white" opacity="0.8" r="1.5" stroke="blue" stroke-width="0.8" /><circle cx="68.0" cy="98.0" fill="white" opacity="0.8" r="1.5" stroke="blue" stroke-width="0.8" /><circle cx="160.5" cy="102.0" fill="white" opacity="0.8" r="1.5" stroke="blue" stroke-width="0.8" /><circle cx="99.5" cy="98.0" fill="white" opacity="0.8" r="1.5" stroke="blue" stroke-width="0.8" /><circle cx="159.0" cy="143.0" fill="white" opacity="0.8" r="1.5" stroke="blue" stroke-width="0.8" /><circle cx="160.0" cy="115.0" fill="white" opacity="0.8" r="1.5" stroke="blue" stroke-width="0.8" /><circle cx="100.0" cy="109.0" fill="white" opacity="0.8" r="1.5" stroke="blue" stroke-width="0.8" /><circle cx="93.0" cy="145.0" fill="white" opacity="0.8" r="1.5" stroke="blue" stroke-width="0.8" /></svg>