<?xml version="1.0" encoding="utf-8" ?>
<svg baseProfile="full" height="256" version="1.1" width="256" xmlns="http://www.w3.org/2000/svg" xmlns:ev="http://www.w3.org/2001/xml-events" xmlns:xlink="http://www.w3.org/1999/xlink"><defs /><image height="256" width="256" xlink:href="/home/nelson/Workspace/building_reconstruction/la_dataset_new/rgb/1526404403.8.jpg" /><line opacity="0.7" stroke="magenta" stroke-width="1" x1="62.5" x2="20.0" y1="44.0" y2="119.5" /><line opacity="0.7" stroke="magenta" stroke-width="1" x1="62.5" x2="121.0" y1="44.0" y2="163.5" /><line opacity="0.7" stroke="magenta" stroke-width="1" x1="62.5" x2="137.5" y1="44.0" y2="138.5" /><line opacity="0.7" stroke="magenta" stroke-width="1" x1="62.5" x2="164.5" y1="44.0" y2="151.5" /><line opacity="0.7" stroke="magenta" stroke-width="1" x1="62.5" x2="180.0" y1="44.0" y2="100.5" /><line opacity="0.7" stroke="magenta" stroke-width="1" x1="62.5" x2="235.0" y1="44.0" y2="130.0" /><line opacity="0.7" stroke="magenta" stroke-width="1" x1="62.5" x2="177.0" y1="44.0" y2="112.5" /><line opacity="0.7" stroke="magenta" stroke-width="1" x1="62.5" x2="237.5" y1="44.0" y2="121.0" /><line opacity="0.7" stroke="magenta" stroke-width="1" x1="62.5" x2="176.0" y1="44.0" y2="187.5" /><line opacity="0.7" stroke="magenta" stroke-width="1" x1="62.5" x2="114.5" y1="44.0" y2="77.5" /><line opacity="0.7" stroke="magenta" stroke-width="1" x1="62.5" x2="37.5" y1="44.0" y2="211.0" /><line opacity="0.7" stroke="magenta" stroke-width="1" x1="20.0" x2="121.0" y1="119.5" y2="163.5" /><line opacity="0.7" stroke="magenta" stroke-width="1" x1="20.0" x2="137.5" y1="119.5" y2="138.5" /><line opacity="0.7" stroke="magenta" stroke-width="1" x1="20.0" x2="173.5" y1="119.5" y2="135.0" /><line opacity="0.7" stroke="magenta" stroke-width="1" x1="20.0" x2="164.5" y1="119.5" y2="151.5" /><line opacity="0.7" stroke="magenta" stroke-width="1" x1="20.0" x2="180.0" y1="119.5" y2="100.5" /><line opacity="0.7" stroke="magenta" stroke-width="1" x1="20.0" x2="235.0" y1="119.5" y2="130.0" /><line opacity="0.7" stroke="magenta" stroke-width="1" x1="20.0" x2="168.5" y1="119.5" y2="125.0" /><line opacity="0.7" stroke="magenta" stroke-width="1" x1="20.0" x2="177.0" y1="119.5" y2="112.5" /><line opacity="0.7" stroke="magenta" stroke-width="1" x1="20.0" x2="237.5" y1="119.5" y2="121.0" /><line opacity="0.7" stroke="magenta" stroke-width="1" x1="20.0" x2="176.0" y1="119.5" y2="187.5" /><line opacity="0.7" stroke="magenta" stroke-width="1" x1="20.0" x2="114.5" y1="119.5" y2="77.5" /><line opacity="0.7" stroke="magenta" stroke-width="1" x1="20.0" x2="37.5" y1="119.5" y2="211.0" /><line opacity="0.7" stroke="magenta" stroke-width="1" x1="121.0" x2="137.5" y1="163.5" y2="138.5" /><line opacity="0.7" stroke="magenta" stroke-width="1" x1="121.0" x2="173.5" y1="163.5" y2="135.0" /><line opacity="0.7" stroke="magenta" stroke-width="1" x1="121.0" x2="164.5" y1="163.5" y2="151.5" /><line opacity="0.7" stroke="magenta" stroke-width="1" x1="121.0" x2="180.0" y1="163.5" y2="100.5" /><line opacity="0.7" stroke="magenta" stroke-width="1" x1="121.0" x2="168.5" y1="163.5" y2="125.0" /><line opacity="0.7" stroke="magenta" stroke-width="1" x1="121.0" x2="177.0" y1="163.5" y2="112.5" /><line opacity="0.7" stroke="magenta" stroke-width="1" x1="121.0" x2="176.0" y1="163.5" y2="187.5" /><line opacity="0.7" stroke="magenta" stroke-width="1" x1="121.0" x2="114.5" y1="163.5" y2="77.5" /><line opacity="0.7" stroke="magenta" stroke-width="1" x1="137.5" x2="173.5" y1="138.5" y2="135.0" /><line opacity="0.7" stroke="magenta" stroke-width="1" x1="137.5" x2="164.5" y1="138.5" y2="151.5" /><line opacity="0.7" stroke="magenta" stroke-width="1" x1="137.5" x2="180.0" y1="138.5" y2="100.5" /><line opacity="0.7" stroke="magenta" stroke-width="1" x1="137.5" x2="235.0" y1="138.5" y2="130.0" /><line opacity="0.7" stroke="magenta" stroke-width="1" x1="137.5" x2="168.5" y1="138.5" y2="125.0" /><line opacity="0.7" stroke="magenta" stroke-width="1" x1="137.5" x2="177.0" y1="138.5" y2="112.5" /><line opacity="0.7" stroke="magenta" stroke-width="1" x1="137.5" x2="237.5" y1="138.5" y2="121.0" /><line opacity="0.7" stroke="magenta" stroke-width="1" x1="137.5" x2="176.0" y1="138.5" y2="187.5" /><line opacity="0.7" stroke="magenta" stroke-width="1" x1="137.5" x2="114.5" y1="138.5" y2="77.5" /><line opacity="0.7" stroke="magenta" stroke-width="1" x1="173.5" x2="164.5" y1="135.0" y2="151.5" /><line opacity="0.7" stroke="magenta" stroke-width="1" x1="173.5" x2="180.0" y1="135.0" y2="100.5" /><line opacity="0.7" stroke="magenta" stroke-width="1" x1="173.5" x2="235.0" y1="135.0" y2="130.0" /><line opacity="0.7" stroke="magenta" stroke-width="1" x1="173.5" x2="168.5" y1="135.0" y2="125.0" /><line opacity="0.7" stroke="magenta" stroke-width="1" x1="173.5" x2="177.0" y1="135.0" y2="112.5" /><line opacity="0.7" stroke="magenta" stroke-width="1" x1="173.5" x2="237.5" y1="135.0" y2="121.0" /><line opacity="0.7" stroke="magenta" stroke-width="1" x1="173.5" x2="176.0" y1="135.0" y2="187.5" /><line opacity="0.7" stroke="magenta" stroke-width="1" x1="173.5" x2="114.5" y1="135.0" y2="77.5" /><line opacity="0.7" stroke="magenta" stroke-width="1" x1="164.5" x2="180.0" y1="151.5" y2="100.5" /><line opacity="0.7" stroke="magenta" stroke-width="1" x1="164.5" x2="235.0" y1="151.5" y2="130.0" /><line opacity="0.7" stroke="magenta" stroke-width="1" x1="164.5" x2="168.5" y1="151.5" y2="125.0" /><line opacity="0.7" stroke="magenta" stroke-width="1" x1="164.5" x2="177.0" y1="151.5" y2="112.5" /><line opacity="0.7" stroke="magenta" stroke-width="1" x1="164.5" x2="237.5" y1="151.5" y2="121.0" /><line opacity="0.7" stroke="magenta" stroke-width="1" x1="164.5" x2="176.0" y1="151.5" y2="187.5" /><line opacity="0.7" stroke="magenta" stroke-width="1" x1="164.5" x2="114.5" y1="151.5" y2="77.5" /><line opacity="0.7" stroke="magenta" stroke-width="1" x1="180.0" x2="235.0" y1="100.5" y2="130.0" /><line opacity="0.7" stroke="magenta" stroke-width="1" x1="180.0" x2="168.5" y1="100.5" y2="125.0" /><line opacity="0.7" stroke="magenta" stroke-width="1" x1="180.0" x2="177.0" y1="100.5" y2="112.5" /><line opacity="0.7" stroke="magenta" stroke-width="1" x1="180.0" x2="237.5" y1="100.5" y2="121.0" /><line opacity="0.7" stroke="magenta" stroke-width="1" x1="180.0" x2="176.0" y1="100.5" y2="187.5" /><line opacity="0.7" stroke="magenta" stroke-width="1" x1="180.0" x2="114.5" y1="100.5" y2="77.5" /><line opacity="0.7" stroke="magenta" stroke-width="1" x1="235.0" x2="168.5" y1="130.0" y2="125.0" /><line opacity="0.7" stroke="magenta" stroke-width="1" x1="235.0" x2="177.0" y1="130.0" y2="112.5" /><line opacity="0.7" stroke="magenta" stroke-width="1" x1="235.0" x2="176.0" y1="130.0" y2="187.5" /><line opacity="0.7" stroke="magenta" stroke-width="1" x1="235.0" x2="114.5" y1="130.0" y2="77.5" /><line opacity="0.7" stroke="magenta" stroke-width="1" x1="168.5" x2="177.0" y1="125.0" y2="112.5" /><line opacity="0.7" stroke="magenta" stroke-width="1" x1="168.5" x2="237.5" y1="125.0" y2="121.0" /><line opacity="0.7" stroke="magenta" stroke-width="1" x1="168.5" x2="176.0" y1="125.0" y2="187.5" /><line opacity="0.7" stroke="magenta" stroke-width="1" x1="168.5" x2="114.5" y1="125.0" y2="77.5" /><line opacity="0.7" stroke="magenta" stroke-width="1" x1="177.0" x2="237.5" y1="112.5" y2="121.0" /><line opacity="0.7" stroke="magenta" stroke-width="1" x1="177.0" x2="114.5" y1="112.5" y2="77.5" /><line opacity="0.7" stroke="magenta" stroke-width="1" x1="237.5" x2="176.0" y1="121.0" y2="187.5" /><line opacity="0.7" stroke="magenta" stroke-width="1" x1="176.0" x2="37.5" y1="187.5" y2="211.0" /><line opacity="0.7" stroke="magenta" stroke-width="1" x1="114.5" x2="37.5" y1="77.5" y2="211.0" /><circle cx="176.0" cy="187.5" fill="white" opacity="0.8" r="1.5" stroke="blue" stroke-width="0.8" /><circle cx="37.5" cy="211.0" fill="white" opacity="0.8" r="1.5" stroke="blue" stroke-width="0.8" /><circle cx="20.0" cy="119.5" fill="white" opacity="0.8" r="1.5" stroke="blue" stroke-width="0.8" /><circle cx="173.5" cy="135.0" fill="white" opacity="0.8" r="1.5" stroke="blue" stroke-width="0.8" /><circle cx="237.5" cy="121.0" fill="white" opacity="0.8" r="1.5" stroke="blue" stroke-width="0.8" /><circle cx="121.0" cy="163.5" fill="white" opacity="0.8" r="1.5" stroke="blue" stroke-width="0.8" /><circle cx="62.5" cy="44.0" fill="white" opacity="0.8" r="1.5" stroke="blue" stroke-width="0.8" /><circle cx="235.0" cy="130.0" fill="white" opacity="0.8" r="1.5" stroke="blue" stroke-width="0.8" /><circle cx="180.0" cy="100.5" fill="white" opacity="0.8" r="1.5" stroke="blue" stroke-width="0.8" /><circle cx="164.5" cy="151.5" fill="white" opacity="0.8" r="1.5" stroke="blue" stroke-width="0.8" /><circle cx="114.5" cy="77.5" fill="white" opacity="0.8" r="1.5" stroke="blue" stroke-width="0.8" /><circle cx="177.0" cy="112.5" fill="white" opacity="0.8" r="1.5" stroke="blue" stroke-width="0.8" /><circle cx="168.5" cy="125.0" fill="white" opacity="0.8" r="1.5" stroke="blue" stroke-width="0.8" /><circle cx="137.5" cy="138.5" fill="white" opacity="0.8" r="1.5" stroke="blue" stroke-width="0.8" /></svg>