<?xml version="1.0" encoding="utf-8" ?>
<svg baseProfile="full" height="256" version="1.1" width="256" xmlns="http://www.w3.org/2000/svg" xmlns:ev="http://www.w3.org/2001/xml-events" xmlns:xlink="http://www.w3.org/1999/xlink"><defs /><image height="256" width="256" xlink:href="/home/nelson/Workspace/building_reconstruction/la_dataset_new/rgb/1526402552.42.jpg" /><line opacity="0.7" stroke="magenta" stroke-width="1" x1="66.0" x2="67.0" y1="93.0" y2="165.0" /><line opacity="0.7" stroke="magenta" stroke-width="1" x1="66.0" x2="120.0" y1="93.0" y2="113.0" /><line opacity="0.7" stroke="magenta" stroke-width="1" x1="66.0" x2="189.0" y1="93.0" y2="98.0" /><line opacity="0.7" stroke="magenta" stroke-width="1" x1="66.0" x2="92.0" y1="93.0" y2="93.0" /><line opacity="0.7" stroke="magenta" stroke-width="1" x1="66.0" x2="166.0" y1="93.0" y2="91.0" /><line opacity="0.7" stroke="magenta" stroke-width="1" x1="66.0" x2="79.0" y1="93.0" y2="150.0" /><line opacity="0.7" stroke="magenta" stroke-width="1" x1="66.0" x2="92.0" y1="93.0" y2="129.0" /><line opacity="0.7" stroke="magenta" stroke-width="1" x1="66.0" x2="79.0" y1="93.0" y2="112.0" /><line opacity="0.7" stroke="magenta" stroke-width="1" x1="66.0" x2="89.0" y1="93.0" y2="112.0" /><line opacity="0.7" stroke="magenta" stroke-width="1" x1="66.0" x2="101.0" y1="93.0" y2="154.0" /><line opacity="0.7" stroke="magenta" stroke-width="1" x1="66.0" x2="142.0" y1="93.0" y2="163.5" /><line opacity="0.7" stroke="magenta" stroke-width="1" x1="66.0" x2="89.0" y1="93.0" y2="157.5" /><line opacity="0.7" stroke="magenta" stroke-width="1" x1="66.0" x2="85.5" y1="93.0" y2="134.0" /><line opacity="0.7" stroke="magenta" stroke-width="1" x1="66.0" x2="151.5" y1="93.0" y2="92.5" /><line opacity="0.7" stroke="magenta" stroke-width="1" x1="66.0" x2="164.5" y1="93.0" y2="97.0" /><line opacity="0.7" stroke="magenta" stroke-width="1" x1="66.0" x2="83.5" y1="93.0" y2="100.5" /><line opacity="0.7" stroke="magenta" stroke-width="1" x1="67.0" x2="120.0" y1="165.0" y2="113.0" /><line opacity="0.7" stroke="magenta" stroke-width="1" x1="67.0" x2="189.0" y1="165.0" y2="98.0" /><line opacity="0.7" stroke="magenta" stroke-width="1" x1="67.0" x2="92.0" y1="165.0" y2="93.0" /><line opacity="0.7" stroke="magenta" stroke-width="1" x1="67.0" x2="167.0" y1="165.0" y2="118.0" /><line opacity="0.7" stroke="magenta" stroke-width="1" x1="67.0" x2="146.0" y1="165.0" y2="110.5" /><line opacity="0.7" stroke="magenta" stroke-width="1" x1="67.0" x2="92.0" y1="165.0" y2="129.0" /><line opacity="0.7" stroke="magenta" stroke-width="1" x1="67.0" x2="79.0" y1="165.0" y2="112.0" /><line opacity="0.7" stroke="magenta" stroke-width="1" x1="67.0" x2="161.0" y1="165.0" y2="106.0" /><line opacity="0.7" stroke="magenta" stroke-width="1" x1="67.0" x2="89.0" y1="165.0" y2="112.0" /><line opacity="0.7" stroke="magenta" stroke-width="1" x1="67.0" x2="101.0" y1="165.0" y2="154.0" /><line opacity="0.7" stroke="magenta" stroke-width="1" x1="67.0" x2="89.0" y1="165.0" y2="157.5" /><line opacity="0.7" stroke="magenta" stroke-width="1" x1="67.0" x2="85.5" y1="165.0" y2="134.0" /><line opacity="0.7" stroke="magenta" stroke-width="1" x1="67.0" x2="151.5" y1="165.0" y2="92.5" /><line opacity="0.7" stroke="magenta" stroke-width="1" x1="67.0" x2="164.5" y1="165.0" y2="97.0" /><line opacity="0.7" stroke="magenta" stroke-width="1" x1="67.0" x2="167.0" y1="165.0" y2="115.0" /><line opacity="0.7" stroke="magenta" stroke-width="1" x1="67.0" x2="83.5" y1="165.0" y2="100.5" /><line opacity="0.7" stroke="magenta" stroke-width="1" x1="120.0" x2="189.0" y1="113.0" y2="98.0" /><line opacity="0.7" stroke="magenta" stroke-width="1" x1="120.0" x2="170.0" y1="113.0" y2="146.0" /><line opacity="0.7" stroke="magenta" stroke-width="1" x1="120.0" x2="187.0" y1="113.0" y2="118.0" /><line opacity="0.7" stroke="magenta" stroke-width="1" x1="120.0" x2="92.0" y1="113.0" y2="93.0" /><line opacity="0.7" stroke="magenta" stroke-width="1" x1="120.0" x2="166.0" y1="113.0" y2="91.0" /><line opacity="0.7" stroke="magenta" stroke-width="1" x1="120.0" x2="142.5" y1="113.0" y2="150.0" /><line opacity="0.7" stroke="magenta" stroke-width="1" x1="120.0" x2="146.0" y1="113.0" y2="110.5" /><line opacity="0.7" stroke="magenta" stroke-width="1" x1="120.0" x2="79.0" y1="113.0" y2="150.0" /><line opacity="0.7" stroke="magenta" stroke-width="1" x1="120.0" x2="92.0" y1="113.0" y2="129.0" /><line opacity="0.7" stroke="magenta" stroke-width="1" x1="120.0" x2="161.0" y1="113.0" y2="106.0" /><line opacity="0.7" stroke="magenta" stroke-width="1" x1="120.0" x2="89.0" y1="113.0" y2="112.0" /><line opacity="0.7" stroke="magenta" stroke-width="1" x1="120.0" x2="101.0" y1="113.0" y2="154.0" /><line opacity="0.7" stroke="magenta" stroke-width="1" x1="120.0" x2="170.0" y1="113.0" y2="158.5" /><line opacity="0.7" stroke="magenta" stroke-width="1" x1="120.0" x2="142.0" y1="113.0" y2="163.5" /><line opacity="0.7" stroke="magenta" stroke-width="1" x1="120.0" x2="89.0" y1="113.0" y2="157.5" /><line opacity="0.7" stroke="magenta" stroke-width="1" x1="120.0" x2="85.5" y1="113.0" y2="134.0" /><line opacity="0.7" stroke="magenta" stroke-width="1" x1="120.0" x2="151.5" y1="113.0" y2="92.5" /><line opacity="0.7" stroke="magenta" stroke-width="1" x1="120.0" x2="164.5" y1="113.0" y2="97.0" /><line opacity="0.7" stroke="magenta" stroke-width="1" x1="120.0" x2="167.0" y1="113.0" y2="115.0" /><line opacity="0.7" stroke="magenta" stroke-width="1" x1="120.0" x2="83.5" y1="113.0" y2="100.5" /><line opacity="0.7" stroke="magenta" stroke-width="1" x1="189.0" x2="170.0" y1="98.0" y2="146.0" /><line opacity="0.7" stroke="magenta" stroke-width="1" x1="189.0" x2="92.0" y1="98.0" y2="93.0" /><line opacity="0.7" stroke="magenta" stroke-width="1" x1="189.0" x2="166.0" y1="98.0" y2="91.0" /><line opacity="0.7" stroke="magenta" stroke-width="1" x1="189.0" x2="142.5" y1="98.0" y2="150.0" /><line opacity="0.7" stroke="magenta" stroke-width="1" x1="189.0" x2="146.0" y1="98.0" y2="110.5" /><line opacity="0.7" stroke="magenta" stroke-width="1" x1="189.0" x2="79.0" y1="98.0" y2="150.0" /><line opacity="0.7" stroke="magenta" stroke-width="1" x1="189.0" x2="92.0" y1="98.0" y2="129.0" /><line opacity="0.7" stroke="magenta" stroke-width="1" x1="189.0" x2="79.0" y1="98.0" y2="112.0" /><line opacity="0.7" stroke="magenta" stroke-width="1" x1="189.0" x2="161.0" y1="98.0" y2="106.0" /><line opacity="0.7" stroke="magenta" stroke-width="1" x1="189.0" x2="89.0" y1="98.0" y2="112.0" /><line opacity="0.7" stroke="magenta" stroke-width="1" x1="189.0" x2="101.0" y1="98.0" y2="154.0" /><line opacity="0.7" stroke="magenta" stroke-width="1" x1="189.0" x2="170.0" y1="98.0" y2="158.5" /><line opacity="0.7" stroke="magenta" stroke-width="1" x1="189.0" x2="142.0" y1="98.0" y2="163.5" /><line opacity="0.7" stroke="magenta" stroke-width="1" x1="189.0" x2="89.0" y1="98.0" y2="157.5" /><line opacity="0.7" stroke="magenta" stroke-width="1" x1="189.0" x2="85.5" y1="98.0" y2="134.0" /><line opacity="0.7" stroke="magenta" stroke-width="1" x1="189.0" x2="151.5" y1="98.0" y2="92.5" /><line opacity="0.7" stroke="magenta" stroke-width="1" x1="189.0" x2="164.5" y1="98.0" y2="97.0" /><line opacity="0.7" stroke="magenta" stroke-width="1" x1="189.0" x2="167.0" y1="98.0" y2="115.0" /><line opacity="0.7" stroke="magenta" stroke-width="1" x1="189.0" x2="83.5" y1="98.0" y2="100.5" /><line opacity="0.7" stroke="magenta" stroke-width="1" x1="170.0" x2="187.0" y1="146.0" y2="118.0" /><line opacity="0.7" stroke="magenta" stroke-width="1" x1="170.0" x2="92.0" y1="146.0" y2="93.0" /><line opacity="0.7" stroke="magenta" stroke-width="1" x1="170.0" x2="166.0" y1="146.0" y2="91.0" /><line opacity="0.7" stroke="magenta" stroke-width="1" x1="170.0" x2="146.0" y1="146.0" y2="110.5" /><line opacity="0.7" stroke="magenta" stroke-width="1" x1="170.0" x2="79.0" y1="146.0" y2="150.0" /><line opacity="0.7" stroke="magenta" stroke-width="1" x1="170.0" x2="92.0" y1="146.0" y2="129.0" /><line opacity="0.7" stroke="magenta" stroke-width="1" x1="170.0" x2="79.0" y1="146.0" y2="112.0" /><line opacity="0.7" stroke="magenta" stroke-width="1" x1="170.0" x2="161.0" y1="146.0" y2="106.0" /><line opacity="0.7" stroke="magenta" stroke-width="1" x1="170.0" x2="89.0" y1="146.0" y2="112.0" /><line opacity="0.7" stroke="magenta" stroke-width="1" x1="170.0" x2="101.0" y1="146.0" y2="154.0" /><line opacity="0.7" stroke="magenta" stroke-width="1" x1="170.0" x2="142.0" y1="146.0" y2="163.5" /><line opacity="0.7" stroke="magenta" stroke-width="1" x1="170.0" x2="89.0" y1="146.0" y2="157.5" /><line opacity="0.7" stroke="magenta" stroke-width="1" x1="170.0" x2="85.5" y1="146.0" y2="134.0" /><line opacity="0.7" stroke="magenta" stroke-width="1" x1="170.0" x2="151.5" y1="146.0" y2="92.5" /><line opacity="0.7" stroke="magenta" stroke-width="1" x1="170.0" x2="164.5" y1="146.0" y2="97.0" /><line opacity="0.7" stroke="magenta" stroke-width="1" x1="170.0" x2="167.0" y1="146.0" y2="115.0" /><line opacity="0.7" stroke="magenta" stroke-width="1" x1="170.0" x2="83.5" y1="146.0" y2="100.5" /><line opacity="0.7" stroke="magenta" stroke-width="1" x1="187.0" x2="92.0" y1="118.0" y2="93.0" /><line opacity="0.7" stroke="magenta" stroke-width="1" x1="187.0" x2="166.0" y1="118.0" y2="91.0" /><line opacity="0.7" stroke="magenta" stroke-width="1" x1="187.0" x2="142.5" y1="118.0" y2="150.0" /><line opacity="0.7" stroke="magenta" stroke-width="1" x1="187.0" x2="146.0" y1="118.0" y2="110.5" /><line opacity="0.7" stroke="magenta" stroke-width="1" x1="187.0" x2="79.0" y1="118.0" y2="150.0" /><line opacity="0.7" stroke="magenta" stroke-width="1" x1="187.0" x2="92.0" y1="118.0" y2="129.0" /><line opacity="0.7" stroke="magenta" stroke-width="1" x1="187.0" x2="79.0" y1="118.0" y2="112.0" /><line opacity="0.7" stroke="magenta" stroke-width="1" x1="187.0" x2="161.0" y1="118.0" y2="106.0" /><line opacity="0.7" stroke="magenta" stroke-width="1" x1="187.0" x2="89.0" y1="118.0" y2="112.0" /><line opacity="0.7" stroke="magenta" stroke-width="1" x1="187.0" x2="101.0" y1="118.0" y2="154.0" /><line opacity="0.7" stroke="magenta" stroke-width="1" x1="187.0" x2="170.0" y1="118.0" y2="158.5" /><line opacity="0.7" stroke="magenta" stroke-width="1" x1="187.0" x2="142.0" y1="118.0" y2="163.5" /><line opacity="0.7" stroke="magenta" stroke-width="1" x1="187.0" x2="89.0" y1="118.0" y2="157.5" /><line opacity="0.7" stroke="magenta" stroke-width="1" x1="187.0" x2="85.5" y1="118.0" y2="134.0" /><line opacity="0.7" stroke="magenta" stroke-width="1" x1="187.0" x2="151.5" y1="118.0" y2="92.5" /><line opacity="0.7" stroke="magenta" stroke-width="1" x1="187.0" x2="167.0" y1="118.0" y2="115.0" /><line opacity="0.7" stroke="magenta" stroke-width="1" x1="187.0" x2="83.5" y1="118.0" y2="100.5" /><line opacity="0.7" stroke="magenta" stroke-width="1" x1="92.0" x2="166.0" y1="93.0" y2="91.0" /><line opacity="0.7" stroke="magenta" stroke-width="1" x1="92.0" x2="142.5" y1="93.0" y2="150.0" /><line opacity="0.7" stroke="magenta" stroke-width="1" x1="92.0" x2="167.0" y1="93.0" y2="118.0" /><line opacity="0.7" stroke="magenta" stroke-width="1" x1="92.0" x2="146.0" y1="93.0" y2="110.5" /><line opacity="0.7" stroke="magenta" stroke-width="1" x1="92.0" x2="79.0" y1="93.0" y2="150.0" /><line opacity="0.7" stroke="magenta" stroke-width="1" x1="92.0" x2="79.0" y1="93.0" y2="112.0" /><line opacity="0.7" stroke="magenta" stroke-width="1" x1="92.0" x2="161.0" y1="93.0" y2="106.0" /><line opacity="0.7" stroke="magenta" stroke-width="1" x1="92.0" x2="89.0" y1="93.0" y2="112.0" /><line opacity="0.7" stroke="magenta" stroke-width="1" x1="92.0" x2="101.0" y1="93.0" y2="154.0" /><line opacity="0.7" stroke="magenta" stroke-width="1" x1="92.0" x2="170.0" y1="93.0" y2="158.5" /><line opacity="0.7" stroke="magenta" stroke-width="1" x1="92.0" x2="142.0" y1="93.0" y2="163.5" /><line opacity="0.7" stroke="magenta" stroke-width="1" x1="92.0" x2="89.0" y1="93.0" y2="157.5" /><line opacity="0.7" stroke="magenta" stroke-width="1" x1="92.0" x2="85.5" y1="93.0" y2="134.0" /><line opacity="0.7" stroke="magenta" stroke-width="1" x1="92.0" x2="151.5" y1="93.0" y2="92.5" /><line opacity="0.7" stroke="magenta" stroke-width="1" x1="92.0" x2="164.5" y1="93.0" y2="97.0" /><line opacity="0.7" stroke="magenta" stroke-width="1" x1="92.0" x2="167.0" y1="93.0" y2="115.0" /><line opacity="0.7" stroke="magenta" stroke-width="1" x1="166.0" x2="142.5" y1="91.0" y2="150.0" /><line opacity="0.7" stroke="magenta" stroke-width="1" x1="166.0" x2="167.0" y1="91.0" y2="118.0" /><line opacity="0.7" stroke="magenta" stroke-width="1" x1="166.0" x2="79.0" y1="91.0" y2="150.0" /><line opacity="0.7" stroke="magenta" stroke-width="1" x1="166.0" x2="92.0" y1="91.0" y2="129.0" /><line opacity="0.7" stroke="magenta" stroke-width="1" x1="166.0" x2="79.0" y1="91.0" y2="112.0" /><line opacity="0.7" stroke="magenta" stroke-width="1" x1="166.0" x2="161.0" y1="91.0" y2="106.0" /><line opacity="0.7" stroke="magenta" stroke-width="1" x1="166.0" x2="89.0" y1="91.0" y2="112.0" /><line opacity="0.7" stroke="magenta" stroke-width="1" x1="166.0" x2="101.0" y1="91.0" y2="154.0" /><line opacity="0.7" stroke="magenta" stroke-width="1" x1="166.0" x2="170.0" y1="91.0" y2="158.5" /><line opacity="0.7" stroke="magenta" stroke-width="1" x1="166.0" x2="142.0" y1="91.0" y2="163.5" /><line opacity="0.7" stroke="magenta" stroke-width="1" x1="166.0" x2="89.0" y1="91.0" y2="157.5" /><line opacity="0.7" stroke="magenta" stroke-width="1" x1="166.0" x2="85.5" y1="91.0" y2="134.0" /><line opacity="0.7" stroke="magenta" stroke-width="1" x1="166.0" x2="167.0" y1="91.0" y2="115.0" /><line opacity="0.7" stroke="magenta" stroke-width="1" x1="166.0" x2="83.5" y1="91.0" y2="100.5" /><line opacity="0.7" stroke="magenta" stroke-width="1" x1="142.5" x2="146.0" y1="150.0" y2="110.5" /><line opacity="0.7" stroke="magenta" stroke-width="1" x1="142.5" x2="92.0" y1="150.0" y2="129.0" /><line opacity="0.7" stroke="magenta" stroke-width="1" x1="142.5" x2="79.0" y1="150.0" y2="112.0" /><line opacity="0.7" stroke="magenta" stroke-width="1" x1="142.5" x2="161.0" y1="150.0" y2="106.0" /><line opacity="0.7" stroke="magenta" stroke-width="1" x1="142.5" x2="89.0" y1="150.0" y2="112.0" /><line opacity="0.7" stroke="magenta" stroke-width="1" x1="142.5" x2="101.0" y1="150.0" y2="154.0" /><line opacity="0.7" stroke="magenta" stroke-width="1" x1="142.5" x2="170.0" y1="150.0" y2="158.5" /><line opacity="0.7" stroke="magenta" stroke-width="1" x1="142.5" x2="89.0" y1="150.0" y2="157.5" /><line opacity="0.7" stroke="magenta" stroke-width="1" x1="142.5" x2="85.5" y1="150.0" y2="134.0" /><line opacity="0.7" stroke="magenta" stroke-width="1" x1="142.5" x2="151.5" y1="150.0" y2="92.5" /><line opacity="0.7" stroke="magenta" stroke-width="1" x1="142.5" x2="164.5" y1="150.0" y2="97.0" /><line opacity="0.7" stroke="magenta" stroke-width="1" x1="142.5" x2="167.0" y1="150.0" y2="115.0" /><line opacity="0.7" stroke="magenta" stroke-width="1" x1="142.5" x2="83.5" y1="150.0" y2="100.5" /><line opacity="0.7" stroke="magenta" stroke-width="1" x1="167.0" x2="146.0" y1="118.0" y2="110.5" /><line opacity="0.7" stroke="magenta" stroke-width="1" x1="167.0" x2="79.0" y1="118.0" y2="150.0" /><line opacity="0.7" stroke="magenta" stroke-width="1" x1="167.0" x2="92.0" y1="118.0" y2="129.0" /><line opacity="0.7" stroke="magenta" stroke-width="1" x1="167.0" x2="79.0" y1="118.0" y2="112.0" /><line opacity="0.7" stroke="magenta" stroke-width="1" x1="167.0" x2="89.0" y1="118.0" y2="112.0" /><line opacity="0.7" stroke="magenta" stroke-width="1" x1="167.0" x2="101.0" y1="118.0" y2="154.0" /><line opacity="0.7" stroke="magenta" stroke-width="1" x1="167.0" x2="170.0" y1="118.0" y2="158.5" /><line opacity="0.7" stroke="magenta" stroke-width="1" x1="167.0" x2="89.0" y1="118.0" y2="157.5" /><line opacity="0.7" stroke="magenta" stroke-width="1" x1="167.0" x2="85.5" y1="118.0" y2="134.0" /><line opacity="0.7" stroke="magenta" stroke-width="1" x1="167.0" x2="151.5" y1="118.0" y2="92.5" /><line opacity="0.7" stroke="magenta" stroke-width="1" x1="167.0" x2="167.0" y1="118.0" y2="115.0" /><line opacity="0.7" stroke="magenta" stroke-width="1" x1="167.0" x2="83.5" y1="118.0" y2="100.5" /><line opacity="0.7" stroke="magenta" stroke-width="1" x1="146.0" x2="79.0" y1="110.5" y2="150.0" /><line opacity="0.7" stroke="magenta" stroke-width="1" x1="146.0" x2="92.0" y1="110.5" y2="129.0" /><line opacity="0.7" stroke="magenta" stroke-width="1" x1="146.0" x2="79.0" y1="110.5" y2="112.0" /><line opacity="0.7" stroke="magenta" stroke-width="1" x1="146.0" x2="101.0" y1="110.5" y2="154.0" /><line opacity="0.7" stroke="magenta" stroke-width="1" x1="146.0" x2="170.0" y1="110.5" y2="158.5" /><line opacity="0.7" stroke="magenta" stroke-width="1" x1="146.0" x2="142.0" y1="110.5" y2="163.5" /><line opacity="0.7" stroke="magenta" stroke-width="1" x1="146.0" x2="89.0" y1="110.5" y2="157.5" /><line opacity="0.7" stroke="magenta" stroke-width="1" x1="146.0" x2="85.5" y1="110.5" y2="134.0" /><line opacity="0.7" stroke="magenta" stroke-width="1" x1="146.0" x2="164.5" y1="110.5" y2="97.0" /><line opacity="0.7" stroke="magenta" stroke-width="1" x1="146.0" x2="83.5" y1="110.5" y2="100.5" /><line opacity="0.7" stroke="magenta" stroke-width="1" x1="79.0" x2="161.0" y1="150.0" y2="106.0" /><line opacity="0.7" stroke="magenta" stroke-width="1" x1="79.0" x2="89.0" y1="150.0" y2="112.0" /><line opacity="0.7" stroke="magenta" stroke-width="1" x1="79.0" x2="101.0" y1="150.0" y2="154.0" /><line opacity="0.7" stroke="magenta" stroke-width="1" x1="79.0" x2="170.0" y1="150.0" y2="158.5" /><line opacity="0.7" stroke="magenta" stroke-width="1" x1="79.0" x2="142.0" y1="150.0" y2="163.5" /><line opacity="0.7" stroke="magenta" stroke-width="1" x1="79.0" x2="151.5" y1="150.0" y2="92.5" /><line opacity="0.7" stroke="magenta" stroke-width="1" x1="79.0" x2="164.5" y1="150.0" y2="97.0" /><line opacity="0.7" stroke="magenta" stroke-width="1" x1="79.0" x2="167.0" y1="150.0" y2="115.0" /><line opacity="0.7" stroke="magenta" stroke-width="1" x1="79.0" x2="83.5" y1="150.0" y2="100.5" /><line opacity="0.7" stroke="magenta" stroke-width="1" x1="92.0" x2="161.0" y1="129.0" y2="106.0" /><line opacity="0.7" stroke="magenta" stroke-width="1" x1="92.0" x2="170.0" y1="129.0" y2="158.5" /><line opacity="0.7" stroke="magenta" stroke-width="1" x1="92.0" x2="164.5" y1="129.0" y2="97.0" /><line opacity="0.7" stroke="magenta" stroke-width="1" x1="92.0" x2="167.0" y1="129.0" y2="115.0" /><line opacity="0.7" stroke="magenta" stroke-width="1" x1="92.0" x2="83.5" y1="129.0" y2="100.5" /><line opacity="0.7" stroke="magenta" stroke-width="1" x1="79.0" x2="161.0" y1="112.0" y2="106.0" /><line opacity="0.7" stroke="magenta" stroke-width="1" x1="79.0" x2="101.0" y1="112.0" y2="154.0" /><line opacity="0.7" stroke="magenta" stroke-width="1" x1="79.0" x2="170.0" y1="112.0" y2="158.5" /><line opacity="0.7" stroke="magenta" stroke-width="1" x1="79.0" x2="142.0" y1="112.0" y2="163.5" /><line opacity="0.7" stroke="magenta" stroke-width="1" x1="79.0" x2="89.0" y1="112.0" y2="157.5" /><line opacity="0.7" stroke="magenta" stroke-width="1" x1="79.0" x2="85.5" y1="112.0" y2="134.0" /><line opacity="0.7" stroke="magenta" stroke-width="1" x1="79.0" x2="151.5" y1="112.0" y2="92.5" /><line opacity="0.7" stroke="magenta" stroke-width="1" x1="79.0" x2="164.5" y1="112.0" y2="97.0" /><line opacity="0.7" stroke="magenta" stroke-width="1" x1="79.0" x2="167.0" y1="112.0" y2="115.0" /><line opacity="0.7" stroke="magenta" stroke-width="1" x1="161.0" x2="89.0" y1="106.0" y2="112.0" /><line opacity="0.7" stroke="magenta" stroke-width="1" x1="161.0" x2="101.0" y1="106.0" y2="154.0" /><line opacity="0.7" stroke="magenta" stroke-width="1" x1="161.0" x2="170.0" y1="106.0" y2="158.5" /><line opacity="0.7" stroke="magenta" stroke-width="1" x1="161.0" x2="142.0" y1="106.0" y2="163.5" /><line opacity="0.7" stroke="magenta" stroke-width="1" x1="161.0" x2="89.0" y1="106.0" y2="157.5" /><line opacity="0.7" stroke="magenta" stroke-width="1" x1="161.0" x2="85.5" y1="106.0" y2="134.0" /><line opacity="0.7" stroke="magenta" stroke-width="1" x1="161.0" x2="83.5" y1="106.0" y2="100.5" /><line opacity="0.7" stroke="magenta" stroke-width="1" x1="89.0" x2="101.0" y1="112.0" y2="154.0" /><line opacity="0.7" stroke="magenta" stroke-width="1" x1="89.0" x2="170.0" y1="112.0" y2="158.5" /><line opacity="0.7" stroke="magenta" stroke-width="1" x1="89.0" x2="151.5" y1="112.0" y2="92.5" /><line opacity="0.7" stroke="magenta" stroke-width="1" x1="89.0" x2="164.5" y1="112.0" y2="97.0" /><line opacity="0.7" stroke="magenta" stroke-width="1" x1="89.0" x2="167.0" y1="112.0" y2="115.0" /><line opacity="0.7" stroke="magenta" stroke-width="1" x1="101.0" x2="142.0" y1="154.0" y2="163.5" /><line opacity="0.7" stroke="magenta" stroke-width="1" x1="101.0" x2="164.5" y1="154.0" y2="97.0" /><line opacity="0.7" stroke="magenta" stroke-width="1" x1="101.0" x2="83.5" y1="154.0" y2="100.5" /><line opacity="0.7" stroke="magenta" stroke-width="1" x1="170.0" x2="89.0" y1="158.5" y2="157.5" /><line opacity="0.7" stroke="magenta" stroke-width="1" x1="170.0" x2="85.5" y1="158.5" y2="134.0" /><line opacity="0.7" stroke="magenta" stroke-width="1" x1="170.0" x2="151.5" y1="158.5" y2="92.5" /><line opacity="0.7" stroke="magenta" stroke-width="1" x1="170.0" x2="164.5" y1="158.5" y2="97.0" /><line opacity="0.7" stroke="magenta" stroke-width="1" x1="170.0" x2="83.5" y1="158.5" y2="100.5" /><line opacity="0.7" stroke="magenta" stroke-width="1" x1="142.0" x2="85.5" y1="163.5" y2="134.0" /><line opacity="0.7" stroke="magenta" stroke-width="1" x1="142.0" x2="151.5" y1="163.5" y2="92.5" /><line opacity="0.7" stroke="magenta" stroke-width="1" x1="142.0" x2="164.5" y1="163.5" y2="97.0" /><line opacity="0.7" stroke="magenta" stroke-width="1" x1="142.0" x2="83.5" y1="163.5" y2="100.5" /><line opacity="0.7" stroke="magenta" stroke-width="1" x1="89.0" x2="151.5" y1="157.5" y2="92.5" /><line opacity="0.7" stroke="magenta" stroke-width="1" x1="89.0" x2="164.5" y1="157.5" y2="97.0" /><line opacity="0.7" stroke="magenta" stroke-width="1" x1="89.0" x2="83.5" y1="157.5" y2="100.5" /><line opacity="0.7" stroke="magenta" stroke-width="1" x1="85.5" x2="164.5" y1="134.0" y2="97.0" /><line opacity="0.7" stroke="magenta" stroke-width="1" x1="85.5" x2="167.0" y1="134.0" y2="115.0" /><line opacity="0.7" stroke="magenta" stroke-width="1" x1="151.5" x2="83.5" y1="92.5" y2="100.5" /><line opacity="0.7" stroke="magenta" stroke-width="1" x1="167.0" x2="83.5" y1="115.0" y2="100.5" /><circle cx="66.0" cy="93.0" fill="white" opacity="0.8" r="1.5" stroke="blue" stroke-width="0.8" /><circle cx="89.0" cy="157.5" fill="white" opacity="0.8" r="1.5" stroke="blue" stroke-width="0.8" /><circle cx="151.5" cy="92.5" fill="white" opacity="0.8" r="1.5" stroke="blue" stroke-width="0.8" /><circle cx="166.0" cy="91.0" fill="white" opacity="0.8" r="1.5" stroke="blue" stroke-width="0.8" /><circle cx="92.0" cy="93.0" fill="white" opacity="0.8" r="1.5" stroke="blue" stroke-width="0.8" /><circle cx="189.0" cy="98.0" fill="white" opacity="0.8" r="1.5" stroke="blue" stroke-width="0.8" /><circle cx="79.0" cy="150.0" fill="white" opacity="0.8" r="1.5" stroke="blue" stroke-width="0.8" /><circle cx="170.0" cy="158.5" fill="white" opacity="0.8" r="1.5" stroke="blue" stroke-width="0.8" /><circle cx="187.0" cy="118.0" fill="white" opacity="0.8" r="1.5" stroke="blue" stroke-width="0.8" /><circle cx="67.0" cy="165.0" fill="white" opacity="0.8" r="1.5" stroke="blue" stroke-width="0.8" /><circle cx="120.0" cy="113.0" fill="white" opacity="0.8" r="1.5" stroke="blue" stroke-width="0.8" /><circle cx="92.0" cy="129.0" fill="white" opacity="0.8" r="1.5" stroke="blue" stroke-width="0.8" /><circle cx="83.5" cy="100.5" fill="white" opacity="0.8" r="1.5" stroke="blue" stroke-width="0.8" /><circle cx="164.5" cy="97.0" fill="white" opacity="0.8" r="1.5" stroke="blue" stroke-width="0.8" /><circle cx="79.0" cy="112.0" fill="white" opacity="0.8" r="1.5" stroke="blue" stroke-width="0.8" /><circle cx="170.0" cy="146.0" fill="white" opacity="0.8" r="1.5" stroke="blue" stroke-width="0.8" /><circle cx="167.0" cy="118.0" fill="white" opacity="0.8" r="1.5" stroke="blue" stroke-width="0.8" /><circle cx="167.0" cy="115.0" fill="white" opacity="0.8" r="1.5" stroke="blue" stroke-width="0.8" /><circle cx="142.5" cy="150.0" fill="white" opacity="0.8" r="1.5" stroke="blue" stroke-width="0.8" /><circle cx="142.0" cy="163.5" fill="white" opacity="0.8" r="1.5" stroke="blue" stroke-width="0.8" /><circle cx="161.0" cy="106.0" fill="white" opacity="0.8" r="1.5" stroke="blue" stroke-width="0.8" /><circle cx="146.0" cy="110.5" fill="white" opacity="0.8" r="1.5" stroke="blue" stroke-width="0.8" /><circle cx="101.0" cy="154.0" fill="white" opacity="0.8" r="1.5" stroke="blue" stroke-width="0.8" /><circle cx="89.0" cy="112.0" fill="white" opacity="0.8" r="1.5" stroke="blue" stroke-width="0.8" /><circle cx="85.5" cy="134.0" fill="white" opacity="0.8" r="1.5" stroke="blue" stroke-width="0.8" /></svg>