<?xml version="1.0" encoding="utf-8" ?>
<svg baseProfile="full" height="256" version="1.1" width="256" xmlns="http://www.w3.org/2000/svg" xmlns:ev="http://www.w3.org/2001/xml-events" xmlns:xlink="http://www.w3.org/1999/xlink"><defs /><image height="256" width="256" xlink:href="/home/nelson/Workspace/building_reconstruction/la_dataset_new/rgb/1526359617.72.jpg" /><line opacity="0.7" stroke="magenta" stroke-width="1" x1="71.0" x2="186.0" y1="79.0" y2="78.0" /><line opacity="0.7" stroke="magenta" stroke-width="1" x1="71.0" x2="71.5" y1="79.0" y2="178.5" /><line opacity="0.7" stroke="magenta" stroke-width="1" x1="71.0" x2="70.0" y1="79.0" y2="132.0" /><line opacity="0.7" stroke="magenta" stroke-width="1" x1="71.0" x2="130.0" y1="79.0" y2="117.0" /><line opacity="0.7" stroke="magenta" stroke-width="1" x1="71.0" x2="71.0" y1="79.0" y2="150.0" /><line opacity="0.7" stroke="magenta" stroke-width="1" x1="71.0" x2="84.0" y1="79.0" y2="117.5" /><line opacity="0.7" stroke="magenta" stroke-width="1" x1="71.0" x2="71.5" y1="79.0" y2="108.0" /><line opacity="0.7" stroke="magenta" stroke-width="1" x1="186.0" x2="184.5" y1="78.0" y2="179.0" /><line opacity="0.7" stroke="magenta" stroke-width="1" x1="186.0" x2="186.0" y1="78.0" y2="125.0" /><line opacity="0.7" stroke="magenta" stroke-width="1" x1="186.0" x2="130.0" y1="78.0" y2="117.0" /><line opacity="0.7" stroke="magenta" stroke-width="1" x1="186.0" x2="71.5" y1="78.0" y2="108.0" /><line opacity="0.7" stroke="magenta" stroke-width="1" x1="186.0" x2="158.0" y1="78.0" y2="126.0" /><line opacity="0.7" stroke="magenta" stroke-width="1" x1="186.0" x2="157.5" y1="78.0" y2="118.0" /><line opacity="0.7" stroke="magenta" stroke-width="1" x1="71.5" x2="184.5" y1="178.5" y2="179.0" /><line opacity="0.7" stroke="magenta" stroke-width="1" x1="71.5" x2="70.0" y1="178.5" y2="132.0" /><line opacity="0.7" stroke="magenta" stroke-width="1" x1="71.5" x2="158.0" y1="178.5" y2="180.0" /><line opacity="0.7" stroke="magenta" stroke-width="1" x1="71.5" x2="130.0" y1="178.5" y2="117.0" /><line opacity="0.7" stroke="magenta" stroke-width="1" x1="71.5" x2="71.0" y1="178.5" y2="150.0" /><line opacity="0.7" stroke="magenta" stroke-width="1" x1="71.5" x2="92.0" y1="178.5" y2="178.0" /><line opacity="0.7" stroke="magenta" stroke-width="1" x1="71.5" x2="109.0" y1="178.5" y2="139.0" /><line opacity="0.7" stroke="magenta" stroke-width="1" x1="71.5" x2="84.0" y1="178.5" y2="117.5" /><line opacity="0.7" stroke="magenta" stroke-width="1" x1="71.5" x2="71.5" y1="178.5" y2="108.0" /><line opacity="0.7" stroke="magenta" stroke-width="1" x1="71.5" x2="94.0" y1="178.5" y2="149.0" /><line opacity="0.7" stroke="magenta" stroke-width="1" x1="184.5" x2="134.5" y1="179.0" y2="138.0" /><line opacity="0.7" stroke="magenta" stroke-width="1" x1="184.5" x2="186.0" y1="179.0" y2="125.0" /><line opacity="0.7" stroke="magenta" stroke-width="1" x1="184.5" x2="158.0" y1="179.0" y2="180.0" /><line opacity="0.7" stroke="magenta" stroke-width="1" x1="184.5" x2="130.0" y1="179.0" y2="117.0" /><line opacity="0.7" stroke="magenta" stroke-width="1" x1="184.5" x2="71.0" y1="179.0" y2="150.0" /><line opacity="0.7" stroke="magenta" stroke-width="1" x1="184.5" x2="92.0" y1="179.0" y2="178.0" /><line opacity="0.7" stroke="magenta" stroke-width="1" x1="184.5" x2="158.0" y1="179.0" y2="126.0" /><line opacity="0.7" stroke="magenta" stroke-width="1" x1="184.5" x2="157.5" y1="179.0" y2="118.0" /><line opacity="0.7" stroke="magenta" stroke-width="1" x1="184.5" x2="158.0" y1="179.0" y2="169.0" /><line opacity="0.7" stroke="magenta" stroke-width="1" x1="134.5" x2="70.0" y1="138.0" y2="132.0" /><line opacity="0.7" stroke="magenta" stroke-width="1" x1="134.5" x2="158.0" y1="138.0" y2="180.0" /><line opacity="0.7" stroke="magenta" stroke-width="1" x1="134.5" x2="130.0" y1="138.0" y2="117.0" /><line opacity="0.7" stroke="magenta" stroke-width="1" x1="134.5" x2="71.0" y1="138.0" y2="150.0" /><line opacity="0.7" stroke="magenta" stroke-width="1" x1="134.5" x2="92.0" y1="138.0" y2="178.0" /><line opacity="0.7" stroke="magenta" stroke-width="1" x1="134.5" x2="109.0" y1="138.0" y2="139.0" /><line opacity="0.7" stroke="magenta" stroke-width="1" x1="134.5" x2="84.0" y1="138.0" y2="117.5" /><line opacity="0.7" stroke="magenta" stroke-width="1" x1="134.5" x2="94.0" y1="138.0" y2="149.0" /><line opacity="0.7" stroke="magenta" stroke-width="1" x1="134.5" x2="158.0" y1="138.0" y2="126.0" /><line opacity="0.7" stroke="magenta" stroke-width="1" x1="134.5" x2="157.5" y1="138.0" y2="118.0" /><line opacity="0.7" stroke="magenta" stroke-width="1" x1="134.5" x2="158.0" y1="138.0" y2="169.0" /><line opacity="0.7" stroke="magenta" stroke-width="1" x1="186.0" x2="70.0" y1="125.0" y2="132.0" /><line opacity="0.7" stroke="magenta" stroke-width="1" x1="186.0" x2="158.0" y1="125.0" y2="180.0" /><line opacity="0.7" stroke="magenta" stroke-width="1" x1="186.0" x2="130.0" y1="125.0" y2="117.0" /><line opacity="0.7" stroke="magenta" stroke-width="1" x1="186.0" x2="92.0" y1="125.0" y2="178.0" /><line opacity="0.7" stroke="magenta" stroke-width="1" x1="186.0" x2="109.0" y1="125.0" y2="139.0" /><line opacity="0.7" stroke="magenta" stroke-width="1" x1="186.0" x2="84.0" y1="125.0" y2="117.5" /><line opacity="0.7" stroke="magenta" stroke-width="1" x1="186.0" x2="158.0" y1="125.0" y2="126.0" /><line opacity="0.7" stroke="magenta" stroke-width="1" x1="186.0" x2="157.5" y1="125.0" y2="118.0" /><line opacity="0.7" stroke="magenta" stroke-width="1" x1="186.0" x2="158.0" y1="125.0" y2="169.0" /><line opacity="0.7" stroke="magenta" stroke-width="1" x1="70.0" x2="158.0" y1="132.0" y2="180.0" /><line opacity="0.7" stroke="magenta" stroke-width="1" x1="70.0" x2="130.0" y1="132.0" y2="117.0" /><line opacity="0.7" stroke="magenta" stroke-width="1" x1="70.0" x2="71.0" y1="132.0" y2="150.0" /><line opacity="0.7" stroke="magenta" stroke-width="1" x1="70.0" x2="92.0" y1="132.0" y2="178.0" /><line opacity="0.7" stroke="magenta" stroke-width="1" x1="70.0" x2="109.0" y1="132.0" y2="139.0" /><line opacity="0.7" stroke="magenta" stroke-width="1" x1="70.0" x2="84.0" y1="132.0" y2="117.5" /><line opacity="0.7" stroke="magenta" stroke-width="1" x1="70.0" x2="71.5" y1="132.0" y2="108.0" /><line opacity="0.7" stroke="magenta" stroke-width="1" x1="70.0" x2="94.0" y1="132.0" y2="149.0" /><line opacity="0.7" stroke="magenta" stroke-width="1" x1="70.0" x2="158.0" y1="132.0" y2="126.0" /><line opacity="0.7" stroke="magenta" stroke-width="1" x1="70.0" x2="157.5" y1="132.0" y2="118.0" /><line opacity="0.7" stroke="magenta" stroke-width="1" x1="158.0" x2="130.0" y1="180.0" y2="117.0" /><line opacity="0.7" stroke="magenta" stroke-width="1" x1="158.0" x2="71.0" y1="180.0" y2="150.0" /><line opacity="0.7" stroke="magenta" stroke-width="1" x1="158.0" x2="92.0" y1="180.0" y2="178.0" /><line opacity="0.7" stroke="magenta" stroke-width="1" x1="158.0" x2="109.0" y1="180.0" y2="139.0" /><line opacity="0.7" stroke="magenta" stroke-width="1" x1="158.0" x2="84.0" y1="180.0" y2="117.5" /><line opacity="0.7" stroke="magenta" stroke-width="1" x1="158.0" x2="71.5" y1="180.0" y2="108.0" /><line opacity="0.7" stroke="magenta" stroke-width="1" x1="158.0" x2="94.0" y1="180.0" y2="149.0" /><line opacity="0.7" stroke="magenta" stroke-width="1" x1="158.0" x2="158.0" y1="180.0" y2="126.0" /><line opacity="0.7" stroke="magenta" stroke-width="1" x1="158.0" x2="157.5" y1="180.0" y2="118.0" /><line opacity="0.7" stroke="magenta" stroke-width="1" x1="158.0" x2="158.0" y1="180.0" y2="169.0" /><line opacity="0.7" stroke="magenta" stroke-width="1" x1="130.0" x2="71.0" y1="117.0" y2="150.0" /><line opacity="0.7" stroke="magenta" stroke-width="1" x1="130.0" x2="92.0" y1="117.0" y2="178.0" /><line opacity="0.7" stroke="magenta" stroke-width="1" x1="130.0" x2="109.0" y1="117.0" y2="139.0" /><line opacity="0.7" stroke="magenta" stroke-width="1" x1="130.0" x2="84.0" y1="117.0" y2="117.5" /><line opacity="0.7" stroke="magenta" stroke-width="1" x1="130.0" x2="71.5" y1="117.0" y2="108.0" /><line opacity="0.7" stroke="magenta" stroke-width="1" x1="130.0" x2="94.0" y1="117.0" y2="149.0" /><line opacity="0.7" stroke="magenta" stroke-width="1" x1="130.0" x2="158.0" y1="117.0" y2="126.0" /><line opacity="0.7" stroke="magenta" stroke-width="1" x1="130.0" x2="157.5" y1="117.0" y2="118.0" /><line opacity="0.7" stroke="magenta" stroke-width="1" x1="130.0" x2="158.0" y1="117.0" y2="169.0" /><line opacity="0.7" stroke="magenta" stroke-width="1" x1="71.0" x2="92.0" y1="150.0" y2="178.0" /><line opacity="0.7" stroke="magenta" stroke-width="1" x1="71.0" x2="109.0" y1="150.0" y2="139.0" /><line opacity="0.7" stroke="magenta" stroke-width="1" x1="71.0" x2="84.0" y1="150.0" y2="117.5" /><line opacity="0.7" stroke="magenta" stroke-width="1" x1="71.0" x2="94.0" y1="150.0" y2="149.0" /><line opacity="0.7" stroke="magenta" stroke-width="1" x1="71.0" x2="158.0" y1="150.0" y2="126.0" /><line opacity="0.7" stroke="magenta" stroke-width="1" x1="71.0" x2="157.5" y1="150.0" y2="118.0" /><line opacity="0.7" stroke="magenta" stroke-width="1" x1="71.0" x2="158.0" y1="150.0" y2="169.0" /><line opacity="0.7" stroke="magenta" stroke-width="1" x1="92.0" x2="109.0" y1="178.0" y2="139.0" /><line opacity="0.7" stroke="magenta" stroke-width="1" x1="92.0" x2="84.0" y1="178.0" y2="117.5" /><line opacity="0.7" stroke="magenta" stroke-width="1" x1="92.0" x2="71.5" y1="178.0" y2="108.0" /><line opacity="0.7" stroke="magenta" stroke-width="1" x1="92.0" x2="158.0" y1="178.0" y2="126.0" /><line opacity="0.7" stroke="magenta" stroke-width="1" x1="92.0" x2="157.5" y1="178.0" y2="118.0" /><line opacity="0.7" stroke="magenta" stroke-width="1" x1="92.0" x2="158.0" y1="178.0" y2="169.0" /><line opacity="0.7" stroke="magenta" stroke-width="1" x1="109.0" x2="84.0" y1="139.0" y2="117.5" /><line opacity="0.7" stroke="magenta" stroke-width="1" x1="109.0" x2="71.5" y1="139.0" y2="108.0" /><line opacity="0.7" stroke="magenta" stroke-width="1" x1="109.0" x2="158.0" y1="139.0" y2="126.0" /><line opacity="0.7" stroke="magenta" stroke-width="1" x1="109.0" x2="157.5" y1="139.0" y2="118.0" /><line opacity="0.7" stroke="magenta" stroke-width="1" x1="84.0" x2="158.0" y1="117.5" y2="126.0" /><line opacity="0.7" stroke="magenta" stroke-width="1" x1="84.0" x2="157.5" y1="117.5" y2="118.0" /><line opacity="0.7" stroke="magenta" stroke-width="1" x1="84.0" x2="158.0" y1="117.5" y2="169.0" /><line opacity="0.7" stroke="magenta" stroke-width="1" x1="71.5" x2="158.0" y1="108.0" y2="126.0" /><line opacity="0.7" stroke="magenta" stroke-width="1" x1="71.5" x2="157.5" y1="108.0" y2="118.0" /><line opacity="0.7" stroke="magenta" stroke-width="1" x1="71.5" x2="158.0" y1="108.0" y2="169.0" /><line opacity="0.7" stroke="magenta" stroke-width="1" x1="94.0" x2="158.0" y1="149.0" y2="126.0" /><line opacity="0.7" stroke="magenta" stroke-width="1" x1="94.0" x2="157.5" y1="149.0" y2="118.0" /><line opacity="0.7" stroke="magenta" stroke-width="1" x1="94.0" x2="158.0" y1="149.0" y2="169.0" /><line opacity="0.7" stroke="magenta" stroke-width="1" x1="158.0" x2="157.5" y1="126.0" y2="118.0" /><circle cx="130.0" cy="117.0" fill="white" opacity="0.8" r="1.5" stroke="blue" stroke-width="0.8" /><circle cx="92.0" cy="178.0" fill="white" opacity="0.8" r="1.5" stroke="blue" stroke-width="0.8" /><circle cx="84.0" cy="117.5" fill="white" opacity="0.8" r="1.5" stroke="blue" stroke-width="0.8" /><circle cx="109.0" cy="139.0" fill="white" opacity="0.8" r="1.5" stroke="blue" stroke-width="0.8" /><circle cx="186.0" cy="78.0" fill="white" opacity="0.8" r="1.5" stroke="blue" stroke-width="0.8" /><circle cx="71.5" cy="108.0" fill="white" opacity="0.8" r="1.5" stroke="blue" stroke-width="0.8" /><circle cx="134.5" cy="138.0" fill="white" opacity="0.8" r="1.5" stroke="blue" stroke-width="0.8" /><circle cx="158.0" cy="180.0" fill="white" opacity="0.8" r="1.5" stroke="blue" stroke-width="0.8" /><circle cx="184.5" cy="179.0" fill="white" opacity="0.8" r="1.5" stroke="blue" stroke-width="0.8" /><circle cx="158.0" cy="169.0" fill="white" opacity="0.8" r="1.5" stroke="blue" stroke-width="0.8" /><circle cx="71.5" cy="178.5" fill="white" opacity="0.8" r="1.5" stroke="blue" stroke-width="0.8" /><circle cx="71.0" cy="150.0" fill="white" opacity="0.8" r="1.5" stroke="blue" stroke-width="0.8" /><circle cx="71.0" cy="79.0" fill="white" opacity="0.8" r="1.5" stroke="blue" stroke-width="0.8" /><circle cx="157.5" cy="118.0" fill="white" opacity="0.8" r="1.5" stroke="blue" stroke-width="0.8" /><circle cx="186.0" cy="125.0" fill="white" opacity="0.8" r="1.5" stroke="blue" stroke-width="0.8" /><circle cx="94.0" cy="149.0" fill="white" opacity="0.8" r="1.5" stroke="blue" stroke-width="0.8" /><circle cx="158.0" cy="126.0" fill="white" opacity="0.8" r="1.5" stroke="blue" stroke-width="0.8" /><circle cx="70.0" cy="132.0" fill="white" opacity="0.8" r="1.5" stroke="blue" stroke-width="0.8" /></svg>