<?xml version="1.0" encoding="utf-8" ?>
<svg baseProfile="full" height="256" version="1.1" width="256" xmlns="http://www.w3.org/2000/svg" xmlns:ev="http://www.w3.org/2001/xml-events" xmlns:xlink="http://www.w3.org/1999/xlink"><defs /><image height="256" width="256" xlink:href="/home/nelson/Workspace/building_reconstruction/la_dataset_new/rgb/1526358002.27.jpg" /><line opacity="0.7" stroke="magenta" stroke-width="1" x1="81.0" x2="193.5" y1="76.5" y2="132.5" /><line opacity="0.7" stroke="magenta" stroke-width="1" x1="81.0" x2="84.5" y1="76.5" y2="111.0" /><line opacity="0.7" stroke="magenta" stroke-width="1" x1="81.0" x2="59.5" y1="76.5" y2="122.0" /><line opacity="0.7" stroke="magenta" stroke-width="1" x1="81.0" x2="195.0" y1="76.5" y2="76.0" /><line opacity="0.7" stroke="magenta" stroke-width="1" x1="81.0" x2="107.5" y1="76.5" y2="158.0" /><line opacity="0.7" stroke="magenta" stroke-width="1" x1="81.0" x2="89.5" y1="76.5" y2="105.0" /><line opacity="0.7" stroke="magenta" stroke-width="1" x1="193.5" x2="59.5" y1="132.5" y2="122.0" /><line opacity="0.7" stroke="magenta" stroke-width="1" x1="193.5" x2="167.5" y1="132.5" y2="181.0" /><line opacity="0.7" stroke="magenta" stroke-width="1" x1="193.5" x2="99.0" y1="132.5" y2="180.0" /><line opacity="0.7" stroke="magenta" stroke-width="1" x1="193.5" x2="195.0" y1="132.5" y2="76.0" /><line opacity="0.7" stroke="magenta" stroke-width="1" x1="193.5" x2="170.0" y1="132.5" y2="121.5" /><line opacity="0.7" stroke="magenta" stroke-width="1" x1="193.5" x2="160.5" y1="132.5" y2="137.5" /><line opacity="0.7" stroke="magenta" stroke-width="1" x1="193.5" x2="151.0" y1="132.5" y2="143.5" /><line opacity="0.7" stroke="magenta" stroke-width="1" x1="193.5" x2="144.0" y1="132.5" y2="167.0" /><line opacity="0.7" stroke="magenta" stroke-width="1" x1="84.5" x2="59.5" y1="111.0" y2="122.0" /><line opacity="0.7" stroke="magenta" stroke-width="1" x1="84.5" x2="99.0" y1="111.0" y2="180.0" /><line opacity="0.7" stroke="magenta" stroke-width="1" x1="84.5" x2="107.5" y1="111.0" y2="158.0" /><line opacity="0.7" stroke="magenta" stroke-width="1" x1="84.5" x2="170.0" y1="111.0" y2="121.5" /><line opacity="0.7" stroke="magenta" stroke-width="1" x1="84.5" x2="160.5" y1="111.0" y2="137.5" /><line opacity="0.7" stroke="magenta" stroke-width="1" x1="84.5" x2="151.0" y1="111.0" y2="143.5" /><line opacity="0.7" stroke="magenta" stroke-width="1" x1="84.5" x2="144.0" y1="111.0" y2="167.0" /><line opacity="0.7" stroke="magenta" stroke-width="1" x1="84.5" x2="145.0" y1="111.0" y2="178.0" /><line opacity="0.7" stroke="magenta" stroke-width="1" x1="84.5" x2="89.5" y1="111.0" y2="105.0" /><line opacity="0.7" stroke="magenta" stroke-width="1" x1="59.5" x2="167.5" y1="122.0" y2="181.0" /><line opacity="0.7" stroke="magenta" stroke-width="1" x1="59.5" x2="99.0" y1="122.0" y2="180.0" /><line opacity="0.7" stroke="magenta" stroke-width="1" x1="59.5" x2="195.0" y1="122.0" y2="76.0" /><line opacity="0.7" stroke="magenta" stroke-width="1" x1="59.5" x2="107.5" y1="122.0" y2="158.0" /><line opacity="0.7" stroke="magenta" stroke-width="1" x1="59.5" x2="160.5" y1="122.0" y2="137.5" /><line opacity="0.7" stroke="magenta" stroke-width="1" x1="59.5" x2="151.0" y1="122.0" y2="143.5" /><line opacity="0.7" stroke="magenta" stroke-width="1" x1="59.5" x2="89.5" y1="122.0" y2="105.0" /><line opacity="0.7" stroke="magenta" stroke-width="1" x1="167.5" x2="99.0" y1="181.0" y2="180.0" /><line opacity="0.7" stroke="magenta" stroke-width="1" x1="167.5" x2="107.5" y1="181.0" y2="158.0" /><line opacity="0.7" stroke="magenta" stroke-width="1" x1="167.5" x2="170.0" y1="181.0" y2="121.5" /><line opacity="0.7" stroke="magenta" stroke-width="1" x1="167.5" x2="160.5" y1="181.0" y2="137.5" /><line opacity="0.7" stroke="magenta" stroke-width="1" x1="167.5" x2="151.0" y1="181.0" y2="143.5" /><line opacity="0.7" stroke="magenta" stroke-width="1" x1="167.5" x2="144.0" y1="181.0" y2="167.0" /><line opacity="0.7" stroke="magenta" stroke-width="1" x1="167.5" x2="145.0" y1="181.0" y2="178.0" /><line opacity="0.7" stroke="magenta" stroke-width="1" x1="99.0" x2="107.5" y1="180.0" y2="158.0" /><line opacity="0.7" stroke="magenta" stroke-width="1" x1="99.0" x2="170.0" y1="180.0" y2="121.5" /><line opacity="0.7" stroke="magenta" stroke-width="1" x1="99.0" x2="160.5" y1="180.0" y2="137.5" /><line opacity="0.7" stroke="magenta" stroke-width="1" x1="99.0" x2="151.0" y1="180.0" y2="143.5" /><line opacity="0.7" stroke="magenta" stroke-width="1" x1="99.0" x2="145.0" y1="180.0" y2="178.0" /><line opacity="0.7" stroke="magenta" stroke-width="1" x1="99.0" x2="89.5" y1="180.0" y2="105.0" /><line opacity="0.7" stroke="magenta" stroke-width="1" x1="195.0" x2="107.5" y1="76.0" y2="158.0" /><line opacity="0.7" stroke="magenta" stroke-width="1" x1="195.0" x2="170.0" y1="76.0" y2="121.5" /><line opacity="0.7" stroke="magenta" stroke-width="1" x1="195.0" x2="160.5" y1="76.0" y2="137.5" /><line opacity="0.7" stroke="magenta" stroke-width="1" x1="195.0" x2="151.0" y1="76.0" y2="143.5" /><line opacity="0.7" stroke="magenta" stroke-width="1" x1="195.0" x2="144.0" y1="76.0" y2="167.0" /><line opacity="0.7" stroke="magenta" stroke-width="1" x1="195.0" x2="145.0" y1="76.0" y2="178.0" /><line opacity="0.7" stroke="magenta" stroke-width="1" x1="107.5" x2="151.0" y1="158.0" y2="143.5" /><line opacity="0.7" stroke="magenta" stroke-width="1" x1="107.5" x2="145.0" y1="158.0" y2="178.0" /><line opacity="0.7" stroke="magenta" stroke-width="1" x1="107.5" x2="89.5" y1="158.0" y2="105.0" /><line opacity="0.7" stroke="magenta" stroke-width="1" x1="170.0" x2="160.5" y1="121.5" y2="137.5" /><line opacity="0.7" stroke="magenta" stroke-width="1" x1="170.0" x2="151.0" y1="121.5" y2="143.5" /><line opacity="0.7" stroke="magenta" stroke-width="1" x1="170.0" x2="89.5" y1="121.5" y2="105.0" /><line opacity="0.7" stroke="magenta" stroke-width="1" x1="160.5" x2="151.0" y1="137.5" y2="143.5" /><line opacity="0.7" stroke="magenta" stroke-width="1" x1="160.5" x2="144.0" y1="137.5" y2="167.0" /><line opacity="0.7" stroke="magenta" stroke-width="1" x1="160.5" x2="145.0" y1="137.5" y2="178.0" /><line opacity="0.7" stroke="magenta" stroke-width="1" x1="160.5" x2="89.5" y1="137.5" y2="105.0" /><line opacity="0.7" stroke="magenta" stroke-width="1" x1="151.0" x2="144.0" y1="143.5" y2="167.0" /><line opacity="0.7" stroke="magenta" stroke-width="1" x1="151.0" x2="89.5" y1="143.5" y2="105.0" /><circle cx="160.5" cy="137.5" fill="white" opacity="0.8" r="1.5" stroke="blue" stroke-width="0.8" /><circle cx="107.5" cy="158.0" fill="white" opacity="0.8" r="1.5" stroke="blue" stroke-width="0.8" /><circle cx="99.0" cy="180.0" fill="white" opacity="0.8" r="1.5" stroke="blue" stroke-width="0.8" /><circle cx="193.5" cy="132.5" fill="white" opacity="0.8" r="1.5" stroke="blue" stroke-width="0.8" /><circle cx="170.0" cy="121.5" fill="white" opacity="0.8" r="1.5" stroke="blue" stroke-width="0.8" /><circle cx="151.0" cy="143.5" fill="white" opacity="0.8" r="1.5" stroke="blue" stroke-width="0.8" /><circle cx="145.0" cy="178.0" fill="white" opacity="0.8" r="1.5" stroke="blue" stroke-width="0.8" /><circle cx="144.0" cy="167.0" fill="white" opacity="0.8" r="1.5" stroke="blue" stroke-width="0.8" /><circle cx="167.5" cy="181.0" fill="white" opacity="0.8" r="1.5" stroke="blue" stroke-width="0.8" /><circle cx="195.0" cy="76.0" fill="white" opacity="0.8" r="1.5" stroke="blue" stroke-width="0.8" /><circle cx="59.5" cy="122.0" fill="white" opacity="0.8" r="1.5" stroke="blue" stroke-width="0.8" /><circle cx="84.5" cy="111.0" fill="white" opacity="0.8" r="1.5" stroke="blue" stroke-width="0.8" /><circle cx="81.0" cy="76.5" fill="white" opacity="0.8" r="1.5" stroke="blue" stroke-width="0.8" /><circle cx="89.5" cy="105.0" fill="white" opacity="0.8" r="1.5" stroke="blue" stroke-width="0.8" /></svg>