<?xml version="1.0" encoding="utf-8" ?>
<svg baseProfile="full" height="256" version="1.1" width="256" xmlns="http://www.w3.org/2000/svg" xmlns:ev="http://www.w3.org/2001/xml-events" xmlns:xlink="http://www.w3.org/1999/xlink"><defs /><image height="256" width="256" xlink:href="/home/nelson/Workspace/building_reconstruction/la_dataset_new/rgb/1526359104.57.jpg" /><line opacity="0.7" stroke="magenta" stroke-width="1" x1="242.0" x2="114.0" y1="96.0" y2="98.0" /><line opacity="0.7" stroke="magenta" stroke-width="1" x1="242.0" x2="245.0" y1="96.0" y2="148.5" /><line opacity="0.7" stroke="magenta" stroke-width="1" x1="242.0" x2="241.0" y1="96.0" y2="139.0" /><line opacity="0.7" stroke="magenta" stroke-width="1" x1="18.5" x2="18.0" y1="120.0" y2="163.0" /><line opacity="0.7" stroke="magenta" stroke-width="1" x1="18.5" x2="102.0" y1="120.0" y2="119.5" /><line opacity="0.7" stroke="magenta" stroke-width="1" x1="18.5" x2="18.0" y1="120.0" y2="141.5" /><line opacity="0.7" stroke="magenta" stroke-width="1" x1="114.0" x2="116.0" y1="98.0" y2="116.5" /><line opacity="0.7" stroke="magenta" stroke-width="1" x1="114.0" x2="102.0" y1="98.0" y2="119.5" /><line opacity="0.7" stroke="magenta" stroke-width="1" x1="142.5" x2="163.0" y1="136.0" y2="138.0" /><line opacity="0.7" stroke="magenta" stroke-width="1" x1="142.5" x2="141.0" y1="136.0" y2="120.0" /><line opacity="0.7" stroke="magenta" stroke-width="1" x1="144.0" x2="18.0" y1="161.0" y2="163.0" /><line opacity="0.7" stroke="magenta" stroke-width="1" x1="116.0" x2="118.0" y1="116.5" y2="128.0" /><line opacity="0.7" stroke="magenta" stroke-width="1" x1="18.0" x2="18.0" y1="163.0" y2="141.5" /><line opacity="0.7" stroke="magenta" stroke-width="1" x1="245.0" x2="241.0" y1="148.5" y2="139.0" /><line opacity="0.7" stroke="magenta" stroke-width="1" x1="241.0" x2="163.0" y1="139.0" y2="138.0" /><line opacity="0.7" stroke="magenta" stroke-width="1" x1="102.0" x2="141.0" y1="119.5" y2="120.0" /><circle cx="102.0" cy="119.5" fill="white" opacity="0.8" r="1.5" stroke="blue" stroke-width="0.8" /><circle cx="144.0" cy="161.0" fill="white" opacity="0.8" r="1.5" stroke="blue" stroke-width="0.8" /><circle cx="116.0" cy="116.5" fill="white" opacity="0.8" r="1.5" stroke="blue" stroke-width="0.8" /><circle cx="142.5" cy="136.0" fill="white" opacity="0.8" r="1.5" stroke="blue" stroke-width="0.8" /><circle cx="141.0" cy="120.0" fill="white" opacity="0.8" r="1.5" stroke="blue" stroke-width="0.8" /><circle cx="242.0" cy="96.0" fill="white" opacity="0.8" r="1.5" stroke="blue" stroke-width="0.8" /><circle cx="114.0" cy="98.0" fill="white" opacity="0.8" r="1.5" stroke="blue" stroke-width="0.8" /><circle cx="241.0" cy="139.0" fill="white" opacity="0.8" r="1.5" stroke="blue" stroke-width="0.8" /><circle cx="118.0" cy="128.0" fill="white" opacity="0.8" r="1.5" stroke="blue" stroke-width="0.8" /><circle cx="245.0" cy="148.5" fill="white" opacity="0.8" r="1.5" stroke="blue" stroke-width="0.8" /><circle cx="18.0" cy="163.0" fill="white" opacity="0.8" r="1.5" stroke="blue" stroke-width="0.8" /><circle cx="163.0" cy="138.0" fill="white" opacity="0.8" r="1.5" stroke="blue" stroke-width="0.8" /><circle cx="18.0" cy="141.5" fill="white" opacity="0.8" r="1.5" stroke="blue" stroke-width="0.8" /><circle cx="18.5" cy="120.0" fill="white" opacity="0.8" r="1.5" stroke="blue" stroke-width="0.8" /><circle cx="167.0" cy="152.0" fill="white" opacity="0.8" r="1.5" stroke="red" stroke-width="0.8" /></svg>