<?xml version="1.0" encoding="utf-8" ?>
<svg baseProfile="full" height="256" version="1.1" width="256" xmlns="http://www.w3.org/2000/svg" xmlns:ev="http://www.w3.org/2001/xml-events" xmlns:xlink="http://www.w3.org/1999/xlink"><defs /><image height="256" width="256" xlink:href="/home/nelson/Workspace/building_reconstruction/la_dataset_new/rgb/1526357657.92.jpg" /><line opacity="0.7" stroke="magenta" stroke-width="1" x1="21.5" x2="60.0" y1="116.0" y2="47.0" /><line opacity="0.7" stroke="magenta" stroke-width="1" x1="21.5" x2="191.0" y1="116.0" y2="208.0" /><line opacity="0.7" stroke="magenta" stroke-width="1" x1="21.5" x2="107.0" y1="116.0" y2="128.0" /><line opacity="0.7" stroke="magenta" stroke-width="1" x1="21.5" x2="93.0" y1="116.0" y2="120.0" /><line opacity="0.7" stroke="magenta" stroke-width="1" x1="21.5" x2="67.5" y1="116.0" y2="107.0" /><line opacity="0.7" stroke="magenta" stroke-width="1" x1="21.5" x2="166.0" y1="116.0" y2="159.0" /><line opacity="0.7" stroke="magenta" stroke-width="1" x1="21.5" x2="81.0" y1="116.0" y2="58.0" /><line opacity="0.7" stroke="magenta" stroke-width="1" x1="231.5" x2="60.0" y1="138.0" y2="47.0" /><line opacity="0.7" stroke="magenta" stroke-width="1" x1="231.5" x2="191.0" y1="138.0" y2="208.0" /><line opacity="0.7" stroke="magenta" stroke-width="1" x1="231.5" x2="181.5" y1="138.0" y2="160.5" /><line opacity="0.7" stroke="magenta" stroke-width="1" x1="231.5" x2="107.0" y1="138.0" y2="128.0" /><line opacity="0.7" stroke="magenta" stroke-width="1" x1="231.5" x2="93.0" y1="138.0" y2="120.0" /><line opacity="0.7" stroke="magenta" stroke-width="1" x1="231.5" x2="188.0" y1="138.0" y2="148.0" /><line opacity="0.7" stroke="magenta" stroke-width="1" x1="231.5" x2="140.0" y1="138.0" y2="144.0" /><line opacity="0.7" stroke="magenta" stroke-width="1" x1="231.5" x2="146.5" y1="138.0" y2="115.0" /><line opacity="0.7" stroke="magenta" stroke-width="1" x1="231.5" x2="156.5" y1="138.0" y2="97.5" /><line opacity="0.7" stroke="magenta" stroke-width="1" x1="231.5" x2="171.5" y1="138.0" y2="106.0" /><line opacity="0.7" stroke="magenta" stroke-width="1" x1="231.5" x2="166.0" y1="138.0" y2="159.0" /><line opacity="0.7" stroke="magenta" stroke-width="1" x1="231.5" x2="243.0" y1="138.0" y2="114.5" /><line opacity="0.7" stroke="magenta" stroke-width="1" x1="231.5" x2="159.5" y1="138.0" y2="81.0" /><line opacity="0.7" stroke="magenta" stroke-width="1" x1="231.5" x2="81.0" y1="138.0" y2="58.0" /><line opacity="0.7" stroke="magenta" stroke-width="1" x1="231.5" x2="162.0" y1="138.0" y2="104.5" /><line opacity="0.7" stroke="magenta" stroke-width="1" x1="60.0" x2="107.0" y1="47.0" y2="128.0" /><line opacity="0.7" stroke="magenta" stroke-width="1" x1="60.0" x2="93.0" y1="47.0" y2="120.0" /><line opacity="0.7" stroke="magenta" stroke-width="1" x1="60.0" x2="67.5" y1="47.0" y2="107.0" /><line opacity="0.7" stroke="magenta" stroke-width="1" x1="60.0" x2="140.0" y1="47.0" y2="144.0" /><line opacity="0.7" stroke="magenta" stroke-width="1" x1="60.0" x2="146.5" y1="47.0" y2="115.0" /><line opacity="0.7" stroke="magenta" stroke-width="1" x1="60.0" x2="156.5" y1="47.0" y2="97.5" /><line opacity="0.7" stroke="magenta" stroke-width="1" x1="60.0" x2="171.5" y1="47.0" y2="106.0" /><line opacity="0.7" stroke="magenta" stroke-width="1" x1="60.0" x2="243.0" y1="47.0" y2="114.5" /><line opacity="0.7" stroke="magenta" stroke-width="1" x1="60.0" x2="159.5" y1="47.0" y2="81.0" /><line opacity="0.7" stroke="magenta" stroke-width="1" x1="60.0" x2="81.0" y1="47.0" y2="58.0" /><line opacity="0.7" stroke="magenta" stroke-width="1" x1="60.0" x2="162.0" y1="47.0" y2="104.5" /><line opacity="0.7" stroke="magenta" stroke-width="1" x1="191.0" x2="181.5" y1="208.0" y2="160.5" /><line opacity="0.7" stroke="magenta" stroke-width="1" x1="191.0" x2="107.0" y1="208.0" y2="128.0" /><line opacity="0.7" stroke="magenta" stroke-width="1" x1="191.0" x2="93.0" y1="208.0" y2="120.0" /><line opacity="0.7" stroke="magenta" stroke-width="1" x1="191.0" x2="67.5" y1="208.0" y2="107.0" /><line opacity="0.7" stroke="magenta" stroke-width="1" x1="191.0" x2="188.0" y1="208.0" y2="148.0" /><line opacity="0.7" stroke="magenta" stroke-width="1" x1="191.0" x2="140.0" y1="208.0" y2="144.0" /><line opacity="0.7" stroke="magenta" stroke-width="1" x1="191.0" x2="146.5" y1="208.0" y2="115.0" /><line opacity="0.7" stroke="magenta" stroke-width="1" x1="191.0" x2="166.0" y1="208.0" y2="159.0" /><line opacity="0.7" stroke="magenta" stroke-width="1" x1="191.0" x2="243.0" y1="208.0" y2="114.5" /><line opacity="0.7" stroke="magenta" stroke-width="1" x1="181.5" x2="107.0" y1="160.5" y2="128.0" /><line opacity="0.7" stroke="magenta" stroke-width="1" x1="181.5" x2="93.0" y1="160.5" y2="120.0" /><line opacity="0.7" stroke="magenta" stroke-width="1" x1="181.5" x2="67.5" y1="160.5" y2="107.0" /><line opacity="0.7" stroke="magenta" stroke-width="1" x1="181.5" x2="188.0" y1="160.5" y2="148.0" /><line opacity="0.7" stroke="magenta" stroke-width="1" x1="181.5" x2="140.0" y1="160.5" y2="144.0" /><line opacity="0.7" stroke="magenta" stroke-width="1" x1="181.5" x2="146.5" y1="160.5" y2="115.0" /><line opacity="0.7" stroke="magenta" stroke-width="1" x1="181.5" x2="156.5" y1="160.5" y2="97.5" /><line opacity="0.7" stroke="magenta" stroke-width="1" x1="181.5" x2="171.5" y1="160.5" y2="106.0" /><line opacity="0.7" stroke="magenta" stroke-width="1" x1="181.5" x2="166.0" y1="160.5" y2="159.0" /><line opacity="0.7" stroke="magenta" stroke-width="1" x1="181.5" x2="243.0" y1="160.5" y2="114.5" /><line opacity="0.7" stroke="magenta" stroke-width="1" x1="181.5" x2="159.5" y1="160.5" y2="81.0" /><line opacity="0.7" stroke="magenta" stroke-width="1" x1="181.5" x2="81.0" y1="160.5" y2="58.0" /><line opacity="0.7" stroke="magenta" stroke-width="1" x1="181.5" x2="162.0" y1="160.5" y2="104.5" /><line opacity="0.7" stroke="magenta" stroke-width="1" x1="107.0" x2="93.0" y1="128.0" y2="120.0" /><line opacity="0.7" stroke="magenta" stroke-width="1" x1="107.0" x2="67.5" y1="128.0" y2="107.0" /><line opacity="0.7" stroke="magenta" stroke-width="1" x1="107.0" x2="188.0" y1="128.0" y2="148.0" /><line opacity="0.7" stroke="magenta" stroke-width="1" x1="107.0" x2="140.0" y1="128.0" y2="144.0" /><line opacity="0.7" stroke="magenta" stroke-width="1" x1="107.0" x2="146.5" y1="128.0" y2="115.0" /><line opacity="0.7" stroke="magenta" stroke-width="1" x1="107.0" x2="156.5" y1="128.0" y2="97.5" /><line opacity="0.7" stroke="magenta" stroke-width="1" x1="107.0" x2="171.5" y1="128.0" y2="106.0" /><line opacity="0.7" stroke="magenta" stroke-width="1" x1="107.0" x2="166.0" y1="128.0" y2="159.0" /><line opacity="0.7" stroke="magenta" stroke-width="1" x1="107.0" x2="243.0" y1="128.0" y2="114.5" /><line opacity="0.7" stroke="magenta" stroke-width="1" x1="107.0" x2="159.5" y1="128.0" y2="81.0" /><line opacity="0.7" stroke="magenta" stroke-width="1" x1="107.0" x2="81.0" y1="128.0" y2="58.0" /><line opacity="0.7" stroke="magenta" stroke-width="1" x1="107.0" x2="162.0" y1="128.0" y2="104.5" /><line opacity="0.7" stroke="magenta" stroke-width="1" x1="93.0" x2="67.5" y1="120.0" y2="107.0" /><line opacity="0.7" stroke="magenta" stroke-width="1" x1="93.0" x2="188.0" y1="120.0" y2="148.0" /><line opacity="0.7" stroke="magenta" stroke-width="1" x1="93.0" x2="140.0" y1="120.0" y2="144.0" /><line opacity="0.7" stroke="magenta" stroke-width="1" x1="93.0" x2="146.5" y1="120.0" y2="115.0" /><line opacity="0.7" stroke="magenta" stroke-width="1" x1="93.0" x2="156.5" y1="120.0" y2="97.5" /><line opacity="0.7" stroke="magenta" stroke-width="1" x1="93.0" x2="171.5" y1="120.0" y2="106.0" /><line opacity="0.7" stroke="magenta" stroke-width="1" x1="93.0" x2="166.0" y1="120.0" y2="159.0" /><line opacity="0.7" stroke="magenta" stroke-width="1" x1="93.0" x2="243.0" y1="120.0" y2="114.5" /><line opacity="0.7" stroke="magenta" stroke-width="1" x1="93.0" x2="159.5" y1="120.0" y2="81.0" /><line opacity="0.7" stroke="magenta" stroke-width="1" x1="93.0" x2="81.0" y1="120.0" y2="58.0" /><line opacity="0.7" stroke="magenta" stroke-width="1" x1="93.0" x2="162.0" y1="120.0" y2="104.5" /><line opacity="0.7" stroke="magenta" stroke-width="1" x1="67.5" x2="188.0" y1="107.0" y2="148.0" /><line opacity="0.7" stroke="magenta" stroke-width="1" x1="67.5" x2="140.0" y1="107.0" y2="144.0" /><line opacity="0.7" stroke="magenta" stroke-width="1" x1="67.5" x2="146.5" y1="107.0" y2="115.0" /><line opacity="0.7" stroke="magenta" stroke-width="1" x1="67.5" x2="156.5" y1="107.0" y2="97.5" /><line opacity="0.7" stroke="magenta" stroke-width="1" x1="67.5" x2="166.0" y1="107.0" y2="159.0" /><line opacity="0.7" stroke="magenta" stroke-width="1" x1="67.5" x2="243.0" y1="107.0" y2="114.5" /><line opacity="0.7" stroke="magenta" stroke-width="1" x1="67.5" x2="162.0" y1="107.0" y2="104.5" /><line opacity="0.7" stroke="magenta" stroke-width="1" x1="188.0" x2="159.5" y1="148.0" y2="81.0" /><line opacity="0.7" stroke="magenta" stroke-width="1" x1="188.0" x2="81.0" y1="148.0" y2="58.0" /><line opacity="0.7" stroke="magenta" stroke-width="1" x1="188.0" x2="162.0" y1="148.0" y2="104.5" /><line opacity="0.7" stroke="magenta" stroke-width="1" x1="140.0" x2="243.0" y1="144.0" y2="114.5" /><line opacity="0.7" stroke="magenta" stroke-width="1" x1="140.0" x2="159.5" y1="144.0" y2="81.0" /><line opacity="0.7" stroke="magenta" stroke-width="1" x1="140.0" x2="81.0" y1="144.0" y2="58.0" /><line opacity="0.7" stroke="magenta" stroke-width="1" x1="146.5" x2="81.0" y1="115.0" y2="58.0" /><line opacity="0.7" stroke="magenta" stroke-width="1" x1="156.5" x2="81.0" y1="97.5" y2="58.0" /><line opacity="0.7" stroke="magenta" stroke-width="1" x1="171.5" x2="166.0" y1="106.0" y2="159.0" /><line opacity="0.7" stroke="magenta" stroke-width="1" x1="166.0" x2="81.0" y1="159.0" y2="58.0" /><line opacity="0.7" stroke="magenta" stroke-width="1" x1="243.0" x2="81.0" y1="114.5" y2="58.0" /><line opacity="0.7" stroke="magenta" stroke-width="1" x1="243.0" x2="162.0" y1="114.5" y2="104.5" /><line opacity="0.7" stroke="magenta" stroke-width="1" x1="159.5" x2="162.0" y1="81.0" y2="104.5" /><circle cx="21.5" cy="116.0" fill="white" opacity="0.8" r="1.5" stroke="blue" stroke-width="0.8" /><circle cx="166.0" cy="159.0" fill="white" opacity="0.8" r="1.5" stroke="blue" stroke-width="0.8" /><circle cx="60.0" cy="47.0" fill="white" opacity="0.8" r="1.5" stroke="blue" stroke-width="0.8" /><circle cx="231.5" cy="138.0" fill="white" opacity="0.8" r="1.5" stroke="blue" stroke-width="0.8" /><circle cx="243.0" cy="114.5" fill="white" opacity="0.8" r="1.5" stroke="blue" stroke-width="0.8" /><circle cx="146.5" cy="115.0" fill="white" opacity="0.8" r="1.5" stroke="blue" stroke-width="0.8" /><circle cx="107.0" cy="128.0" fill="white" opacity="0.8" r="1.5" stroke="blue" stroke-width="0.8" /><circle cx="162.0" cy="104.5" fill="white" opacity="0.8" r="1.5" stroke="blue" stroke-width="0.8" /><circle cx="181.5" cy="160.5" fill="white" opacity="0.8" r="1.5" stroke="blue" stroke-width="0.8" /><circle cx="140.0" cy="144.0" fill="white" opacity="0.8" r="1.5" stroke="blue" stroke-width="0.8" /><circle cx="93.0" cy="120.0" fill="white" opacity="0.8" r="1.5" stroke="blue" stroke-width="0.8" /><circle cx="191.0" cy="208.0" fill="white" opacity="0.8" r="1.5" stroke="blue" stroke-width="0.8" /><circle cx="67.5" cy="107.0" fill="white" opacity="0.8" r="1.5" stroke="blue" stroke-width="0.8" /><circle cx="81.0" cy="58.0" fill="white" opacity="0.8" r="1.5" stroke="blue" stroke-width="0.8" /><circle cx="156.5" cy="97.5" fill="white" opacity="0.8" r="1.5" stroke="blue" stroke-width="0.8" /><circle cx="171.5" cy="106.0" fill="white" opacity="0.8" r="1.5" stroke="blue" stroke-width="0.8" /><circle cx="159.5" cy="81.0" fill="white" opacity="0.8" r="1.5" stroke="blue" stroke-width="0.8" /><circle cx="188.0" cy="148.0" fill="white" opacity="0.8" r="1.5" stroke="blue" stroke-width="0.8" /></svg>