<?xml version="1.0" encoding="utf-8" ?>
<svg baseProfile="full" height="256" version="1.1" width="256" xmlns="http://www.w3.org/2000/svg" xmlns:ev="http://www.w3.org/2001/xml-events" xmlns:xlink="http://www.w3.org/1999/xlink"><defs /><image height="256" width="256" xlink:href="/home/nelson/Workspace/building_reconstruction/la_dataset_new/rgb/1526404038.2.jpg" /><line opacity="0.7" stroke="magenta" stroke-width="1" x1="186.0" x2="141.5" y1="85.0" y2="85.0" /><line opacity="0.7" stroke="magenta" stroke-width="1" x1="186.0" x2="185.0" y1="85.0" y2="173.5" /><line opacity="0.7" stroke="magenta" stroke-width="1" x1="141.5" x2="142.0" y1="85.0" y2="107.5" /><line opacity="0.7" stroke="magenta" stroke-width="1" x1="70.0" x2="71.0" y1="108.0" y2="171.0" /><line opacity="0.7" stroke="magenta" stroke-width="1" x1="70.0" x2="142.0" y1="108.0" y2="107.5" /><line opacity="0.7" stroke="magenta" stroke-width="1" x1="71.0" x2="185.0" y1="171.0" y2="173.5" /><line opacity="0.7" stroke="magenta" stroke-width="1" x1="103.5" x2="102.0" y1="154.5" y2="173.0" /><circle cx="186.0" cy="85.0" fill="white" opacity="0.8" r="1.5" stroke="blue" stroke-width="0.8" /><circle cx="185.0" cy="173.5" fill="white" opacity="0.8" r="1.5" stroke="blue" stroke-width="0.8" /><circle cx="70.0" cy="108.0" fill="white" opacity="0.8" r="1.5" stroke="blue" stroke-width="0.8" /><circle cx="103.5" cy="154.5" fill="white" opacity="0.8" r="1.5" stroke="blue" stroke-width="0.8" /><circle cx="141.5" cy="85.0" fill="white" opacity="0.8" r="1.5" stroke="blue" stroke-width="0.8" /><circle cx="102.0" cy="173.0" fill="white" opacity="0.8" r="1.5" stroke="blue" stroke-width="0.8" /><circle cx="71.0" cy="171.0" fill="white" opacity="0.8" r="1.5" stroke="blue" stroke-width="0.8" /><circle cx="142.0" cy="107.5" fill="white" opacity="0.8" r="1.5" stroke="blue" stroke-width="0.8" /><circle cx="150.0" cy="152.5" fill="white" opacity="0.8" r="1.5" stroke="red" stroke-width="0.8" /><circle cx="147.0" cy="173.0" fill="white" opacity="0.8" r="1.5" stroke="red" stroke-width="0.8" /><circle cx="125.0" cy="116.0" fill="white" opacity="0.8" r="1.5" stroke="red" stroke-width="0.8" /></svg>