<?xml version="1.0" encoding="utf-8" ?>
<svg baseProfile="full" height="256" version="1.1" width="256" xmlns="http://www.w3.org/2000/svg" xmlns:ev="http://www.w3.org/2001/xml-events" xmlns:xlink="http://www.w3.org/1999/xlink"><defs /><image height="256" width="256" xlink:href="/home/nelson/Workspace/building_reconstruction/la_dataset_new/rgb/1526404656.37.jpg" /><line opacity="0.7" stroke="magenta" stroke-width="1" x1="74.0" x2="74.0" y1="169.5" y2="101.5" /><line opacity="0.7" stroke="magenta" stroke-width="1" x1="74.0" x2="182.0" y1="169.5" y2="168.5" /><line opacity="0.7" stroke="magenta" stroke-width="1" x1="74.0" x2="107.0" y1="101.5" y2="121.5" /><line opacity="0.7" stroke="magenta" stroke-width="1" x1="74.0" x2="115.0" y1="101.5" y2="100.0" /><line opacity="0.7" stroke="magenta" stroke-width="1" x1="182.0" x2="182.0" y1="168.5" y2="103.0" /><line opacity="0.7" stroke="magenta" stroke-width="1" x1="149.5" x2="182.0" y1="118.0" y2="103.0" /><line opacity="0.7" stroke="magenta" stroke-width="1" x1="149.5" x2="149.5" y1="118.0" y2="100.5" /><line opacity="0.7" stroke="magenta" stroke-width="1" x1="149.5" x2="107.0" y1="118.0" y2="121.5" /><line opacity="0.7" stroke="magenta" stroke-width="1" x1="149.5" x2="149.5" y1="118.0" y2="169.0" /><line opacity="0.7" stroke="magenta" stroke-width="1" x1="149.5" x2="149.5" y1="118.0" y2="87.0" /><line opacity="0.7" stroke="magenta" stroke-width="1" x1="149.5" x2="130.5" y1="118.0" y2="90.0" /><line opacity="0.7" stroke="magenta" stroke-width="1" x1="149.5" x2="129.0" y1="118.0" y2="161.0" /><line opacity="0.7" stroke="magenta" stroke-width="1" x1="182.0" x2="149.5" y1="103.0" y2="100.5" /><line opacity="0.7" stroke="magenta" stroke-width="1" x1="182.0" x2="149.5" y1="103.0" y2="87.0" /><line opacity="0.7" stroke="magenta" stroke-width="1" x1="149.5" x2="149.5" y1="100.5" y2="87.0" /><line opacity="0.7" stroke="magenta" stroke-width="1" x1="149.5" x2="115.0" y1="100.5" y2="100.0" /><line opacity="0.7" stroke="magenta" stroke-width="1" x1="149.5" x2="130.5" y1="100.5" y2="90.0" /><line opacity="0.7" stroke="magenta" stroke-width="1" x1="107.0" x2="115.0" y1="121.5" y2="100.0" /><line opacity="0.7" stroke="magenta" stroke-width="1" x1="107.0" x2="102.0" y1="121.5" y2="168.0" /><line opacity="0.7" stroke="magenta" stroke-width="1" x1="107.0" x2="130.5" y1="121.5" y2="90.0" /><line opacity="0.7" stroke="magenta" stroke-width="1" x1="107.0" x2="129.0" y1="121.5" y2="161.0" /><line opacity="0.7" stroke="magenta" stroke-width="1" x1="149.5" x2="129.0" y1="169.0" y2="161.0" /><line opacity="0.7" stroke="magenta" stroke-width="1" x1="149.5" x2="130.5" y1="87.0" y2="90.0" /><line opacity="0.7" stroke="magenta" stroke-width="1" x1="149.5" x2="115.0" y1="87.0" y2="92.0" /><line opacity="0.7" stroke="magenta" stroke-width="1" x1="115.0" x2="130.5" y1="100.0" y2="90.0" /><line opacity="0.7" stroke="magenta" stroke-width="1" x1="102.0" x2="129.0" y1="168.0" y2="161.0" /><line opacity="0.7" stroke="magenta" stroke-width="1" x1="130.5" x2="115.0" y1="90.0" y2="92.0" /><line opacity="0.7" stroke="magenta" stroke-width="1" x1="130.5" x2="129.0" y1="90.0" y2="161.0" /><circle cx="74.0" cy="101.5" fill="white" opacity="0.8" r="1.5" stroke="blue" stroke-width="0.8" /><circle cx="149.5" cy="118.0" fill="white" opacity="0.8" r="1.5" stroke="blue" stroke-width="0.8" /><circle cx="149.5" cy="169.0" fill="white" opacity="0.8" r="1.5" stroke="blue" stroke-width="0.8" /><circle cx="130.5" cy="90.0" fill="white" opacity="0.8" r="1.5" stroke="blue" stroke-width="0.8" /><circle cx="107.0" cy="121.5" fill="white" opacity="0.8" r="1.5" stroke="blue" stroke-width="0.8" /><circle cx="115.0" cy="92.0" fill="white" opacity="0.8" r="1.5" stroke="blue" stroke-width="0.8" /><circle cx="149.5" cy="100.5" fill="white" opacity="0.8" r="1.5" stroke="blue" stroke-width="0.8" /><circle cx="74.0" cy="169.5" fill="white" opacity="0.8" r="1.5" stroke="blue" stroke-width="0.8" /><circle cx="149.5" cy="87.0" fill="white" opacity="0.8" r="1.5" stroke="blue" stroke-width="0.8" /><circle cx="182.0" cy="168.5" fill="white" opacity="0.8" r="1.5" stroke="blue" stroke-width="0.8" /><circle cx="182.0" cy="103.0" fill="white" opacity="0.8" r="1.5" stroke="blue" stroke-width="0.8" /><circle cx="115.0" cy="100.0" fill="white" opacity="0.8" r="1.5" stroke="blue" stroke-width="0.8" /><circle cx="129.0" cy="161.0" fill="white" opacity="0.8" r="1.5" stroke="blue" stroke-width="0.8" /><circle cx="102.0" cy="168.0" fill="white" opacity="0.8" r="1.5" stroke="blue" stroke-width="0.8" /></svg>