<?xml version="1.0" encoding="utf-8" ?>
<svg baseProfile="full" height="256" version="1.1" width="256" xmlns="http://www.w3.org/2000/svg" xmlns:ev="http://www.w3.org/2001/xml-events" xmlns:xlink="http://www.w3.org/1999/xlink"><defs /><image height="256" width="256" xlink:href="/home/nelson/Workspace/building_reconstruction/la_dataset_new/rgb/1526403289.45.jpg" /><line opacity="0.7" stroke="magenta" stroke-width="1" x1="237.0" x2="192.0" y1="57.0" y2="140.0" /><line opacity="0.7" stroke="magenta" stroke-width="1" x1="237.0" x2="117.5" y1="57.0" y2="92.0" /><line opacity="0.7" stroke="magenta" stroke-width="1" x1="237.0" x2="139.5" y1="57.0" y2="163.0" /><line opacity="0.7" stroke="magenta" stroke-width="1" x1="237.0" x2="190.0" y1="57.0" y2="115.5" /><line opacity="0.7" stroke="magenta" stroke-width="1" x1="237.0" x2="61.0" y1="57.0" y2="84.0" /><line opacity="0.7" stroke="magenta" stroke-width="1" x1="237.0" x2="168.0" y1="57.0" y2="142.0" /><line opacity="0.7" stroke="magenta" stroke-width="1" x1="237.0" x2="117.0" y1="57.0" y2="163.0" /><line opacity="0.7" stroke="magenta" stroke-width="1" x1="237.0" x2="114.0" y1="57.0" y2="199.0" /><line opacity="0.7" stroke="magenta" stroke-width="1" x1="237.0" x2="42.0" y1="57.0" y2="150.0" /><line opacity="0.7" stroke="magenta" stroke-width="1" x1="237.0" x2="97.0" y1="57.0" y2="102.0" /><line opacity="0.7" stroke="magenta" stroke-width="1" x1="237.0" x2="97.5" y1="57.0" y2="131.0" /><line opacity="0.7" stroke="magenta" stroke-width="1" x1="237.0" x2="118.5" y1="57.0" y2="129.0" /><line opacity="0.7" stroke="magenta" stroke-width="1" x1="237.0" x2="91.0" y1="57.0" y2="83.0" /><line opacity="0.7" stroke="magenta" stroke-width="1" x1="237.0" x2="144.5" y1="57.0" y2="140.0" /><line opacity="0.7" stroke="magenta" stroke-width="1" x1="237.0" x2="166.0" y1="57.0" y2="163.0" /><line opacity="0.7" stroke="magenta" stroke-width="1" x1="237.0" x2="52.0" y1="57.0" y2="57.0" /><line opacity="0.7" stroke="magenta" stroke-width="1" x1="237.0" x2="88.0" y1="57.0" y2="56.0" /><line opacity="0.7" stroke="magenta" stroke-width="1" x1="237.0" x2="151.0" y1="57.0" y2="117.0" /><line opacity="0.7" stroke="magenta" stroke-width="1" x1="237.0" x2="75.5" y1="57.0" y2="199.0" /><line opacity="0.7" stroke="magenta" stroke-width="1" x1="237.0" x2="145.5" y1="57.0" y2="126.5" /><line opacity="0.7" stroke="magenta" stroke-width="1" x1="237.0" x2="42.5" y1="57.0" y2="126.0" /><line opacity="0.7" stroke="magenta" stroke-width="1" x1="237.0" x2="19.5" y1="57.0" y2="101.0" /><line opacity="0.7" stroke="magenta" stroke-width="1" x1="237.0" x2="91.0" y1="57.0" y2="200.0" /><line opacity="0.7" stroke="magenta" stroke-width="1" x1="237.0" x2="94.5" y1="57.0" y2="150.0" /><line opacity="0.7" stroke="magenta" stroke-width="1" x1="192.0" x2="28.0" y1="140.0" y2="56.5" /><line opacity="0.7" stroke="magenta" stroke-width="1" x1="192.0" x2="117.5" y1="140.0" y2="92.0" /><line opacity="0.7" stroke="magenta" stroke-width="1" x1="192.0" x2="233.5" y1="140.0" y2="203.0" /><line opacity="0.7" stroke="magenta" stroke-width="1" x1="192.0" x2="139.5" y1="140.0" y2="163.0" /><line opacity="0.7" stroke="magenta" stroke-width="1" x1="192.0" x2="61.0" y1="140.0" y2="84.0" /><line opacity="0.7" stroke="magenta" stroke-width="1" x1="192.0" x2="168.0" y1="140.0" y2="142.0" /><line opacity="0.7" stroke="magenta" stroke-width="1" x1="192.0" x2="117.0" y1="140.0" y2="163.0" /><line opacity="0.7" stroke="magenta" stroke-width="1" x1="192.0" x2="114.0" y1="140.0" y2="199.0" /><line opacity="0.7" stroke="magenta" stroke-width="1" x1="192.0" x2="42.0" y1="140.0" y2="150.0" /><line opacity="0.7" stroke="magenta" stroke-width="1" x1="192.0" x2="97.0" y1="140.0" y2="102.0" /><line opacity="0.7" stroke="magenta" stroke-width="1" x1="192.0" x2="97.5" y1="140.0" y2="131.0" /><line opacity="0.7" stroke="magenta" stroke-width="1" x1="192.0" x2="118.5" y1="140.0" y2="129.0" /><line opacity="0.7" stroke="magenta" stroke-width="1" x1="192.0" x2="52.0" y1="140.0" y2="57.0" /><line opacity="0.7" stroke="magenta" stroke-width="1" x1="192.0" x2="88.0" y1="140.0" y2="56.0" /><line opacity="0.7" stroke="magenta" stroke-width="1" x1="192.0" x2="151.0" y1="140.0" y2="117.0" /><line opacity="0.7" stroke="magenta" stroke-width="1" x1="192.0" x2="75.5" y1="140.0" y2="199.0" /><line opacity="0.7" stroke="magenta" stroke-width="1" x1="192.0" x2="145.5" y1="140.0" y2="126.5" /><line opacity="0.7" stroke="magenta" stroke-width="1" x1="192.0" x2="42.5" y1="140.0" y2="126.0" /><line opacity="0.7" stroke="magenta" stroke-width="1" x1="192.0" x2="19.5" y1="140.0" y2="101.0" /><line opacity="0.7" stroke="magenta" stroke-width="1" x1="192.0" x2="91.0" y1="140.0" y2="200.0" /><line opacity="0.7" stroke="magenta" stroke-width="1" x1="192.0" x2="94.5" y1="140.0" y2="150.0" /><line opacity="0.7" stroke="magenta" stroke-width="1" x1="28.0" x2="117.5" y1="56.5" y2="92.0" /><line opacity="0.7" stroke="magenta" stroke-width="1" x1="28.0" x2="233.5" y1="56.5" y2="203.0" /><line opacity="0.7" stroke="magenta" stroke-width="1" x1="28.0" x2="139.5" y1="56.5" y2="163.0" /><line opacity="0.7" stroke="magenta" stroke-width="1" x1="28.0" x2="190.0" y1="56.5" y2="115.5" /><line opacity="0.7" stroke="magenta" stroke-width="1" x1="28.0" x2="61.0" y1="56.5" y2="84.0" /><line opacity="0.7" stroke="magenta" stroke-width="1" x1="28.0" x2="168.0" y1="56.5" y2="142.0" /><line opacity="0.7" stroke="magenta" stroke-width="1" x1="28.0" x2="117.0" y1="56.5" y2="163.0" /><line opacity="0.7" stroke="magenta" stroke-width="1" x1="28.0" x2="114.0" y1="56.5" y2="199.0" /><line opacity="0.7" stroke="magenta" stroke-width="1" x1="28.0" x2="42.0" y1="56.5" y2="150.0" /><line opacity="0.7" stroke="magenta" stroke-width="1" x1="28.0" x2="97.0" y1="56.5" y2="102.0" /><line opacity="0.7" stroke="magenta" stroke-width="1" x1="28.0" x2="97.5" y1="56.5" y2="131.0" /><line opacity="0.7" stroke="magenta" stroke-width="1" x1="28.0" x2="118.5" y1="56.5" y2="129.0" /><line opacity="0.7" stroke="magenta" stroke-width="1" x1="28.0" x2="91.0" y1="56.5" y2="83.0" /><line opacity="0.7" stroke="magenta" stroke-width="1" x1="28.0" x2="144.5" y1="56.5" y2="140.0" /><line opacity="0.7" stroke="magenta" stroke-width="1" x1="28.0" x2="166.0" y1="56.5" y2="163.0" /><line opacity="0.7" stroke="magenta" stroke-width="1" x1="28.0" x2="52.0" y1="56.5" y2="57.0" /><line opacity="0.7" stroke="magenta" stroke-width="1" x1="28.0" x2="88.0" y1="56.5" y2="56.0" /><line opacity="0.7" stroke="magenta" stroke-width="1" x1="28.0" x2="151.0" y1="56.5" y2="117.0" /><line opacity="0.7" stroke="magenta" stroke-width="1" x1="28.0" x2="75.5" y1="56.5" y2="199.0" /><line opacity="0.7" stroke="magenta" stroke-width="1" x1="28.0" x2="145.5" y1="56.5" y2="126.5" /><line opacity="0.7" stroke="magenta" stroke-width="1" x1="28.0" x2="42.5" y1="56.5" y2="126.0" /><line opacity="0.7" stroke="magenta" stroke-width="1" x1="28.0" x2="19.5" y1="56.5" y2="101.0" /><line opacity="0.7" stroke="magenta" stroke-width="1" x1="28.0" x2="91.0" y1="56.5" y2="200.0" /><line opacity="0.7" stroke="magenta" stroke-width="1" x1="28.0" x2="94.5" y1="56.5" y2="150.0" /><line opacity="0.7" stroke="magenta" stroke-width="1" x1="117.5" x2="233.5" y1="92.0" y2="203.0" /><line opacity="0.7" stroke="magenta" stroke-width="1" x1="117.5" x2="139.5" y1="92.0" y2="163.0" /><line opacity="0.7" stroke="magenta" stroke-width="1" x1="117.5" x2="190.0" y1="92.0" y2="115.5" /><line opacity="0.7" stroke="magenta" stroke-width="1" x1="117.5" x2="61.0" y1="92.0" y2="84.0" /><line opacity="0.7" stroke="magenta" stroke-width="1" x1="117.5" x2="168.0" y1="92.0" y2="142.0" /><line opacity="0.7" stroke="magenta" stroke-width="1" x1="117.5" x2="114.0" y1="92.0" y2="199.0" /><line opacity="0.7" stroke="magenta" stroke-width="1" x1="117.5" x2="42.0" y1="92.0" y2="150.0" /><line opacity="0.7" stroke="magenta" stroke-width="1" x1="117.5" x2="97.5" y1="92.0" y2="131.0" /><line opacity="0.7" stroke="magenta" stroke-width="1" x1="117.5" x2="118.5" y1="92.0" y2="129.0" /><line opacity="0.7" stroke="magenta" stroke-width="1" x1="117.5" x2="91.0" y1="92.0" y2="83.0" /><line opacity="0.7" stroke="magenta" stroke-width="1" x1="117.5" x2="144.5" y1="92.0" y2="140.0" /><line opacity="0.7" stroke="magenta" stroke-width="1" x1="117.5" x2="166.0" y1="92.0" y2="163.0" /><line opacity="0.7" stroke="magenta" stroke-width="1" x1="117.5" x2="52.0" y1="92.0" y2="57.0" /><line opacity="0.7" stroke="magenta" stroke-width="1" x1="117.5" x2="88.0" y1="92.0" y2="56.0" /><line opacity="0.7" stroke="magenta" stroke-width="1" x1="117.5" x2="151.0" y1="92.0" y2="117.0" /><line opacity="0.7" stroke="magenta" stroke-width="1" x1="117.5" x2="75.5" y1="92.0" y2="199.0" /><line opacity="0.7" stroke="magenta" stroke-width="1" x1="117.5" x2="145.5" y1="92.0" y2="126.5" /><line opacity="0.7" stroke="magenta" stroke-width="1" x1="117.5" x2="42.5" y1="92.0" y2="126.0" /><line opacity="0.7" stroke="magenta" stroke-width="1" x1="117.5" x2="19.5" y1="92.0" y2="101.0" /><line opacity="0.7" stroke="magenta" stroke-width="1" x1="117.5" x2="91.0" y1="92.0" y2="200.0" /><line opacity="0.7" stroke="magenta" stroke-width="1" x1="117.5" x2="94.5" y1="92.0" y2="150.0" /><line opacity="0.7" stroke="magenta" stroke-width="1" x1="233.5" x2="139.5" y1="203.0" y2="163.0" /><line opacity="0.7" stroke="magenta" stroke-width="1" x1="233.5" x2="190.0" y1="203.0" y2="115.5" /><line opacity="0.7" stroke="magenta" stroke-width="1" x1="233.5" x2="61.0" y1="203.0" y2="84.0" /><line opacity="0.7" stroke="magenta" stroke-width="1" x1="233.5" x2="168.0" y1="203.0" y2="142.0" /><line opacity="0.7" stroke="magenta" stroke-width="1" x1="233.5" x2="117.0" y1="203.0" y2="163.0" /><line opacity="0.7" stroke="magenta" stroke-width="1" x1="233.5" x2="42.0" y1="203.0" y2="150.0" /><line opacity="0.7" stroke="magenta" stroke-width="1" x1="233.5" x2="97.0" y1="203.0" y2="102.0" /><line opacity="0.7" stroke="magenta" stroke-width="1" x1="233.5" x2="97.5" y1="203.0" y2="131.0" /><line opacity="0.7" stroke="magenta" stroke-width="1" x1="233.5" x2="118.5" y1="203.0" y2="129.0" /><line opacity="0.7" stroke="magenta" stroke-width="1" x1="233.5" x2="91.0" y1="203.0" y2="83.0" /><line opacity="0.7" stroke="magenta" stroke-width="1" x1="233.5" x2="144.5" y1="203.0" y2="140.0" /><line opacity="0.7" stroke="magenta" stroke-width="1" x1="233.5" x2="166.0" y1="203.0" y2="163.0" /><line opacity="0.7" stroke="magenta" stroke-width="1" x1="233.5" x2="52.0" y1="203.0" y2="57.0" /><line opacity="0.7" stroke="magenta" stroke-width="1" x1="233.5" x2="88.0" y1="203.0" y2="56.0" /><line opacity="0.7" stroke="magenta" stroke-width="1" x1="233.5" x2="151.0" y1="203.0" y2="117.0" /><line opacity="0.7" stroke="magenta" stroke-width="1" x1="233.5" x2="75.5" y1="203.0" y2="199.0" /><line opacity="0.7" stroke="magenta" stroke-width="1" x1="233.5" x2="145.5" y1="203.0" y2="126.5" /><line opacity="0.7" stroke="magenta" stroke-width="1" x1="233.5" x2="42.5" y1="203.0" y2="126.0" /><line opacity="0.7" stroke="magenta" stroke-width="1" x1="233.5" x2="19.5" y1="203.0" y2="101.0" /><line opacity="0.7" stroke="magenta" stroke-width="1" x1="233.5" x2="91.0" y1="203.0" y2="200.0" /><line opacity="0.7" stroke="magenta" stroke-width="1" x1="233.5" x2="94.5" y1="203.0" y2="150.0" /><line opacity="0.7" stroke="magenta" stroke-width="1" x1="139.5" x2="190.0" y1="163.0" y2="115.5" /><line opacity="0.7" stroke="magenta" stroke-width="1" x1="139.5" x2="61.0" y1="163.0" y2="84.0" /><line opacity="0.7" stroke="magenta" stroke-width="1" x1="139.5" x2="114.0" y1="163.0" y2="199.0" /><line opacity="0.7" stroke="magenta" stroke-width="1" x1="139.5" x2="42.0" y1="163.0" y2="150.0" /><line opacity="0.7" stroke="magenta" stroke-width="1" x1="139.5" x2="97.0" y1="163.0" y2="102.0" /><line opacity="0.7" stroke="magenta" stroke-width="1" x1="139.5" x2="118.5" y1="163.0" y2="129.0" /><line opacity="0.7" stroke="magenta" stroke-width="1" x1="139.5" x2="91.0" y1="163.0" y2="83.0" /><line opacity="0.7" stroke="magenta" stroke-width="1" x1="139.5" x2="144.5" y1="163.0" y2="140.0" /><line opacity="0.7" stroke="magenta" stroke-width="1" x1="139.5" x2="52.0" y1="163.0" y2="57.0" /><line opacity="0.7" stroke="magenta" stroke-width="1" x1="139.5" x2="88.0" y1="163.0" y2="56.0" /><line opacity="0.7" stroke="magenta" stroke-width="1" x1="139.5" x2="151.0" y1="163.0" y2="117.0" /><line opacity="0.7" stroke="magenta" stroke-width="1" x1="139.5" x2="75.5" y1="163.0" y2="199.0" /><line opacity="0.7" stroke="magenta" stroke-width="1" x1="139.5" x2="145.5" y1="163.0" y2="126.5" /><line opacity="0.7" stroke="magenta" stroke-width="1" x1="139.5" x2="42.5" y1="163.0" y2="126.0" /><line opacity="0.7" stroke="magenta" stroke-width="1" x1="139.5" x2="19.5" y1="163.0" y2="101.0" /><line opacity="0.7" stroke="magenta" stroke-width="1" x1="139.5" x2="91.0" y1="163.0" y2="200.0" /><line opacity="0.7" stroke="magenta" stroke-width="1" x1="139.5" x2="94.5" y1="163.0" y2="150.0" /><line opacity="0.7" stroke="magenta" stroke-width="1" x1="190.0" x2="61.0" y1="115.5" y2="84.0" /><line opacity="0.7" stroke="magenta" stroke-width="1" x1="190.0" x2="168.0" y1="115.5" y2="142.0" /><line opacity="0.7" stroke="magenta" stroke-width="1" x1="190.0" x2="117.0" y1="115.5" y2="163.0" /><line opacity="0.7" stroke="magenta" stroke-width="1" x1="190.0" x2="114.0" y1="115.5" y2="199.0" /><line opacity="0.7" stroke="magenta" stroke-width="1" x1="190.0" x2="42.0" y1="115.5" y2="150.0" /><line opacity="0.7" stroke="magenta" stroke-width="1" x1="190.0" x2="97.0" y1="115.5" y2="102.0" /><line opacity="0.7" stroke="magenta" stroke-width="1" x1="190.0" x2="97.5" y1="115.5" y2="131.0" /><line opacity="0.7" stroke="magenta" stroke-width="1" x1="190.0" x2="118.5" y1="115.5" y2="129.0" /><line opacity="0.7" stroke="magenta" stroke-width="1" x1="190.0" x2="91.0" y1="115.5" y2="83.0" /><line opacity="0.7" stroke="magenta" stroke-width="1" x1="190.0" x2="75.5" y1="115.5" y2="199.0" /><line opacity="0.7" stroke="magenta" stroke-width="1" x1="190.0" x2="145.5" y1="115.5" y2="126.5" /><line opacity="0.7" stroke="magenta" stroke-width="1" x1="190.0" x2="42.5" y1="115.5" y2="126.0" /><line opacity="0.7" stroke="magenta" stroke-width="1" x1="190.0" x2="19.5" y1="115.5" y2="101.0" /><line opacity="0.7" stroke="magenta" stroke-width="1" x1="190.0" x2="91.0" y1="115.5" y2="200.0" /><line opacity="0.7" stroke="magenta" stroke-width="1" x1="190.0" x2="94.5" y1="115.5" y2="150.0" /><line opacity="0.7" stroke="magenta" stroke-width="1" x1="61.0" x2="168.0" y1="84.0" y2="142.0" /><line opacity="0.7" stroke="magenta" stroke-width="1" x1="61.0" x2="117.0" y1="84.0" y2="163.0" /><line opacity="0.7" stroke="magenta" stroke-width="1" x1="61.0" x2="114.0" y1="84.0" y2="199.0" /><line opacity="0.7" stroke="magenta" stroke-width="1" x1="61.0" x2="97.0" y1="84.0" y2="102.0" /><line opacity="0.7" stroke="magenta" stroke-width="1" x1="61.0" x2="97.5" y1="84.0" y2="131.0" /><line opacity="0.7" stroke="magenta" stroke-width="1" x1="61.0" x2="118.5" y1="84.0" y2="129.0" /><line opacity="0.7" stroke="magenta" stroke-width="1" x1="61.0" x2="144.5" y1="84.0" y2="140.0" /><line opacity="0.7" stroke="magenta" stroke-width="1" x1="61.0" x2="166.0" y1="84.0" y2="163.0" /><line opacity="0.7" stroke="magenta" stroke-width="1" x1="61.0" x2="151.0" y1="84.0" y2="117.0" /><line opacity="0.7" stroke="magenta" stroke-width="1" x1="61.0" x2="145.5" y1="84.0" y2="126.5" /><line opacity="0.7" stroke="magenta" stroke-width="1" x1="61.0" x2="91.0" y1="84.0" y2="200.0" /><line opacity="0.7" stroke="magenta" stroke-width="1" x1="61.0" x2="94.5" y1="84.0" y2="150.0" /><line opacity="0.7" stroke="magenta" stroke-width="1" x1="168.0" x2="117.0" y1="142.0" y2="163.0" /><line opacity="0.7" stroke="magenta" stroke-width="1" x1="168.0" x2="42.0" y1="142.0" y2="150.0" /><line opacity="0.7" stroke="magenta" stroke-width="1" x1="168.0" x2="97.0" y1="142.0" y2="102.0" /><line opacity="0.7" stroke="magenta" stroke-width="1" x1="168.0" x2="52.0" y1="142.0" y2="57.0" /><line opacity="0.7" stroke="magenta" stroke-width="1" x1="168.0" x2="75.5" y1="142.0" y2="199.0" /><line opacity="0.7" stroke="magenta" stroke-width="1" x1="168.0" x2="42.5" y1="142.0" y2="126.0" /><line opacity="0.7" stroke="magenta" stroke-width="1" x1="168.0" x2="19.5" y1="142.0" y2="101.0" /><line opacity="0.7" stroke="magenta" stroke-width="1" x1="168.0" x2="91.0" y1="142.0" y2="200.0" /><line opacity="0.7" stroke="magenta" stroke-width="1" x1="168.0" x2="94.5" y1="142.0" y2="150.0" /><line opacity="0.7" stroke="magenta" stroke-width="1" x1="117.0" x2="97.0" y1="163.0" y2="102.0" /><line opacity="0.7" stroke="magenta" stroke-width="1" x1="117.0" x2="91.0" y1="163.0" y2="83.0" /><line opacity="0.7" stroke="magenta" stroke-width="1" x1="117.0" x2="52.0" y1="163.0" y2="57.0" /><line opacity="0.7" stroke="magenta" stroke-width="1" x1="117.0" x2="88.0" y1="163.0" y2="56.0" /><line opacity="0.7" stroke="magenta" stroke-width="1" x1="114.0" x2="97.0" y1="199.0" y2="102.0" /><line opacity="0.7" stroke="magenta" stroke-width="1" x1="114.0" x2="118.5" y1="199.0" y2="129.0" /><line opacity="0.7" stroke="magenta" stroke-width="1" x1="114.0" x2="91.0" y1="199.0" y2="83.0" /><line opacity="0.7" stroke="magenta" stroke-width="1" x1="114.0" x2="144.5" y1="199.0" y2="140.0" /><line opacity="0.7" stroke="magenta" stroke-width="1" x1="114.0" x2="52.0" y1="199.0" y2="57.0" /><line opacity="0.7" stroke="magenta" stroke-width="1" x1="114.0" x2="88.0" y1="199.0" y2="56.0" /><line opacity="0.7" stroke="magenta" stroke-width="1" x1="114.0" x2="151.0" y1="199.0" y2="117.0" /><line opacity="0.7" stroke="magenta" stroke-width="1" x1="114.0" x2="145.5" y1="199.0" y2="126.5" /><line opacity="0.7" stroke="magenta" stroke-width="1" x1="114.0" x2="19.5" y1="199.0" y2="101.0" /><line opacity="0.7" stroke="magenta" stroke-width="1" x1="42.0" x2="144.5" y1="150.0" y2="140.0" /><line opacity="0.7" stroke="magenta" stroke-width="1" x1="42.0" x2="166.0" y1="150.0" y2="163.0" /><line opacity="0.7" stroke="magenta" stroke-width="1" x1="42.0" x2="42.5" y1="150.0" y2="126.0" /><line opacity="0.7" stroke="magenta" stroke-width="1" x1="97.0" x2="166.0" y1="102.0" y2="163.0" /><line opacity="0.7" stroke="magenta" stroke-width="1" x1="97.0" x2="52.0" y1="102.0" y2="57.0" /><line opacity="0.7" stroke="magenta" stroke-width="1" x1="97.5" x2="52.0" y1="131.0" y2="57.0" /><line opacity="0.7" stroke="magenta" stroke-width="1" x1="118.5" x2="52.0" y1="129.0" y2="57.0" /><line opacity="0.7" stroke="magenta" stroke-width="1" x1="118.5" x2="88.0" y1="129.0" y2="56.0" /><line opacity="0.7" stroke="magenta" stroke-width="1" x1="118.5" x2="19.5" y1="129.0" y2="101.0" /><line opacity="0.7" stroke="magenta" stroke-width="1" x1="144.5" x2="52.0" y1="140.0" y2="57.0" /><line opacity="0.7" stroke="magenta" stroke-width="1" x1="144.5" x2="19.5" y1="140.0" y2="101.0" /><line opacity="0.7" stroke="magenta" stroke-width="1" x1="166.0" x2="52.0" y1="163.0" y2="57.0" /><line opacity="0.7" stroke="magenta" stroke-width="1" x1="166.0" x2="42.5" y1="163.0" y2="126.0" /><circle cx="117.0" cy="163.0" fill="white" opacity="0.8" r="1.5" stroke="blue" stroke-width="0.8" /><circle cx="145.5" cy="126.5" fill="white" opacity="0.8" r="1.5" stroke="blue" stroke-width="0.8" /><circle cx="237.0" cy="57.0" fill="white" opacity="0.8" r="1.5" stroke="blue" stroke-width="0.8" /><circle cx="190.0" cy="115.5" fill="white" opacity="0.8" r="1.5" stroke="blue" stroke-width="0.8" /><circle cx="151.0" cy="117.0" fill="white" opacity="0.8" r="1.5" stroke="blue" stroke-width="0.8" /><circle cx="166.0" cy="163.0" fill="white" opacity="0.8" r="1.5" stroke="blue" stroke-width="0.8" /><circle cx="97.0" cy="102.0" fill="white" opacity="0.8" r="1.5" stroke="blue" stroke-width="0.8" /><circle cx="52.0" cy="57.0" fill="white" opacity="0.8" r="1.5" stroke="blue" stroke-width="0.8" /><circle cx="97.5" cy="131.0" fill="white" opacity="0.8" r="1.5" stroke="blue" stroke-width="0.8" /><circle cx="42.0" cy="150.0" fill="white" opacity="0.8" r="1.5" stroke="blue" stroke-width="0.8" /><circle cx="94.5" cy="150.0" fill="white" opacity="0.8" r="1.5" stroke="blue" stroke-width="0.8" /><circle cx="88.0" cy="56.0" fill="white" opacity="0.8" r="1.5" stroke="blue" stroke-width="0.8" /><circle cx="118.5" cy="129.0" fill="white" opacity="0.8" r="1.5" stroke="blue" stroke-width="0.8" /><circle cx="114.0" cy="199.0" fill="white" opacity="0.8" r="1.5" stroke="blue" stroke-width="0.8" /><circle cx="19.5" cy="101.0" fill="white" opacity="0.8" r="1.5" stroke="blue" stroke-width="0.8" /><circle cx="139.5" cy="163.0" fill="white" opacity="0.8" r="1.5" stroke="blue" stroke-width="0.8" /><circle cx="233.5" cy="203.0" fill="white" opacity="0.8" r="1.5" stroke="blue" stroke-width="0.8" /><circle cx="61.0" cy="84.0" fill="white" opacity="0.8" r="1.5" stroke="blue" stroke-width="0.8" /><circle cx="192.0" cy="140.0" fill="white" opacity="0.8" r="1.5" stroke="blue" stroke-width="0.8" /><circle cx="117.5" cy="92.0" fill="white" opacity="0.8" r="1.5" stroke="blue" stroke-width="0.8" /><circle cx="42.5" cy="126.0" fill="white" opacity="0.8" r="1.5" stroke="blue" stroke-width="0.8" /><circle cx="91.0" cy="200.0" fill="white" opacity="0.8" r="1.5" stroke="blue" stroke-width="0.8" /><circle cx="168.0" cy="142.0" fill="white" opacity="0.8" r="1.5" stroke="blue" stroke-width="0.8" /><circle cx="144.5" cy="140.0" fill="white" opacity="0.8" r="1.5" stroke="blue" stroke-width="0.8" /><circle cx="28.0" cy="56.5" fill="white" opacity="0.8" r="1.5" stroke="blue" stroke-width="0.8" /><circle cx="75.5" cy="199.0" fill="white" opacity="0.8" r="1.5" stroke="blue" stroke-width="0.8" /><circle cx="91.0" cy="83.0" fill="white" opacity="0.8" r="1.5" stroke="blue" stroke-width="0.8" /></svg>