<?xml version="1.0" encoding="utf-8" ?>
<svg baseProfile="full" height="256" version="1.1" width="256" xmlns="http://www.w3.org/2000/svg" xmlns:ev="http://www.w3.org/2001/xml-events" xmlns:xlink="http://www.w3.org/1999/xlink"><defs /><image height="256" width="256" xlink:href="/home/nelson/Workspace/building_reconstruction/la_dataset_new/rgb/1526404143.95.jpg" /><line opacity="0.7" stroke="magenta" stroke-width="1" x1="121.5" x2="51.0" y1="41.0" y2="170.0" /><line opacity="0.7" stroke="magenta" stroke-width="1" x1="121.5" x2="207.0" y1="41.0" y2="83.0" /><line opacity="0.7" stroke="magenta" stroke-width="1" x1="121.5" x2="90.5" y1="41.0" y2="161.0" /><line opacity="0.7" stroke="magenta" stroke-width="1" x1="121.5" x2="130.0" y1="41.0" y2="84.0" /><line opacity="0.7" stroke="magenta" stroke-width="1" x1="121.5" x2="148.5" y1="41.0" y2="82.5" /><line opacity="0.7" stroke="magenta" stroke-width="1" x1="121.5" x2="135.0" y1="41.0" y2="79.0" /><line opacity="0.7" stroke="magenta" stroke-width="1" x1="51.0" x2="79.0" y1="170.0" y2="183.0" /><line opacity="0.7" stroke="magenta" stroke-width="1" x1="51.0" x2="90.5" y1="170.0" y2="161.0" /><line opacity="0.7" stroke="magenta" stroke-width="1" x1="51.0" x2="130.0" y1="170.0" y2="84.0" /><line opacity="0.7" stroke="magenta" stroke-width="1" x1="51.0" x2="104.5" y1="170.0" y2="132.0" /><line opacity="0.7" stroke="magenta" stroke-width="1" x1="51.0" x2="146.5" y1="170.0" y2="218.0" /><line opacity="0.7" stroke="magenta" stroke-width="1" x1="51.0" x2="107.0" y1="170.0" y2="163.5" /><line opacity="0.7" stroke="magenta" stroke-width="1" x1="155.0" x2="140.5" y1="122.5" y2="151.5" /><line opacity="0.7" stroke="magenta" stroke-width="1" x1="155.0" x2="90.5" y1="122.5" y2="161.0" /><line opacity="0.7" stroke="magenta" stroke-width="1" x1="155.0" x2="130.0" y1="122.5" y2="84.0" /><line opacity="0.7" stroke="magenta" stroke-width="1" x1="155.0" x2="148.5" y1="122.5" y2="82.5" /><line opacity="0.7" stroke="magenta" stroke-width="1" x1="155.0" x2="104.5" y1="122.5" y2="132.0" /><line opacity="0.7" stroke="magenta" stroke-width="1" x1="155.0" x2="146.5" y1="122.5" y2="218.0" /><line opacity="0.7" stroke="magenta" stroke-width="1" x1="155.0" x2="107.0" y1="122.5" y2="163.5" /><line opacity="0.7" stroke="magenta" stroke-width="1" x1="155.0" x2="135.0" y1="122.5" y2="79.0" /><line opacity="0.7" stroke="magenta" stroke-width="1" x1="207.0" x2="148.5" y1="83.0" y2="82.5" /><line opacity="0.7" stroke="magenta" stroke-width="1" x1="207.0" x2="104.5" y1="83.0" y2="132.0" /><line opacity="0.7" stroke="magenta" stroke-width="1" x1="207.0" x2="146.5" y1="83.0" y2="218.0" /><line opacity="0.7" stroke="magenta" stroke-width="1" x1="79.0" x2="140.5" y1="183.0" y2="151.5" /><line opacity="0.7" stroke="magenta" stroke-width="1" x1="79.0" x2="90.5" y1="183.0" y2="161.0" /><line opacity="0.7" stroke="magenta" stroke-width="1" x1="79.0" x2="130.0" y1="183.0" y2="84.0" /><line opacity="0.7" stroke="magenta" stroke-width="1" x1="79.0" x2="146.5" y1="183.0" y2="218.0" /><line opacity="0.7" stroke="magenta" stroke-width="1" x1="79.0" x2="107.0" y1="183.0" y2="163.5" /><line opacity="0.7" stroke="magenta" stroke-width="1" x1="140.5" x2="90.5" y1="151.5" y2="161.0" /><line opacity="0.7" stroke="magenta" stroke-width="1" x1="140.5" x2="130.0" y1="151.5" y2="84.0" /><line opacity="0.7" stroke="magenta" stroke-width="1" x1="140.5" x2="148.5" y1="151.5" y2="82.5" /><line opacity="0.7" stroke="magenta" stroke-width="1" x1="140.5" x2="104.5" y1="151.5" y2="132.0" /><line opacity="0.7" stroke="magenta" stroke-width="1" x1="140.5" x2="146.5" y1="151.5" y2="218.0" /><line opacity="0.7" stroke="magenta" stroke-width="1" x1="140.5" x2="107.0" y1="151.5" y2="163.5" /><line opacity="0.7" stroke="magenta" stroke-width="1" x1="140.5" x2="135.0" y1="151.5" y2="79.0" /><line opacity="0.7" stroke="magenta" stroke-width="1" x1="90.5" x2="104.5" y1="161.0" y2="132.0" /><line opacity="0.7" stroke="magenta" stroke-width="1" x1="90.5" x2="146.5" y1="161.0" y2="218.0" /><line opacity="0.7" stroke="magenta" stroke-width="1" x1="90.5" x2="107.0" y1="161.0" y2="163.5" /><line opacity="0.7" stroke="magenta" stroke-width="1" x1="90.5" x2="135.0" y1="161.0" y2="79.0" /><line opacity="0.7" stroke="magenta" stroke-width="1" x1="130.0" x2="148.5" y1="84.0" y2="82.5" /><line opacity="0.7" stroke="magenta" stroke-width="1" x1="130.0" x2="104.5" y1="84.0" y2="132.0" /><line opacity="0.7" stroke="magenta" stroke-width="1" x1="130.0" x2="135.0" y1="84.0" y2="79.0" /><line opacity="0.7" stroke="magenta" stroke-width="1" x1="148.5" x2="104.5" y1="82.5" y2="132.0" /><line opacity="0.7" stroke="magenta" stroke-width="1" x1="148.5" x2="135.0" y1="82.5" y2="79.0" /><line opacity="0.7" stroke="magenta" stroke-width="1" x1="104.5" x2="107.0" y1="132.0" y2="163.5" /><line opacity="0.7" stroke="magenta" stroke-width="1" x1="104.5" x2="135.0" y1="132.0" y2="79.0" /><line opacity="0.7" stroke="magenta" stroke-width="1" x1="146.5" x2="107.0" y1="218.0" y2="163.5" /><circle cx="107.0" cy="163.5" fill="white" opacity="0.8" r="1.5" stroke="blue" stroke-width="0.8" /><circle cx="121.5" cy="41.0" fill="white" opacity="0.8" r="1.5" stroke="blue" stroke-width="0.8" /><circle cx="90.5" cy="161.0" fill="white" opacity="0.8" r="1.5" stroke="blue" stroke-width="0.8" /><circle cx="146.5" cy="218.0" fill="white" opacity="0.8" r="1.5" stroke="blue" stroke-width="0.8" /><circle cx="140.5" cy="151.5" fill="white" opacity="0.8" r="1.5" stroke="blue" stroke-width="0.8" /><circle cx="148.5" cy="82.5" fill="white" opacity="0.8" r="1.5" stroke="blue" stroke-width="0.8" /><circle cx="135.0" cy="79.0" fill="white" opacity="0.8" r="1.5" stroke="blue" stroke-width="0.8" /><circle cx="51.0" cy="170.0" fill="white" opacity="0.8" r="1.5" stroke="blue" stroke-width="0.8" /><circle cx="155.0" cy="122.5" fill="white" opacity="0.8" r="1.5" stroke="blue" stroke-width="0.8" /><circle cx="130.0" cy="84.0" fill="white" opacity="0.8" r="1.5" stroke="blue" stroke-width="0.8" /><circle cx="79.0" cy="183.0" fill="white" opacity="0.8" r="1.5" stroke="blue" stroke-width="0.8" /><circle cx="104.5" cy="132.0" fill="white" opacity="0.8" r="1.5" stroke="blue" stroke-width="0.8" /><circle cx="207.0" cy="83.0" fill="white" opacity="0.8" r="1.5" stroke="blue" stroke-width="0.8" /></svg>