<?xml version="1.0" encoding="utf-8" ?>
<svg baseProfile="full" height="256" version="1.1" width="256" xmlns="http://www.w3.org/2000/svg" xmlns:ev="http://www.w3.org/2001/xml-events" xmlns:xlink="http://www.w3.org/1999/xlink"><defs /><image height="256" width="256" xlink:href="/home/nelson/Workspace/building_reconstruction/la_dataset_new/rgb/1526320604.71.jpg" /><line opacity="0.7" stroke="magenta" stroke-width="1" x1="74.0" x2="24.0" y1="49.0" y2="138.0" /><line opacity="0.7" stroke="magenta" stroke-width="1" x1="74.0" x2="232.5" y1="49.0" y2="134.5" /><line opacity="0.7" stroke="magenta" stroke-width="1" x1="232.5" x2="187.0" y1="134.5" y2="211.0" /><line opacity="0.7" stroke="magenta" stroke-width="1" x1="96.0" x2="70.0" y1="91.5" y2="135.0" /><line opacity="0.7" stroke="magenta" stroke-width="1" x1="96.0" x2="118.0" y1="91.5" y2="109.0" /><line opacity="0.7" stroke="magenta" stroke-width="1" x1="96.0" x2="85.5" y1="91.5" y2="83.5" /><line opacity="0.7" stroke="magenta" stroke-width="1" x1="96.0" x2="123.0" y1="91.5" y2="96.0" /><line opacity="0.7" stroke="magenta" stroke-width="1" x1="70.0" x2="104.5" y1="135.0" y2="152.5" /><line opacity="0.7" stroke="magenta" stroke-width="1" x1="130.5" x2="108.5" y1="105.0" y2="145.0" /><line opacity="0.7" stroke="magenta" stroke-width="1" x1="130.5" x2="118.0" y1="105.0" y2="109.0" /><line opacity="0.7" stroke="magenta" stroke-width="1" x1="130.5" x2="123.0" y1="105.0" y2="96.0" /><line opacity="0.7" stroke="magenta" stroke-width="1" x1="108.5" x2="104.5" y1="145.0" y2="152.5" /><line opacity="0.7" stroke="magenta" stroke-width="1" x1="118.0" x2="123.0" y1="109.0" y2="96.0" /><circle cx="232.5" cy="134.5" fill="white" opacity="0.8" r="1.5" stroke="blue" stroke-width="0.8" /><circle cx="118.0" cy="109.0" fill="white" opacity="0.8" r="1.5" stroke="blue" stroke-width="0.8" /><circle cx="70.0" cy="135.0" fill="white" opacity="0.8" r="1.5" stroke="blue" stroke-width="0.8" /><circle cx="74.0" cy="49.0" fill="white" opacity="0.8" r="1.5" stroke="blue" stroke-width="0.8" /><circle cx="108.5" cy="145.0" fill="white" opacity="0.8" r="1.5" stroke="blue" stroke-width="0.8" /><circle cx="123.0" cy="96.0" fill="white" opacity="0.8" r="1.5" stroke="blue" stroke-width="0.8" /><circle cx="104.5" cy="152.5" fill="white" opacity="0.8" r="1.5" stroke="blue" stroke-width="0.8" /><circle cx="130.5" cy="105.0" fill="white" opacity="0.8" r="1.5" stroke="blue" stroke-width="0.8" /><circle cx="85.5" cy="83.5" fill="white" opacity="0.8" r="1.5" stroke="blue" stroke-width="0.8" /><circle cx="96.0" cy="91.5" fill="white" opacity="0.8" r="1.5" stroke="blue" stroke-width="0.8" /><circle cx="24.0" cy="138.0" fill="white" opacity="0.8" r="1.5" stroke="blue" stroke-width="0.8" /><circle cx="187.0" cy="211.0" fill="white" opacity="0.8" r="1.5" stroke="blue" stroke-width="0.8" /></svg>