<?xml version="1.0" encoding="utf-8" ?>
<svg baseProfile="full" height="256" version="1.1" width="256" xmlns="http://www.w3.org/2000/svg" xmlns:ev="http://www.w3.org/2001/xml-events" xmlns:xlink="http://www.w3.org/1999/xlink"><defs /><image height="256" width="256" xlink:href="/home/nelson/Workspace/building_reconstruction/la_dataset_new/rgb/1526357497.52.jpg" /><line opacity="0.7" stroke="magenta" stroke-width="1" x1="189.0" x2="21.5" y1="210.0" y2="123.5" /><line opacity="0.7" stroke="magenta" stroke-width="1" x1="189.0" x2="231.0" y1="210.0" y2="140.0" /><line opacity="0.7" stroke="magenta" stroke-width="1" x1="189.0" x2="206.5" y1="210.0" y2="172.0" /><line opacity="0.7" stroke="magenta" stroke-width="1" x1="62.5" x2="21.5" y1="48.5" y2="123.5" /><line opacity="0.7" stroke="magenta" stroke-width="1" x1="62.5" x2="231.0" y1="48.5" y2="140.0" /><line opacity="0.7" stroke="magenta" stroke-width="1" x1="62.5" x2="244.5" y1="48.5" y2="44.0" /><line opacity="0.7" stroke="magenta" stroke-width="1" x1="62.5" x2="61.5" y1="48.5" y2="143.0" /><line opacity="0.7" stroke="magenta" stroke-width="1" x1="231.0" x2="206.5" y1="140.0" y2="172.0" /><line opacity="0.7" stroke="magenta" stroke-width="1" x1="73.0" x2="174.0" y1="150.0" y2="147.5" /><line opacity="0.7" stroke="magenta" stroke-width="1" x1="73.0" x2="61.5" y1="150.0" y2="143.0" /><line opacity="0.7" stroke="magenta" stroke-width="1" x1="135.0" x2="154.0" y1="180.0" y2="181.0" /><line opacity="0.7" stroke="magenta" stroke-width="1" x1="98.0" x2="134.5" y1="108.5" y2="134.5" /><line opacity="0.7" stroke="magenta" stroke-width="1" x1="174.0" x2="154.0" y1="147.5" y2="181.0" /><circle cx="244.5" cy="44.0" fill="white" opacity="0.8" r="1.5" stroke="blue" stroke-width="0.8" /><circle cx="62.5" cy="48.5" fill="white" opacity="0.8" r="1.5" stroke="blue" stroke-width="0.8" /><circle cx="73.0" cy="150.0" fill="white" opacity="0.8" r="1.5" stroke="blue" stroke-width="0.8" /><circle cx="189.0" cy="210.0" fill="white" opacity="0.8" r="1.5" stroke="blue" stroke-width="0.8" /><circle cx="231.0" cy="140.0" fill="white" opacity="0.8" r="1.5" stroke="blue" stroke-width="0.8" /><circle cx="206.5" cy="172.0" fill="white" opacity="0.8" r="1.5" stroke="blue" stroke-width="0.8" /><circle cx="174.0" cy="147.5" fill="white" opacity="0.8" r="1.5" stroke="blue" stroke-width="0.8" /><circle cx="21.5" cy="123.5" fill="white" opacity="0.8" r="1.5" stroke="blue" stroke-width="0.8" /><circle cx="134.5" cy="134.5" fill="white" opacity="0.8" r="1.5" stroke="blue" stroke-width="0.8" /><circle cx="98.0" cy="108.5" fill="white" opacity="0.8" r="1.5" stroke="blue" stroke-width="0.8" /><circle cx="61.5" cy="143.0" fill="white" opacity="0.8" r="1.5" stroke="blue" stroke-width="0.8" /><circle cx="135.0" cy="180.0" fill="white" opacity="0.8" r="1.5" stroke="blue" stroke-width="0.8" /><circle cx="154.0" cy="181.0" fill="white" opacity="0.8" r="1.5" stroke="blue" stroke-width="0.8" /></svg>