<?xml version="1.0" encoding="utf-8" ?>
<svg baseProfile="full" height="256" version="1.1" width="256" xmlns="http://www.w3.org/2000/svg" xmlns:ev="http://www.w3.org/2001/xml-events" xmlns:xlink="http://www.w3.org/1999/xlink"><defs /><image height="256" width="256" xlink:href="/home/nelson/Workspace/building_reconstruction/la_dataset_new/rgb/1526400809.96.jpg" /><line opacity="0.7" stroke="magenta" stroke-width="1" x1="97.0" x2="52.0" y1="29.0" y2="112.0" /><line opacity="0.7" stroke="magenta" stroke-width="1" x1="97.0" x2="226.0" y1="29.0" y2="96.0" /><line opacity="0.7" stroke="magenta" stroke-width="1" x1="97.0" x2="185.0" y1="29.0" y2="181.0" /><line opacity="0.7" stroke="magenta" stroke-width="1" x1="97.0" x2="102.5" y1="29.0" y2="138.5" /><line opacity="0.7" stroke="magenta" stroke-width="1" x1="97.0" x2="76.5" y1="29.0" y2="78.5" /><line opacity="0.7" stroke="magenta" stroke-width="1" x1="97.0" x2="30.0" y1="29.0" y2="148.0" /><line opacity="0.7" stroke="magenta" stroke-width="1" x1="97.0" x2="120.5" y1="29.0" y2="101.0" /><line opacity="0.7" stroke="magenta" stroke-width="1" x1="97.0" x2="103.5" y1="29.0" y2="130.0" /><line opacity="0.7" stroke="magenta" stroke-width="1" x1="52.0" x2="185.0" y1="112.0" y2="181.0" /><line opacity="0.7" stroke="magenta" stroke-width="1" x1="52.0" x2="134.0" y1="112.0" y2="150.5" /><line opacity="0.7" stroke="magenta" stroke-width="1" x1="52.0" x2="65.5" y1="112.0" y2="104.0" /><line opacity="0.7" stroke="magenta" stroke-width="1" x1="52.0" x2="120.5" y1="112.0" y2="101.0" /><line opacity="0.7" stroke="magenta" stroke-width="1" x1="52.0" x2="149.5" y1="112.0" y2="115.5" /><line opacity="0.7" stroke="magenta" stroke-width="1" x1="52.0" x2="151.0" y1="112.0" y2="226.0" /><line opacity="0.7" stroke="magenta" stroke-width="1" x1="52.0" x2="110.0" y1="112.0" y2="103.0" /><line opacity="0.7" stroke="magenta" stroke-width="1" x1="226.0" x2="185.0" y1="96.0" y2="181.0" /><line opacity="0.7" stroke="magenta" stroke-width="1" x1="226.0" x2="134.0" y1="96.0" y2="150.5" /><line opacity="0.7" stroke="magenta" stroke-width="1" x1="226.0" x2="65.5" y1="96.0" y2="104.0" /><line opacity="0.7" stroke="magenta" stroke-width="1" x1="226.0" x2="149.5" y1="96.0" y2="115.5" /><line opacity="0.7" stroke="magenta" stroke-width="1" x1="226.0" x2="151.0" y1="96.0" y2="226.0" /><line opacity="0.7" stroke="magenta" stroke-width="1" x1="205.0" x2="32.0" y1="140.0" y2="157.5" /><line opacity="0.7" stroke="magenta" stroke-width="1" x1="205.0" x2="30.0" y1="140.0" y2="148.0" /><line opacity="0.7" stroke="magenta" stroke-width="1" x1="205.0" x2="120.5" y1="140.0" y2="101.0" /><line opacity="0.7" stroke="magenta" stroke-width="1" x1="205.0" x2="151.0" y1="140.0" y2="226.0" /><line opacity="0.7" stroke="magenta" stroke-width="1" x1="205.0" x2="78.5" y1="140.0" y2="70.5" /><line opacity="0.7" stroke="magenta" stroke-width="1" x1="205.0" x2="110.0" y1="140.0" y2="103.0" /><line opacity="0.7" stroke="magenta" stroke-width="1" x1="185.0" x2="134.0" y1="181.0" y2="150.5" /><line opacity="0.7" stroke="magenta" stroke-width="1" x1="185.0" x2="102.5" y1="181.0" y2="138.5" /><line opacity="0.7" stroke="magenta" stroke-width="1" x1="185.0" x2="76.5" y1="181.0" y2="78.5" /><line opacity="0.7" stroke="magenta" stroke-width="1" x1="185.0" x2="65.5" y1="181.0" y2="104.0" /><line opacity="0.7" stroke="magenta" stroke-width="1" x1="185.0" x2="120.5" y1="181.0" y2="101.0" /><line opacity="0.7" stroke="magenta" stroke-width="1" x1="185.0" x2="85.5" y1="181.0" y2="128.0" /><line opacity="0.7" stroke="magenta" stroke-width="1" x1="185.0" x2="78.5" y1="181.0" y2="70.5" /><line opacity="0.7" stroke="magenta" stroke-width="1" x1="185.0" x2="110.0" y1="181.0" y2="103.0" /><line opacity="0.7" stroke="magenta" stroke-width="1" x1="163.0" x2="134.0" y1="228.5" y2="150.5" /><line opacity="0.7" stroke="magenta" stroke-width="1" x1="163.0" x2="102.5" y1="228.5" y2="138.5" /><line opacity="0.7" stroke="magenta" stroke-width="1" x1="163.0" x2="76.5" y1="228.5" y2="78.5" /><line opacity="0.7" stroke="magenta" stroke-width="1" x1="163.0" x2="65.5" y1="228.5" y2="104.0" /><line opacity="0.7" stroke="magenta" stroke-width="1" x1="163.0" x2="85.5" y1="228.5" y2="128.0" /><line opacity="0.7" stroke="magenta" stroke-width="1" x1="163.0" x2="151.0" y1="228.5" y2="226.0" /><line opacity="0.7" stroke="magenta" stroke-width="1" x1="163.0" x2="78.5" y1="228.5" y2="70.5" /><line opacity="0.7" stroke="magenta" stroke-width="1" x1="163.0" x2="103.5" y1="228.5" y2="130.0" /><line opacity="0.7" stroke="magenta" stroke-width="1" x1="32.0" x2="30.0" y1="157.5" y2="148.0" /><line opacity="0.7" stroke="magenta" stroke-width="1" x1="32.0" x2="120.5" y1="157.5" y2="101.0" /><line opacity="0.7" stroke="magenta" stroke-width="1" x1="102.5" x2="151.0" y1="138.5" y2="226.0" /><line opacity="0.7" stroke="magenta" stroke-width="1" x1="102.5" x2="103.5" y1="138.5" y2="130.0" /><line opacity="0.7" stroke="magenta" stroke-width="1" x1="76.5" x2="149.5" y1="78.5" y2="115.5" /><line opacity="0.7" stroke="magenta" stroke-width="1" x1="76.5" x2="151.0" y1="78.5" y2="226.0" /><line opacity="0.7" stroke="magenta" stroke-width="1" x1="30.0" x2="120.5" y1="148.0" y2="101.0" /><line opacity="0.7" stroke="magenta" stroke-width="1" x1="30.0" x2="149.5" y1="148.0" y2="115.5" /><line opacity="0.7" stroke="magenta" stroke-width="1" x1="30.0" x2="151.0" y1="148.0" y2="226.0" /><line opacity="0.7" stroke="magenta" stroke-width="1" x1="65.5" x2="149.5" y1="104.0" y2="115.5" /><line opacity="0.7" stroke="magenta" stroke-width="1" x1="65.5" x2="151.0" y1="104.0" y2="226.0" /><line opacity="0.7" stroke="magenta" stroke-width="1" x1="65.5" x2="78.5" y1="104.0" y2="70.5" /><line opacity="0.7" stroke="magenta" stroke-width="1" x1="120.5" x2="151.0" y1="101.0" y2="226.0" /><line opacity="0.7" stroke="magenta" stroke-width="1" x1="120.5" x2="110.0" y1="101.0" y2="103.0" /><line opacity="0.7" stroke="magenta" stroke-width="1" x1="149.5" x2="78.5" y1="115.5" y2="70.5" /><line opacity="0.7" stroke="magenta" stroke-width="1" x1="149.5" x2="103.5" y1="115.5" y2="130.0" /><line opacity="0.7" stroke="magenta" stroke-width="1" x1="85.5" x2="151.0" y1="128.0" y2="226.0" /><line opacity="0.7" stroke="magenta" stroke-width="1" x1="85.5" x2="103.5" y1="128.0" y2="130.0" /><line opacity="0.7" stroke="magenta" stroke-width="1" x1="151.0" x2="103.5" y1="226.0" y2="130.0" /><line opacity="0.7" stroke="magenta" stroke-width="1" x1="151.0" x2="110.0" y1="226.0" y2="103.0" /><line opacity="0.7" stroke="magenta" stroke-width="1" x1="103.5" x2="110.0" y1="130.0" y2="103.0" /><circle cx="52.0" cy="112.0" fill="white" opacity="0.8" r="1.5" stroke="blue" stroke-width="0.8" /><circle cx="65.5" cy="104.0" fill="white" opacity="0.8" r="1.5" stroke="blue" stroke-width="0.8" /><circle cx="32.0" cy="157.5" fill="white" opacity="0.8" r="1.5" stroke="blue" stroke-width="0.8" /><circle cx="78.5" cy="70.5" fill="white" opacity="0.8" r="1.5" stroke="blue" stroke-width="0.8" /><circle cx="151.0" cy="226.0" fill="white" opacity="0.8" r="1.5" stroke="blue" stroke-width="0.8" /><circle cx="76.5" cy="78.5" fill="white" opacity="0.8" r="1.5" stroke="blue" stroke-width="0.8" /><circle cx="226.0" cy="96.0" fill="white" opacity="0.8" r="1.5" stroke="blue" stroke-width="0.8" /><circle cx="30.0" cy="148.0" fill="white" opacity="0.8" r="1.5" stroke="blue" stroke-width="0.8" /><circle cx="103.5" cy="130.0" fill="white" opacity="0.8" r="1.5" stroke="blue" stroke-width="0.8" /><circle cx="205.0" cy="140.0" fill="white" opacity="0.8" r="1.5" stroke="blue" stroke-width="0.8" /><circle cx="102.5" cy="138.5" fill="white" opacity="0.8" r="1.5" stroke="blue" stroke-width="0.8" /><circle cx="149.5" cy="115.5" fill="white" opacity="0.8" r="1.5" stroke="blue" stroke-width="0.8" /><circle cx="97.0" cy="29.0" fill="white" opacity="0.8" r="1.5" stroke="blue" stroke-width="0.8" /><circle cx="85.5" cy="128.0" fill="white" opacity="0.8" r="1.5" stroke="blue" stroke-width="0.8" /><circle cx="163.0" cy="228.5" fill="white" opacity="0.8" r="1.5" stroke="blue" stroke-width="0.8" /><circle cx="185.0" cy="181.0" fill="white" opacity="0.8" r="1.5" stroke="blue" stroke-width="0.8" /><circle cx="120.5" cy="101.0" fill="white" opacity="0.8" r="1.5" stroke="blue" stroke-width="0.8" /><circle cx="110.0" cy="103.0" fill="white" opacity="0.8" r="1.5" stroke="blue" stroke-width="0.8" /><circle cx="134.0" cy="150.5" fill="white" opacity="0.8" r="1.5" stroke="blue" stroke-width="0.8" /></svg>