<?xml version="1.0" encoding="utf-8" ?>
<svg baseProfile="full" height="256" version="1.1" width="256" xmlns="http://www.w3.org/2000/svg" xmlns:ev="http://www.w3.org/2001/xml-events" xmlns:xlink="http://www.w3.org/1999/xlink"><defs /><image height="256" width="256" xlink:href="/home/nelson/Workspace/building_reconstruction/la_dataset_new/rgb/1526358757.03.jpg" /><line opacity="0.7" stroke="magenta" stroke-width="1" x1="64.0" x2="65.0" y1="27.0" y2="228.0" /><line opacity="0.7" stroke="magenta" stroke-width="1" x1="64.0" x2="191.0" y1="27.0" y2="27.0" /><line opacity="0.7" stroke="magenta" stroke-width="1" x1="64.0" x2="115.0" y1="27.0" y2="196.0" /><line opacity="0.7" stroke="magenta" stroke-width="1" x1="64.0" x2="134.0" y1="27.0" y2="132.5" /><line opacity="0.7" stroke="magenta" stroke-width="1" x1="64.0" x2="149.0" y1="27.0" y2="45.0" /><line opacity="0.7" stroke="magenta" stroke-width="1" x1="64.0" x2="115.0" y1="27.0" y2="60.5" /><line opacity="0.7" stroke="magenta" stroke-width="1" x1="64.0" x2="134.5" y1="27.0" y2="60.0" /><line opacity="0.7" stroke="magenta" stroke-width="1" x1="64.0" x2="190.0" y1="27.0" y2="61.0" /><line opacity="0.7" stroke="magenta" stroke-width="1" x1="64.0" x2="149.5" y1="27.0" y2="29.0" /><line opacity="0.7" stroke="magenta" stroke-width="1" x1="64.0" x2="189.5" y1="27.0" y2="52.0" /><line opacity="0.7" stroke="magenta" stroke-width="1" x1="64.0" x2="89.0" y1="27.0" y2="127.0" /><line opacity="0.7" stroke="magenta" stroke-width="1" x1="64.0" x2="112.5" y1="27.0" y2="157.0" /><line opacity="0.7" stroke="magenta" stroke-width="1" x1="64.0" x2="148.0" y1="27.0" y2="52.5" /><line opacity="0.7" stroke="magenta" stroke-width="1" x1="65.0" x2="191.0" y1="228.0" y2="227.0" /><line opacity="0.7" stroke="magenta" stroke-width="1" x1="65.0" x2="115.0" y1="228.0" y2="196.0" /><line opacity="0.7" stroke="magenta" stroke-width="1" x1="65.0" x2="115.0" y1="228.0" y2="60.5" /><line opacity="0.7" stroke="magenta" stroke-width="1" x1="65.0" x2="135.0" y1="228.0" y2="192.0" /><line opacity="0.7" stroke="magenta" stroke-width="1" x1="65.0" x2="121.0" y1="228.0" y2="155.5" /><line opacity="0.7" stroke="magenta" stroke-width="1" x1="65.0" x2="133.5" y1="228.0" y2="169.0" /><line opacity="0.7" stroke="magenta" stroke-width="1" x1="65.0" x2="89.0" y1="228.0" y2="127.0" /><line opacity="0.7" stroke="magenta" stroke-width="1" x1="65.0" x2="112.5" y1="228.0" y2="157.0" /><line opacity="0.7" stroke="magenta" stroke-width="1" x1="191.0" x2="191.0" y1="27.0" y2="227.0" /><line opacity="0.7" stroke="magenta" stroke-width="1" x1="191.0" x2="192.0" y1="27.0" y2="129.0" /><line opacity="0.7" stroke="magenta" stroke-width="1" x1="191.0" x2="149.0" y1="27.0" y2="45.0" /><line opacity="0.7" stroke="magenta" stroke-width="1" x1="191.0" x2="115.0" y1="27.0" y2="60.5" /><line opacity="0.7" stroke="magenta" stroke-width="1" x1="191.0" x2="134.5" y1="27.0" y2="60.0" /><line opacity="0.7" stroke="magenta" stroke-width="1" x1="191.0" x2="190.0" y1="27.0" y2="61.0" /><line opacity="0.7" stroke="magenta" stroke-width="1" x1="191.0" x2="149.5" y1="27.0" y2="29.0" /><line opacity="0.7" stroke="magenta" stroke-width="1" x1="191.0" x2="189.5" y1="27.0" y2="52.0" /><line opacity="0.7" stroke="magenta" stroke-width="1" x1="191.0" x2="148.0" y1="27.0" y2="52.5" /><line opacity="0.7" stroke="magenta" stroke-width="1" x1="191.0" x2="115.0" y1="227.0" y2="196.0" /><line opacity="0.7" stroke="magenta" stroke-width="1" x1="191.0" x2="134.0" y1="227.0" y2="132.5" /><line opacity="0.7" stroke="magenta" stroke-width="1" x1="191.0" x2="149.0" y1="227.0" y2="45.0" /><line opacity="0.7" stroke="magenta" stroke-width="1" x1="191.0" x2="115.0" y1="227.0" y2="60.5" /><line opacity="0.7" stroke="magenta" stroke-width="1" x1="191.0" x2="134.5" y1="227.0" y2="60.0" /><line opacity="0.7" stroke="magenta" stroke-width="1" x1="191.0" x2="128.0" y1="227.0" y2="145.5" /><line opacity="0.7" stroke="magenta" stroke-width="1" x1="191.0" x2="135.0" y1="227.0" y2="192.0" /><line opacity="0.7" stroke="magenta" stroke-width="1" x1="191.0" x2="189.5" y1="227.0" y2="52.0" /><line opacity="0.7" stroke="magenta" stroke-width="1" x1="191.0" x2="112.5" y1="227.0" y2="157.0" /><line opacity="0.7" stroke="magenta" stroke-width="1" x1="192.0" x2="114.5" y1="129.0" y2="144.0" /><line opacity="0.7" stroke="magenta" stroke-width="1" x1="192.0" x2="115.0" y1="129.0" y2="196.0" /><line opacity="0.7" stroke="magenta" stroke-width="1" x1="192.0" x2="134.0" y1="129.0" y2="132.5" /><line opacity="0.7" stroke="magenta" stroke-width="1" x1="192.0" x2="149.0" y1="129.0" y2="45.0" /><line opacity="0.7" stroke="magenta" stroke-width="1" x1="192.0" x2="115.0" y1="129.0" y2="60.5" /><line opacity="0.7" stroke="magenta" stroke-width="1" x1="192.0" x2="134.5" y1="129.0" y2="60.0" /><line opacity="0.7" stroke="magenta" stroke-width="1" x1="192.0" x2="128.0" y1="129.0" y2="145.5" /><line opacity="0.7" stroke="magenta" stroke-width="1" x1="192.0" x2="135.0" y1="129.0" y2="192.0" /><line opacity="0.7" stroke="magenta" stroke-width="1" x1="192.0" x2="190.0" y1="129.0" y2="61.0" /><line opacity="0.7" stroke="magenta" stroke-width="1" x1="192.0" x2="149.5" y1="129.0" y2="29.0" /><line opacity="0.7" stroke="magenta" stroke-width="1" x1="192.0" x2="121.0" y1="129.0" y2="155.5" /><line opacity="0.7" stroke="magenta" stroke-width="1" x1="192.0" x2="133.5" y1="129.0" y2="169.0" /><line opacity="0.7" stroke="magenta" stroke-width="1" x1="192.0" x2="189.5" y1="129.0" y2="52.0" /><line opacity="0.7" stroke="magenta" stroke-width="1" x1="192.0" x2="89.0" y1="129.0" y2="127.0" /><line opacity="0.7" stroke="magenta" stroke-width="1" x1="192.0" x2="112.5" y1="129.0" y2="157.0" /><line opacity="0.7" stroke="magenta" stroke-width="1" x1="192.0" x2="148.0" y1="129.0" y2="52.5" /><line opacity="0.7" stroke="magenta" stroke-width="1" x1="114.5" x2="115.0" y1="144.0" y2="196.0" /><line opacity="0.7" stroke="magenta" stroke-width="1" x1="114.5" x2="134.0" y1="144.0" y2="132.5" /><line opacity="0.7" stroke="magenta" stroke-width="1" x1="114.5" x2="149.0" y1="144.0" y2="45.0" /><line opacity="0.7" stroke="magenta" stroke-width="1" x1="114.5" x2="115.0" y1="144.0" y2="60.5" /><line opacity="0.7" stroke="magenta" stroke-width="1" x1="114.5" x2="134.5" y1="144.0" y2="60.0" /><line opacity="0.7" stroke="magenta" stroke-width="1" x1="114.5" x2="128.0" y1="144.0" y2="145.5" /><line opacity="0.7" stroke="magenta" stroke-width="1" x1="114.5" x2="135.0" y1="144.0" y2="192.0" /><line opacity="0.7" stroke="magenta" stroke-width="1" x1="114.5" x2="190.0" y1="144.0" y2="61.0" /><line opacity="0.7" stroke="magenta" stroke-width="1" x1="114.5" x2="149.5" y1="144.0" y2="29.0" /><line opacity="0.7" stroke="magenta" stroke-width="1" x1="114.5" x2="121.0" y1="144.0" y2="155.5" /><line opacity="0.7" stroke="magenta" stroke-width="1" x1="114.5" x2="133.5" y1="144.0" y2="169.0" /><line opacity="0.7" stroke="magenta" stroke-width="1" x1="114.5" x2="189.5" y1="144.0" y2="52.0" /><line opacity="0.7" stroke="magenta" stroke-width="1" x1="114.5" x2="89.0" y1="144.0" y2="127.0" /><line opacity="0.7" stroke="magenta" stroke-width="1" x1="114.5" x2="112.5" y1="144.0" y2="157.0" /><line opacity="0.7" stroke="magenta" stroke-width="1" x1="114.5" x2="148.0" y1="144.0" y2="52.5" /><line opacity="0.7" stroke="magenta" stroke-width="1" x1="115.0" x2="134.0" y1="196.0" y2="132.5" /><line opacity="0.7" stroke="magenta" stroke-width="1" x1="115.0" x2="115.0" y1="196.0" y2="60.5" /><line opacity="0.7" stroke="magenta" stroke-width="1" x1="115.0" x2="134.5" y1="196.0" y2="60.0" /><line opacity="0.7" stroke="magenta" stroke-width="1" x1="115.0" x2="128.0" y1="196.0" y2="145.5" /><line opacity="0.7" stroke="magenta" stroke-width="1" x1="115.0" x2="135.0" y1="196.0" y2="192.0" /><line opacity="0.7" stroke="magenta" stroke-width="1" x1="115.0" x2="190.0" y1="196.0" y2="61.0" /><line opacity="0.7" stroke="magenta" stroke-width="1" x1="115.0" x2="121.0" y1="196.0" y2="155.5" /><line opacity="0.7" stroke="magenta" stroke-width="1" x1="115.0" x2="133.5" y1="196.0" y2="169.0" /><line opacity="0.7" stroke="magenta" stroke-width="1" x1="115.0" x2="89.0" y1="196.0" y2="127.0" /><line opacity="0.7" stroke="magenta" stroke-width="1" x1="115.0" x2="112.5" y1="196.0" y2="157.0" /><line opacity="0.7" stroke="magenta" stroke-width="1" x1="134.0" x2="149.0" y1="132.5" y2="45.0" /><line opacity="0.7" stroke="magenta" stroke-width="1" x1="134.0" x2="115.0" y1="132.5" y2="60.5" /><line opacity="0.7" stroke="magenta" stroke-width="1" x1="134.0" x2="134.5" y1="132.5" y2="60.0" /><line opacity="0.7" stroke="magenta" stroke-width="1" x1="134.0" x2="128.0" y1="132.5" y2="145.5" /><line opacity="0.7" stroke="magenta" stroke-width="1" x1="134.0" x2="135.0" y1="132.5" y2="192.0" /><line opacity="0.7" stroke="magenta" stroke-width="1" x1="134.0" x2="190.0" y1="132.5" y2="61.0" /><line opacity="0.7" stroke="magenta" stroke-width="1" x1="134.0" x2="149.5" y1="132.5" y2="29.0" /><line opacity="0.7" stroke="magenta" stroke-width="1" x1="134.0" x2="121.0" y1="132.5" y2="155.5" /><line opacity="0.7" stroke="magenta" stroke-width="1" x1="134.0" x2="133.5" y1="132.5" y2="169.0" /><line opacity="0.7" stroke="magenta" stroke-width="1" x1="134.0" x2="189.5" y1="132.5" y2="52.0" /><line opacity="0.7" stroke="magenta" stroke-width="1" x1="134.0" x2="89.0" y1="132.5" y2="127.0" /><line opacity="0.7" stroke="magenta" stroke-width="1" x1="134.0" x2="112.5" y1="132.5" y2="157.0" /><line opacity="0.7" stroke="magenta" stroke-width="1" x1="134.0" x2="148.0" y1="132.5" y2="52.5" /><line opacity="0.7" stroke="magenta" stroke-width="1" x1="149.0" x2="115.0" y1="45.0" y2="60.5" /><line opacity="0.7" stroke="magenta" stroke-width="1" x1="149.0" x2="134.5" y1="45.0" y2="60.0" /><line opacity="0.7" stroke="magenta" stroke-width="1" x1="149.0" x2="128.0" y1="45.0" y2="145.5" /><line opacity="0.7" stroke="magenta" stroke-width="1" x1="149.0" x2="190.0" y1="45.0" y2="61.0" /><line opacity="0.7" stroke="magenta" stroke-width="1" x1="149.0" x2="121.0" y1="45.0" y2="155.5" /><line opacity="0.7" stroke="magenta" stroke-width="1" x1="149.0" x2="189.5" y1="45.0" y2="52.0" /><line opacity="0.7" stroke="magenta" stroke-width="1" x1="149.0" x2="89.0" y1="45.0" y2="127.0" /><line opacity="0.7" stroke="magenta" stroke-width="1" x1="149.0" x2="148.0" y1="45.0" y2="52.5" /><line opacity="0.7" stroke="magenta" stroke-width="1" x1="115.0" x2="128.0" y1="60.5" y2="145.5" /><line opacity="0.7" stroke="magenta" stroke-width="1" x1="115.0" x2="135.0" y1="60.5" y2="192.0" /><line opacity="0.7" stroke="magenta" stroke-width="1" x1="115.0" x2="190.0" y1="60.5" y2="61.0" /><line opacity="0.7" stroke="magenta" stroke-width="1" x1="115.0" x2="149.5" y1="60.5" y2="29.0" /><line opacity="0.7" stroke="magenta" stroke-width="1" x1="115.0" x2="121.0" y1="60.5" y2="155.5" /><line opacity="0.7" stroke="magenta" stroke-width="1" x1="115.0" x2="133.5" y1="60.5" y2="169.0" /><line opacity="0.7" stroke="magenta" stroke-width="1" x1="115.0" x2="189.5" y1="60.5" y2="52.0" /><line opacity="0.7" stroke="magenta" stroke-width="1" x1="115.0" x2="89.0" y1="60.5" y2="127.0" /><line opacity="0.7" stroke="magenta" stroke-width="1" x1="115.0" x2="112.5" y1="60.5" y2="157.0" /><line opacity="0.7" stroke="magenta" stroke-width="1" x1="115.0" x2="148.0" y1="60.5" y2="52.5" /><line opacity="0.7" stroke="magenta" stroke-width="1" x1="134.5" x2="128.0" y1="60.0" y2="145.5" /><line opacity="0.7" stroke="magenta" stroke-width="1" x1="134.5" x2="135.0" y1="60.0" y2="192.0" /><line opacity="0.7" stroke="magenta" stroke-width="1" x1="134.5" x2="190.0" y1="60.0" y2="61.0" /><line opacity="0.7" stroke="magenta" stroke-width="1" x1="134.5" x2="149.5" y1="60.0" y2="29.0" /><line opacity="0.7" stroke="magenta" stroke-width="1" x1="134.5" x2="121.0" y1="60.0" y2="155.5" /><line opacity="0.7" stroke="magenta" stroke-width="1" x1="134.5" x2="133.5" y1="60.0" y2="169.0" /><line opacity="0.7" stroke="magenta" stroke-width="1" x1="134.5" x2="189.5" y1="60.0" y2="52.0" /><line opacity="0.7" stroke="magenta" stroke-width="1" x1="134.5" x2="112.5" y1="60.0" y2="157.0" /><line opacity="0.7" stroke="magenta" stroke-width="1" x1="134.5" x2="148.0" y1="60.0" y2="52.5" /><line opacity="0.7" stroke="magenta" stroke-width="1" x1="128.0" x2="135.0" y1="145.5" y2="192.0" /><line opacity="0.7" stroke="magenta" stroke-width="1" x1="128.0" x2="190.0" y1="145.5" y2="61.0" /><line opacity="0.7" stroke="magenta" stroke-width="1" x1="128.0" x2="133.5" y1="145.5" y2="169.0" /><line opacity="0.7" stroke="magenta" stroke-width="1" x1="128.0" x2="189.5" y1="145.5" y2="52.0" /><line opacity="0.7" stroke="magenta" stroke-width="1" x1="128.0" x2="89.0" y1="145.5" y2="127.0" /><line opacity="0.7" stroke="magenta" stroke-width="1" x1="128.0" x2="112.5" y1="145.5" y2="157.0" /><line opacity="0.7" stroke="magenta" stroke-width="1" x1="128.0" x2="148.0" y1="145.5" y2="52.5" /><line opacity="0.7" stroke="magenta" stroke-width="1" x1="135.0" x2="190.0" y1="192.0" y2="61.0" /><line opacity="0.7" stroke="magenta" stroke-width="1" x1="135.0" x2="121.0" y1="192.0" y2="155.5" /><line opacity="0.7" stroke="magenta" stroke-width="1" x1="135.0" x2="133.5" y1="192.0" y2="169.0" /><line opacity="0.7" stroke="magenta" stroke-width="1" x1="135.0" x2="189.5" y1="192.0" y2="52.0" /><line opacity="0.7" stroke="magenta" stroke-width="1" x1="135.0" x2="89.0" y1="192.0" y2="127.0" /><line opacity="0.7" stroke="magenta" stroke-width="1" x1="135.0" x2="112.5" y1="192.0" y2="157.0" /><line opacity="0.7" stroke="magenta" stroke-width="1" x1="135.0" x2="148.0" y1="192.0" y2="52.5" /><line opacity="0.7" stroke="magenta" stroke-width="1" x1="190.0" x2="121.0" y1="61.0" y2="155.5" /><line opacity="0.7" stroke="magenta" stroke-width="1" x1="190.0" x2="133.5" y1="61.0" y2="169.0" /><line opacity="0.7" stroke="magenta" stroke-width="1" x1="190.0" x2="189.5" y1="61.0" y2="52.0" /><line opacity="0.7" stroke="magenta" stroke-width="1" x1="190.0" x2="89.0" y1="61.0" y2="127.0" /><line opacity="0.7" stroke="magenta" stroke-width="1" x1="190.0" x2="112.5" y1="61.0" y2="157.0" /><line opacity="0.7" stroke="magenta" stroke-width="1" x1="149.5" x2="121.0" y1="29.0" y2="155.5" /><line opacity="0.7" stroke="magenta" stroke-width="1" x1="149.5" x2="133.5" y1="29.0" y2="169.0" /><line opacity="0.7" stroke="magenta" stroke-width="1" x1="149.5" x2="189.5" y1="29.0" y2="52.0" /><line opacity="0.7" stroke="magenta" stroke-width="1" x1="149.5" x2="112.5" y1="29.0" y2="157.0" /><line opacity="0.7" stroke="magenta" stroke-width="1" x1="149.5" x2="148.0" y1="29.0" y2="52.5" /><line opacity="0.7" stroke="magenta" stroke-width="1" x1="121.0" x2="133.5" y1="155.5" y2="169.0" /><line opacity="0.7" stroke="magenta" stroke-width="1" x1="121.0" x2="189.5" y1="155.5" y2="52.0" /><line opacity="0.7" stroke="magenta" stroke-width="1" x1="121.0" x2="112.5" y1="155.5" y2="157.0" /><line opacity="0.7" stroke="magenta" stroke-width="1" x1="121.0" x2="148.0" y1="155.5" y2="52.5" /><line opacity="0.7" stroke="magenta" stroke-width="1" x1="133.5" x2="189.5" y1="169.0" y2="52.0" /><line opacity="0.7" stroke="magenta" stroke-width="1" x1="133.5" x2="148.0" y1="169.0" y2="52.5" /><line opacity="0.7" stroke="magenta" stroke-width="1" x1="189.5" x2="89.0" y1="52.0" y2="127.0" /><line opacity="0.7" stroke="magenta" stroke-width="1" x1="189.5" x2="112.5" y1="52.0" y2="157.0" /><line opacity="0.7" stroke="magenta" stroke-width="1" x1="112.5" x2="148.0" y1="157.0" y2="52.5" /><circle cx="64.0" cy="27.0" fill="white" opacity="0.8" r="1.5" stroke="blue" stroke-width="0.8" /><circle cx="89.0" cy="127.0" fill="white" opacity="0.8" r="1.5" stroke="blue" stroke-width="0.8" /><circle cx="149.5" cy="29.0" fill="white" opacity="0.8" r="1.5" stroke="blue" stroke-width="0.8" /><circle cx="112.5" cy="157.0" fill="white" opacity="0.8" r="1.5" stroke="blue" stroke-width="0.8" /><circle cx="128.0" cy="145.5" fill="white" opacity="0.8" r="1.5" stroke="blue" stroke-width="0.8" /><circle cx="149.0" cy="45.0" fill="white" opacity="0.8" r="1.5" stroke="blue" stroke-width="0.8" /><circle cx="121.0" cy="155.5" fill="white" opacity="0.8" r="1.5" stroke="blue" stroke-width="0.8" /><circle cx="191.0" cy="27.0" fill="white" opacity="0.8" r="1.5" stroke="blue" stroke-width="0.8" /><circle cx="65.0" cy="228.0" fill="white" opacity="0.8" r="1.5" stroke="blue" stroke-width="0.8" /><circle cx="134.5" cy="60.0" fill="white" opacity="0.8" r="1.5" stroke="blue" stroke-width="0.8" /><circle cx="189.5" cy="52.0" fill="white" opacity="0.8" r="1.5" stroke="blue" stroke-width="0.8" /><circle cx="115.0" cy="196.0" fill="white" opacity="0.8" r="1.5" stroke="blue" stroke-width="0.8" /><circle cx="135.0" cy="192.0" fill="white" opacity="0.8" r="1.5" stroke="blue" stroke-width="0.8" /><circle cx="115.0" cy="60.5" fill="white" opacity="0.8" r="1.5" stroke="blue" stroke-width="0.8" /><circle cx="192.0" cy="129.0" fill="white" opacity="0.8" r="1.5" stroke="blue" stroke-width="0.8" /><circle cx="190.0" cy="61.0" fill="white" opacity="0.8" r="1.5" stroke="blue" stroke-width="0.8" /><circle cx="134.0" cy="132.5" fill="white" opacity="0.8" r="1.5" stroke="blue" stroke-width="0.8" /><circle cx="114.5" cy="144.0" fill="white" opacity="0.8" r="1.5" stroke="blue" stroke-width="0.8" /><circle cx="191.0" cy="227.0" fill="white" opacity="0.8" r="1.5" stroke="blue" stroke-width="0.8" /><circle cx="133.5" cy="169.0" fill="white" opacity="0.8" r="1.5" stroke="blue" stroke-width="0.8" /><circle cx="148.0" cy="52.5" fill="white" opacity="0.8" r="1.5" stroke="blue" stroke-width="0.8" /></svg>