<?xml version="1.0" encoding="utf-8" ?>
<svg baseProfile="full" height="256" version="1.1" width="256" xmlns="http://www.w3.org/2000/svg" xmlns:ev="http://www.w3.org/2001/xml-events" xmlns:xlink="http://www.w3.org/1999/xlink"><defs /><image height="256" width="256" xlink:href="/home/nelson/Workspace/building_reconstruction/la_dataset_new/rgb/1526403928.81.jpg" /><line opacity="0.7" stroke="magenta" stroke-width="1" x1="81.0" x2="79.0" y1="49.0" y2="220.0" /><line opacity="0.7" stroke="magenta" stroke-width="1" x1="81.0" x2="108.0" y1="49.0" y2="48.0" /><line opacity="0.7" stroke="magenta" stroke-width="1" x1="81.0" x2="108.0" y1="49.0" y2="34.0" /><line opacity="0.7" stroke="magenta" stroke-width="1" x1="79.0" x2="109.0" y1="220.0" y2="220.0" /><line opacity="0.7" stroke="magenta" stroke-width="1" x1="175.5" x2="174.5" y1="222.0" y2="34.0" /><line opacity="0.7" stroke="magenta" stroke-width="1" x1="175.5" x2="109.0" y1="222.0" y2="220.0" /><line opacity="0.7" stroke="magenta" stroke-width="1" x1="174.5" x2="108.0" y1="34.0" y2="34.0" /><line opacity="0.7" stroke="magenta" stroke-width="1" x1="115.0" x2="136.0" y1="193.0" y2="194.0" /><line opacity="0.7" stroke="magenta" stroke-width="1" x1="136.0" x2="134.0" y1="194.0" y2="67.0" /><line opacity="0.7" stroke="magenta" stroke-width="1" x1="109.0" x2="108.0" y1="220.0" y2="48.0" /><line opacity="0.7" stroke="magenta" stroke-width="1" x1="108.0" x2="108.0" y1="48.0" y2="34.0" /><line opacity="0.7" stroke="magenta" stroke-width="1" x1="122.5" x2="113.5" y1="66.0" y2="67.0" /><line opacity="0.7" stroke="magenta" stroke-width="1" x1="122.5" x2="134.0" y1="66.0" y2="67.0" /><line opacity="0.7" stroke="magenta" stroke-width="1" x1="113.5" x2="134.0" y1="67.0" y2="67.0" /><circle cx="81.0" cy="49.0" fill="white" opacity="0.8" r="1.5" stroke="blue" stroke-width="0.8" /><circle cx="174.5" cy="34.0" fill="white" opacity="0.8" r="1.5" stroke="blue" stroke-width="0.8" /><circle cx="134.0" cy="67.0" fill="white" opacity="0.8" r="1.5" stroke="blue" stroke-width="0.8" /><circle cx="122.5" cy="66.0" fill="white" opacity="0.8" r="1.5" stroke="blue" stroke-width="0.8" /><circle cx="175.5" cy="222.0" fill="white" opacity="0.8" r="1.5" stroke="blue" stroke-width="0.8" /><circle cx="113.5" cy="67.0" fill="white" opacity="0.8" r="1.5" stroke="blue" stroke-width="0.8" /><circle cx="136.0" cy="194.0" fill="white" opacity="0.8" r="1.5" stroke="blue" stroke-width="0.8" /><circle cx="79.0" cy="220.0" fill="white" opacity="0.8" r="1.5" stroke="blue" stroke-width="0.8" /><circle cx="108.0" cy="34.0" fill="white" opacity="0.8" r="1.5" stroke="blue" stroke-width="0.8" /><circle cx="108.0" cy="48.0" fill="white" opacity="0.8" r="1.5" stroke="blue" stroke-width="0.8" /><circle cx="109.0" cy="220.0" fill="white" opacity="0.8" r="1.5" stroke="blue" stroke-width="0.8" /><circle cx="115.0" cy="193.0" fill="white" opacity="0.8" r="1.5" stroke="blue" stroke-width="0.8" /></svg>