<?xml version="1.0" encoding="utf-8" ?>
<svg baseProfile="full" height="256" version="1.1" width="256" xmlns="http://www.w3.org/2000/svg" xmlns:ev="http://www.w3.org/2001/xml-events" xmlns:xlink="http://www.w3.org/1999/xlink"><defs /><image height="256" width="256" xlink:href="/home/nelson/Workspace/building_reconstruction/la_dataset_new/rgb/1526358216.58.jpg" /><line opacity="0.7" stroke="magenta" stroke-width="1" x1="219.0" x2="44.5" y1="86.0" y2="87.0" /><line opacity="0.7" stroke="magenta" stroke-width="1" x1="219.0" x2="219.0" y1="86.0" y2="118.0" /><line opacity="0.7" stroke="magenta" stroke-width="1" x1="201.5" x2="166.5" y1="171.0" y2="170.0" /><line opacity="0.7" stroke="magenta" stroke-width="1" x1="201.5" x2="198.0" y1="171.0" y2="145.0" /><line opacity="0.7" stroke="magenta" stroke-width="1" x1="48.0" x2="36.5" y1="120.0" y2="120.0" /><line opacity="0.7" stroke="magenta" stroke-width="1" x1="48.0" x2="211.0" y1="120.0" y2="119.5" /><line opacity="0.7" stroke="magenta" stroke-width="1" x1="166.5" x2="166.0" y1="170.0" y2="154.0" /><line opacity="0.7" stroke="magenta" stroke-width="1" x1="166.5" x2="156.5" y1="170.0" y2="170.0" /><line opacity="0.7" stroke="magenta" stroke-width="1" x1="198.0" x2="216.0" y1="145.0" y2="144.5" /><line opacity="0.7" stroke="magenta" stroke-width="1" x1="198.0" x2="207.0" y1="145.0" y2="148.0" /><line opacity="0.7" stroke="magenta" stroke-width="1" x1="113.0" x2="157.5" y1="158.0" y2="156.0" /><line opacity="0.7" stroke="magenta" stroke-width="1" x1="216.0" x2="219.0" y1="144.5" y2="118.0" /><line opacity="0.7" stroke="magenta" stroke-width="1" x1="216.0" x2="211.0" y1="144.5" y2="119.5" /><line opacity="0.7" stroke="magenta" stroke-width="1" x1="216.0" x2="207.0" y1="144.5" y2="148.0" /><line opacity="0.7" stroke="magenta" stroke-width="1" x1="219.0" x2="211.0" y1="118.0" y2="119.5" /><line opacity="0.7" stroke="magenta" stroke-width="1" x1="157.5" x2="166.0" y1="156.0" y2="154.0" /><line opacity="0.7" stroke="magenta" stroke-width="1" x1="157.5" x2="156.5" y1="156.0" y2="170.0" /><circle cx="156.5" cy="170.0" fill="white" opacity="0.8" r="1.5" stroke="blue" stroke-width="0.8" /><circle cx="219.0" cy="118.0" fill="white" opacity="0.8" r="1.5" stroke="blue" stroke-width="0.8" /><circle cx="48.0" cy="120.0" fill="white" opacity="0.8" r="1.5" stroke="blue" stroke-width="0.8" /><circle cx="166.5" cy="170.0" fill="white" opacity="0.8" r="1.5" stroke="blue" stroke-width="0.8" /><circle cx="157.5" cy="156.0" fill="white" opacity="0.8" r="1.5" stroke="blue" stroke-width="0.8" /><circle cx="36.5" cy="120.0" fill="white" opacity="0.8" r="1.5" stroke="blue" stroke-width="0.8" /><circle cx="166.0" cy="154.0" fill="white" opacity="0.8" r="1.5" stroke="blue" stroke-width="0.8" /><circle cx="44.5" cy="87.0" fill="white" opacity="0.8" r="1.5" stroke="blue" stroke-width="0.8" /><circle cx="216.0" cy="144.5" fill="white" opacity="0.8" r="1.5" stroke="blue" stroke-width="0.8" /><circle cx="219.0" cy="86.0" fill="white" opacity="0.8" r="1.5" stroke="blue" stroke-width="0.8" /><circle cx="201.5" cy="171.0" fill="white" opacity="0.8" r="1.5" stroke="blue" stroke-width="0.8" /><circle cx="198.0" cy="145.0" fill="white" opacity="0.8" r="1.5" stroke="blue" stroke-width="0.8" /><circle cx="113.0" cy="158.0" fill="white" opacity="0.8" r="1.5" stroke="blue" stroke-width="0.8" /><circle cx="207.0" cy="148.0" fill="white" opacity="0.8" r="1.5" stroke="blue" stroke-width="0.8" /><circle cx="211.0" cy="119.5" fill="white" opacity="0.8" r="1.5" stroke="blue" stroke-width="0.8" /><circle cx="54.0" cy="166.0" fill="white" opacity="0.8" r="1.5" stroke="red" stroke-width="0.8" /></svg>