<?xml version="1.0" encoding="utf-8" ?>
<svg baseProfile="full" height="256" version="1.1" width="256" xmlns="http://www.w3.org/2000/svg" xmlns:ev="http://www.w3.org/2001/xml-events" xmlns:xlink="http://www.w3.org/1999/xlink"><defs /><image height="256" width="256" xlink:href="/home/nelson/Workspace/building_reconstruction/la_dataset_new/rgb/1526401916.02.jpg" /><line opacity="0.7" stroke="magenta" stroke-width="1" x1="73.0" x2="73.0" y1="59.0" y2="199.0" /><line opacity="0.7" stroke="magenta" stroke-width="1" x1="73.0" x2="140.0" y1="59.0" y2="156.5" /><line opacity="0.7" stroke="magenta" stroke-width="1" x1="73.0" x2="115.0" y1="59.0" y2="90.0" /><line opacity="0.7" stroke="magenta" stroke-width="1" x1="73.0" x2="139.0" y1="59.0" y2="89.0" /><line opacity="0.7" stroke="magenta" stroke-width="1" x1="73.0" x2="183.0" y1="59.0" y2="57.0" /><line opacity="0.7" stroke="magenta" stroke-width="1" x1="73.0" x2="144.0" y1="59.0" y2="136.0" /><line opacity="0.7" stroke="magenta" stroke-width="1" x1="73.0" x2="113.5" y1="59.0" y2="57.0" /><line opacity="0.7" stroke="magenta" stroke-width="1" x1="73.0" x2="71.0" y1="59.0" y2="118.0" /><line opacity="0.7" stroke="magenta" stroke-width="1" x1="73.0" x2="72.0" y1="59.0" y2="142.0" /><line opacity="0.7" stroke="magenta" stroke-width="1" x1="73.0" x2="114.0" y1="59.0" y2="65.0" /><line opacity="0.7" stroke="magenta" stroke-width="1" x1="73.0" x2="73.0" y1="59.0" y2="92.0" /><line opacity="0.7" stroke="magenta" stroke-width="1" x1="73.0" x2="115.0" y1="199.0" y2="90.0" /><line opacity="0.7" stroke="magenta" stroke-width="1" x1="73.0" x2="116.0" y1="199.0" y2="157.0" /><line opacity="0.7" stroke="magenta" stroke-width="1" x1="73.0" x2="183.0" y1="199.0" y2="179.5" /><line opacity="0.7" stroke="magenta" stroke-width="1" x1="73.0" x2="71.0" y1="199.0" y2="118.0" /><line opacity="0.7" stroke="magenta" stroke-width="1" x1="73.0" x2="109.0" y1="199.0" y2="190.5" /><line opacity="0.7" stroke="magenta" stroke-width="1" x1="73.0" x2="72.0" y1="199.0" y2="142.0" /><line opacity="0.7" stroke="magenta" stroke-width="1" x1="73.0" x2="114.0" y1="199.0" y2="170.5" /><line opacity="0.7" stroke="magenta" stroke-width="1" x1="73.0" x2="106.0" y1="199.0" y2="170.0" /><line opacity="0.7" stroke="magenta" stroke-width="1" x1="73.0" x2="73.0" y1="199.0" y2="92.0" /><line opacity="0.7" stroke="magenta" stroke-width="1" x1="140.0" x2="115.0" y1="156.5" y2="90.0" /><line opacity="0.7" stroke="magenta" stroke-width="1" x1="140.0" x2="186.0" y1="156.5" y2="137.0" /><line opacity="0.7" stroke="magenta" stroke-width="1" x1="140.0" x2="139.0" y1="156.5" y2="89.0" /><line opacity="0.7" stroke="magenta" stroke-width="1" x1="140.0" x2="183.0" y1="156.5" y2="57.0" /><line opacity="0.7" stroke="magenta" stroke-width="1" x1="140.0" x2="144.0" y1="156.5" y2="136.0" /><line opacity="0.7" stroke="magenta" stroke-width="1" x1="140.0" x2="113.5" y1="156.5" y2="57.0" /><line opacity="0.7" stroke="magenta" stroke-width="1" x1="140.0" x2="183.0" y1="156.5" y2="179.5" /><line opacity="0.7" stroke="magenta" stroke-width="1" x1="140.0" x2="71.0" y1="156.5" y2="118.0" /><line opacity="0.7" stroke="magenta" stroke-width="1" x1="140.0" x2="109.0" y1="156.5" y2="190.5" /><line opacity="0.7" stroke="magenta" stroke-width="1" x1="140.0" x2="72.0" y1="156.5" y2="142.0" /><line opacity="0.7" stroke="magenta" stroke-width="1" x1="140.0" x2="114.0" y1="156.5" y2="170.5" /><line opacity="0.7" stroke="magenta" stroke-width="1" x1="140.0" x2="106.0" y1="156.5" y2="170.0" /><line opacity="0.7" stroke="magenta" stroke-width="1" x1="140.0" x2="114.0" y1="156.5" y2="65.0" /><line opacity="0.7" stroke="magenta" stroke-width="1" x1="140.0" x2="73.0" y1="156.5" y2="92.0" /><line opacity="0.7" stroke="magenta" stroke-width="1" x1="115.0" x2="186.0" y1="90.0" y2="137.0" /><line opacity="0.7" stroke="magenta" stroke-width="1" x1="115.0" x2="139.0" y1="90.0" y2="89.0" /><line opacity="0.7" stroke="magenta" stroke-width="1" x1="115.0" x2="183.0" y1="90.0" y2="57.0" /><line opacity="0.7" stroke="magenta" stroke-width="1" x1="115.0" x2="116.0" y1="90.0" y2="157.0" /><line opacity="0.7" stroke="magenta" stroke-width="1" x1="115.0" x2="144.0" y1="90.0" y2="136.0" /><line opacity="0.7" stroke="magenta" stroke-width="1" x1="115.0" x2="113.5" y1="90.0" y2="57.0" /><line opacity="0.7" stroke="magenta" stroke-width="1" x1="115.0" x2="71.0" y1="90.0" y2="118.0" /><line opacity="0.7" stroke="magenta" stroke-width="1" x1="115.0" x2="72.0" y1="90.0" y2="142.0" /><line opacity="0.7" stroke="magenta" stroke-width="1" x1="115.0" x2="114.0" y1="90.0" y2="170.5" /><line opacity="0.7" stroke="magenta" stroke-width="1" x1="115.0" x2="106.0" y1="90.0" y2="170.0" /><line opacity="0.7" stroke="magenta" stroke-width="1" x1="115.0" x2="114.0" y1="90.0" y2="65.0" /><line opacity="0.7" stroke="magenta" stroke-width="1" x1="115.0" x2="73.0" y1="90.0" y2="92.0" /><line opacity="0.7" stroke="magenta" stroke-width="1" x1="186.0" x2="139.0" y1="137.0" y2="89.0" /><line opacity="0.7" stroke="magenta" stroke-width="1" x1="186.0" x2="183.0" y1="137.0" y2="57.0" /><line opacity="0.7" stroke="magenta" stroke-width="1" x1="186.0" x2="116.0" y1="137.0" y2="157.0" /><line opacity="0.7" stroke="magenta" stroke-width="1" x1="186.0" x2="144.0" y1="137.0" y2="136.0" /><line opacity="0.7" stroke="magenta" stroke-width="1" x1="186.0" x2="113.5" y1="137.0" y2="57.0" /><line opacity="0.7" stroke="magenta" stroke-width="1" x1="186.0" x2="183.0" y1="137.0" y2="179.5" /><line opacity="0.7" stroke="magenta" stroke-width="1" x1="186.0" x2="71.0" y1="137.0" y2="118.0" /><line opacity="0.7" stroke="magenta" stroke-width="1" x1="186.0" x2="109.0" y1="137.0" y2="190.5" /><line opacity="0.7" stroke="magenta" stroke-width="1" x1="186.0" x2="72.0" y1="137.0" y2="142.0" /><line opacity="0.7" stroke="magenta" stroke-width="1" x1="186.0" x2="114.0" y1="137.0" y2="170.5" /><line opacity="0.7" stroke="magenta" stroke-width="1" x1="186.0" x2="106.0" y1="137.0" y2="170.0" /><line opacity="0.7" stroke="magenta" stroke-width="1" x1="186.0" x2="114.0" y1="137.0" y2="65.0" /><line opacity="0.7" stroke="magenta" stroke-width="1" x1="186.0" x2="73.0" y1="137.0" y2="92.0" /><line opacity="0.7" stroke="magenta" stroke-width="1" x1="139.0" x2="183.0" y1="89.0" y2="57.0" /><line opacity="0.7" stroke="magenta" stroke-width="1" x1="139.0" x2="116.0" y1="89.0" y2="157.0" /><line opacity="0.7" stroke="magenta" stroke-width="1" x1="139.0" x2="144.0" y1="89.0" y2="136.0" /><line opacity="0.7" stroke="magenta" stroke-width="1" x1="139.0" x2="113.5" y1="89.0" y2="57.0" /><line opacity="0.7" stroke="magenta" stroke-width="1" x1="139.0" x2="71.0" y1="89.0" y2="118.0" /><line opacity="0.7" stroke="magenta" stroke-width="1" x1="139.0" x2="72.0" y1="89.0" y2="142.0" /><line opacity="0.7" stroke="magenta" stroke-width="1" x1="139.0" x2="114.0" y1="89.0" y2="170.5" /><line opacity="0.7" stroke="magenta" stroke-width="1" x1="139.0" x2="106.0" y1="89.0" y2="170.0" /><line opacity="0.7" stroke="magenta" stroke-width="1" x1="139.0" x2="114.0" y1="89.0" y2="65.0" /><line opacity="0.7" stroke="magenta" stroke-width="1" x1="139.0" x2="73.0" y1="89.0" y2="92.0" /><line opacity="0.7" stroke="magenta" stroke-width="1" x1="183.0" x2="116.0" y1="57.0" y2="157.0" /><line opacity="0.7" stroke="magenta" stroke-width="1" x1="183.0" x2="144.0" y1="57.0" y2="136.0" /><line opacity="0.7" stroke="magenta" stroke-width="1" x1="183.0" x2="113.5" y1="57.0" y2="57.0" /><line opacity="0.7" stroke="magenta" stroke-width="1" x1="183.0" x2="183.0" y1="57.0" y2="179.5" /><line opacity="0.7" stroke="magenta" stroke-width="1" x1="183.0" x2="114.0" y1="57.0" y2="65.0" /><line opacity="0.7" stroke="magenta" stroke-width="1" x1="183.0" x2="73.0" y1="57.0" y2="92.0" /><line opacity="0.7" stroke="magenta" stroke-width="1" x1="116.0" x2="144.0" y1="157.0" y2="136.0" /><line opacity="0.7" stroke="magenta" stroke-width="1" x1="116.0" x2="113.5" y1="157.0" y2="57.0" /><line opacity="0.7" stroke="magenta" stroke-width="1" x1="116.0" x2="183.0" y1="157.0" y2="179.5" /><line opacity="0.7" stroke="magenta" stroke-width="1" x1="116.0" x2="71.0" y1="157.0" y2="118.0" /><line opacity="0.7" stroke="magenta" stroke-width="1" x1="116.0" x2="109.0" y1="157.0" y2="190.5" /><line opacity="0.7" stroke="magenta" stroke-width="1" x1="116.0" x2="72.0" y1="157.0" y2="142.0" /><line opacity="0.7" stroke="magenta" stroke-width="1" x1="116.0" x2="114.0" y1="157.0" y2="65.0" /><line opacity="0.7" stroke="magenta" stroke-width="1" x1="116.0" x2="73.0" y1="157.0" y2="92.0" /><line opacity="0.7" stroke="magenta" stroke-width="1" x1="144.0" x2="113.5" y1="136.0" y2="57.0" /><line opacity="0.7" stroke="magenta" stroke-width="1" x1="144.0" x2="183.0" y1="136.0" y2="179.5" /><line opacity="0.7" stroke="magenta" stroke-width="1" x1="144.0" x2="71.0" y1="136.0" y2="118.0" /><line opacity="0.7" stroke="magenta" stroke-width="1" x1="144.0" x2="109.0" y1="136.0" y2="190.5" /><line opacity="0.7" stroke="magenta" stroke-width="1" x1="144.0" x2="114.0" y1="136.0" y2="170.5" /><line opacity="0.7" stroke="magenta" stroke-width="1" x1="144.0" x2="106.0" y1="136.0" y2="170.0" /><line opacity="0.7" stroke="magenta" stroke-width="1" x1="144.0" x2="114.0" y1="136.0" y2="65.0" /><line opacity="0.7" stroke="magenta" stroke-width="1" x1="144.0" x2="73.0" y1="136.0" y2="92.0" /><line opacity="0.7" stroke="magenta" stroke-width="1" x1="113.5" x2="183.0" y1="57.0" y2="179.5" /><line opacity="0.7" stroke="magenta" stroke-width="1" x1="113.5" x2="72.0" y1="57.0" y2="142.0" /><line opacity="0.7" stroke="magenta" stroke-width="1" x1="113.5" x2="114.0" y1="57.0" y2="170.5" /><line opacity="0.7" stroke="magenta" stroke-width="1" x1="113.5" x2="106.0" y1="57.0" y2="170.0" /><line opacity="0.7" stroke="magenta" stroke-width="1" x1="113.5" x2="114.0" y1="57.0" y2="65.0" /><line opacity="0.7" stroke="magenta" stroke-width="1" x1="113.5" x2="73.0" y1="57.0" y2="92.0" /><line opacity="0.7" stroke="magenta" stroke-width="1" x1="183.0" x2="71.0" y1="179.5" y2="118.0" /><line opacity="0.7" stroke="magenta" stroke-width="1" x1="183.0" x2="72.0" y1="179.5" y2="142.0" /><line opacity="0.7" stroke="magenta" stroke-width="1" x1="71.0" x2="72.0" y1="118.0" y2="142.0" /><line opacity="0.7" stroke="magenta" stroke-width="1" x1="71.0" x2="106.0" y1="118.0" y2="170.0" /><line opacity="0.7" stroke="magenta" stroke-width="1" x1="71.0" x2="73.0" y1="118.0" y2="92.0" /><line opacity="0.7" stroke="magenta" stroke-width="1" x1="109.0" x2="114.0" y1="190.5" y2="170.5" /><line opacity="0.7" stroke="magenta" stroke-width="1" x1="109.0" x2="106.0" y1="190.5" y2="170.0" /><line opacity="0.7" stroke="magenta" stroke-width="1" x1="109.0" x2="114.0" y1="190.5" y2="65.0" /><line opacity="0.7" stroke="magenta" stroke-width="1" x1="109.0" x2="73.0" y1="190.5" y2="92.0" /><line opacity="0.7" stroke="magenta" stroke-width="1" x1="72.0" x2="106.0" y1="142.0" y2="170.0" /><line opacity="0.7" stroke="magenta" stroke-width="1" x1="114.0" x2="114.0" y1="170.5" y2="65.0" /><line opacity="0.7" stroke="magenta" stroke-width="1" x1="114.0" x2="73.0" y1="170.5" y2="92.0" /><line opacity="0.7" stroke="magenta" stroke-width="1" x1="106.0" x2="114.0" y1="170.0" y2="65.0" /><circle cx="73.0" cy="199.0" fill="white" opacity="0.8" r="1.5" stroke="blue" stroke-width="0.8" /><circle cx="183.0" cy="179.5" fill="white" opacity="0.8" r="1.5" stroke="blue" stroke-width="0.8" /><circle cx="114.0" cy="65.0" fill="white" opacity="0.8" r="1.5" stroke="blue" stroke-width="0.8" /><circle cx="116.0" cy="157.0" fill="white" opacity="0.8" r="1.5" stroke="blue" stroke-width="0.8" /><circle cx="186.0" cy="137.0" fill="white" opacity="0.8" r="1.5" stroke="blue" stroke-width="0.8" /><circle cx="71.0" cy="118.0" fill="white" opacity="0.8" r="1.5" stroke="blue" stroke-width="0.8" /><circle cx="140.0" cy="156.5" fill="white" opacity="0.8" r="1.5" stroke="blue" stroke-width="0.8" /><circle cx="114.0" cy="170.5" fill="white" opacity="0.8" r="1.5" stroke="blue" stroke-width="0.8" /><circle cx="106.0" cy="170.0" fill="white" opacity="0.8" r="1.5" stroke="blue" stroke-width="0.8" /><circle cx="115.0" cy="90.0" fill="white" opacity="0.8" r="1.5" stroke="blue" stroke-width="0.8" /><circle cx="72.0" cy="142.0" fill="white" opacity="0.8" r="1.5" stroke="blue" stroke-width="0.8" /><circle cx="73.0" cy="59.0" fill="white" opacity="0.8" r="1.5" stroke="blue" stroke-width="0.8" /><circle cx="144.0" cy="136.0" fill="white" opacity="0.8" r="1.5" stroke="blue" stroke-width="0.8" /><circle cx="183.0" cy="57.0" fill="white" opacity="0.8" r="1.5" stroke="blue" stroke-width="0.8" /><circle cx="109.0" cy="190.5" fill="white" opacity="0.8" r="1.5" stroke="blue" stroke-width="0.8" /><circle cx="139.0" cy="89.0" fill="white" opacity="0.8" r="1.5" stroke="blue" stroke-width="0.8" /><circle cx="113.5" cy="57.0" fill="white" opacity="0.8" r="1.5" stroke="blue" stroke-width="0.8" /><circle cx="73.0" cy="92.0" fill="white" opacity="0.8" r="1.5" stroke="blue" stroke-width="0.8" /></svg>