<?xml version="1.0" encoding="utf-8" ?>
<svg baseProfile="full" height="256" version="1.1" width="256" xmlns="http://www.w3.org/2000/svg" xmlns:ev="http://www.w3.org/2001/xml-events" xmlns:xlink="http://www.w3.org/1999/xlink"><defs /><image height="256" width="256" xlink:href="/home/nelson/Workspace/building_reconstruction/la_dataset_new/rgb/1526402219.75.jpg" /><line opacity="0.7" stroke="magenta" stroke-width="1" x1="62.0" x2="160.0" y1="183.0" y2="183.0" /><line opacity="0.7" stroke="magenta" stroke-width="1" x1="62.0" x2="88.0" y1="183.0" y2="131.5" /><line opacity="0.7" stroke="magenta" stroke-width="1" x1="62.0" x2="75.0" y1="183.0" y2="159.0" /><line opacity="0.7" stroke="magenta" stroke-width="1" x1="62.0" x2="110.0" y1="183.0" y2="165.0" /><line opacity="0.7" stroke="magenta" stroke-width="1" x1="62.0" x2="83.0" y1="183.0" y2="154.0" /><line opacity="0.7" stroke="magenta" stroke-width="1" x1="193.0" x2="105.5" y1="101.5" y2="74.5" /><line opacity="0.7" stroke="magenta" stroke-width="1" x1="193.0" x2="160.0" y1="101.5" y2="183.0" /><line opacity="0.7" stroke="magenta" stroke-width="1" x1="193.0" x2="146.5" y1="101.5" y2="137.0" /><line opacity="0.7" stroke="magenta" stroke-width="1" x1="193.0" x2="155.0" y1="101.5" y2="103.0" /><line opacity="0.7" stroke="magenta" stroke-width="1" x1="193.0" x2="160.0" y1="101.5" y2="93.0" /><line opacity="0.7" stroke="magenta" stroke-width="1" x1="193.0" x2="146.0" y1="101.5" y2="102.0" /><line opacity="0.7" stroke="magenta" stroke-width="1" x1="193.0" x2="171.5" y1="101.5" y2="185.0" /><line opacity="0.7" stroke="magenta" stroke-width="1" x1="93.0" x2="105.5" y1="112.0" y2="74.5" /><line opacity="0.7" stroke="magenta" stroke-width="1" x1="93.0" x2="88.0" y1="112.0" y2="131.5" /><line opacity="0.7" stroke="magenta" stroke-width="1" x1="93.0" x2="122.5" y1="112.0" y2="126.0" /><line opacity="0.7" stroke="magenta" stroke-width="1" x1="93.0" x2="75.0" y1="112.0" y2="159.0" /><line opacity="0.7" stroke="magenta" stroke-width="1" x1="93.0" x2="132.5" y1="112.0" y2="166.5" /><line opacity="0.7" stroke="magenta" stroke-width="1" x1="93.0" x2="155.0" y1="112.0" y2="103.0" /><line opacity="0.7" stroke="magenta" stroke-width="1" x1="93.0" x2="116.0" y1="112.0" y2="141.0" /><line opacity="0.7" stroke="magenta" stroke-width="1" x1="93.0" x2="136.0" y1="112.0" y2="129.5" /><line opacity="0.7" stroke="magenta" stroke-width="1" x1="93.0" x2="160.0" y1="112.0" y2="93.0" /><line opacity="0.7" stroke="magenta" stroke-width="1" x1="93.0" x2="110.0" y1="112.0" y2="165.0" /><line opacity="0.7" stroke="magenta" stroke-width="1" x1="93.0" x2="108.0" y1="112.0" y2="86.0" /><line opacity="0.7" stroke="magenta" stroke-width="1" x1="93.0" x2="83.0" y1="112.0" y2="154.0" /><line opacity="0.7" stroke="magenta" stroke-width="1" x1="93.0" x2="146.0" y1="112.0" y2="102.0" /><line opacity="0.7" stroke="magenta" stroke-width="1" x1="105.5" x2="88.0" y1="74.5" y2="131.5" /><line opacity="0.7" stroke="magenta" stroke-width="1" x1="105.5" x2="146.5" y1="74.5" y2="137.0" /><line opacity="0.7" stroke="magenta" stroke-width="1" x1="105.5" x2="155.0" y1="74.5" y2="103.0" /><line opacity="0.7" stroke="magenta" stroke-width="1" x1="105.5" x2="136.0" y1="74.5" y2="129.5" /><line opacity="0.7" stroke="magenta" stroke-width="1" x1="105.5" x2="160.0" y1="74.5" y2="93.0" /><line opacity="0.7" stroke="magenta" stroke-width="1" x1="105.5" x2="110.0" y1="74.5" y2="165.0" /><line opacity="0.7" stroke="magenta" stroke-width="1" x1="105.5" x2="108.0" y1="74.5" y2="86.0" /><line opacity="0.7" stroke="magenta" stroke-width="1" x1="105.5" x2="146.0" y1="74.5" y2="102.0" /><line opacity="0.7" stroke="magenta" stroke-width="1" x1="160.0" x2="88.0" y1="183.0" y2="131.5" /><line opacity="0.7" stroke="magenta" stroke-width="1" x1="160.0" x2="146.5" y1="183.0" y2="137.0" /><line opacity="0.7" stroke="magenta" stroke-width="1" x1="160.0" x2="122.5" y1="183.0" y2="126.0" /><line opacity="0.7" stroke="magenta" stroke-width="1" x1="160.0" x2="75.0" y1="183.0" y2="159.0" /><line opacity="0.7" stroke="magenta" stroke-width="1" x1="160.0" x2="132.5" y1="183.0" y2="166.5" /><line opacity="0.7" stroke="magenta" stroke-width="1" x1="160.0" x2="155.0" y1="183.0" y2="103.0" /><line opacity="0.7" stroke="magenta" stroke-width="1" x1="160.0" x2="116.0" y1="183.0" y2="141.0" /><line opacity="0.7" stroke="magenta" stroke-width="1" x1="160.0" x2="136.0" y1="183.0" y2="129.5" /><line opacity="0.7" stroke="magenta" stroke-width="1" x1="160.0" x2="160.0" y1="183.0" y2="93.0" /><line opacity="0.7" stroke="magenta" stroke-width="1" x1="160.0" x2="110.0" y1="183.0" y2="165.0" /><line opacity="0.7" stroke="magenta" stroke-width="1" x1="160.0" x2="83.0" y1="183.0" y2="154.0" /><line opacity="0.7" stroke="magenta" stroke-width="1" x1="160.0" x2="171.5" y1="183.0" y2="185.0" /><line opacity="0.7" stroke="magenta" stroke-width="1" x1="88.0" x2="146.5" y1="131.5" y2="137.0" /><line opacity="0.7" stroke="magenta" stroke-width="1" x1="88.0" x2="122.5" y1="131.5" y2="126.0" /><line opacity="0.7" stroke="magenta" stroke-width="1" x1="88.0" x2="75.0" y1="131.5" y2="159.0" /><line opacity="0.7" stroke="magenta" stroke-width="1" x1="88.0" x2="155.0" y1="131.5" y2="103.0" /><line opacity="0.7" stroke="magenta" stroke-width="1" x1="88.0" x2="116.0" y1="131.5" y2="141.0" /><line opacity="0.7" stroke="magenta" stroke-width="1" x1="88.0" x2="136.0" y1="131.5" y2="129.5" /><line opacity="0.7" stroke="magenta" stroke-width="1" x1="88.0" x2="110.0" y1="131.5" y2="165.0" /><line opacity="0.7" stroke="magenta" stroke-width="1" x1="88.0" x2="108.0" y1="131.5" y2="86.0" /><line opacity="0.7" stroke="magenta" stroke-width="1" x1="88.0" x2="83.0" y1="131.5" y2="154.0" /><line opacity="0.7" stroke="magenta" stroke-width="1" x1="88.0" x2="146.0" y1="131.5" y2="102.0" /><line opacity="0.7" stroke="magenta" stroke-width="1" x1="88.0" x2="171.5" y1="131.5" y2="185.0" /><line opacity="0.7" stroke="magenta" stroke-width="1" x1="146.5" x2="122.5" y1="137.0" y2="126.0" /><line opacity="0.7" stroke="magenta" stroke-width="1" x1="146.5" x2="75.0" y1="137.0" y2="159.0" /><line opacity="0.7" stroke="magenta" stroke-width="1" x1="146.5" x2="132.5" y1="137.0" y2="166.5" /><line opacity="0.7" stroke="magenta" stroke-width="1" x1="146.5" x2="155.0" y1="137.0" y2="103.0" /><line opacity="0.7" stroke="magenta" stroke-width="1" x1="146.5" x2="116.0" y1="137.0" y2="141.0" /><line opacity="0.7" stroke="magenta" stroke-width="1" x1="146.5" x2="136.0" y1="137.0" y2="129.5" /><line opacity="0.7" stroke="magenta" stroke-width="1" x1="146.5" x2="160.0" y1="137.0" y2="93.0" /><line opacity="0.7" stroke="magenta" stroke-width="1" x1="146.5" x2="110.0" y1="137.0" y2="165.0" /><line opacity="0.7" stroke="magenta" stroke-width="1" x1="146.5" x2="108.0" y1="137.0" y2="86.0" /><line opacity="0.7" stroke="magenta" stroke-width="1" x1="146.5" x2="83.0" y1="137.0" y2="154.0" /><line opacity="0.7" stroke="magenta" stroke-width="1" x1="146.5" x2="171.5" y1="137.0" y2="185.0" /><line opacity="0.7" stroke="magenta" stroke-width="1" x1="122.5" x2="75.0" y1="126.0" y2="159.0" /><line opacity="0.7" stroke="magenta" stroke-width="1" x1="122.5" x2="132.5" y1="126.0" y2="166.5" /><line opacity="0.7" stroke="magenta" stroke-width="1" x1="122.5" x2="116.0" y1="126.0" y2="141.0" /><line opacity="0.7" stroke="magenta" stroke-width="1" x1="122.5" x2="136.0" y1="126.0" y2="129.5" /><line opacity="0.7" stroke="magenta" stroke-width="1" x1="122.5" x2="160.0" y1="126.0" y2="93.0" /><line opacity="0.7" stroke="magenta" stroke-width="1" x1="122.5" x2="110.0" y1="126.0" y2="165.0" /><line opacity="0.7" stroke="magenta" stroke-width="1" x1="122.5" x2="108.0" y1="126.0" y2="86.0" /><line opacity="0.7" stroke="magenta" stroke-width="1" x1="122.5" x2="83.0" y1="126.0" y2="154.0" /><line opacity="0.7" stroke="magenta" stroke-width="1" x1="122.5" x2="146.0" y1="126.0" y2="102.0" /><line opacity="0.7" stroke="magenta" stroke-width="1" x1="122.5" x2="171.5" y1="126.0" y2="185.0" /><line opacity="0.7" stroke="magenta" stroke-width="1" x1="75.0" x2="132.5" y1="159.0" y2="166.5" /><line opacity="0.7" stroke="magenta" stroke-width="1" x1="75.0" x2="155.0" y1="159.0" y2="103.0" /><line opacity="0.7" stroke="magenta" stroke-width="1" x1="75.0" x2="116.0" y1="159.0" y2="141.0" /><line opacity="0.7" stroke="magenta" stroke-width="1" x1="75.0" x2="136.0" y1="159.0" y2="129.5" /><line opacity="0.7" stroke="magenta" stroke-width="1" x1="75.0" x2="160.0" y1="159.0" y2="93.0" /><line opacity="0.7" stroke="magenta" stroke-width="1" x1="75.0" x2="110.0" y1="159.0" y2="165.0" /><line opacity="0.7" stroke="magenta" stroke-width="1" x1="75.0" x2="108.0" y1="159.0" y2="86.0" /><line opacity="0.7" stroke="magenta" stroke-width="1" x1="75.0" x2="83.0" y1="159.0" y2="154.0" /><line opacity="0.7" stroke="magenta" stroke-width="1" x1="75.0" x2="146.0" y1="159.0" y2="102.0" /><line opacity="0.7" stroke="magenta" stroke-width="1" x1="75.0" x2="171.5" y1="159.0" y2="185.0" /><line opacity="0.7" stroke="magenta" stroke-width="1" x1="132.5" x2="155.0" y1="166.5" y2="103.0" /><line opacity="0.7" stroke="magenta" stroke-width="1" x1="132.5" x2="136.0" y1="166.5" y2="129.5" /><line opacity="0.7" stroke="magenta" stroke-width="1" x1="132.5" x2="160.0" y1="166.5" y2="93.0" /><line opacity="0.7" stroke="magenta" stroke-width="1" x1="132.5" x2="108.0" y1="166.5" y2="86.0" /><line opacity="0.7" stroke="magenta" stroke-width="1" x1="132.5" x2="83.0" y1="166.5" y2="154.0" /><line opacity="0.7" stroke="magenta" stroke-width="1" x1="132.5" x2="146.0" y1="166.5" y2="102.0" /><line opacity="0.7" stroke="magenta" stroke-width="1" x1="132.5" x2="171.5" y1="166.5" y2="185.0" /><line opacity="0.7" stroke="magenta" stroke-width="1" x1="155.0" x2="116.0" y1="103.0" y2="141.0" /><line opacity="0.7" stroke="magenta" stroke-width="1" x1="155.0" x2="110.0" y1="103.0" y2="165.0" /><line opacity="0.7" stroke="magenta" stroke-width="1" x1="155.0" x2="108.0" y1="103.0" y2="86.0" /><line opacity="0.7" stroke="magenta" stroke-width="1" x1="155.0" x2="83.0" y1="103.0" y2="154.0" /><line opacity="0.7" stroke="magenta" stroke-width="1" x1="155.0" x2="171.5" y1="103.0" y2="185.0" /><line opacity="0.7" stroke="magenta" stroke-width="1" x1="116.0" x2="136.0" y1="141.0" y2="129.5" /><line opacity="0.7" stroke="magenta" stroke-width="1" x1="116.0" x2="160.0" y1="141.0" y2="93.0" /><line opacity="0.7" stroke="magenta" stroke-width="1" x1="116.0" x2="110.0" y1="141.0" y2="165.0" /><line opacity="0.7" stroke="magenta" stroke-width="1" x1="116.0" x2="108.0" y1="141.0" y2="86.0" /><line opacity="0.7" stroke="magenta" stroke-width="1" x1="116.0" x2="146.0" y1="141.0" y2="102.0" /><line opacity="0.7" stroke="magenta" stroke-width="1" x1="116.0" x2="171.5" y1="141.0" y2="185.0" /><line opacity="0.7" stroke="magenta" stroke-width="1" x1="136.0" x2="160.0" y1="129.5" y2="93.0" /><line opacity="0.7" stroke="magenta" stroke-width="1" x1="136.0" x2="110.0" y1="129.5" y2="165.0" /><line opacity="0.7" stroke="magenta" stroke-width="1" x1="136.0" x2="83.0" y1="129.5" y2="154.0" /><line opacity="0.7" stroke="magenta" stroke-width="1" x1="136.0" x2="171.5" y1="129.5" y2="185.0" /><line opacity="0.7" stroke="magenta" stroke-width="1" x1="160.0" x2="110.0" y1="93.0" y2="165.0" /><line opacity="0.7" stroke="magenta" stroke-width="1" x1="160.0" x2="83.0" y1="93.0" y2="154.0" /><line opacity="0.7" stroke="magenta" stroke-width="1" x1="160.0" x2="171.5" y1="93.0" y2="185.0" /><line opacity="0.7" stroke="magenta" stroke-width="1" x1="110.0" x2="146.0" y1="165.0" y2="102.0" /><line opacity="0.7" stroke="magenta" stroke-width="1" x1="110.0" x2="171.5" y1="165.0" y2="185.0" /><line opacity="0.7" stroke="magenta" stroke-width="1" x1="108.0" x2="83.0" y1="86.0" y2="154.0" /><line opacity="0.7" stroke="magenta" stroke-width="1" x1="108.0" x2="171.5" y1="86.0" y2="185.0" /><line opacity="0.7" stroke="magenta" stroke-width="1" x1="83.0" x2="146.0" y1="154.0" y2="102.0" /><line opacity="0.7" stroke="magenta" stroke-width="1" x1="83.0" x2="171.5" y1="154.0" y2="185.0" /><line opacity="0.7" stroke="magenta" stroke-width="1" x1="146.0" x2="171.5" y1="102.0" y2="185.0" /><circle cx="93.0" cy="112.0" fill="white" opacity="0.8" r="1.5" stroke="blue" stroke-width="0.8" /><circle cx="136.0" cy="129.5" fill="white" opacity="0.8" r="1.5" stroke="blue" stroke-width="0.8" /><circle cx="83.0" cy="154.0" fill="white" opacity="0.8" r="1.5" stroke="blue" stroke-width="0.8" /><circle cx="171.5" cy="185.0" fill="white" opacity="0.8" r="1.5" stroke="blue" stroke-width="0.8" /><circle cx="132.5" cy="166.5" fill="white" opacity="0.8" r="1.5" stroke="blue" stroke-width="0.8" /><circle cx="146.0" cy="102.0" fill="white" opacity="0.8" r="1.5" stroke="blue" stroke-width="0.8" /><circle cx="108.0" cy="86.0" fill="white" opacity="0.8" r="1.5" stroke="blue" stroke-width="0.8" /><circle cx="160.0" cy="93.0" fill="white" opacity="0.8" r="1.5" stroke="blue" stroke-width="0.8" /><circle cx="146.5" cy="137.0" fill="white" opacity="0.8" r="1.5" stroke="blue" stroke-width="0.8" /><circle cx="88.0" cy="131.5" fill="white" opacity="0.8" r="1.5" stroke="blue" stroke-width="0.8" /><circle cx="155.0" cy="103.0" fill="white" opacity="0.8" r="1.5" stroke="blue" stroke-width="0.8" /><circle cx="122.5" cy="126.0" fill="white" opacity="0.8" r="1.5" stroke="blue" stroke-width="0.8" /><circle cx="193.0" cy="101.5" fill="white" opacity="0.8" r="1.5" stroke="blue" stroke-width="0.8" /><circle cx="116.0" cy="141.0" fill="white" opacity="0.8" r="1.5" stroke="blue" stroke-width="0.8" /><circle cx="160.0" cy="183.0" fill="white" opacity="0.8" r="1.5" stroke="blue" stroke-width="0.8" /><circle cx="110.0" cy="165.0" fill="white" opacity="0.8" r="1.5" stroke="blue" stroke-width="0.8" /><circle cx="75.0" cy="159.0" fill="white" opacity="0.8" r="1.5" stroke="blue" stroke-width="0.8" /><circle cx="62.0" cy="183.0" fill="white" opacity="0.8" r="1.5" stroke="blue" stroke-width="0.8" /><circle cx="105.5" cy="74.5" fill="white" opacity="0.8" r="1.5" stroke="blue" stroke-width="0.8" /></svg>