<?xml version="1.0" encoding="utf-8" ?>
<svg baseProfile="full" height="256" version="1.1" width="256" xmlns="http://www.w3.org/2000/svg" xmlns:ev="http://www.w3.org/2001/xml-events" xmlns:xlink="http://www.w3.org/1999/xlink"><defs /><image height="256" width="256" xlink:href="/home/nelson/Workspace/building_reconstruction/la_dataset_new/rgb/1526402731.0.jpg" /><line opacity="0.7" stroke="magenta" stroke-width="1" x1="68.0" x2="70.0" y1="23.0" y2="209.0" /><line opacity="0.7" stroke="magenta" stroke-width="1" x1="68.0" x2="184.0" y1="23.0" y2="23.0" /><line opacity="0.7" stroke="magenta" stroke-width="1" x1="68.0" x2="106.0" y1="23.0" y2="23.0" /><line opacity="0.7" stroke="magenta" stroke-width="1" x1="70.0" x2="102.0" y1="209.0" y2="208.0" /><line opacity="0.7" stroke="magenta" stroke-width="1" x1="70.0" x2="112.0" y1="209.0" y2="234.5" /><line opacity="0.7" stroke="magenta" stroke-width="1" x1="184.0" x2="183.0" y1="23.0" y2="188.0" /><line opacity="0.7" stroke="magenta" stroke-width="1" x1="184.0" x2="106.0" y1="23.0" y2="23.0" /><line opacity="0.7" stroke="magenta" stroke-width="1" x1="166.0" x2="166.0" y1="50.0" y2="101.5" /><line opacity="0.7" stroke="magenta" stroke-width="1" x1="166.0" x2="121.5" y1="50.0" y2="49.5" /><line opacity="0.7" stroke="magenta" stroke-width="1" x1="186.5" x2="183.0" y1="235.0" y2="188.0" /><line opacity="0.7" stroke="magenta" stroke-width="1" x1="186.5" x2="112.0" y1="235.0" y2="234.5" /><line opacity="0.7" stroke="magenta" stroke-width="1" x1="166.0" x2="122.0" y1="101.5" y2="103.0" /><line opacity="0.7" stroke="magenta" stroke-width="1" x1="166.0" x2="184.0" y1="101.5" y2="106.0" /><line opacity="0.7" stroke="magenta" stroke-width="1" x1="183.0" x2="141.0" y1="188.0" y2="182.5" /><line opacity="0.7" stroke="magenta" stroke-width="1" x1="122.0" x2="121.5" y1="103.0" y2="49.5" /><line opacity="0.7" stroke="magenta" stroke-width="1" x1="102.0" x2="108.0" y1="208.0" y2="203.0" /><line opacity="0.7" stroke="magenta" stroke-width="1" x1="141.0" x2="142.0" y1="182.5" y2="191.0" /><line opacity="0.7" stroke="magenta" stroke-width="1" x1="112.0" x2="106.0" y1="234.5" y2="23.0" /><circle cx="102.0" cy="208.0" fill="white" opacity="0.8" r="1.5" stroke="blue" stroke-width="0.8" /><circle cx="121.5" cy="49.5" fill="white" opacity="0.8" r="1.5" stroke="blue" stroke-width="0.8" /><circle cx="184.0" cy="23.0" fill="white" opacity="0.8" r="1.5" stroke="blue" stroke-width="0.8" /><circle cx="70.0" cy="209.0" fill="white" opacity="0.8" r="1.5" stroke="blue" stroke-width="0.8" /><circle cx="68.0" cy="23.0" fill="white" opacity="0.8" r="1.5" stroke="blue" stroke-width="0.8" /><circle cx="141.0" cy="182.5" fill="white" opacity="0.8" r="1.5" stroke="blue" stroke-width="0.8" /><circle cx="108.0" cy="203.0" fill="white" opacity="0.8" r="1.5" stroke="blue" stroke-width="0.8" /><circle cx="122.0" cy="103.0" fill="white" opacity="0.8" r="1.5" stroke="blue" stroke-width="0.8" /><circle cx="184.0" cy="106.0" fill="white" opacity="0.8" r="1.5" stroke="blue" stroke-width="0.8" /><circle cx="106.0" cy="23.0" fill="white" opacity="0.8" r="1.5" stroke="blue" stroke-width="0.8" /><circle cx="112.0" cy="234.5" fill="white" opacity="0.8" r="1.5" stroke="blue" stroke-width="0.8" /><circle cx="142.0" cy="191.0" fill="white" opacity="0.8" r="1.5" stroke="blue" stroke-width="0.8" /><circle cx="186.5" cy="235.0" fill="white" opacity="0.8" r="1.5" stroke="blue" stroke-width="0.8" /><circle cx="183.0" cy="188.0" fill="white" opacity="0.8" r="1.5" stroke="blue" stroke-width="0.8" /><circle cx="166.0" cy="50.0" fill="white" opacity="0.8" r="1.5" stroke="blue" stroke-width="0.8" /><circle cx="166.0" cy="101.5" fill="white" opacity="0.8" r="1.5" stroke="blue" stroke-width="0.8" /></svg>