<?xml version="1.0" encoding="utf-8" ?>
<svg baseProfile="full" height="256" version="1.1" width="256" xmlns="http://www.w3.org/2000/svg" xmlns:ev="http://www.w3.org/2001/xml-events" xmlns:xlink="http://www.w3.org/1999/xlink"><defs /><image height="256" width="256" xlink:href="/home/nelson/Workspace/building_reconstruction/la_dataset_new/rgb/1526320751.08.jpg" /><line opacity="0.7" stroke="magenta" stroke-width="1" x1="196.0" x2="226.0" y1="237.0" y2="171.5" /><line opacity="0.7" stroke="magenta" stroke-width="1" x1="196.0" x2="29.5" y1="237.0" y2="145.0" /><line opacity="0.7" stroke="magenta" stroke-width="1" x1="226.0" x2="154.5" y1="171.5" y2="54.0" /><line opacity="0.7" stroke="magenta" stroke-width="1" x1="93.5" x2="29.5" y1="23.0" y2="145.0" /><line opacity="0.7" stroke="magenta" stroke-width="1" x1="93.5" x2="154.5" y1="23.0" y2="54.0" /><line opacity="0.7" stroke="magenta" stroke-width="1" x1="93.5" x2="92.0" y1="23.0" y2="101.0" /><line opacity="0.7" stroke="magenta" stroke-width="1" x1="105.5" x2="29.5" y1="148.5" y2="145.0" /><line opacity="0.7" stroke="magenta" stroke-width="1" x1="76.5" x2="63.0" y1="92.0" y2="121.0" /><line opacity="0.7" stroke="magenta" stroke-width="1" x1="76.5" x2="92.0" y1="92.0" y2="101.0" /><line opacity="0.7" stroke="magenta" stroke-width="1" x1="76.5" x2="107.0" y1="92.0" y2="71.0" /><line opacity="0.7" stroke="magenta" stroke-width="1" x1="29.5" x2="30.5" y1="145.0" y2="216.0" /><line opacity="0.7" stroke="magenta" stroke-width="1" x1="138.0" x2="107.0" y1="83.5" y2="71.0" /><line opacity="0.7" stroke="magenta" stroke-width="1" x1="138.0" x2="124.5" y1="83.5" y2="113.0" /><line opacity="0.7" stroke="magenta" stroke-width="1" x1="92.0" x2="107.0" y1="101.0" y2="71.0" /><circle cx="107.0" cy="71.0" fill="white" opacity="0.8" r="1.5" stroke="blue" stroke-width="0.8" /><circle cx="124.5" cy="113.0" fill="white" opacity="0.8" r="1.5" stroke="blue" stroke-width="0.8" /><circle cx="226.0" cy="171.5" fill="white" opacity="0.8" r="1.5" stroke="blue" stroke-width="0.8" /><circle cx="105.5" cy="148.5" fill="white" opacity="0.8" r="1.5" stroke="blue" stroke-width="0.8" /><circle cx="30.5" cy="216.0" fill="white" opacity="0.8" r="1.5" stroke="blue" stroke-width="0.8" /><circle cx="92.0" cy="101.0" fill="white" opacity="0.8" r="1.5" stroke="blue" stroke-width="0.8" /><circle cx="196.0" cy="237.0" fill="white" opacity="0.8" r="1.5" stroke="blue" stroke-width="0.8" /><circle cx="29.5" cy="145.0" fill="white" opacity="0.8" r="1.5" stroke="blue" stroke-width="0.8" /><circle cx="93.5" cy="23.0" fill="white" opacity="0.8" r="1.5" stroke="blue" stroke-width="0.8" /><circle cx="138.0" cy="83.5" fill="white" opacity="0.8" r="1.5" stroke="blue" stroke-width="0.8" /><circle cx="154.5" cy="54.0" fill="white" opacity="0.8" r="1.5" stroke="blue" stroke-width="0.8" /><circle cx="63.0" cy="121.0" fill="white" opacity="0.8" r="1.5" stroke="blue" stroke-width="0.8" /><circle cx="76.5" cy="92.0" fill="white" opacity="0.8" r="1.5" stroke="blue" stroke-width="0.8" /></svg>