<?xml version="1.0" encoding="utf-8" ?>
<svg baseProfile="full" height="256" version="1.1" width="256" xmlns="http://www.w3.org/2000/svg" xmlns:ev="http://www.w3.org/2001/xml-events" xmlns:xlink="http://www.w3.org/1999/xlink"><defs /><image height="256" width="256" xlink:href="/home/nelson/Workspace/building_reconstruction/la_dataset_new/rgb/1526320236.44.jpg" /><line opacity="0.7" stroke="magenta" stroke-width="1" x1="178.5" x2="77.0" y1="53.0" y2="53.0" /><line opacity="0.7" stroke="magenta" stroke-width="1" x1="178.5" x2="178.0" y1="53.0" y2="202.0" /><line opacity="0.7" stroke="magenta" stroke-width="1" x1="79.0" x2="77.0" y1="204.0" y2="53.0" /><line opacity="0.7" stroke="magenta" stroke-width="1" x1="79.0" x2="178.0" y1="204.0" y2="202.0" /><line opacity="0.7" stroke="magenta" stroke-width="1" x1="118.0" x2="143.0" y1="90.0" y2="90.0" /><line opacity="0.7" stroke="magenta" stroke-width="1" x1="118.0" x2="118.5" y1="90.0" y2="165.0" /><line opacity="0.7" stroke="magenta" stroke-width="1" x1="118.0" x2="111.0" y1="90.0" y2="79.5" /><line opacity="0.7" stroke="magenta" stroke-width="1" x1="118.0" x2="118.0" y1="90.0" y2="129.0" /><line opacity="0.7" stroke="magenta" stroke-width="1" x1="139.0" x2="141.5" y1="166.0" y2="130.0" /><line opacity="0.7" stroke="magenta" stroke-width="1" x1="139.0" x2="118.5" y1="166.0" y2="165.0" /><line opacity="0.7" stroke="magenta" stroke-width="1" x1="143.0" x2="141.5" y1="90.0" y2="130.0" /><line opacity="0.7" stroke="magenta" stroke-width="1" x1="141.5" x2="118.0" y1="130.0" y2="129.0" /><line opacity="0.7" stroke="magenta" stroke-width="1" x1="118.5" x2="118.0" y1="165.0" y2="129.0" /><line opacity="0.7" stroke="magenta" stroke-width="1" x1="178.0" x2="169.5" y1="202.0" y2="202.0" /><circle cx="79.0" cy="204.0" fill="white" opacity="0.8" r="1.5" stroke="blue" stroke-width="0.8" /><circle cx="118.5" cy="165.0" fill="white" opacity="0.8" r="1.5" stroke="blue" stroke-width="0.8" /><circle cx="141.5" cy="130.0" fill="white" opacity="0.8" r="1.5" stroke="blue" stroke-width="0.8" /><circle cx="178.5" cy="53.0" fill="white" opacity="0.8" r="1.5" stroke="blue" stroke-width="0.8" /><circle cx="118.0" cy="129.0" fill="white" opacity="0.8" r="1.5" stroke="blue" stroke-width="0.8" /><circle cx="77.0" cy="53.0" fill="white" opacity="0.8" r="1.5" stroke="blue" stroke-width="0.8" /><circle cx="118.0" cy="90.0" fill="white" opacity="0.8" r="1.5" stroke="blue" stroke-width="0.8" /><circle cx="111.0" cy="79.5" fill="white" opacity="0.8" r="1.5" stroke="blue" stroke-width="0.8" /><circle cx="139.0" cy="166.0" fill="white" opacity="0.8" r="1.5" stroke="blue" stroke-width="0.8" /><circle cx="169.5" cy="202.0" fill="white" opacity="0.8" r="1.5" stroke="blue" stroke-width="0.8" /><circle cx="178.0" cy="202.0" fill="white" opacity="0.8" r="1.5" stroke="blue" stroke-width="0.8" /><circle cx="143.0" cy="90.0" fill="white" opacity="0.8" r="1.5" stroke="blue" stroke-width="0.8" /></svg>