<?xml version="1.0" encoding="utf-8" ?>
<svg baseProfile="full" height="256" version="1.1" width="256" xmlns="http://www.w3.org/2000/svg" xmlns:ev="http://www.w3.org/2001/xml-events" xmlns:xlink="http://www.w3.org/1999/xlink"><defs /><image height="256" width="256" xlink:href="/home/nelson/Workspace/building_reconstruction/la_dataset_new/rgb/1525714067.3.jpg" /><line opacity="0.7" stroke="magenta" stroke-width="1" x1="59.0" x2="96.0" y1="93.0" y2="93.0" /><line opacity="0.7" stroke="magenta" stroke-width="1" x1="59.0" x2="59.0" y1="93.0" y2="133.0" /><line opacity="0.7" stroke="magenta" stroke-width="1" x1="60.5" x2="59.0" y1="164.0" y2="133.0" /><line opacity="0.7" stroke="magenta" stroke-width="1" x1="196.0" x2="196.0" y1="94.0" y2="162.0" /><line opacity="0.7" stroke="magenta" stroke-width="1" x1="196.0" x2="156.5" y1="162.0" y2="163.0" /><line opacity="0.7" stroke="magenta" stroke-width="1" x1="96.0" x2="97.0" y1="93.0" y2="110.5" /><line opacity="0.7" stroke="magenta" stroke-width="1" x1="156.5" x2="156.5" y1="163.0" y2="150.5" /><line opacity="0.7" stroke="magenta" stroke-width="1" x1="156.0" x2="155.0" y1="93.5" y2="107.0" /><line opacity="0.7" stroke="magenta" stroke-width="1" x1="155.0" x2="186.5" y1="107.0" y2="107.5" /><circle cx="156.5" cy="150.5" fill="white" opacity="0.8" r="1.5" stroke="blue" stroke-width="0.8" /><circle cx="59.0" cy="93.0" fill="white" opacity="0.8" r="1.5" stroke="blue" stroke-width="0.8" /><circle cx="155.0" cy="107.0" fill="white" opacity="0.8" r="1.5" stroke="blue" stroke-width="0.8" /><circle cx="59.0" cy="133.0" fill="white" opacity="0.8" r="1.5" stroke="blue" stroke-width="0.8" /><circle cx="186.5" cy="107.5" fill="white" opacity="0.8" r="1.5" stroke="blue" stroke-width="0.8" /><circle cx="60.5" cy="164.0" fill="white" opacity="0.8" r="1.5" stroke="blue" stroke-width="0.8" /><circle cx="196.0" cy="94.0" fill="white" opacity="0.8" r="1.5" stroke="blue" stroke-width="0.8" /><circle cx="156.5" cy="163.0" fill="white" opacity="0.8" r="1.5" stroke="blue" stroke-width="0.8" /><circle cx="96.0" cy="93.0" fill="white" opacity="0.8" r="1.5" stroke="blue" stroke-width="0.8" /><circle cx="196.0" cy="162.0" fill="white" opacity="0.8" r="1.5" stroke="blue" stroke-width="0.8" /><circle cx="97.0" cy="110.5" fill="white" opacity="0.8" r="1.5" stroke="blue" stroke-width="0.8" /><circle cx="156.0" cy="93.5" fill="white" opacity="0.8" r="1.5" stroke="blue" stroke-width="0.8" /><circle cx="181.0" cy="96.0" fill="white" opacity="0.8" r="1.5" stroke="red" stroke-width="0.8" /><circle cx="196.5" cy="127.5" fill="white" opacity="0.8" r="1.5" stroke="red" stroke-width="0.8" /><circle cx="88.5" cy="127.0" fill="white" opacity="0.8" r="1.5" stroke="red" stroke-width="0.8" /><circle cx="99.0" cy="146.5" fill="white" opacity="0.8" r="1.5" stroke="red" stroke-width="0.8" /><circle cx="179.0" cy="108.0" fill="white" opacity="0.8" r="1.5" stroke="red" stroke-width="0.8" /><circle cx="81.0" cy="163.5" fill="white" opacity="0.8" r="1.5" stroke="red" stroke-width="0.8" /><circle cx="86.0" cy="139.0" fill="white" opacity="0.8" r="1.5" stroke="red" stroke-width="0.8" /><circle cx="83.0" cy="114.0" fill="white" opacity="0.8" r="1.5" stroke="red" stroke-width="0.8" /><circle cx="101.0" cy="125.5" fill="white" opacity="0.8" r="1.5" stroke="red" stroke-width="0.8" /></svg>