<?xml version="1.0" encoding="utf-8" ?>
<svg baseProfile="full" height="256" version="1.1" width="256" xmlns="http://www.w3.org/2000/svg" xmlns:ev="http://www.w3.org/2001/xml-events" xmlns:xlink="http://www.w3.org/1999/xlink"><defs /><image height="256" width="256" xlink:href="/home/nelson/Workspace/building_reconstruction/la_dataset_new/rgb/1525713333.3.jpg" /><line opacity="0.7" stroke="magenta" stroke-width="1" x1="173.0" x2="173.0" y1="103.0" y2="152.0" /><line opacity="0.7" stroke="magenta" stroke-width="1" x1="173.0" x2="150.0" y1="103.0" y2="125.0" /><line opacity="0.7" stroke="magenta" stroke-width="1" x1="173.0" x2="83.0" y1="152.0" y2="152.0" /><line opacity="0.7" stroke="magenta" stroke-width="1" x1="173.0" x2="158.5" y1="152.0" y2="138.5" /><line opacity="0.7" stroke="magenta" stroke-width="1" x1="83.0" x2="82.5" y1="152.0" y2="124.0" /><line opacity="0.7" stroke="magenta" stroke-width="1" x1="158.5" x2="95.0" y1="138.5" y2="138.5" /><line opacity="0.7" stroke="magenta" stroke-width="1" x1="82.5" x2="150.0" y1="124.0" y2="125.0" /><circle cx="173.0" cy="103.0" fill="white" opacity="0.8" r="1.5" stroke="blue" stroke-width="0.8" /><circle cx="158.5" cy="138.5" fill="white" opacity="0.8" r="1.5" stroke="blue" stroke-width="0.8" /><circle cx="173.0" cy="152.0" fill="white" opacity="0.8" r="1.5" stroke="blue" stroke-width="0.8" /><circle cx="83.0" cy="152.0" fill="white" opacity="0.8" r="1.5" stroke="blue" stroke-width="0.8" /><circle cx="150.0" cy="125.0" fill="white" opacity="0.8" r="1.5" stroke="blue" stroke-width="0.8" /><circle cx="95.0" cy="138.5" fill="white" opacity="0.8" r="1.5" stroke="blue" stroke-width="0.8" /><circle cx="82.5" cy="124.0" fill="white" opacity="0.8" r="1.5" stroke="blue" stroke-width="0.8" /><circle cx="122.5" cy="152.0" fill="white" opacity="0.8" r="1.5" stroke="red" stroke-width="0.8" /><circle cx="116.0" cy="113.5" fill="white" opacity="0.8" r="1.5" stroke="red" stroke-width="0.8" /><circle cx="144.0" cy="104.0" fill="white" opacity="0.8" r="1.5" stroke="red" stroke-width="0.8" /><circle cx="147.5" cy="131.0" fill="white" opacity="0.8" r="1.5" stroke="red" stroke-width="0.8" /><circle cx="82.5" cy="113.5" fill="white" opacity="0.8" r="1.5" stroke="red" stroke-width="0.8" /></svg>