<?xml version="1.0" encoding="utf-8" ?>
<svg baseProfile="full" height="256" version="1.1" width="256" xmlns="http://www.w3.org/2000/svg" xmlns:ev="http://www.w3.org/2001/xml-events" xmlns:xlink="http://www.w3.org/1999/xlink"><defs /><image height="256" width="256" xlink:href="/home/nelson/Workspace/building_reconstruction/la_dataset_new/rgb/1525711238.48.jpg" /><line opacity="0.7" stroke="magenta" stroke-width="1" x1="114.5" x2="161.5" y1="212.5" y2="122.5" /><line opacity="0.7" stroke="magenta" stroke-width="1" x1="233.5" x2="162.5" y1="106.0" y2="233.0" /><line opacity="0.7" stroke="magenta" stroke-width="1" x1="233.5" x2="86.5" y1="106.0" y2="24.0" /><line opacity="0.7" stroke="magenta" stroke-width="1" x1="56.5" x2="103.5" y1="171.5" y2="78.5" /><line opacity="0.7" stroke="magenta" stroke-width="1" x1="139.5" x2="146.5" y1="110.0" y2="97.0" /><line opacity="0.7" stroke="magenta" stroke-width="1" x1="137.0" x2="162.5" y1="233.0" y2="233.0" /><line opacity="0.7" stroke="magenta" stroke-width="1" x1="165.5" x2="181.5" y1="106.5" y2="91.0" /><circle cx="139.5" cy="110.0" fill="white" opacity="0.8" r="1.5" stroke="blue" stroke-width="0.8" /><circle cx="114.5" cy="212.5" fill="white" opacity="0.8" r="1.5" stroke="blue" stroke-width="0.8" /><circle cx="56.5" cy="171.5" fill="white" opacity="0.8" r="1.5" stroke="blue" stroke-width="0.8" /><circle cx="165.5" cy="106.5" fill="white" opacity="0.8" r="1.5" stroke="blue" stroke-width="0.8" /><circle cx="86.5" cy="24.0" fill="white" opacity="0.8" r="1.5" stroke="blue" stroke-width="0.8" /><circle cx="162.5" cy="233.0" fill="white" opacity="0.8" r="1.5" stroke="blue" stroke-width="0.8" /><circle cx="181.5" cy="91.0" fill="white" opacity="0.8" r="1.5" stroke="blue" stroke-width="0.8" /><circle cx="137.0" cy="233.0" fill="white" opacity="0.8" r="1.5" stroke="blue" stroke-width="0.8" /><circle cx="103.5" cy="78.5" fill="white" opacity="0.8" r="1.5" stroke="blue" stroke-width="0.8" /><circle cx="233.5" cy="106.0" fill="white" opacity="0.8" r="1.5" stroke="blue" stroke-width="0.8" /><circle cx="161.5" cy="122.5" fill="white" opacity="0.8" r="1.5" stroke="blue" stroke-width="0.8" /><circle cx="146.5" cy="97.0" fill="white" opacity="0.8" r="1.5" stroke="blue" stroke-width="0.8" /><circle cx="17.5" cy="153.0" fill="white" opacity="0.8" r="1.5" stroke="red" stroke-width="0.8" /><circle cx="70.0" cy="61.0" fill="white" opacity="0.8" r="1.5" stroke="red" stroke-width="0.8" /><circle cx="172.0" cy="231.0" fill="white" opacity="0.8" r="1.5" stroke="red" stroke-width="0.8" /><circle cx="116.0" cy="223.5" fill="white" opacity="0.8" r="1.5" stroke="red" stroke-width="0.8" /><circle cx="183.0" cy="77.5" fill="white" opacity="0.8" r="1.5" stroke="red" stroke-width="0.8" /><circle cx="143.5" cy="230.0" fill="white" opacity="0.8" r="1.5" stroke="red" stroke-width="0.8" /></svg>